<svg width="21" height="21" viewBox="0 0 21 21" fill="none" xmlns="http://www.w3.org/2000/svg">
<path d="M9.49268 5.30996H11.5073V10.31H19.0165C19.2836 10.31 19.5399 10.2065 19.7288 10.0223C19.9177 9.83815 20.0238 9.58833 20.0238 9.32785V6.29212C20.0238 6.03163 19.9177 5.78182 19.7288 5.59763C19.5399 5.41344 19.2836 5.30996 19.0165 5.30996H16.2774C16.6484 4.56514 16.7348 3.71578 16.5211 2.91444C16.3074 2.1131 15.8077 1.41229 15.1117 0.937895C14.4157 0.4635 13.5691 0.246605 12.7238 0.326169C11.8786 0.405733 11.0901 0.776542 10.5 1.37199C9.90893 0.779805 9.12112 0.411863 8.27739 0.333927C7.43366 0.25599 6.58901 0.473139 5.89438 0.946562C5.19976 1.41998 4.70044 2.11883 4.48568 2.91818C4.27092 3.71753 4.35471 4.56531 4.72207 5.30996H1.98352C1.71636 5.30996 1.46015 5.41344 1.27124 5.59763C1.08232 5.78182 0.976196 6.03163 0.976196 6.29212V9.32785C0.976196 9.58833 1.08232 9.83815 1.27124 10.0223C1.36477 10.1135 1.47582 10.1859 1.59804 10.2352C1.72025 10.2846 1.85124 10.31 1.98352 10.31H9.49268V5.30996ZM11.5073 3.7921C11.5073 3.49189 11.5987 3.19843 11.7697 2.94881C11.9408 2.6992 12.1839 2.50465 12.4684 2.38977C12.7529 2.27489 13.0658 2.24483 13.3678 2.30339C13.6698 2.36196 13.9472 2.50653 14.165 2.7188C14.3827 2.93108 14.5309 3.20153 14.591 3.49597C14.6511 3.79041 14.6202 4.0956 14.5024 4.37296C14.3846 4.65032 14.1851 4.88737 13.9291 5.05415C13.673 5.22094 13.372 5.30996 13.0641 5.30996H11.5073V3.7921ZM6.37913 3.7921C6.37913 3.38953 6.54314 3.00346 6.83509 2.7188C7.12705 2.43414 7.52303 2.27423 7.9359 2.27423C8.34879 2.27423 8.74476 2.43414 9.03671 2.7188C9.32866 3.00346 9.49268 3.38953 9.49268 3.7921V5.30996H7.9359C7.52303 5.30996 7.12705 5.15005 6.83509 4.86539C6.54314 4.58073 6.37913 4.19466 6.37913 3.7921ZM11.5073 20.3101H17.5512C17.8185 20.3101 18.0747 20.2065 18.2635 20.0224C18.4525 19.8382 18.5586 19.5884 18.5586 19.3279V11.7385H11.5073V20.3101ZM2.4414 19.3279C2.4414 19.5884 2.54753 19.8382 2.73643 20.0224C2.92535 20.2065 3.18157 20.3101 3.44872 20.3101H9.49268V11.7385H2.4414V19.3279Z" fill="#E30019"/>
</svg>
