<svg width="11" height="11" viewBox="0 0 11 11" fill="none" xmlns="http://www.w3.org/2000/svg">
<mask id="mask0_1_1612" style="mask-type:luminance" maskUnits="userSpaceOnUse" x="0" y="0" width="11" height="11">
<path d="M10.5 0.810059H0.5V10.8101H10.5V0.810059Z" fill="white"/>
</mask>
<g mask="url(#mask0_1_1612)">
<path d="M2.16661 5.39355C2.27281 5.39367 2.37496 5.43434 2.45218 5.50724C2.52941 5.58014 2.57588 5.67978 2.5821 5.7858C2.58832 5.89182 2.55383 5.99621 2.48567 6.07765C2.41751 6.15909 2.32082 6.21143 2.21536 6.22397L2.16661 6.22689H1.74995C1.64375 6.22677 1.5416 6.1861 1.46438 6.1132C1.38715 6.0403 1.34068 5.94066 1.33446 5.83464C1.32823 5.72862 1.36273 5.62423 1.43089 5.54279C1.49905 5.46135 1.59574 5.40901 1.7012 5.39647L1.74995 5.39355H2.16661ZM5.49995 1.64355C5.602 1.64357 5.7005 1.68104 5.77677 1.74885C5.85303 1.81667 5.90175 1.91011 5.91369 2.01147L5.91661 2.06022V2.47689C5.91649 2.58309 5.87583 2.68523 5.80293 2.76246C5.73002 2.83968 5.63038 2.88615 5.52436 2.89237C5.41835 2.8986 5.31395 2.86411 5.23251 2.79594C5.15108 2.72778 5.09874 2.63109 5.08619 2.52564L5.08328 2.47689V2.06022C5.08328 1.94971 5.12718 1.84373 5.20532 1.76559C5.28346 1.68745 5.38944 1.64355 5.49995 1.64355ZM9.24995 5.39355C9.35614 5.39367 9.45829 5.43434 9.53551 5.50724C9.61274 5.58014 9.65921 5.67978 9.66543 5.7858C9.67166 5.89182 9.63716 5.99621 9.569 6.07765C9.50084 6.15909 9.40415 6.21143 9.2987 6.22397L9.24995 6.22689H8.83328C8.72708 6.22677 8.62493 6.1861 8.54771 6.1132C8.47049 6.0403 8.42401 5.94066 8.41779 5.83464C8.41157 5.72862 8.44606 5.62423 8.51422 5.54279C8.58238 5.46135 8.67907 5.40901 8.78453 5.39647L8.83328 5.39355H9.24995ZM2.5387 2.84897C2.61044 2.77723 2.7059 2.73413 2.80716 2.72777C2.90842 2.7214 3.00853 2.7522 3.0887 2.81439L3.12786 2.84897L3.41953 3.14064C3.49426 3.21562 3.53764 3.31623 3.54087 3.42205C3.5441 3.52786 3.50694 3.63093 3.43692 3.71034C3.36691 3.78974 3.2693 3.83951 3.16391 3.84955C3.05853 3.85959 2.95327 3.82914 2.86953 3.76439L2.83036 3.7298L2.5387 3.43814C2.46058 3.36 2.4167 3.25404 2.4167 3.14355C2.4167 3.03307 2.46058 2.92711 2.5387 2.84897ZM7.87203 2.84897C7.94701 2.77424 8.04763 2.73086 8.15344 2.72762C8.25925 2.72439 8.36233 2.76156 8.44173 2.83157C8.52113 2.90159 8.57091 2.9992 8.58095 3.10458C8.59098 3.20997 8.56053 3.31522 8.49578 3.39897L8.46119 3.43814L8.16953 3.7298C8.09455 3.80453 7.99393 3.84792 7.88812 3.85115C7.78231 3.85438 7.67923 3.81721 7.59983 3.7472C7.52043 3.67719 7.47065 3.57957 7.46061 3.47419C7.45057 3.3688 7.48102 3.26355 7.54578 3.1798L7.58036 3.14064L7.87203 2.84897ZM6.33328 8.31022C6.44379 8.31022 6.54977 8.35412 6.62791 8.43226C6.70605 8.5104 6.74995 8.61638 6.74995 8.72689C6.74995 9.05841 6.61825 9.37635 6.38383 9.61077C6.14941 9.84519 5.83147 9.97689 5.49995 9.97689C5.16842 9.97689 4.85048 9.84519 4.61606 9.61077C4.38164 9.37635 4.24995 9.05841 4.24995 8.72689C4.24996 8.62483 4.28743 8.52633 4.35524 8.45006C4.42306 8.3738 4.51651 8.32508 4.61786 8.31314L4.66661 8.31022H6.33328ZM5.49995 3.31022C6.02465 3.31022 6.53606 3.47531 6.96172 3.78211C7.38738 4.08892 7.70573 4.52187 7.87165 5.01965C8.03758 5.51743 8.04268 6.0548 7.88623 6.55564C7.72978 7.05648 7.41971 7.4954 6.99995 7.81022C6.94252 7.85335 6.87491 7.88091 6.80369 7.89022L6.74995 7.89355H4.24995C4.15979 7.89355 4.07207 7.86431 3.99995 7.81022C3.58018 7.4954 3.27011 7.05648 3.11366 6.55564C2.95721 6.0548 2.96231 5.51743 3.12824 5.01965C3.29416 4.52187 3.61251 4.08892 4.03817 3.78211C4.46383 3.47531 4.97524 3.31022 5.49995 3.31022Z" fill="#6D6E72"/>
</g>
</svg>
