<svg width="11" height="11" viewBox="0 0 11 11" fill="none" xmlns="http://www.w3.org/2000/svg">
<mask id="mask0_1_1960" style="mask-type:luminance" maskUnits="userSpaceOnUse" x="0" y="0" width="11" height="11">
<path d="M10.47 0.439941H0.470001V10.4399H10.47V0.439941Z" fill="white"/>
</mask>
<g mask="url(#mask0_1_1960)">
<path d="M5.47 1.27344V4.8151" stroke="#6D6E72" stroke-width="0.833333" stroke-linecap="round" stroke-linejoin="round"/>
<path d="M5.46992 1.27344C3.16867 1.27344 1.30325 3.13885 1.30325 5.4401C1.30325 7.74135 3.16867 9.60677 5.46992 9.60677C7.77117 9.60677 9.63659 7.74135 9.63659 5.4401C9.63659 4.47635 9.3095 3.58906 8.76013 2.88322" stroke="#6D6E72" stroke-width="0.833333" stroke-linecap="round"/>
<path d="M5.46992 3.14844C4.20429 3.14844 3.17825 4.17448 3.17825 5.44011C3.17825 6.70573 4.20429 7.73178 5.46992 7.73178C6.73554 7.73178 7.76159 6.70573 7.76159 5.44011C7.76159 4.91011 7.58159 4.42198 7.2795 4.03386" stroke="#6D6E72" stroke-width="0.833333" stroke-linecap="round"/>
<path d="M5.47 6.06494C5.81518 6.06494 6.095 5.78512 6.095 5.43994C6.095 5.09476 5.81518 4.81494 5.47 4.81494C5.12482 4.81494 4.845 5.09476 4.845 5.43994C4.845 5.78512 5.12482 6.06494 5.47 6.06494Z" stroke="#6D6E72" stroke-width="0.833333"/>
</g>
</svg>
