<svg width="11" height="11" viewBox="0 0 11 11" fill="none" xmlns="http://www.w3.org/2000/svg">
<mask id="mask0_1_2013" style="mask-type:luminance" maskUnits="userSpaceOnUse" x="0" y="0" width="11" height="11">
<path d="M10.11 0.439941H0.110001V10.4399H10.11V0.439941Z" fill="white"/>
</mask>
<g mask="url(#mask0_1_2013)">
<path d="M9.06165 3.40865L5.30249 1.32531C5.24072 1.29128 5.17134 1.27344 5.10082 1.27344C5.0303 1.27344 4.96092 1.29128 4.89915 1.32531L1.15832 3.39198C1.09333 3.42797 1.03915 3.48067 1.00138 3.54463C0.963608 3.6086 0.943624 3.6815 0.943497 3.75578C0.943369 3.83006 0.963103 3.90303 1.00065 3.96712C1.03821 4.03122 1.09221 4.08411 1.15707 4.12031L4.91624 6.22031C4.97812 6.25509 5.0479 6.27339 5.11889 6.27346C5.18988 6.27353 5.25969 6.25538 5.32165 6.22073L9.06249 4.1374C9.12747 4.10126 9.1816 4.04839 9.21926 3.98427C9.25691 3.92016 9.27673 3.84713 9.27664 3.77278C9.27656 3.69842 9.25658 3.62544 9.21877 3.56141C9.18097 3.49738 9.12672 3.44464 9.06165 3.40865Z" fill="#6D6E72"/>
<path d="M5.11011 7.04652L1.56219 5.07568L1.15761 5.80402L4.90761 7.88735C4.96949 7.92172 5.03911 7.93975 5.1099 7.93975C5.18069 7.93975 5.25031 7.92172 5.31219 7.88735L9.06219 5.80402L8.65761 5.07568L5.11011 7.04652Z" fill="#6D6E72"/>
<path d="M5.11011 8.71302L1.56219 6.74219L1.15761 7.47052L4.90761 9.55386C4.96949 9.58822 5.03911 9.60626 5.1099 9.60626C5.18069 9.60626 5.25031 9.58822 5.31219 9.55386L9.06219 7.47052L8.65761 6.74219L5.11011 8.71302Z" fill="#6D6E72"/>
</g>
</svg>
