<svg width="11" height="11" viewBox="0 0 11 11" fill="none" xmlns="http://www.w3.org/2000/svg">
<mask id="mask0_1_1440" style="mask-type:luminance" maskUnits="userSpaceOnUse" x="0" y="0" width="11" height="11">
<path d="M10.14 0.810059H0.140015V10.8101H10.14V0.810059Z" fill="white"/>
</mask>
<g mask="url(#mask0_1_1440)">
<path d="M5.14001 1.64331V5.18498" stroke="#6D6E72" stroke-width="0.833333" stroke-linecap="round" stroke-linejoin="round"/>
<path d="M5.13993 1.64331C2.83868 1.64331 0.973267 3.50873 0.973267 5.80998C0.973267 8.11123 2.83868 9.97665 5.13993 9.97665C7.44118 9.97665 9.3066 8.11123 9.3066 5.80998C9.3066 4.84623 8.97951 3.95894 8.43014 3.2531" stroke="#6D6E72" stroke-width="0.833333" stroke-linecap="round"/>
<path d="M5.13994 3.51831C3.87431 3.51831 2.84827 4.54435 2.84827 5.80998C2.84827 7.0756 3.87431 8.10165 5.13994 8.10165C6.40556 8.10165 7.43161 7.0756 7.43161 5.80998C7.43161 5.27998 7.25161 4.79185 6.94952 4.40373" stroke="#6D6E72" stroke-width="0.833333" stroke-linecap="round"/>
<path d="M5.14001 6.43506C5.48519 6.43506 5.76501 6.15524 5.76501 5.81006C5.76501 5.46488 5.48519 5.18506 5.14001 5.18506C4.79483 5.18506 4.51501 5.46488 4.51501 5.81006C4.51501 6.15524 4.79483 6.43506 5.14001 6.43506Z" stroke="#6D6E72" stroke-width="0.833333"/>
</g>
</svg>
