<svg width="11" height="11" viewBox="0 0 11 11" fill="none" xmlns="http://www.w3.org/2000/svg">
<mask id="mask0_1_2041" style="mask-type:luminance" maskUnits="userSpaceOnUse" x="0" y="0" width="11" height="11">
<path d="M10.72 0.439941H0.720001V10.4399H10.72V0.439941Z" fill="white"/>
</mask>
<g mask="url(#mask0_1_2041)">
<path d="M5.72 1.27344V4.8151" stroke="#6D6E72" stroke-width="0.833333" stroke-linecap="round" stroke-linejoin="round"/>
<path d="M5.71992 1.27344C3.41867 1.27344 1.55325 3.13885 1.55325 5.4401C1.55325 7.74135 3.41867 9.60677 5.71992 9.60677C8.02117 9.60677 9.88659 7.74135 9.88659 5.4401C9.88659 4.47635 9.5595 3.58906 9.01013 2.88322" stroke="#6D6E72" stroke-width="0.833333" stroke-linecap="round"/>
<path d="M5.71992 3.14844C4.45429 3.14844 3.42825 4.17448 3.42825 5.44011C3.42825 6.70573 4.45429 7.73178 5.71992 7.73178C6.98554 7.73178 8.01159 6.70573 8.01159 5.44011C8.01159 4.91011 7.83159 4.42198 7.5295 4.03386" stroke="#6D6E72" stroke-width="0.833333" stroke-linecap="round"/>
<path d="M5.72 6.06494C6.06518 6.06494 6.345 5.78512 6.345 5.43994C6.345 5.09476 6.06518 4.81494 5.72 4.81494C5.37482 4.81494 5.095 5.09476 5.095 5.43994C5.095 5.78512 5.37482 6.06494 5.72 6.06494Z" stroke="#6D6E72" stroke-width="0.833333"/>
</g>
</svg>
