<svg width="11" height="11" viewBox="0 0 11 11" fill="none" xmlns="http://www.w3.org/2000/svg">
<mask id="mask0_1_1972" style="mask-type:luminance" maskUnits="userSpaceOnUse" x="0" y="0" width="11" height="11">
<path d="M10.5 0.439941H0.5V10.4399H10.5V0.439941Z" fill="white"/>
</mask>
<g mask="url(#mask0_1_1972)">
<path d="M9.45165 3.40865L5.69249 1.32531C5.63072 1.29128 5.56134 1.27344 5.49082 1.27344C5.4203 1.27344 5.35092 1.29128 5.28915 1.32531L1.54832 3.39198C1.48333 3.42797 1.42915 3.48067 1.39138 3.54463C1.35361 3.6086 1.33362 3.6815 1.3335 3.75578C1.33337 3.83006 1.3531 3.90303 1.39065 3.96712C1.4282 4.03122 1.48221 4.08411 1.54707 4.12031L5.30624 6.22031C5.36812 6.25509 5.4379 6.27339 5.50889 6.27346C5.57988 6.27353 5.64969 6.25538 5.71165 6.22073L9.45249 4.1374C9.51747 4.10126 9.5716 4.04839 9.60926 3.98427C9.64691 3.92016 9.66673 3.84713 9.66664 3.77278C9.66656 3.69842 9.64658 3.62544 9.60877 3.56141C9.57097 3.49738 9.51672 3.44464 9.45165 3.40865Z" fill="#6D6E72"/>
<path d="M5.50011 7.04652L1.95219 5.07568L1.54761 5.80402L5.29761 7.88735C5.35949 7.92172 5.42911 7.93975 5.4999 7.93975C5.57069 7.93975 5.64031 7.92172 5.70219 7.88735L9.45219 5.80402L9.04761 5.07568L5.50011 7.04652Z" fill="#6D6E72"/>
<path d="M5.50011 8.71302L1.95219 6.74219L1.54761 7.47052L5.29761 9.55386C5.35949 9.58822 5.42911 9.60626 5.4999 9.60626C5.57069 9.60626 5.64031 9.58822 5.70219 9.55386L9.45219 7.47052L9.04761 6.74219L5.50011 8.71302Z" fill="#6D6E72"/>
</g>
</svg>
