<svg width="11" height="11" viewBox="0 0 11 11" fill="none" xmlns="http://www.w3.org/2000/svg">
<mask id="mask0_1_2215" style="mask-type:luminance" maskUnits="userSpaceOnUse" x="0" y="0" width="11" height="11">
<path d="M10.11 0.439941H0.109985V10.4399H10.11V0.439941Z" fill="white"/>
</mask>
<g mask="url(#mask0_1_2215)">
<path d="M9.06164 3.40865L5.30247 1.32531C5.2407 1.29128 5.17132 1.27344 5.1008 1.27344C5.03028 1.27344 4.96091 1.29128 4.89914 1.32531L1.15831 3.39198C1.09332 3.42797 1.03914 3.48067 1.00136 3.54463C0.963593 3.6086 0.943609 3.6815 0.943482 3.75578C0.943354 3.83006 0.963088 3.90303 1.00064 3.96712C1.03819 4.03122 1.09219 4.08411 1.15706 4.12031L4.91623 6.22031C4.97811 6.25509 5.04789 6.27339 5.11888 6.27346C5.18987 6.27353 5.25967 6.25538 5.32163 6.22073L9.06248 4.1374C9.12746 4.10126 9.18158 4.04839 9.21924 3.98427C9.25689 3.92016 9.27672 3.84713 9.27663 3.77278C9.27655 3.69842 9.25657 3.62544 9.21876 3.56141C9.18096 3.49738 9.12671 3.44464 9.06164 3.40865Z" fill="#6D6E72"/>
<path d="M5.11009 7.04652L1.56217 5.07568L1.15759 5.80402L4.90759 7.88735C4.96947 7.92172 5.03909 7.93975 5.10988 7.93975C5.18067 7.93975 5.25029 7.92172 5.31217 7.88735L9.06217 5.80402L8.65759 5.07568L5.11009 7.04652Z" fill="#6D6E72"/>
<path d="M5.11009 8.71302L1.56217 6.74219L1.15759 7.47052L4.90759 9.55386C4.96947 9.58822 5.03909 9.60626 5.10988 9.60626C5.18067 9.60626 5.25029 9.58822 5.31217 9.55386L9.06217 7.47052L8.65759 6.74219L5.11009 8.71302Z" fill="#6D6E72"/>
</g>
</svg>
