<svg width="11" height="8" viewBox="0 0 11 8" fill="none" xmlns="http://www.w3.org/2000/svg">
<mask id="mask0_1_846" style="mask-type:luminance" maskUnits="userSpaceOnUse" x="0" y="0" width="11" height="8">
<path d="M10.5 0.310059H0.5V7.31006H10.5V0.310059Z" fill="white"/>
</mask>
<g mask="url(#mask0_1_846)">
<path d="M1.30714 5.84784C0.983498 5.79806 0.711453 5.59895 0.575431 5.16962C0.528526 5.01406 0.505074 4.82739 0.505074 4.65317C0.500384 3.60784 0.500384 2.55628 0.505074 1.50473C0.505074 0.764281 0.847476 0.310059 1.40095 0.310059C4.13078 0.310059 6.86061 0.310059 9.59044 0.310059C10.1486 0.310059 10.491 0.758059 10.491 1.4985C10.4957 2.53762 10.491 3.57673 10.491 4.62206C10.491 5.29406 10.2565 5.67984 9.7593 5.82917C9.73115 5.83539 9.70301 5.85406 9.6608 5.8665C9.6608 6.17139 9.6608 6.47628 9.6608 6.77495C9.6608 7.18562 9.57637 7.30384 9.2668 7.30384C7.91127 7.31006 6.56042 7.30384 5.20489 7.30384C4.06511 7.30384 2.92534 7.30384 1.78556 7.30384C1.39157 7.30384 1.3259 7.2105 1.32121 6.68784C1.32121 6.43273 1.32121 6.17762 1.32121 5.9225C1.33059 5.91006 1.32121 5.89139 1.30714 5.84784ZM1.62609 4.49762C1.62609 4.60962 1.69175 4.70295 1.78087 4.70295C2.28744 4.71539 3.8259 4.72784 4.68894 4.73406C4.84372 4.73406 4.94691 4.6345 4.94691 4.47895C4.94691 3.74473 4.9516 2.38828 4.9516 1.76606C4.9516 1.58562 4.83903 1.4425 4.70301 1.4425H1.78556C1.70113 1.4425 1.63078 1.53584 1.63078 1.64784L1.62609 4.49762ZM9.36999 4.4105V1.75362C9.36999 1.58562 9.2668 1.44873 9.14016 1.44873H6.30245C6.17581 1.44873 6.07262 1.58562 6.07262 1.75362V4.4105C6.07262 4.5785 6.17581 4.71539 6.30245 4.71539H9.14016C9.2668 4.71539 9.36999 4.5785 9.36999 4.4105ZM2.43284 5.86028C2.24522 5.86028 2.08106 5.86028 1.90751 5.86028C1.90751 6.10295 1.90751 6.32073 1.90751 6.55095C2.08575 6.55095 2.25461 6.55095 2.43284 6.55095C2.43284 6.32073 2.43284 6.09673 2.43284 5.86028ZM3.53978 5.86028C3.35686 5.86028 3.188 5.86028 3.01446 5.86028C3.01446 6.10295 3.01446 6.32073 3.01446 6.55717C3.19269 6.55717 3.35686 6.55717 3.53978 6.55717C3.53978 6.32073 3.53978 6.10295 3.53978 5.86028ZM4.1214 6.55095C4.3137 6.55095 4.47787 6.55095 4.65142 6.55095C4.65142 6.30828 4.65142 6.0905 4.65142 5.8665C4.46849 5.8665 4.29963 5.8665 4.1214 5.8665C4.1214 6.10917 4.1214 6.32073 4.1214 6.55095ZM5.76305 5.86028C5.57543 5.86028 5.41127 5.86028 5.23772 5.86028C5.23772 6.10295 5.23772 6.32073 5.23772 6.55717C5.41596 6.55717 5.58481 6.55717 5.76305 6.55717C5.76305 6.32073 5.76305 6.10295 5.76305 5.86028ZM6.87468 5.86028C6.68706 5.86028 6.51821 5.86028 6.34466 5.86028C6.34466 6.10295 6.34466 6.32073 6.34466 6.55095C6.52759 6.55095 6.70114 6.55095 6.87468 6.55095C6.87468 6.3145 6.87468 6.10295 6.87468 5.86028ZM7.46568 5.85406C7.46568 6.10295 7.46568 6.33317 7.46568 6.55095C7.65329 6.55095 7.81746 6.55095 7.98162 6.55095C7.98162 6.30828 7.98162 6.0905 7.98162 5.85406C7.80339 5.85406 7.64391 5.85406 7.46568 5.85406ZM8.56324 6.54473C8.74147 6.54473 8.91033 6.54473 9.08856 6.54473C9.08856 6.30828 9.08856 6.08428 9.08856 5.86028C8.90564 5.86028 8.73678 5.86028 8.56324 5.86028C8.56324 6.09673 8.56324 6.30828 8.56324 6.54473Z" fill="#6D6E72"/>
<path d="M2.77955 3.9812H2.39025C2.27768 3.9812 2.18387 3.85676 2.18387 3.70743V2.45054C2.18387 2.29498 2.27768 2.17676 2.39025 2.17676H2.77955C2.89212 2.17676 2.98593 2.29498 2.98593 2.45054V3.70743C2.98593 3.85676 2.89212 3.9812 2.77955 3.9812Z" fill="#6D6E72"/>
<path d="M4.16792 3.9812H3.7786C3.66603 3.9812 3.57224 3.85676 3.57224 3.70743V2.44431C3.57224 2.29498 3.66134 2.17676 3.7786 2.17676H4.16792C4.28049 2.17676 4.37429 2.3012 4.37429 2.45054V3.71365C4.37429 3.85676 4.28049 3.9812 4.16792 3.9812Z" fill="#6D6E72"/>
<path d="M6.82741 2.16431H7.2214C7.33397 2.16431 7.42778 2.28875 7.42778 2.43809V3.7012C7.42778 3.85053 7.33397 3.97497 7.2214 3.97497H6.82741C6.71484 3.97497 6.62103 3.85053 6.62103 3.7012V2.43809C6.62572 2.28875 6.71484 2.16431 6.82741 2.16431Z" fill="#6D6E72"/>
<path d="M8.61444 3.97497H8.21575C8.10318 3.97497 8.00937 3.85053 8.00937 3.7012V2.43809C8.00937 2.28875 8.10318 2.16431 8.21575 2.16431H8.61444C8.72701 2.16431 8.82082 2.28875 8.82082 2.43809V3.7012C8.82082 3.85675 8.72701 3.97497 8.61444 3.97497Z" fill="#6D6E72"/>
</g>
</svg>
