<svg width="11" height="11" viewBox="0 0 11 11" fill="none" xmlns="http://www.w3.org/2000/svg">
<mask id="mask0_1_1839" style="mask-type:luminance" maskUnits="userSpaceOnUse" x="0" y="0" width="11" height="11">
<path d="M10.59 0.439941H0.589996V10.4399H10.59V0.439941Z" fill="white"/>
</mask>
<g mask="url(#mask0_1_1839)">
<path d="M5.59 1.27344V4.8151" stroke="#6D6E72" stroke-width="0.833333" stroke-linecap="round" stroke-linejoin="round"/>
<path d="M5.58992 1.27344C3.28867 1.27344 1.42325 3.13885 1.42325 5.4401C1.42325 7.74135 3.28867 9.60677 5.58992 9.60677C7.89117 9.60677 9.75659 7.74135 9.75659 5.4401C9.75659 4.47635 9.4295 3.58906 8.88013 2.88322" stroke="#6D6E72" stroke-width="0.833333" stroke-linecap="round"/>
<path d="M5.58992 3.14844C4.32429 3.14844 3.29825 4.17448 3.29825 5.44011C3.29825 6.70573 4.32429 7.73178 5.58992 7.73178C6.85554 7.73178 7.88159 6.70573 7.88159 5.44011C7.88159 4.91011 7.70159 4.42198 7.3995 4.03386" stroke="#6D6E72" stroke-width="0.833333" stroke-linecap="round"/>
<path d="M5.59 6.06494C5.93518 6.06494 6.215 5.78512 6.215 5.43994C6.215 5.09476 5.93518 4.81494 5.59 4.81494C5.24482 4.81494 4.965 5.09476 4.965 5.43994C4.965 5.78512 5.24482 6.06494 5.59 6.06494Z" stroke="#6D6E72" stroke-width="0.833333"/>
</g>
</svg>
