<svg width="11" height="11" viewBox="0 0 11 11" fill="none" xmlns="http://www.w3.org/2000/svg">
<mask id="mask0_1_1185" style="mask-type:luminance" maskUnits="userSpaceOnUse" x="0" y="0" width="11" height="11">
<path d="M10.5 0.810059H0.5V10.8101H10.5V0.810059Z" fill="white"/>
</mask>
<g mask="url(#mask0_1_1185)">
<path d="M5.5 1.64331V5.18498" stroke="#6D6E72" stroke-width="0.833333" stroke-linecap="round" stroke-linejoin="round"/>
<path d="M5.49992 1.64331C3.19867 1.64331 1.33325 3.50873 1.33325 5.80998C1.33325 8.11123 3.19867 9.97665 5.49992 9.97665C7.80117 9.97665 9.66659 8.11123 9.66659 5.80998C9.66659 4.84623 9.3395 3.95894 8.79013 3.2531" stroke="#6D6E72" stroke-width="0.833333" stroke-linecap="round"/>
<path d="M5.49992 3.51831C4.23429 3.51831 3.20825 4.54435 3.20825 5.80998C3.20825 7.0756 4.23429 8.10165 5.49992 8.10165C6.76554 8.10165 7.79159 7.0756 7.79159 5.80998C7.79159 5.27998 7.61159 4.79185 7.3095 4.40373" stroke="#6D6E72" stroke-width="0.833333" stroke-linecap="round"/>
<path d="M5.5 6.43506C5.84518 6.43506 6.125 6.15524 6.125 5.81006C6.125 5.46488 5.84518 5.18506 5.5 5.18506C5.15482 5.18506 4.875 5.46488 4.875 5.81006C4.875 6.15524 5.15482 6.43506 5.5 6.43506Z" stroke="#6D6E72" stroke-width="0.833333"/>
</g>
</svg>
