<svg width="11" height="11" viewBox="0 0 11 11" fill="none" xmlns="http://www.w3.org/2000/svg">
<mask id="mask0_1_1330" style="mask-type:luminance" maskUnits="userSpaceOnUse" x="0" y="0" width="11" height="11">
<path d="M10.67 0.810059H0.669998V10.8101H10.67V0.810059Z" fill="white"/>
</mask>
<g mask="url(#mask0_1_1330)">
<path d="M5.67 1.64331V5.18498" stroke="#6D6E72" stroke-width="0.833333" stroke-linecap="round" stroke-linejoin="round"/>
<path d="M5.66992 1.64331C3.36867 1.64331 1.50325 3.50873 1.50325 5.80998C1.50325 8.11123 3.36867 9.97665 5.66992 9.97665C7.97117 9.97665 9.83659 8.11123 9.83659 5.80998C9.83659 4.84623 9.5095 3.95894 8.96013 3.2531" stroke="#6D6E72" stroke-width="0.833333" stroke-linecap="round"/>
<path d="M5.66992 3.51831C4.40429 3.51831 3.37825 4.54435 3.37825 5.80998C3.37825 7.0756 4.40429 8.10165 5.66992 8.10165C6.93554 8.10165 7.96159 7.0756 7.96159 5.80998C7.96159 5.27998 7.78159 4.79185 7.4795 4.40373" stroke="#6D6E72" stroke-width="0.833333" stroke-linecap="round"/>
<path d="M5.67 6.43506C6.01518 6.43506 6.295 6.15524 6.295 5.81006C6.295 5.46488 6.01518 5.18506 5.67 5.18506C5.32482 5.18506 5.045 5.46488 5.045 5.81006C5.045 6.15524 5.32482 6.43506 5.67 6.43506Z" stroke="#6D6E72" stroke-width="0.833333"/>
</g>
</svg>
