<svg width="11" height="8" viewBox="0 0 11 8" fill="none" xmlns="http://www.w3.org/2000/svg">
<mask id="mask0_1_794" style="mask-type:luminance" maskUnits="userSpaceOnUse" x="0" y="0" width="11" height="8">
<path d="M10.97 0.310059H0.970001V7.31006H10.97V0.310059Z" fill="white"/>
</mask>
<g mask="url(#mask0_1_794)">
<path d="M1.77714 5.84784C1.4535 5.79806 1.18145 5.59895 1.04543 5.16962C0.998528 5.01406 0.975075 4.82739 0.975075 4.65317C0.970385 3.60784 0.970385 2.55628 0.975075 1.50473C0.975075 0.764281 1.31748 0.310059 1.87095 0.310059C4.60078 0.310059 7.33061 0.310059 10.0604 0.310059C10.6186 0.310059 10.961 0.758059 10.961 1.4985C10.9657 2.53762 10.961 3.57673 10.961 4.62206C10.961 5.29406 10.7265 5.67984 10.2293 5.82917C10.2012 5.83539 10.173 5.85406 10.1308 5.8665C10.1308 6.17139 10.1308 6.47628 10.1308 6.77495C10.1308 7.18562 10.0464 7.30384 9.7368 7.30384C8.38127 7.31006 7.03042 7.30384 5.67489 7.30384C4.53511 7.30384 3.39534 7.30384 2.25556 7.30384C1.86157 7.30384 1.7959 7.2105 1.79121 6.68784C1.79121 6.43273 1.79121 6.17762 1.79121 5.9225C1.80059 5.91006 1.79121 5.89139 1.77714 5.84784ZM2.09609 4.49762C2.09609 4.60962 2.16175 4.70295 2.25087 4.70295C2.75744 4.71539 4.2959 4.72784 5.15894 4.73406C5.31372 4.73406 5.41691 4.6345 5.41691 4.47895C5.41691 3.74473 5.4216 2.38828 5.4216 1.76606C5.4216 1.58562 5.30903 1.4425 5.17301 1.4425H2.25556C2.17113 1.4425 2.10078 1.53584 2.10078 1.64784L2.09609 4.49762ZM9.83999 4.4105V1.75362C9.83999 1.58562 9.7368 1.44873 9.61016 1.44873H6.77245C6.64581 1.44873 6.54262 1.58562 6.54262 1.75362V4.4105C6.54262 4.5785 6.64581 4.71539 6.77245 4.71539H9.61016C9.7368 4.71539 9.83999 4.5785 9.83999 4.4105ZM2.90284 5.86028C2.71522 5.86028 2.55106 5.86028 2.37751 5.86028C2.37751 6.10295 2.37751 6.32073 2.37751 6.55095C2.55575 6.55095 2.72461 6.55095 2.90284 6.55095C2.90284 6.32073 2.90284 6.09673 2.90284 5.86028ZM4.00978 5.86028C3.82686 5.86028 3.658 5.86028 3.48446 5.86028C3.48446 6.10295 3.48446 6.32073 3.48446 6.55717C3.66269 6.55717 3.82686 6.55717 4.00978 6.55717C4.00978 6.32073 4.00978 6.10295 4.00978 5.86028ZM4.5914 6.55095C4.7837 6.55095 4.94787 6.55095 5.12142 6.55095C5.12142 6.30828 5.12142 6.0905 5.12142 5.8665C4.93849 5.8665 4.76963 5.8665 4.5914 5.8665C4.5914 6.10917 4.5914 6.32073 4.5914 6.55095ZM6.23305 5.86028C6.04543 5.86028 5.88127 5.86028 5.70772 5.86028C5.70772 6.10295 5.70772 6.32073 5.70772 6.55717C5.88596 6.55717 6.05481 6.55717 6.23305 6.55717C6.23305 6.32073 6.23305 6.10295 6.23305 5.86028ZM7.34468 5.86028C7.15706 5.86028 6.98821 5.86028 6.81466 5.86028C6.81466 6.10295 6.81466 6.32073 6.81466 6.55095C6.99759 6.55095 7.17114 6.55095 7.34468 6.55095C7.34468 6.3145 7.34468 6.10295 7.34468 5.86028ZM7.93568 5.85406C7.93568 6.10295 7.93568 6.33317 7.93568 6.55095C8.12329 6.55095 8.28746 6.55095 8.45162 6.55095C8.45162 6.30828 8.45162 6.0905 8.45162 5.85406C8.27339 5.85406 8.11391 5.85406 7.93568 5.85406ZM9.03324 6.54473C9.21147 6.54473 9.38033 6.54473 9.55856 6.54473C9.55856 6.30828 9.55856 6.08428 9.55856 5.86028C9.37564 5.86028 9.20678 5.86028 9.03324 5.86028C9.03324 6.09673 9.03324 6.30828 9.03324 6.54473Z" fill="#6D6E72"/>
<path d="M3.24955 3.9812H2.86025C2.74768 3.9812 2.65387 3.85676 2.65387 3.70743V2.45054C2.65387 2.29498 2.74768 2.17676 2.86025 2.17676H3.24955C3.36212 2.17676 3.45593 2.29498 3.45593 2.45054V3.70743C3.45593 3.85676 3.36212 3.9812 3.24955 3.9812Z" fill="#6D6E72"/>
<path d="M4.63792 3.9812H4.24861C4.13604 3.9812 4.04224 3.85676 4.04224 3.70743V2.44431C4.04224 2.29498 4.13135 2.17676 4.24861 2.17676H4.63792C4.75049 2.17676 4.8443 2.3012 4.8443 2.45054V3.71365C4.8443 3.85676 4.75049 3.9812 4.63792 3.9812Z" fill="#6D6E72"/>
<path d="M7.29741 2.16431H7.6914C7.80397 2.16431 7.89778 2.28875 7.89778 2.43809V3.7012C7.89778 3.85053 7.80397 3.97497 7.6914 3.97497H7.29741C7.18484 3.97497 7.09103 3.85053 7.09103 3.7012V2.43809C7.09572 2.28875 7.18484 2.16431 7.29741 2.16431Z" fill="#6D6E72"/>
<path d="M9.08444 3.97497H8.68575C8.57318 3.97497 8.47937 3.85053 8.47937 3.7012V2.43809C8.47937 2.28875 8.57318 2.16431 8.68575 2.16431H9.08444C9.19701 2.16431 9.29082 2.28875 9.29082 2.43809V3.7012C9.29082 3.85675 9.19701 3.97497 9.08444 3.97497Z" fill="#6D6E72"/>
</g>
</svg>
