<svg width="11" height="8" viewBox="0 0 11 8" fill="none" xmlns="http://www.w3.org/2000/svg">
<mask id="mask0_1_609" style="mask-type:luminance" maskUnits="userSpaceOnUse" x="0" y="0" width="11" height="8">
<path d="M10.31 0.310059H0.309998V7.31006H10.31V0.310059Z" fill="white"/>
</mask>
<g mask="url(#mask0_1_609)">
<path d="M1.11714 5.84784C0.793496 5.79806 0.521451 5.59895 0.385428 5.16962C0.338524 5.01406 0.315072 4.82739 0.315072 4.65317C0.310381 3.60784 0.310381 2.55628 0.315072 1.50473C0.315072 0.764281 0.657474 0.310059 1.21094 0.310059C3.94078 0.310059 6.67061 0.310059 9.40044 0.310059C9.9586 0.310059 10.301 0.758059 10.301 1.4985C10.3057 2.53762 10.301 3.57673 10.301 4.62206C10.301 5.29406 10.0665 5.67984 9.5693 5.82917C9.54115 5.83539 9.51301 5.85406 9.4708 5.8665C9.4708 6.17139 9.4708 6.47628 9.4708 6.77495C9.4708 7.18562 9.38637 7.30384 9.0768 7.30384C7.72127 7.31006 6.37042 7.30384 5.01489 7.30384C3.87511 7.30384 2.73534 7.30384 1.59556 7.30384C1.20156 7.30384 1.1359 7.2105 1.13121 6.68784C1.13121 6.43273 1.13121 6.17762 1.13121 5.9225C1.14059 5.91006 1.13121 5.89139 1.11714 5.84784ZM1.43609 4.49762C1.43609 4.60962 1.50175 4.70295 1.59087 4.70295C2.09744 4.71539 3.6359 4.72784 4.49894 4.73406C4.65372 4.73406 4.75691 4.6345 4.75691 4.47895C4.75691 3.74473 4.7616 2.38828 4.7616 1.76606C4.7616 1.58562 4.64903 1.4425 4.51301 1.4425H1.59556C1.51113 1.4425 1.44078 1.53584 1.44078 1.64784L1.43609 4.49762ZM9.17999 4.4105V1.75362C9.17999 1.58562 9.0768 1.44873 8.95016 1.44873H6.11245C5.98581 1.44873 5.88262 1.58562 5.88262 1.75362V4.4105C5.88262 4.5785 5.98581 4.71539 6.11245 4.71539H8.95016C9.0768 4.71539 9.17999 4.5785 9.17999 4.4105ZM2.24284 5.86028C2.05522 5.86028 1.89106 5.86028 1.71751 5.86028C1.71751 6.10295 1.71751 6.32073 1.71751 6.55095C1.89575 6.55095 2.06461 6.55095 2.24284 6.55095C2.24284 6.32073 2.24284 6.09673 2.24284 5.86028ZM3.34978 5.86028C3.16686 5.86028 2.998 5.86028 2.82446 5.86028C2.82446 6.10295 2.82446 6.32073 2.82446 6.55717C3.00269 6.55717 3.16686 6.55717 3.34978 6.55717C3.34978 6.32073 3.34978 6.10295 3.34978 5.86028ZM3.9314 6.55095C4.1237 6.55095 4.28787 6.55095 4.46142 6.55095C4.46142 6.30828 4.46142 6.0905 4.46142 5.8665C4.27849 5.8665 4.10963 5.8665 3.9314 5.8665C3.9314 6.10917 3.9314 6.32073 3.9314 6.55095ZM5.57305 5.86028C5.38543 5.86028 5.22127 5.86028 5.04772 5.86028C5.04772 6.10295 5.04772 6.32073 5.04772 6.55717C5.22596 6.55717 5.39481 6.55717 5.57305 6.55717C5.57305 6.32073 5.57305 6.10295 5.57305 5.86028ZM6.68468 5.86028C6.49706 5.86028 6.32821 5.86028 6.15466 5.86028C6.15466 6.10295 6.15466 6.32073 6.15466 6.55095C6.33759 6.55095 6.51114 6.55095 6.68468 6.55095C6.68468 6.3145 6.68468 6.10295 6.68468 5.86028ZM7.27568 5.85406C7.27568 6.10295 7.27568 6.33317 7.27568 6.55095C7.46329 6.55095 7.62746 6.55095 7.79162 6.55095C7.79162 6.30828 7.79162 6.0905 7.79162 5.85406C7.61339 5.85406 7.45391 5.85406 7.27568 5.85406ZM8.37324 6.54473C8.55147 6.54473 8.72033 6.54473 8.89856 6.54473C8.89856 6.30828 8.89856 6.08428 8.89856 5.86028C8.71564 5.86028 8.54678 5.86028 8.37324 5.86028C8.37324 6.09673 8.37324 6.30828 8.37324 6.54473Z" fill="#6D6E72"/>
<path d="M2.58955 3.9812H2.20025C2.08768 3.9812 1.99387 3.85676 1.99387 3.70743V2.45054C1.99387 2.29498 2.08768 2.17676 2.20025 2.17676H2.58955C2.70212 2.17676 2.79593 2.29498 2.79593 2.45054V3.70743C2.79593 3.85676 2.70212 3.9812 2.58955 3.9812Z" fill="#6D6E72"/>
<path d="M3.97791 3.9812H3.5886C3.47603 3.9812 3.38223 3.85676 3.38223 3.70743V2.44431C3.38223 2.29498 3.47134 2.17676 3.5886 2.17676H3.97791C4.09048 2.17676 4.18429 2.3012 4.18429 2.45054V3.71365C4.18429 3.85676 4.09048 3.9812 3.97791 3.9812Z" fill="#6D6E72"/>
<path d="M6.63741 2.16431H7.0314C7.14397 2.16431 7.23778 2.28875 7.23778 2.43809V3.7012C7.23778 3.85053 7.14397 3.97497 7.0314 3.97497H6.63741C6.52484 3.97497 6.43103 3.85053 6.43103 3.7012V2.43809C6.43572 2.28875 6.52484 2.16431 6.63741 2.16431Z" fill="#6D6E72"/>
<path d="M8.42444 3.97497H8.02575C7.91318 3.97497 7.81937 3.85053 7.81937 3.7012V2.43809C7.81937 2.28875 7.91318 2.16431 8.02575 2.16431H8.42444C8.53701 2.16431 8.63082 2.28875 8.63082 2.43809V3.7012C8.63082 3.85675 8.53701 3.97497 8.42444 3.97497Z" fill="#6D6E72"/>
</g>
</svg>
