<svg width="11" height="11" viewBox="0 0 11 11" fill="none" xmlns="http://www.w3.org/2000/svg">
<mask id="mask0_1_1125" style="mask-type:luminance" maskUnits="userSpaceOnUse" x="0" y="0" width="11" height="11">
<path d="M10.09 0.810059H0.0899963V10.8101H10.09V0.810059Z" fill="white"/>
</mask>
<g mask="url(#mask0_1_1125)">
<path d="M5.09 1.64331V5.18498" stroke="#6D6E72" stroke-width="0.833333" stroke-linecap="round" stroke-linejoin="round"/>
<path d="M5.08992 1.64331C2.78867 1.64331 0.923248 3.50873 0.923248 5.80998C0.923248 8.11123 2.78867 9.97665 5.08992 9.97665C7.39117 9.97665 9.25659 8.11123 9.25659 5.80998C9.25659 4.84623 8.9295 3.95894 8.38013 3.2531" stroke="#6D6E72" stroke-width="0.833333" stroke-linecap="round"/>
<path d="M5.08992 3.51831C3.82429 3.51831 2.79825 4.54435 2.79825 5.80998C2.79825 7.0756 3.82429 8.10165 5.08992 8.10165C6.35554 8.10165 7.38159 7.0756 7.38159 5.80998C7.38159 5.27998 7.20159 4.79185 6.8995 4.40373" stroke="#6D6E72" stroke-width="0.833333" stroke-linecap="round"/>
<path d="M5.09 6.43506C5.43518 6.43506 5.715 6.15524 5.715 5.81006C5.715 5.46488 5.43518 5.18506 5.09 5.18506C4.74482 5.18506 4.465 5.46488 4.465 5.81006C4.465 6.15524 4.74482 6.43506 5.09 6.43506Z" stroke="#6D6E72" stroke-width="0.833333"/>
</g>
</svg>
