<svg width="11" height="11" viewBox="0 0 11 11" fill="none" xmlns="http://www.w3.org/2000/svg">
<mask id="mask0_1_1065" style="mask-type:luminance" maskUnits="userSpaceOnUse" x="0" y="0" width="11" height="11">
<path d="M10.14 0.810059H0.139999V10.8101H10.14V0.810059Z" fill="white"/>
</mask>
<g mask="url(#mask0_1_1065)">
<path d="M5.14 1.64331V5.18498" stroke="#6D6E72" stroke-width="0.833333" stroke-linecap="round" stroke-linejoin="round"/>
<path d="M5.13992 1.64331C2.83867 1.64331 0.973251 3.50873 0.973251 5.80998C0.973251 8.11123 2.83867 9.97665 5.13992 9.97665C7.44117 9.97665 9.30659 8.11123 9.30659 5.80998C9.30659 4.84623 8.9795 3.95894 8.43013 3.2531" stroke="#6D6E72" stroke-width="0.833333" stroke-linecap="round"/>
<path d="M5.13992 3.51831C3.87429 3.51831 2.84825 4.54435 2.84825 5.80998C2.84825 7.0756 3.87429 8.10165 5.13992 8.10165C6.40554 8.10165 7.43159 7.0756 7.43159 5.80998C7.43159 5.27998 7.25159 4.79185 6.9495 4.40373" stroke="#6D6E72" stroke-width="0.833333" stroke-linecap="round"/>
<path d="M5.14 6.43506C5.48518 6.43506 5.765 6.15524 5.765 5.81006C5.765 5.46488 5.48518 5.18506 5.14 5.18506C4.79482 5.18506 4.515 5.46488 4.515 5.81006C4.515 6.15524 4.79482 6.43506 5.14 6.43506Z" stroke="#6D6E72" stroke-width="0.833333"/>
</g>
</svg>
