<svg width="11" height="11" viewBox="0 0 11 11" fill="none" xmlns="http://www.w3.org/2000/svg">
<mask id="mask0_1_2163" style="mask-type:luminance" maskUnits="userSpaceOnUse" x="0" y="0" width="11" height="11">
<path d="M10.94 0.439941H0.940002V10.4399H10.94V0.439941Z" fill="white"/>
</mask>
<g mask="url(#mask0_1_2163)">
<path d="M5.94 1.27344V4.8151" stroke="#6D6E72" stroke-width="0.833333" stroke-linecap="round" stroke-linejoin="round"/>
<path d="M5.93992 1.27344C3.63867 1.27344 1.77325 3.13885 1.77325 5.4401C1.77325 7.74135 3.63867 9.60677 5.93992 9.60677C8.24117 9.60677 10.1066 7.74135 10.1066 5.4401C10.1066 4.47635 9.7795 3.58906 9.23013 2.88322" stroke="#6D6E72" stroke-width="0.833333" stroke-linecap="round"/>
<path d="M5.93992 3.14844C4.67429 3.14844 3.64825 4.17448 3.64825 5.44011C3.64825 6.70573 4.67429 7.73178 5.93992 7.73178C7.20554 7.73178 8.23159 6.70573 8.23159 5.44011C8.23159 4.91011 8.05159 4.42198 7.7495 4.03386" stroke="#6D6E72" stroke-width="0.833333" stroke-linecap="round"/>
<path d="M5.94 6.06494C6.28518 6.06494 6.565 5.78512 6.565 5.43994C6.565 5.09476 6.28518 4.81494 5.94 4.81494C5.59482 4.81494 5.315 5.09476 5.315 5.43994C5.315 5.78512 5.59482 6.06494 5.94 6.06494Z" stroke="#6D6E72" stroke-width="0.833333"/>
</g>
</svg>
