<svg width="17" height="17" viewBox="0 0 17 17" fill="none" xmlns="http://www.w3.org/2000/svg">
<path d="M3.26999 2.79001C0.569989 5.40001 -0.420011 10.26 1.37999 11.34C1.82999 11.61 2.18999 10.53 2.09999 8.82001C1.91999 3.60001 6.41999 0.270006 11.19 2.07001C14.16 3.24001 14.52 3.15001 14.52 1.80001C14.52 1.26001 12.72 0.630006 10.2 0.450006C6.41999 0.0900064 5.60999 0.360006 3.26999 2.79001Z" fill="black"/>
<path d="M6.23999 4.13999C3.17999 5.57999 3.35999 11.07 6.41999 12.51C10.11 14.22 13.17 12.24 13.17 8.18999C13.17 5.84999 12.72 4.76999 11.64 4.31999C10.74 4.04999 9.65999 3.59999 9.11999 3.41999C8.66999 3.23999 7.31999 3.59999 6.23999 4.13999ZM10.47 5.84999C12.27 7.28999 12.18 9.35999 10.29 10.8C7.13999 13.14 3.80999 8.27999 6.86999 5.84999C7.58999 5.21999 8.39999 4.76999 8.66999 4.76999C8.93999 4.76999 9.74999 5.21999 10.47 5.84999Z" fill="black"/>
<path d="M7.04999 8.01C7.40999 10.08 9.92999 10.08 10.29 8.01C10.47 6.93 10.02 6.48 8.66999 6.48C7.31999 6.48 6.86999 6.93 7.04999 8.01Z" fill="black"/>
<path d="M15.24 7.74001C15.42 12.69 10.92 16.29 6.68999 14.67C3.71999 13.5 2.81999 13.59 2.81999 14.76C2.81999 15.3 4.61999 15.93 7.13999 16.11C10.92 16.47 11.73 16.2 14.07 13.77C16.77 11.16 17.76 6.30001 15.96 5.22001C15.51 4.95001 15.15 6.03001 15.24 7.74001Z" fill="black"/>
</svg>
