<svg width="5" height="9" viewBox="0 0 5 9" fill="none" xmlns="http://www.w3.org/2000/svg">
<path fill-rule="evenodd" clip-rule="evenodd" d="M4.62394e-08 2.30974C-6.99538e-05 2.0995 0.0793401 1.897 0.22229 1.74284C0.36524 1.58868 0.56118 1.49426 0.77083 1.47849L0.83333 1.4764H1.25C1.24993 1.26616 1.32934 1.06367 1.47229 0.909505C1.61524 0.755345 1.81118 0.660917 2.02083 0.645149L2.08333 0.643066H2.91667C3.12691 0.642999 3.3294 0.722402 3.48356 0.865355C3.63772 1.00832 3.73215 1.20426 3.74792 1.4139L3.75 1.4764H4.16667C4.37691 1.47634 4.5794 1.55574 4.73356 1.69869C4.88772 1.84165 4.98215 2.03759 4.99792 2.24724L5 2.30974V8.14307C5.00007 8.35331 4.92066 8.55581 4.77771 8.70997C4.63476 8.86412 4.43881 8.95855 4.22917 8.97432L4.16667 8.9764H0.83333C0.62309 8.97647 0.4206 8.89707 0.26644 8.75411C0.11228 8.61116 0.01785 8.41522 0.00208001 8.20557L4.62394e-08 8.14307V2.30974ZM1.25 7.30974C1.25001 7.41179 1.28748 7.51029 1.3553 7.58656C1.42311 7.66282 1.51656 7.71155 1.61792 7.72349L1.66667 7.7264H3.33333C3.43953 7.72629 3.54168 7.68562 3.6189 7.61272C3.69613 7.53981 3.7426 7.44017 3.74882 7.33416C3.75505 7.22814 3.72055 7.12375 3.65239 7.04231C3.58423 6.96087 3.48754 6.90853 3.38208 6.89599L3.33333 6.89307H1.66667C1.55616 6.89307 1.45018 6.93697 1.37204 7.01511C1.2939 7.09325 1.25 7.19923 1.25 7.30974ZM1.25 6.05974C1.25 6.17024 1.2939 6.27622 1.37204 6.35437C1.45018 6.43251 1.55616 6.4764 1.66667 6.4764H3.33333C3.44384 6.4764 3.54982 6.4325 3.62796 6.35436C3.7061 6.27622 3.75 6.17024 3.75 6.05974C3.75 5.94923 3.7061 5.84325 3.62796 5.76511C3.54982 5.68697 3.44384 5.64307 3.33333 5.64307H1.66667C1.55616 5.64307 1.45018 5.68697 1.37204 5.76511C1.2939 5.84325 1.25 5.94923 1.25 6.05974Z" fill="#6D6E72"/>
</svg>
