<svg width="13" height="23" viewBox="0 0 13 23" fill="none" xmlns="http://www.w3.org/2000/svg">
<g clip-path="url(#clip0_1_231)">
<path d="M11.8572 10.0148H8.24745L8.24449 10.0203H7.59131L11.9696 0.290039L0.752289 12.7684H5.03418L4.80099 13.3826L1.16924 22.97L11.8572 10.0148Z" fill="#FFC306"/>
<path d="M0.752289 12.7684L0.200012 13.3826H4.80099L5.03418 12.7684H0.752289Z" fill="#FFAD00"/>
<path d="M8.24449 10.0203L8.24745 10.0148H8.24449L11.9696 0.290039L7.59131 10.0203H8.24449Z" fill="#FFAD00"/>
<path d="M12.8 10.0148H11.8572L1.16925 22.97L12.8 10.0148Z" fill="#FFAD00"/>
<path d="M11.3189 1.30579C11.3189 1.30579 1.71403 11.9174 1.40244 12.4978C1.40244 12.4978 10.1969 2.86131 11.3189 1.30579Z" fill="#FFEE12"/>
<path d="M7.81055 10.1729C7.81055 10.1729 9.80695 10.0198 11.3843 10.1729C11.3843 10.1729 9.5862 10.3048 7.81055 10.1729Z" fill="#FFEE12"/>
</g>
<defs>
<clipPath id="clip0_1_231">
<rect width="12.6" height="22.68" fill="white" transform="translate(0.200012 0.290039)"/>
</clipPath>
</defs>
</svg>
