<svg width="15" height="26" viewBox="0 0 15 26" fill="none" xmlns="http://www.w3.org/2000/svg">
<g clip-path="url(#clip0_1_416)">
<path d="M13.9024 11.5853H9.89159L9.8883 11.5914H9.16254L14.0273 0.780029L1.56363 14.6449H6.32129L6.06218 15.3274L2.02691 25.98L13.9024 11.5853Z" fill="#FFC306"/>
<path d="M1.56365 14.6449L0.950012 15.3273H6.06221L6.32131 14.6449H1.56365Z" fill="#FFAD00"/>
<path d="M9.8883 11.5914L9.89159 11.5853H9.8883L14.0273 0.780029L9.16254 11.5914H9.8883Z" fill="#FFAD00"/>
<path d="M14.95 11.5853H13.9025L2.02692 25.9801L14.95 11.5853Z" fill="#FFAD00"/>
<path d="M13.3044 1.90857C13.3044 1.90857 2.63225 13.6992 2.28604 14.3442C2.28604 14.3442 12.0577 3.63693 13.3044 1.90857Z" fill="#FFEE12"/>
<path d="M9.40616 11.7611C9.40616 11.7611 11.6244 11.5909 13.377 11.7611C13.377 11.7611 11.3791 11.9076 9.40616 11.7611Z" fill="#FFEE12"/>
</g>
<defs>
<clipPath id="clip0_1_416">
<rect width="14" height="25.2" fill="white" transform="translate(0.950012 0.780029)"/>
</clipPath>
</defs>
</svg>
