<svg width="10" height="10" viewBox="0 0 10 10" fill="none" xmlns="http://www.w3.org/2000/svg">
<path d="M1.768 9.94307C1.84888 9.98514 1.9397 10.0044 2.03069 9.99876C2.12169 9.99312 2.20943 9.96281 2.2845 9.91107L8.7845 5.41107C8.85092 5.36506 8.9052 5.30363 8.94269 5.23205C8.98017 5.16047 8.99976 5.08088 8.99976 5.00007C8.99976 4.91927 8.98017 4.83967 8.94269 4.7681C8.9052 4.69652 8.85092 4.63509 8.7845 4.58908L2.2845 0.0890755C2.20949 0.0371718 2.1217 0.00677802 2.03066 0.00118502C1.93961 -0.00440797 1.84877 0.015013 1.76797 0.0573451C1.68716 0.0996772 1.61948 0.163307 1.57225 0.241345C1.52501 0.319384 1.50003 0.408856 1.5 0.500075V9.50007C1.49999 9.59134 1.52495 9.68087 1.57219 9.75897C1.61944 9.83706 1.68715 9.90073 1.768 9.94307Z" fill="white"/>
</svg>
