<svg width="16" height="18" viewBox="0 0 16 18" fill="none" xmlns="http://www.w3.org/2000/svg">
<path d="M5.39927 16.7753C5.49733 16.9703 5.45762 17.2063 5.30117 17.3585C5.14472 17.5106 4.90767 17.5437 4.71552 17.4402C2.96901 16.4998 1.79444 15.5487 1.13652 14.471C0.463914 13.3692 0.367603 12.1967 0.645923 10.9096L5.39927 16.7753ZM5.39927 16.7753C4.89486 15.7725 4.80161 15.0358 4.89407 14.4437C4.98804 13.8417 5.283 13.3231 5.68368 12.7636C5.95768 12.3809 6.17393 12.0002 6.34329 11.6507M5.39927 16.7753L6.34329 11.6507L5.39927 16.7753ZM6.34329 11.6507C6.36169 12.0333 6.34341 12.5008 6.2562 13.0602C6.22243 13.2768 6.3337 13.4901 6.53068 13.5864C6.72764 13.6827 6.96434 13.6394 7.11453 13.4797C7.84043 12.7077 8.26224 11.4992 8.48485 10.4408C8.59292 9.92702 8.65845 9.42728 8.68666 8.9948C10.7404 10.942 11.4808 14.2641 10.1375 16.7633C10.0329 16.9578 10.0684 17.198 10.2248 17.354C10.3812 17.51 10.6214 17.5449 10.8157 17.4398C13.0648 16.224 14.3789 14.8255 15.0184 13.3584C15.6589 11.889 15.5946 10.4151 15.2091 9.10491C14.8254 7.80061 14.1196 6.64168 13.4459 5.76414C12.7775 4.89361 12.1104 4.26091 11.7683 4.02257C11.582 3.8928 11.3317 3.9048 11.1587 4.05179C10.9857 4.19878 10.9335 4.44387 11.0314 4.64865C11.0636 4.71582 11.0909 4.78952 11.1133 4.86884C10.5979 3.85906 9.86666 3.00764 9.17357 2.34638C8.5801 1.78015 7.99751 1.337 7.56344 1.03527C7.34602 0.884136 7.16484 0.767773 7.0368 0.688519C6.97277 0.648877 6.92195 0.618468 6.88647 0.59759L6.84497 0.573438L6.83332 0.566781L6.82985 0.564818L6.82872 0.564179C6.82856 0.564087 6.82799 0.563769 6.58323 0.999769L6.82872 0.564179C6.67568 0.478262 6.48807 0.478468 6.33559 0.565392C6.18312 0.652314 6.08738 0.812816 6.08335 0.988278C6.02923 3.34244 5.24305 5.60187 4.01175 7.39351C3.87038 6.8727 3.64743 6.38077 3.31751 5.80715C3.20775 5.6163 2.98606 5.51971 2.77155 5.56926C2.55702 5.61881 2.40016 5.80285 2.38523 6.02252C2.33235 6.79997 2.0294 7.52324 1.65473 8.32229C1.61339 8.41046 1.57106 8.49975 1.5282 8.59015C1.19428 9.29448 0.828113 10.0669 0.645923 10.9096L6.34329 11.6507Z" fill="#FDD835"/>
<path d="M5.39927 16.7753C5.49733 16.9703 5.45762 17.2063 5.30117 17.3585C5.14472 17.5106 4.90767 17.5437 4.71552 17.4402C2.96901 16.4998 1.79444 15.5487 1.13652 14.471C0.463914 13.3692 0.367603 12.1967 0.645923 10.9096M5.39927 16.7753L0.645923 10.9096M5.39927 16.7753C4.89486 15.7725 4.80161 15.0358 4.89407 14.4437C4.98804 13.8417 5.283 13.3231 5.68368 12.7636C5.95768 12.3809 6.17393 12.0002 6.34329 11.6507M5.39927 16.7753L6.34329 11.6507M0.645923 10.9096C0.828113 10.0669 1.19428 9.29448 1.5282 8.59015C1.57106 8.49975 1.61339 8.41046 1.65473 8.32229C2.0294 7.52324 2.33235 6.79997 2.38523 6.02252C2.40016 5.80285 2.55702 5.61881 2.77155 5.56926C2.98606 5.51971 3.20775 5.6163 3.31751 5.80715C3.64743 6.38077 3.87038 6.8727 4.01175 7.39351C5.24305 5.60187 6.02923 3.34244 6.08335 0.988278C6.08738 0.812816 6.18312 0.652314 6.33559 0.565392C6.48807 0.478468 6.67568 0.478262 6.82872 0.564179M0.645923 10.9096L6.34329 11.6507M6.34329 11.6507C6.36169 12.0333 6.34341 12.5008 6.2562 13.0602C6.22243 13.2768 6.3337 13.4901 6.53068 13.5864C6.72764 13.6827 6.96434 13.6394 7.11453 13.4797C7.84042 12.7077 8.26224 11.4992 8.48485 10.4408C8.59292 9.92702 8.65845 9.42728 8.68666 8.9948C10.7404 10.942 11.4808 14.2641 10.1375 16.7633C10.0329 16.9578 10.0684 17.198 10.2248 17.354C10.3812 17.51 10.6214 17.5449 10.8157 17.4398C13.0648 16.224 14.3789 14.8255 15.0184 13.3584C15.6589 11.889 15.5946 10.4151 15.2091 9.10491C14.8254 7.80061 14.1196 6.64168 13.4459 5.76414C12.7775 4.89361 12.1104 4.26091 11.7683 4.02257C11.582 3.8928 11.3317 3.9048 11.1587 4.05179C10.9857 4.19878 10.9335 4.44387 11.0314 4.64865C11.0636 4.71582 11.0909 4.78952 11.1133 4.86884C10.5979 3.85906 9.86666 3.00764 9.17357 2.34638C8.5801 1.78015 7.99751 1.337 7.56344 1.03527C7.34602 0.884136 7.16484 0.767773 7.0368 0.688519C6.97277 0.648877 6.92195 0.618468 6.88647 0.59759L6.84497 0.573438L6.83332 0.566781L6.82985 0.564818L6.82872 0.564179M6.82872 0.564179C6.82856 0.564087 6.82799 0.563769 6.58323 0.999769L6.82872 0.564179Z" stroke="#E30019" stroke-linejoin="round"/>
</svg>
