<svg width="18" height="42" viewBox="0 0 18 42" fill="none" xmlns="http://www.w3.org/2000/svg">
<path d="M8.99998 20.1818C7.90596 20.1818 6.85675 19.7507 6.08316 18.9836C5.30958 18.2164 4.87498 17.1758 4.87498 16.0909C4.87498 15.0059 5.30958 13.9653 6.08316 13.1982C6.85675 12.431 7.90596 12 8.99998 12C10.094 12 11.1432 12.431 11.9168 13.1982C12.6903 13.9653 13.125 15.0059 13.125 16.0909C13.125 17.1758 12.6903 18.2164 11.9168 18.9836C11.1432 19.7507 10.094 20.1818 8.99998 20.1818Z" stroke="white" stroke-width="1.5" stroke-linecap="round"/>
<path d="M0.749997 30V28.948C0.749997 26.8441 3.37499 22.6363 8.99999 22.6363C14.625 22.6363 17.25 26.8441 17.25 28.948V30" stroke="white" stroke-width="1.5" stroke-linecap="round"/>
</svg>
