<svg width="10" height="10" viewBox="0 0 10 10" fill="none" xmlns="http://www.w3.org/2000/svg">
<path d="M9.375 1H0.625C0.45924 1 0.300268 1.07024 0.183058 1.19526C0.065848 1.32029 0 1.48986 0 1.66667V8.33333C0 8.51014 0.065848 8.67971 0.183058 8.80474C0.300268 8.92976 0.45924 9 0.625 9H9.375C9.54076 9 9.69973 8.92976 9.81694 8.80474C9.93415 8.67971 10 8.51014 10 8.33333V1.66667C10 1.48986 9.93415 1.32029 9.81694 1.19526C9.69973 1.07024 9.54076 1 9.375 1ZM1.00312 1.66667C1.08087 1.66401 1.15758 1.68617 1.22344 1.73031C1.2893 1.77445 1.34131 1.83856 1.3728 1.91443C1.40429 1.99029 1.41384 2.07445 1.40021 2.15614C1.38657 2.23782 1.35039 2.31331 1.29629 2.37292C1.24219 2.43253 1.17264 2.47356 1.09655 2.49075C1.02045 2.50794 0.941279 2.5005 0.869171 2.46939C0.797062 2.43829 0.735302 2.38493 0.691801 2.31615C0.6483 2.24737 0.62504 2.1663 0.625 2.08333C0.624948 1.9751 0.664383 1.87109 0.734957 1.79332C0.805532 1.71555 0.901707 1.67013 1.00312 1.66667ZM1.00312 8.33333C0.925867 8.33333 0.850343 8.3089 0.786105 8.26311C0.721867 8.21733 0.6718 8.15225 0.642235 8.07612C0.612669 7.99998 0.604933 7.9162 0.620006 7.83538C0.635078 7.75455 0.672282 7.68031 0.726911 7.62204C0.781541 7.56377 0.851144 7.52408 0.926918 7.50801C1.00269 7.49193 1.08123 7.50018 1.15261 7.53172C1.22399 7.56325 1.285 7.61666 1.32792 7.68518C1.37084 7.7537 1.39375 7.83426 1.39375 7.91667C1.39375 8.02717 1.35259 8.13315 1.27934 8.2113C1.20608 8.28944 1.10673 8.33333 1.00312 8.33333ZM2.58438 6.40667C2.17714 6.41641 1.78244 6.25614 1.48438 5.96L1.75313 5.60667C1.98142 5.83976 2.28401 5.97196 2.6 5.97667C2.9125 5.97667 3.08437 5.81 3.08437 5.61333C3.08437 5.41667 2.9 5.31 2.4875 5.20667C1.95625 5.07333 1.58438 4.91 1.58438 4.39333C1.58438 3.87667 1.96562 3.56333 2.52187 3.56333C2.88042 3.55631 3.22837 3.69311 3.49687 3.94667L3.24375 4.31333C3.03896 4.11735 2.77507 4.00618 2.5 4C2.39772 3.98678 2.29469 4.01719 2.21333 4.08462C2.13198 4.15204 2.07889 4.25102 2.06562 4.36C2.06562 4.58333 2.25625 4.66333 2.66562 4.76333C3.20312 4.89333 3.5625 5.07667 3.5625 5.57667C3.5625 6.07667 3.2 6.40667 2.58438 6.40667ZM4.93125 6.40667C4.52402 6.41641 4.12932 6.25614 3.83125 5.96L4.1 5.60667C4.32829 5.83976 4.63088 5.97196 4.94688 5.97667C5.25938 5.97667 5.43125 5.81 5.43125 5.61333C5.43125 5.41667 5.24687 5.31 4.83437 5.20667C4.30312 5.07333 3.93125 4.91 3.93125 4.39333C3.93125 3.87667 4.31563 3.56333 4.86875 3.56333C5.2274 3.55565 5.57557 3.69254 5.84375 3.94667L5.59062 4.31333C5.38938 4.11081 5.12643 3.99246 4.85 3.98C4.74772 3.96678 4.64469 3.99719 4.56333 4.06462C4.48198 4.13204 4.42889 4.23102 4.41562 4.34C4.41562 4.56333 4.60625 4.64333 5.01562 4.74333C5.55312 4.87333 5.9125 5.05667 5.9125 5.55667C5.9125 6.05667 5.54688 6.40667 4.93125 6.40667ZM6.3625 6.36V3.61333H7.26875C8.11875 3.61333 8.71875 4.18333 8.71875 4.98667C8.71875 5.79 8.125 6.36 7.26875 6.36H6.3625ZM8.96562 8.33333C8.88837 8.33333 8.81284 8.3089 8.74861 8.26311C8.68437 8.21733 8.6343 8.15225 8.60473 8.07612C8.57517 7.99998 8.56743 7.9162 8.58251 7.83538C8.59758 7.75455 8.63478 7.68031 8.68941 7.62204C8.74404 7.56377 8.81364 7.52408 8.88942 7.50801C8.96519 7.49193 9.04373 7.50018 9.11511 7.53172C9.18649 7.56325 9.2475 7.61666 9.29042 7.68518C9.33334 7.7537 9.35625 7.83426 9.35625 7.91667C9.35625 8.02717 9.31509 8.13315 9.24184 8.2113C9.16858 8.28944 9.06923 8.33333 8.96562 8.33333ZM8.96562 2.5C8.88837 2.5 8.81284 2.47556 8.74861 2.42978C8.68437 2.384 8.6343 2.31892 8.60473 2.24278C8.57517 2.16665 8.56743 2.08287 8.58251 2.00205C8.59758 1.92122 8.63478 1.84698 8.68941 1.78871C8.74404 1.73043 8.81364 1.69075 8.88942 1.67467C8.96519 1.6586 9.04373 1.66685 9.11511 1.69838C9.18649 1.72992 9.2475 1.78332 9.29042 1.85185C9.33334 1.92037 9.35625 2.00092 9.35625 2.08333C9.35625 2.19384 9.31509 2.29982 9.24184 2.37796C9.16858 2.4561 9.06923 2.5 8.96562 2.5Z" fill="#6D6E72"/>
<path d="M6.875 4.00181H7.30868C7.41352 3.99361 7.51853 4.01336 7.61727 4.05982C7.71601 4.10628 7.80639 4.17848 7.88285 4.27197C7.95931 4.36546 8.02023 4.47828 8.06187 4.60348C8.10352 4.72868 8.125 4.86362 8.125 5C8.125 5.13638 8.10352 5.27132 8.06187 5.39652C8.02023 5.52172 7.95931 5.63454 7.88285 5.72803C7.80639 5.82153 7.71601 5.89372 7.61727 5.94018C7.51853 5.98664 7.41352 6.00639 7.30868 5.99819H6.875V4.00181Z" fill="#6D6E72"/>
</svg>
