<svg width="9" height="9" viewBox="0 0 9 9" fill="none" xmlns="http://www.w3.org/2000/svg">
<mask id="mask0_1_1560" style="mask-type:luminance" maskUnits="userSpaceOnUse" x="-1" y="-1" width="11" height="11">
<path d="M9.89937 -0.900158H-0.900422V9.89963H9.89937V-0.900158Z" fill="white"/>
</mask>
<g mask="url(#mask0_1_1560)">
<path d="M0.899482 4.04992C1.01418 4.05005 1.1245 4.09397 1.20789 4.1727C1.2913 4.25143 1.34148 4.35904 1.3482 4.47354C1.35492 4.58804 1.31767 4.70078 1.24406 4.78873C1.17045 4.87668 1.06603 4.93321 0.952131 4.94675L0.899482 4.94991H0.449498C0.334804 4.94978 0.224484 4.90585 0.141083 4.82712C0.0576836 4.74839 0.00749584 4.64079 0.000774051 4.52629C-0.00594774 4.41179 0.031304 4.29905 0.104919 4.21109C0.178533 4.12314 0.282954 4.06661 0.396849 4.05307L0.449498 4.04992H0.899482ZM4.49942 0C4.60963 1.40397e-05 4.71601 0.0404798 4.79838 0.11372C4.88074 0.186963 4.93335 0.287876 4.94625 0.397343L4.9494 0.449992V0.899986C4.94927 1.01468 4.90536 1.12499 4.82663 1.2084C4.74789 1.29179 4.64028 1.34198 4.52578 1.3487C4.41129 1.35542 4.29854 1.31818 4.21059 1.24455C4.12265 1.17094 4.06612 1.06652 4.05257 0.952635L4.04942 0.899986V0.449992C4.04942 0.330643 4.09683 0.216187 4.18122 0.1318C4.26561 0.04741 4.38007 0 4.49942 0ZM8.54934 4.04992C8.66402 4.05005 8.77434 4.09397 8.85774 4.1727C8.94115 4.25143 8.99133 4.35904 8.99805 4.47354C9.00478 4.58804 8.96752 4.70078 8.89391 4.78873C8.8203 4.87668 8.71587 4.93321 8.60199 4.94675L8.54934 4.94991H8.09934C7.98465 4.94978 7.87433 4.90585 7.79094 4.82712C7.70754 4.74839 7.65734 4.64079 7.65062 4.52629C7.64391 4.41179 7.68116 4.29905 7.75477 4.21109C7.82838 4.12314 7.9328 4.06661 8.0467 4.05307L8.09934 4.04992H8.54934ZM1.30133 1.30182C1.37881 1.22435 1.4819 1.1778 1.59126 1.17093C1.70062 1.16405 1.80874 1.19732 1.89532 1.26448L1.93761 1.30182L2.25261 1.61682C2.33332 1.6978 2.38017 1.80646 2.38365 1.92074C2.38714 2.03501 2.34701 2.14633 2.27139 2.23209C2.19578 2.31784 2.09036 2.37159 1.97654 2.38243C1.86274 2.39327 1.74906 2.36039 1.65862 2.29046L1.61632 2.2531L1.30133 1.93812C1.21696 1.85373 1.16957 1.73929 1.16957 1.61997C1.16957 1.50065 1.21696 1.38621 1.30133 1.30182ZM7.06121 1.30182C7.14219 1.22112 7.25086 1.17427 7.36513 1.17077C7.4794 1.16728 7.59073 1.20742 7.67648 1.28303C7.76223 1.35865 7.81599 1.46407 7.82683 1.57788C7.83767 1.6917 7.80478 1.80537 7.73485 1.89581L7.6975 1.93812L7.38251 2.2531C7.30153 2.33381 7.19286 2.38067 7.07859 2.38416C6.96432 2.38765 6.853 2.3475 6.76724 2.27189C6.68149 2.19629 6.62773 2.09086 6.61689 1.97705C6.60605 1.86323 6.63893 1.74956 6.70887 1.65911L6.74622 1.61682L7.06121 1.30182ZM5.3994 7.19986C5.51875 7.19986 5.6332 7.24727 5.71759 7.33166C5.80198 7.41605 5.84939 7.53051 5.84939 7.64985C5.84939 8.00789 5.70716 8.35126 5.45399 8.60443C5.20082 8.8576 4.85745 8.99983 4.49942 8.99983C4.14137 8.99983 3.798 8.8576 3.54484 8.60443C3.29167 8.35126 3.14944 8.00789 3.14944 7.64985C3.14946 7.53963 3.18992 7.43325 3.26316 7.35088C3.3364 7.26852 3.43732 7.21591 3.54678 7.20301L3.59943 7.19986H5.3994ZM4.49942 1.79997C5.06608 1.79997 5.6184 1.97826 6.0781 2.3096C6.5378 2.64094 6.88162 3.10852 7.0608 3.64611C7.24001 4.18371 7.24551 4.76405 7.07655 5.30495C6.90759 5.84585 6.57272 6.31987 6.11939 6.65987C6.05736 6.70645 5.98435 6.73621 5.90743 6.74627L5.84939 6.74987H3.14944C3.05207 6.74987 2.95734 6.71829 2.87945 6.65987C2.42611 6.31987 2.09124 5.84585 1.92228 5.30495C1.75331 4.76405 1.75882 4.18371 1.93802 3.64611C2.11721 3.10852 2.46102 2.64094 2.92073 2.3096C3.38043 1.97826 3.93274 1.79997 4.49942 1.79997Z" fill="#6D6E72"/>
</g>
</svg>
