<svg width="10" height="10" viewBox="0 0 10 10" fill="none" xmlns="http://www.w3.org/2000/svg">
<path d="M5.30303 8.23863C5.47039 8.23863 5.60606 8.10296 5.60606 7.9356C5.60606 7.76824 5.47039 7.63257 5.30303 7.63257C5.13567 7.63257 5 7.76824 5 7.9356C5 8.10296 5.13567 8.23863 5.30303 8.23863Z" fill="#6D6E72"/>
<path d="M4.69705 0.96582H5.00008V1.26885H4.69705V0.96582Z" fill="#6D6E72"/>
<path d="M3.48477 0.96582H3.78781V1.26885H3.48477V0.96582Z" fill="#6D6E72"/>
<path d="M4.09091 2.78418H5.60607V4.29933H4.09091V2.78418Z" fill="#6D6E72"/>
<path d="M6.21204 2.17798H3.48477V4.90525H6.21204V2.17798ZM5.90902 4.45071C5.90902 4.4909 5.89305 4.52943 5.86464 4.55784C5.83623 4.58626 5.79768 4.60222 5.7575 4.60222H3.93932C3.89914 4.60222 3.8606 4.58626 3.83218 4.55784C3.80376 4.52943 3.78781 4.4909 3.78781 4.45071V2.63252C3.78781 2.59234 3.80376 2.55381 3.83218 2.52539C3.8606 2.49698 3.89914 2.48102 3.93932 2.48102H5.7575C5.79768 2.48102 5.83623 2.49698 5.86464 2.52539C5.89305 2.55381 5.90902 2.59234 5.90902 2.63252V4.45071Z" fill="#6D6E72"/>
<path d="M5.90909 0.96582H6.21212V1.26885H5.90909V0.96582Z" fill="#6D6E72"/>
<path d="M7.12112 3.84473H7.42416V5.20836H7.12112V3.84473Z" fill="#6D6E72"/>
<path d="M4.39386 6.42041H8.33326V6.72344H4.39386V6.42041Z" fill="#6D6E72"/>
<path d="M3.48477 6.42041H4.09084V6.72344H3.48477V6.42041Z" fill="#6D6E72"/>
<path d="M8.3334 3.84473H8.63643V5.20836H8.3334V3.84473Z" fill="#6D6E72"/>
<path d="M7.12112 1.2688H7.42416V3.54153H7.12112V1.2688Z" fill="#6D6E72"/>
<path d="M8.3334 1.2688H8.63643V3.54153H8.3334V1.2688Z" fill="#6D6E72"/>
<path d="M9.39395 0.0568848H1.06062C1.02044 0.0568848 0.981898 0.0728479 0.953483 0.101263C0.925068 0.129677 0.909105 0.168216 0.909105 0.2084V1.87507H0.454559V2.17809H0.909105V2.48113H0.606075C0.56589 2.48113 0.527352 2.49709 0.498937 2.5255C0.470523 2.55392 0.454559 2.59246 0.454559 2.63264V3.84477C0.454559 3.88495 0.470523 3.92348 0.498937 3.9519C0.527352 3.98031 0.56589 3.99628 0.606075 3.99628H0.909105V4.29931H0.454559V4.60234H0.909105V8.99628C0.909105 9.03647 0.925068 9.075 0.953483 9.10343C0.981898 9.13179 1.02044 9.14779 1.06062 9.14779H9.39395C9.43414 9.14779 9.47268 9.13179 9.50109 9.10343C9.5295 9.075 9.54547 9.03647 9.54547 8.99628V0.2084C9.54547 0.168216 9.5295 0.129677 9.50109 0.101263C9.47268 0.0728479 9.43414 0.0568848 9.39395 0.0568848ZM6.8182 1.11749C6.8182 1.0773 6.83416 1.03877 6.86258 1.01036C6.89099 0.981939 6.92952 0.965976 6.96971 0.965976H7.12122V0.662946H7.42426V0.965976H7.57577C7.61596 0.965976 7.6545 0.981939 7.6829 1.01036C7.71132 1.03877 7.72729 1.0773 7.72729 1.11749V5.35991C7.72729 5.4001 7.71132 5.43864 7.6829 5.46705C7.6545 5.49547 7.61596 5.51143 7.57577 5.51143H7.42426V5.81446H7.12122V5.51143H6.96971C6.92952 5.51143 6.89099 5.49547 6.86258 5.46705C6.83416 5.43864 6.8182 5.4001 6.8182 5.35991V1.11749ZM5.60608 0.81446C5.60608 0.774277 5.62204 0.735737 5.65045 0.707323C5.67887 0.678908 5.7174 0.662946 5.75759 0.662946H6.36365C6.40383 0.662946 6.44238 0.678908 6.47079 0.707323C6.4992 0.735737 6.51517 0.774277 6.51517 0.81446V1.42052C6.51517 1.4607 6.4992 1.49925 6.47079 1.52766C6.44238 1.55608 6.40383 1.57204 6.36365 1.57204H5.75759C5.7174 1.57204 5.67887 1.55608 5.65045 1.52766C5.62204 1.49925 5.60608 1.4607 5.60608 1.42052V0.81446ZM4.39395 0.81446C4.39395 0.774277 4.40991 0.735737 4.43833 0.707323C4.46674 0.678908 4.50529 0.662946 4.54547 0.662946H5.15153C5.19171 0.662946 5.23025 0.678908 5.25867 0.707323C5.28708 0.735737 5.30304 0.774277 5.30304 0.81446V1.42052C5.30304 1.4607 5.28708 1.49925 5.25867 1.52766C5.23025 1.55608 5.19171 1.57204 5.15153 1.57204H4.54547C4.50529 1.57204 4.46674 1.55608 4.43833 1.52766C4.40991 1.49925 4.39395 1.4607 4.39395 1.42052V0.81446ZM3.18183 0.81446C3.18183 0.774277 3.1978 0.735737 3.22621 0.707323C3.25462 0.678908 3.29316 0.662946 3.33335 0.662946H3.9394C3.9796 0.662946 4.01813 0.678908 4.04654 0.707323C4.07496 0.735737 4.09092 0.774277 4.09092 0.81446V1.42052C4.09092 1.4607 4.07496 1.49925 4.04654 1.52766C4.01813 1.55608 3.9796 1.57204 3.9394 1.57204H3.33335C3.29316 1.57204 3.25462 1.55608 3.22621 1.52766C3.1978 1.49925 3.18183 1.4607 3.18183 1.42052V0.81446ZM3.18183 2.02658C3.18183 1.98639 3.1978 1.94786 3.22621 1.91945C3.25462 1.89103 3.29316 1.87507 3.33335 1.87507H6.36365C6.40383 1.87507 6.44238 1.89103 6.47079 1.91945C6.4992 1.94786 6.51517 1.98639 6.51517 2.02658V5.05688C6.51517 5.09707 6.4992 5.13561 6.47079 5.16402C6.44238 5.19244 6.40383 5.2084 6.36365 5.2084H3.33335C3.29316 5.2084 3.25462 5.19244 3.22621 5.16402C3.1978 5.13561 3.18183 5.09707 3.18183 5.05688V2.02658ZM6.21213 5.51143V5.81446H5.9091V5.51143H6.21213ZM5.60608 5.51143V5.81446H5.30304V5.51143H5.60608ZM5.00001 5.51143V5.81446H4.69699V5.51143H5.00001ZM4.39395 5.51143V5.81446H4.09092V5.51143H4.39395ZM3.7879 5.51143V5.81446H3.48486V5.51143H3.7879ZM1.21213 0.965976H1.8182V1.269H1.21213V0.965976ZM1.21213 2.17809H1.8182V4.29931H1.21213V3.99628H1.36365C1.40383 3.99628 1.44238 3.98031 1.47079 3.9519C1.4992 3.92348 1.51517 3.88495 1.51517 3.84477V2.63264C1.51517 2.59246 1.4992 2.55392 1.47079 2.5255C1.44238 2.49709 1.40383 2.48113 1.36365 2.48113H1.21213V2.17809ZM1.8182 5.2084V5.51143H1.21213V5.2084H1.8182ZM0.757589 3.69325V2.78416H1.21213V3.69325H0.757589ZM1.8182 8.39022H1.51517V8.08718H1.8182V8.39022ZM1.8182 7.78416H1.51517V7.48113H1.8182V7.78416ZM2.42426 8.39022H2.12122V8.08718H2.42426V8.39022ZM2.42426 7.78416H2.12122V7.48113H2.42426V7.78416ZM2.42426 6.72355H1.21213V6.42052H2.42426V6.72355ZM2.8788 3.99628H2.42426V3.69325H2.8788V3.99628ZM2.8788 3.39022H2.42426V3.08718H2.8788V3.39022ZM2.8788 2.78416H2.42426V2.48113H2.8788V2.78416ZM2.8788 2.17809H2.42426V1.87507H2.8788V2.17809ZM2.8788 1.57204H2.42426V1.269H2.8788V1.57204ZM2.8788 0.965976H2.42426V0.662946H2.8788V0.965976ZM4.39395 8.39022H3.03031V8.08718H4.39395V8.39022ZM4.39395 7.78416H3.03031V7.48113H4.39395V7.78416ZM5.30304 8.54173C5.18318 8.54173 5.066 8.50618 4.96633 8.43959C4.86667 8.373 4.78899 8.27835 4.74311 8.1676C4.69725 8.05686 4.68524 7.935 4.70863 7.81744C4.73201 7.69987 4.78973 7.59188 4.8745 7.50712C4.95925 7.42237 5.06724 7.36464 5.1848 7.34126C5.30237 7.31788 5.42423 7.32987 5.53498 7.37575C5.64571 7.42162 5.74037 7.49929 5.80697 7.59897C5.87356 7.69863 5.9091 7.8158 5.9091 7.93568C5.90892 8.09636 5.84501 8.2504 5.7314 8.36402C5.61778 8.47764 5.46372 8.54156 5.30304 8.54173ZM6.51517 8.39022H6.21213V8.08718H6.51517V8.39022ZM6.51517 7.78416H6.21213V7.48113H6.51517V7.78416ZM7.12122 8.39022H6.8182V8.08718H7.12122V8.39022ZM7.12122 7.78416H6.8182V7.48113H7.12122V7.78416ZM8.9394 7.78416H8.63638V8.08718H8.9394V8.39022H8.63638C8.63638 8.4304 8.62041 8.46894 8.592 8.49736C8.56359 8.52577 8.52505 8.54173 8.48486 8.54173H7.8788C7.83861 8.54173 7.80008 8.52577 7.77167 8.49736C7.74325 8.46894 7.72729 8.4304 7.72729 8.39022H7.42426V8.08718H7.72729V7.78416H7.42426V7.48113H7.72729C7.72729 7.44094 7.74325 7.4024 7.77167 7.37399C7.80008 7.34557 7.83861 7.32961 7.8788 7.32961H8.48486C8.52505 7.32961 8.56359 7.34557 8.592 7.37399C8.62041 7.4024 8.63638 7.44094 8.63638 7.48113H8.9394V7.78416ZM8.9394 6.72355H8.63638V6.87507C8.63638 6.91525 8.62041 6.95379 8.592 6.9822C8.56359 7.01062 8.52505 7.02658 8.48486 7.02658H3.33335C3.29316 7.02658 3.25462 7.01062 3.22621 6.9822C3.1978 6.95379 3.18183 6.91525 3.18183 6.87507V6.269C3.18183 6.22882 3.1978 6.19028 3.22621 6.16187C3.25462 6.13346 3.29316 6.11749 3.33335 6.11749H8.48486C8.52505 6.11749 8.56359 6.13346 8.592 6.16187C8.62041 6.19028 8.63638 6.22882 8.63638 6.269V6.42052H8.9394V6.72355ZM8.9394 5.35991C8.9394 5.4001 8.92344 5.43864 8.89503 5.46705C8.86661 5.49547 8.82808 5.51143 8.7879 5.51143H8.63638V5.81446H8.33335V5.51143H8.18183C8.14165 5.51143 8.10311 5.49547 8.0747 5.46705C8.04628 5.43864 8.03031 5.4001 8.03031 5.35991V1.11749C8.03031 1.0773 8.04628 1.03877 8.0747 1.01036C8.10311 0.981939 8.14165 0.965976 8.18183 0.965976H8.33335V0.662946H8.63638V0.965976H8.7879C8.82808 0.965976 8.86661 0.981939 8.89503 1.01036C8.92344 1.03877 8.9394 1.0773 8.9394 1.11749V5.35991Z" fill="#6D6E72"/>
<path d="M8.03021 7.63257H8.33325V8.23863H8.03021V7.63257Z" fill="#6D6E72"/>
</svg>
