<svg width="140" height="32" viewBox="0 0 140 32" fill="none" xmlns="http://www.w3.org/2000/svg">
<g clip-path="url(#clip0_1_2512)">
<g clip-path="url(#clip1_1_2512)">
<g clip-path="url(#clip2_1_2512)">
<path d="M41.8539 11.4512C41.8539 9.11362 42.6893 7.1648 44.3601 5.60467C46.031 4.04455 48.0681 3.26361 50.4715 3.26361C53.2845 3.26361 55.5688 4.34138 57.3244 6.49339L54.8706 8.29734C53.7969 6.77785 52.33 6.01812 50.4715 6.01812C48.954 6.01812 47.6585 6.55346 46.585 7.62064C45.5095 8.68957 44.9737 9.96698 44.9737 11.4512C44.9737 12.9353 45.5113 14.2144 46.585 15.2834C47.6585 16.3524 48.954 16.886 50.4715 16.886C51.8356 16.886 53.003 16.5025 53.9756 15.734C54.9481 14.9654 55.5941 13.93 55.9189 12.6279H50.4463V9.87336H59.0891V11.9511C59.0891 13.6368 58.4323 15.241 57.1206 16.7588C55.4659 18.6775 53.2502 19.6387 50.4715 19.6387C48.0681 19.6387 46.031 18.8578 44.3601 17.2976C42.6911 15.7375 41.8539 13.7869 41.8539 11.4512Z" fill="white"/>
<path d="M62.8494 19.3118V12.6261H60.9314V9.87338H62.8494V3.58698H75.1749V6.34147H65.8158V9.87338H72.3367V12.6261H65.8158V16.5591H75.1749V19.3118H62.8494Z" fill="white"/>
<path d="M76.7106 19.3136L82.5657 6.19129H78.883V3.58698H85.532L92.3344 19.3136H89.1407L87.9173 16.3577H81.1239L79.888 19.3136H76.7106ZM82.1759 13.7533H86.8456L84.5342 8.15602L82.1759 13.7533Z" fill="white"/>
<path d="M95.2231 19.3136V14.3558H93.3051V11.6014H95.2231V3.58698H102.87C104.573 3.58698 105.964 4.07109 107.038 5.03931C108.112 6.00754 108.649 7.31853 108.649 8.97053C108.649 10.0889 108.299 11.0731 107.601 11.9247C106.901 12.7763 105.999 13.37 104.891 13.7021L108.906 19.3118H105.171L101.822 14.354H98.1896V19.3118H95.2231V19.3136ZM98.1896 6.34147V11.5996H102.639C103.509 11.5996 104.232 11.3699 104.813 10.9105C105.392 10.4511 105.683 9.80447 105.683 8.97053C105.683 8.11891 105.398 7.46872 104.826 7.01641C104.255 6.56587 103.527 6.3397 102.639 6.3397H98.1896V6.34147Z" fill="white"/>
<path d="M117.139 19.6387L110.03 3.58698H113.225L117.139 13.2039L121.05 3.58698H124.247L117.139 19.6387Z" fill="white"/>
<path d="M140 19.6391L129.643 9.67241V19.314H126.676V3.27292L137.033 13.2379V3.58741H140V19.6391Z" fill="white"/>
<path d="M51.8355 25.9976C51.8355 25.2802 52.0917 24.6831 52.6042 24.2042C53.1166 23.7254 53.7409 23.4869 54.4771 23.4869C55.3396 23.4869 56.0397 23.8172 56.5774 24.478L55.8249 25.0311C55.4966 24.5664 55.0473 24.3332 54.4771 24.3332C54.0116 24.3332 53.6146 24.4975 53.2844 24.8244C52.956 25.153 52.7918 25.5435 52.7918 25.9994C52.7918 26.4552 52.956 26.8456 53.2844 27.1743C53.6146 27.5011 54.0116 27.6655 54.4771 27.6655C54.8939 27.6655 55.253 27.5471 55.5507 27.3121C55.8484 27.0771 56.0469 26.759 56.1462 26.3598H54.4681V25.5152H57.1169V26.1531C57.1169 26.669 56.9165 27.1619 56.5142 27.6265C56.0072 28.2149 55.3288 28.5082 54.4753 28.5082C53.7374 28.5082 53.1148 28.2697 52.6024 27.7909C52.0917 27.3121 51.8355 26.7148 51.8355 25.9976Z" fill="white"/>
<path d="M61.4637 28.4075V26.3579H60.8755V25.5133H61.4637V23.5875H65.242V24.4303H62.3731V25.5133H64.3723V26.3579H62.3731V27.5629H65.242V28.4075H61.4637Z" fill="white"/>
<path d="M68.9048 28.4074L70.7002 24.3844H69.5707V23.5858H71.6096L73.6954 28.4074H72.7156L72.3404 27.501H70.2581L69.8792 28.4074H68.9048ZM70.581 26.7042H72.0137L71.3047 24.9887L70.581 26.7042Z" fill="white"/>
<path d="M77.7714 28.4093V26.888H77.1831V26.0435H77.7714V23.5875H80.1153C80.6385 23.5875 81.0625 23.7359 81.3945 24.0328C81.7229 24.3296 81.8889 24.7324 81.8889 25.2378C81.8889 25.5806 81.7807 25.8827 81.5659 26.1441C81.3512 26.4057 81.0751 26.5877 80.7359 26.6883L81.9664 28.4093H80.8225L79.7958 26.888H78.6826V28.4093H77.7714ZM78.6807 24.4303V26.0417H80.0449C80.3101 26.0417 80.532 25.971 80.7106 25.8315C80.8893 25.6919 80.9777 25.4922 80.9777 25.236C80.9777 24.9745 80.8893 24.7748 80.7161 24.637C80.5392 24.4992 80.3173 24.4303 80.0467 24.4303H78.6807Z" fill="white"/>
<path d="M87.6828 28.5081L85.5032 23.5875H86.4811L87.6828 26.5346L88.8808 23.5875H89.8624L87.6828 28.5081Z" fill="white"/>
<path d="M97.8828 28.5082L94.7072 25.4534V28.4075H93.7978V23.4904L96.9734 26.5453V23.5876H97.8828V28.5082Z" fill="white"/>
<path d="M102.399 28.04C102.399 27.9075 102.444 27.7962 102.537 27.706C102.628 27.6177 102.742 27.5718 102.877 27.5718C103.012 27.5718 103.126 27.6177 103.217 27.706C103.308 27.7962 103.356 27.9075 103.356 28.04C103.356 28.1743 103.308 28.2856 103.217 28.374C103.126 28.464 103.012 28.5082 102.877 28.5082C102.745 28.5082 102.634 28.4622 102.54 28.3704C102.446 28.2786 102.399 28.1673 102.399 28.04Z" fill="white"/>
<path d="M111.563 26.9958L112.302 27.5188C111.762 28.1778 111.062 28.51 110.199 28.51C109.461 28.51 108.839 28.2697 108.326 27.7909C107.814 27.3121 107.558 26.7148 107.558 25.9993C107.558 25.282 107.814 24.6847 108.326 24.206C108.839 23.7272 109.463 23.4886 110.199 23.4886C111.062 23.4886 111.762 23.819 112.302 24.478L111.549 25.0311C111.221 24.5664 110.772 24.3314 110.201 24.3314C109.735 24.3314 109.339 24.4957 109.008 24.8226C108.68 25.1494 108.516 25.5417 108.516 25.9976C108.516 26.4534 108.68 26.8438 109.008 27.1725C109.339 27.4993 109.735 27.6637 110.201 27.6637C110.775 27.6637 111.228 27.4411 111.563 26.9958Z" fill="white"/>
<path d="M116.157 25.9976C116.157 25.2802 116.413 24.6831 116.926 24.2042C117.438 23.7254 118.063 23.4869 118.798 23.4869C119.537 23.4869 120.161 23.7254 120.672 24.2042C121.184 24.6831 121.441 25.2802 121.441 25.9976C121.441 26.7148 121.184 27.3121 120.672 27.7909C120.16 28.268 119.535 28.5082 118.798 28.5082C118.061 28.5082 117.438 28.2697 116.926 27.7909C116.413 27.3121 116.157 26.7148 116.157 25.9976ZM117.113 25.9976C117.113 26.4534 117.279 26.8438 117.608 27.1725C117.939 27.4993 118.335 27.6637 118.8 27.6637C119.266 27.6637 119.663 27.4993 119.992 27.1725C120.322 26.8456 120.485 26.4534 120.485 25.9976C120.485 25.5417 120.322 25.1512 119.992 24.8226C119.661 24.4957 119.266 24.3314 118.8 24.3314C118.335 24.3314 117.939 24.4957 117.608 24.8226C117.279 25.1512 117.113 25.5417 117.113 25.9976Z" fill="white"/>
<path d="M125.645 28.4075V23.4886L127.832 25.6548L130.018 23.4886V28.4075H129.111V25.4286L127.832 26.7273L126.554 25.4286V28.4075H125.645Z" fill="white"/>
<path d="M40.9643 -0.00152588H40.7947L0 0.0179093L13.0094 22.0821H24.4508L29.5734 13.3929L31.569 13.3734H33.0774L35.0496 10.027L22.4462 10.0288L20.4902 13.3734H23.5595L18.787 21.3366L11.0823 6.70186L37.02 6.68772L40.9643 -0.00152588Z" fill="white"/>
<path d="M18.7148 31.7715L24.0395 22.7412H13.3884L18.7148 31.7715Z" fill="white"/>
</g>
</g>
</g>
<defs>
<clipPath id="clip0_1_2512">
<rect width="140" height="31.77" fill="white"/>
</clipPath>
<clipPath id="clip1_1_2512">
<rect width="140" height="31.77" fill="white"/>
</clipPath>
<clipPath id="clip2_1_2512">
<rect width="140" height="31.7731" fill="white" transform="translate(0 -0.00152588)"/>
</clipPath>
</defs>
</svg>
