<svg width="10" height="10" viewBox="0 0 10 10" fill="none" xmlns="http://www.w3.org/2000/svg">
<path fill-rule="evenodd" clip-rule="evenodd" d="M2.74416 1.07757C2.90044 0.921293 3.1124 0.833496 3.33341 0.833496H6.66675C6.88776 0.833496 7.09972 0.921293 7.256 1.07757C7.41228 1.23385 7.50008 1.44581 7.50008 1.66683V4.16683C7.7211 4.16683 7.93306 4.25462 8.08934 4.4109C8.24562 4.56718 8.33341 4.77915 8.33341 5.00016V6.25016C8.33341 6.80269 8.11392 7.3326 7.72322 7.7233C7.33252 8.114 6.80262 8.33349 6.25008 8.33349V8.75016C6.25008 8.98028 6.06353 9.16683 5.83341 9.16683C5.6033 9.16683 5.41675 8.98028 5.41675 8.75016V8.33349H4.58341V8.75016C4.58341 8.98028 4.39687 9.16683 4.16675 9.16683C3.93663 9.16683 3.75008 8.98028 3.75008 8.75016V8.33349C3.19755 8.33349 2.66764 8.114 2.27694 7.7233C1.88624 7.3326 1.66675 6.80269 1.66675 6.25016V5.00016C1.66675 4.77915 1.75455 4.56718 1.91083 4.4109C2.06711 4.25462 2.27907 4.16683 2.50008 4.16683V1.66683C2.50008 1.44581 2.58788 1.23385 2.74416 1.07757ZM2.50008 5.00016V6.25016C2.50008 6.58168 2.63178 6.89962 2.8662 7.13404C3.10062 7.36846 3.41856 7.50016 3.75008 7.50016H6.25008C6.5816 7.50016 6.89954 7.36846 7.13396 7.13404C7.36839 6.89962 7.50008 6.58168 7.50008 6.25016V5.00016H2.50008ZM6.66675 4.16683V1.66683H3.33341V4.16683H6.66675ZM4.16675 2.08349C4.39687 2.08349 4.58341 2.27004 4.58341 2.50016V2.91683C4.58341 3.14694 4.39687 3.33349 4.16675 3.33349C3.93663 3.33349 3.75008 3.14694 3.75008 2.91683V2.50016C3.75008 2.27004 3.93663 2.08349 4.16675 2.08349ZM5.83341 2.08349C6.06353 2.08349 6.25008 2.27004 6.25008 2.50016V2.91683C6.25008 3.14694 6.06353 3.33349 5.83341 3.33349C5.6033 3.33349 5.41675 3.14694 5.41675 2.91683V2.50016C5.41675 2.27004 5.6033 2.08349 5.83341 2.08349Z" fill="#6D6E72"/>
<path d="M2.0835 5.00017C2.0835 4.88966 2.12739 4.78368 2.20554 4.70554C2.28368 4.6274 2.38966 4.5835 2.50016 4.5835H7.50016C7.61067 4.5835 7.71665 4.6274 7.79479 4.70554C7.87293 4.78368 7.91683 4.88966 7.91683 5.00017V6.25017C7.91683 6.6922 7.74123 7.11612 7.42867 7.42868C7.11611 7.74124 6.69219 7.91684 6.25016 7.91684H3.75016C3.30814 7.91684 2.88421 7.74124 2.57165 7.42868C2.25909 7.11612 2.0835 6.6922 2.0835 6.25017V5.00017Z" fill="#6D6E72"/>
</svg>
