<svg width="18" height="42" viewBox="0 0 18 42" fill="none" xmlns="http://www.w3.org/2000/svg">
<path d="M3.79902 14.7L3.45797 12.9H0.900024M3.79902 14.7H17.1L13.6895 22.8409H5.16322M3.79902 14.7L5.16322 22.8409M5.16322 22.8409L3.20815 23.9637C2.67099 24.5307 3.17783 25.4182 3.93752 25.4182H8.66252H11.025L13.6895 25.5M13.6895 25.5C13.2372 25.5 12.8035 25.6896 12.4837 26.0272C12.1639 26.3648 11.9842 26.8226 11.9842 27.3C11.9842 27.7774 12.1639 28.2352 12.4837 28.5728C12.8035 28.9104 13.2372 29.1 13.6895 29.1C14.1418 29.1 14.5755 28.9104 14.8953 28.5728C15.2151 28.2352 15.3948 27.7774 15.3948 27.3C15.3948 26.8226 15.2151 26.3648 14.8953 26.0272C14.5755 25.6896 14.1418 25.5 13.6895 25.5ZM6.86848 27.3C6.86848 27.7774 6.68882 28.2352 6.36903 28.5728C6.04923 28.9104 5.61548 29.1 5.16322 29.1C4.71097 29.1 4.27723 28.9104 3.95742 28.5728C3.63763 28.2352 3.45797 27.7774 3.45797 27.3C3.45797 26.8226 3.63763 26.3648 3.95742 26.0272C4.27723 25.6896 4.71097 25.5 5.16322 25.5C5.61548 25.5 6.04923 25.6896 6.36903 26.0272C6.68882 26.3648 6.86848 26.8226 6.86848 27.3Z" stroke="white" stroke-width="1.8" stroke-linecap="round" stroke-linejoin="round"/>
</svg>
