<svg width="24" height="24" viewBox="0 0 24 24" fill="none" xmlns="http://www.w3.org/2000/svg">
<path d="M17.437 21.938H6.56201C5.89897 21.938 5.26309 21.6746 4.79424 21.2058C4.3254 20.7369 4.06201 20.101 4.06201 19.438V4.56201C4.06201 3.89896 4.3254 3.26308 4.79424 2.79424C5.26309 2.3254 5.89897 2.06201 6.56201 2.06201H17.437C18.1001 2.06201 18.7359 2.3254 19.2048 2.79424C19.6736 3.26308 19.937 3.89896 19.937 4.56201V19.438C19.937 20.101 19.6736 20.7369 19.2048 21.2058C18.7359 21.6746 18.1001 21.938 17.437 21.938ZM6.56201 3.06201C6.16419 3.06201 5.78266 3.22004 5.50135 3.50135C5.22005 3.78265 5.06201 4.16418 5.06201 4.56201V19.438C5.06201 19.8358 5.22005 20.2174 5.50135 20.4987C5.78266 20.78 6.16419 20.938 6.56201 20.938H17.437C17.8348 20.938 18.2164 20.78 18.4977 20.4987C18.779 20.2174 18.937 19.8358 18.937 19.438V4.56201C18.937 4.16418 18.779 3.78265 18.4977 3.50135C18.2164 3.22004 17.8348 3.06201 17.437 3.06201H6.56201Z" fill="#111111"/>
<path d="M12 18.939C11.2583 18.939 10.5333 18.7191 9.91661 18.307C9.29993 17.895 8.81928 17.3093 8.53545 16.6241C8.25163 15.9388 8.17736 15.1848 8.32206 14.4574C8.46675 13.73 8.8239 13.0618 9.34835 12.5374C9.8728 12.0129 10.541 11.6558 11.2684 11.5111C11.9958 11.3664 12.7498 11.4406 13.4351 11.7245C14.1203 12.0083 14.706 12.4889 15.118 13.1056C15.5301 13.7223 15.75 14.4473 15.75 15.189C15.7487 16.1832 15.3532 17.1362 14.6502 17.8392C13.9472 18.5422 12.9942 18.9377 12 18.939ZM12 12.439C11.4561 12.439 10.9244 12.6003 10.4722 12.9025C10.0199 13.2046 9.66747 13.6341 9.45933 14.1366C9.25119 14.6391 9.19673 15.1921 9.30284 15.7255C9.40895 16.259 9.67086 16.749 10.0555 17.1335C10.4401 17.5181 10.9301 17.7801 11.4635 17.8862C11.997 17.9923 12.5499 17.9378 13.0524 17.7297C13.5549 17.5215 13.9844 17.1691 14.2865 16.7168C14.5887 16.2646 14.75 15.7329 14.75 15.189C14.7495 14.4598 14.4596 13.7607 13.944 13.245C13.4283 12.7294 12.7292 12.4395 12 12.439ZM12 9.56298C11.555 9.56298 11.12 9.43102 10.75 9.18379C10.38 8.93656 10.0916 8.58516 9.92127 8.17402C9.75098 7.76289 9.70642 7.31049 9.79323 6.87403C9.88005 6.43757 10.0943 6.03666 10.409 5.72199C10.7237 5.40733 11.1246 5.19303 11.561 5.10622C11.9975 5.0194 12.4499 5.06396 12.861 5.23426C13.2722 5.40455 13.6236 5.69294 13.8708 6.06295C14.118 6.43296 14.25 6.86798 14.25 7.31298C14.2492 7.90948 14.0119 8.48131 13.5901 8.9031C13.1683 9.32488 12.5965 9.56219 12 9.56298ZM12 6.06298C11.7528 6.06298 11.5111 6.1363 11.3055 6.27365C11.1 6.411 10.9398 6.60622 10.8452 6.83463C10.7505 7.06304 10.7258 7.31437 10.774 7.55685C10.8223 7.79932 10.9413 8.02205 11.1161 8.19687C11.2909 8.37168 11.5137 8.49073 11.7561 8.53897C11.9986 8.5872 12.2499 8.56244 12.4784 8.46783C12.7068 8.37322 12.902 8.21301 13.0393 8.00745C13.1767 7.80189 13.25 7.56021 13.25 7.31298C13.2497 6.98155 13.118 6.66376 12.8836 6.42939C12.6492 6.19503 12.3314 6.06325 12 6.06298Z" fill="#111111"/>
</svg>
