<svg width="18" height="19" viewBox="0 0 18 19" fill="none" xmlns="http://www.w3.org/2000/svg">
<path d="M4 16H3.5C1.84315 16 0.5 14.6569 0.5 13V7C0.5 5.34315 1.84315 4 3.5 4H14.5C16.1569 4 17.5 5.34315 17.5 7V13C17.5 14.6569 16.1569 16 14.5 16H14" stroke="#111111" stroke-linecap="round"/>
<path d="M14.5 4V3C14.5 1.89543 13.6046 1 12.5 1H5.5C4.39543 1 3.5 1.89543 3.5 3V4" stroke="#111111" stroke-linecap="round"/>
<path d="M12.5 12.5H5.5C4.67157 12.5 4 13.1716 4 14V17C4 17.8284 4.67157 18.5 5.5 18.5H12.5C13.3284 18.5 14 17.8284 14 17V14C14 13.1716 13.3284 12.5 12.5 12.5Z" stroke="#111111"/>
<path d="M2.5 7H5.5" stroke="#111111" stroke-linecap="round"/>
</svg>
