<svg width="16" height="21" viewBox="0 0 16 21" fill="none" xmlns="http://www.w3.org/2000/svg">
<path d="M3.42374 13.6057H12.5762" stroke="#111111"/>
<path d="M3.4238 10.5999V14.6879C3.4238 15.2402 3.87151 15.6879 4.4238 15.6879H11.5763C12.1286 15.6879 12.5763 15.2402 12.5763 14.6879V10.6C12.5763 9.85202 12.3071 9.12907 11.8179 8.56331C11.706 8.43393 11.6913 8.24664 11.7753 8.09763C12.0408 7.62651 12.5763 6.57918 12.5763 5.79604C12.5763 5.02711 11.5738 3.90031 11.0494 3.36352C10.8544 3.16391 10.7346 2.89476 10.637 2.63335C10.545 2.38712 10.3694 2.04387 10.034 1.631C9.32994 0.764489 6.3573 0.815215 5.80972 1.63104C5.544 2.02692 5.40722 2.37444 5.33682 2.62732C5.26197 2.89614 5.14568 3.16391 4.95069 3.36352C4.42631 3.90031 3.4238 5.02711 3.4238 5.79604C3.4238 6.57918 3.95929 7.62651 4.22477 8.09764C4.30873 8.24664 4.29406 8.43393 4.18219 8.56331C3.693 9.12907 3.4238 9.85201 3.4238 10.5999Z" stroke="#111111"/>
<path d="M12.6666 14.6291H13.7406C14.2929 14.6291 14.7406 14.1814 14.7406 13.6291V11.4437" stroke="#111111"/>
<path d="M3.33348 14.6291H2.25943C1.70714 14.6291 1.25943 14.1814 1.25943 13.6291V11.4437" stroke="#111111"/>
<path d="M15.7777 11.4437H13.7036" stroke="#111111"/>
<path d="M2.2964 11.4437H0.222351" stroke="#111111"/>
<path d="M8.00003 15.6906V18.876" stroke="#111111"/>
<path d="M5.42601 19.3701C5.42601 18.7872 4.95343 18.3146 4.37048 18.3146C3.78752 18.3146 3.31494 18.7872 3.31494 19.3701V19.4445C3.31494 20.0274 3.78752 20.5 4.37048 20.5C4.95343 20.5 5.42601 20.0274 5.42601 19.4445V19.3701Z" stroke="#111111"/>
<path d="M12.6852 19.3701C12.6852 18.7872 12.2126 18.3146 11.6296 18.3146C11.0467 18.3146 10.5741 18.7872 10.5741 19.3701V19.4445C10.5741 20.0274 11.0467 20.5 11.6296 20.5C12.2126 20.5 12.6852 20.0274 12.6852 19.4445V19.3701Z" stroke="#111111"/>
<path d="M4.37036 18.3452H11.6295" stroke="#111111"/>
</svg>
