<svg width="12" height="12" viewBox="0 0 12 12" fill="none" xmlns="http://www.w3.org/2000/svg">
<path d="M2.39657 10.7257L3.07141 7.54029L0.709452 5.35768C0.709452 5.35768 0.372022 5.06274 0.484504 4.64981C0.596986 4.23688 1.04688 4.23688 1.04688 4.23688L4.19615 3.94193L5.43337 0.933462C5.43337 0.933462 5.60207 0.461548 5.99574 0.461548C6.38941 0.461548 6.55811 0.933462 6.55811 0.933462L7.79533 3.94193L11.0571 4.23688C11.0571 4.23688 11.3945 4.29587 11.507 4.64981C11.6194 5.00374 11.3945 5.2397 11.3945 5.2397L8.92007 7.54029L9.59491 10.8437C9.59491 10.8437 9.70736 11.1977 9.4262 11.4336C9.14502 11.6695 8.69513 11.4336 8.69513 11.4336L5.99574 9.72287L3.3526 11.4336C3.3526 11.4336 2.95894 11.6695 2.62151 11.4336C2.28409 11.1977 2.39657 10.7257 2.39657 10.7257Z" fill="#FF8A00"/>
</svg>
