<svg width="10" height="10" viewBox="0 0 10 10" fill="none" xmlns="http://www.w3.org/2000/svg">
<mask id="mask0_1_600" style="mask-type:luminance" maskUnits="userSpaceOnUse" x="0" y="1" width="10" height="8">
<path d="M10 1.5H0V8.5H10V1.5Z" fill="white"/>
</mask>
<g mask="url(#mask0_1_600)">
<path d="M0.807138 7.03778C0.483498 6.988 0.211453 6.78889 0.0754307 6.35956C0.0285264 6.204 0.00507422 6.01733 0.00507422 5.84311C0.000383788 4.79778 0.000383788 3.74622 0.00507422 2.69467C0.00507422 1.95422 0.347476 1.5 0.900947 1.5C3.63078 1.5 6.36061 1.5 9.09044 1.5C9.6486 1.5 9.991 1.948 9.991 2.68844C9.99569 3.72756 9.991 4.76667 9.991 5.812C9.991 6.484 9.75648 6.86978 9.2593 7.01911C9.23115 7.02533 9.20301 7.044 9.1608 7.05644C9.1608 7.36133 9.1608 7.66622 9.1608 7.96489C9.1608 8.37556 9.07637 8.49378 8.7668 8.49378C7.41127 8.5 6.06042 8.49378 4.70489 8.49378C3.56511 8.49378 2.42534 8.49378 1.28556 8.49378C0.891566 8.49378 0.8259 8.40044 0.821209 7.87778C0.821209 7.62267 0.821209 7.36756 0.821209 7.11244C0.83059 7.1 0.821209 7.08133 0.807138 7.03778ZM1.12609 5.68756C1.12609 5.79956 1.19175 5.89289 1.28087 5.89289C1.78744 5.90533 3.3259 5.91778 4.18894 5.924C4.34372 5.924 4.44691 5.82444 4.44691 5.66889C4.44691 4.93467 4.4516 3.57822 4.4516 2.956C4.4516 2.77556 4.33903 2.63244 4.20301 2.63244H1.28556C1.20113 2.63244 1.13078 2.72578 1.13078 2.83778L1.12609 5.68756ZM8.86999 5.60044V2.94356C8.86999 2.77556 8.7668 2.63867 8.64016 2.63867H5.80245C5.67581 2.63867 5.57262 2.77556 5.57262 2.94356V5.60044C5.57262 5.76844 5.67581 5.90533 5.80245 5.90533H8.64016C8.7668 5.90533 8.86999 5.76844 8.86999 5.60044ZM1.93284 7.05022C1.74522 7.05022 1.58106 7.05022 1.40751 7.05022C1.40751 7.29289 1.40751 7.51067 1.40751 7.74089C1.58575 7.74089 1.75461 7.74089 1.93284 7.74089C1.93284 7.51067 1.93284 7.28667 1.93284 7.05022ZM3.03978 7.05022C2.85686 7.05022 2.688 7.05022 2.51446 7.05022C2.51446 7.29289 2.51446 7.51067 2.51446 7.74711C2.69269 7.74711 2.85686 7.74711 3.03978 7.74711C3.03978 7.51067 3.03978 7.29289 3.03978 7.05022ZM3.6214 7.74089C3.8137 7.74089 3.97787 7.74089 4.15142 7.74089C4.15142 7.49822 4.15142 7.28044 4.15142 7.05644C3.96849 7.05644 3.79963 7.05644 3.6214 7.05644C3.6214 7.29911 3.6214 7.51067 3.6214 7.74089ZM5.26305 7.05022C5.07543 7.05022 4.91127 7.05022 4.73772 7.05022C4.73772 7.29289 4.73772 7.51067 4.73772 7.74711C4.91596 7.74711 5.08481 7.74711 5.26305 7.74711C5.26305 7.51067 5.26305 7.29289 5.26305 7.05022ZM6.37468 7.05022C6.18706 7.05022 6.01821 7.05022 5.84466 7.05022C5.84466 7.29289 5.84466 7.51067 5.84466 7.74089C6.02759 7.74089 6.20114 7.74089 6.37468 7.74089C6.37468 7.50444 6.37468 7.29289 6.37468 7.05022ZM6.96568 7.044C6.96568 7.29289 6.96568 7.52311 6.96568 7.74089C7.15329 7.74089 7.31746 7.74089 7.48162 7.74089C7.48162 7.49822 7.48162 7.28044 7.48162 7.044C7.30339 7.044 7.14391 7.044 6.96568 7.044ZM8.06324 7.73467C8.24147 7.73467 8.41033 7.73467 8.58856 7.73467C8.58856 7.49822 8.58856 7.27422 8.58856 7.05022C8.40564 7.05022 8.23678 7.05022 8.06324 7.05022C8.06324 7.28667 8.06324 7.49822 8.06324 7.73467Z" fill="#6D6E72"/>
<path d="M2.27955 5.17114H1.89025C1.77768 5.17114 1.68387 5.0467 1.68387 4.89737V3.64048C1.68387 3.48492 1.77768 3.3667 1.89025 3.3667H2.27955C2.39212 3.3667 2.48593 3.48492 2.48593 3.64048V4.89737C2.48593 5.0467 2.39212 5.17114 2.27955 5.17114Z" fill="#6D6E72"/>
<path d="M3.66792 5.17114H3.2786C3.16603 5.17114 3.07224 5.0467 3.07224 4.89737V3.63425C3.07224 3.48492 3.16134 3.3667 3.2786 3.3667H3.66792C3.78049 3.3667 3.87429 3.49114 3.87429 3.64048V4.90359C3.87429 5.0467 3.78049 5.17114 3.66792 5.17114Z" fill="#6D6E72"/>
<path d="M6.32741 3.35425H6.7214C6.83397 3.35425 6.92778 3.47869 6.92778 3.62803V4.89114C6.92778 5.04047 6.83397 5.16491 6.7214 5.16491H6.32741C6.21484 5.16491 6.12103 5.04047 6.12103 4.89114V3.62803C6.12572 3.47869 6.21484 3.35425 6.32741 3.35425Z" fill="#6D6E72"/>
<path d="M8.11444 5.16491H7.71575C7.60318 5.16491 7.50937 5.04047 7.50937 4.89114V3.62803C7.50937 3.47869 7.60318 3.35425 7.71575 3.35425H8.11444C8.22701 3.35425 8.32082 3.47869 8.32082 3.62803V4.89114C8.32082 5.04669 8.22701 5.16491 8.11444 5.16491Z" fill="#6D6E72"/>
</g>
</svg>
