<svg width="10" height="10" viewBox="0 0 10 10" fill="none" xmlns="http://www.w3.org/2000/svg">
<path d="M6.99159 3.00816C7.05075 3.0665 7.08325 3.14608 7.08325 3.229V4.27066C7.08325 4.35354 7.05033 4.43303 6.99172 4.49163C6.93312 4.55024 6.85363 4.58316 6.77075 4.58316C6.68787 4.58316 6.60839 4.55024 6.54978 4.49163C6.49118 4.43303 6.45825 4.35354 6.45825 4.27066V3.98316L5.74159 4.69983C5.71274 4.72966 5.67825 4.75345 5.64012 4.76981C5.60198 4.78617 5.56097 4.79477 5.51948 4.79511C5.47799 4.79546 5.43684 4.78753 5.39844 4.7718C5.36004 4.75607 5.32516 4.73285 5.29584 4.70349C5.26651 4.67414 5.24332 4.63923 5.22763 4.60082C5.21193 4.56241 5.20404 4.52126 5.20442 4.47976C5.2048 4.43827 5.21344 4.39727 5.22984 4.35915C5.24624 4.32103 5.27006 4.28656 5.29992 4.25775L6.01658 3.5415H5.72909C5.64621 3.5415 5.56672 3.50857 5.50811 3.44997C5.44951 3.39136 5.41659 3.31188 5.41659 3.229C5.41659 3.14612 5.44951 3.06663 5.50811 3.00803C5.56672 2.94942 5.64621 2.9165 5.72909 2.9165H6.77075C6.8536 2.91657 6.93304 2.94954 6.99159 3.00816ZM2.91659 6.77066C2.91659 6.85354 2.94951 6.93303 3.00811 6.99163C3.06672 7.05024 3.14621 7.08316 3.22909 7.08316H4.27117C4.35405 7.08316 4.43353 7.05024 4.49214 6.99163C4.55074 6.93303 4.58367 6.85354 4.58367 6.77066C4.58367 6.68778 4.55074 6.6083 4.49214 6.54969C4.43353 6.49109 4.35405 6.45816 4.27117 6.45816H3.98367L4.70034 5.7415C4.75723 5.68253 4.78869 5.60358 4.78794 5.52164C4.78719 5.43971 4.75429 5.36134 4.69632 5.30343C4.63836 5.24552 4.55996 5.21269 4.47802 5.21201C4.39609 5.21134 4.31716 5.24288 4.25825 5.29983L3.54159 6.01566V5.72816C3.54159 5.64528 3.50866 5.5658 3.45006 5.50719C3.39145 5.44859 3.31197 5.41566 3.22909 5.41566C3.14621 5.41566 3.06672 5.44859 3.00811 5.50719C2.94951 5.5658 2.91659 5.64528 2.91659 5.72816V6.77066ZM0.833252 2.81233C0.833252 2.50844 0.953973 2.21699 1.16886 2.0021C1.38374 1.78722 1.67519 1.6665 1.97909 1.6665H8.02075C8.32465 1.6665 8.61609 1.78722 8.83098 2.0021C9.04586 2.21699 9.16659 2.50844 9.16659 2.81233V7.18733C9.16659 7.3378 9.13695 7.4868 9.07936 7.62582C9.02178 7.76484 8.93738 7.89116 8.83098 7.99756C8.72458 8.10396 8.59826 8.18836 8.45924 8.24594C8.32022 8.30353 8.17122 8.33316 8.02075 8.33316H1.97909C1.82861 8.33316 1.67961 8.30353 1.54059 8.24594C1.40157 8.18836 1.27526 8.10396 1.16886 7.99756C1.06246 7.89116 0.978057 7.76484 0.920473 7.62582C0.86289 7.4868 0.833252 7.3378 0.833252 7.18733V2.81233ZM1.97909 2.2915C1.69159 2.2915 1.45825 2.52483 1.45825 2.81233V7.18733C1.45825 7.47483 1.69159 7.70816 1.97909 7.70816H8.02075C8.30825 7.70816 8.54159 7.47483 8.54159 7.18733V2.81233C8.54159 2.52483 8.30825 2.2915 8.02075 2.2915H1.97909Z" fill="#6D6E72"/>
</svg>
