<svg width="20" height="14" viewBox="0 0 20 14" fill="none" xmlns="http://www.w3.org/2000/svg">
<path d="M18 1C18.5523 1 19 1.44772 19 2V3.5C19 3.5 17.5 3.75127 17.5 5.5C17.5 7.24873 19 7.5 19 7.5V9C19 9.55229 18.5523 10 18 10H2C1.44772 10 1 9.55228 1 9V7.5C1 7.5 2.5 7.27709 2.5 5.5C2.5 3.72291 1 3.5 1 3.5V2C1 1.44771 1.44772 1 2 1L18 1Z" stroke="#111111"/>
<path d="M3 10H17V12C17 12.5523 16.5523 13 16 13H4C3.44772 13 3 12.5523 3 12V10Z" stroke="#111111"/>
<path d="M6 3H5V8H6V3Z" fill="#111111"/>
<path d="M6 10H5V13H6V10Z" fill="#111111"/>
<path d="M9 10H8V13H9V10Z" fill="#111111"/>
<path d="M12 10H11V13H12V10Z" fill="#111111"/>
<path d="M15 10H14V13H15V10Z" fill="#111111"/>
<path d="M10.5 3H9.5V8H10.5V3Z" fill="#111111"/>
<path d="M15 3H14V8H15V3Z" fill="#111111"/>
</svg>
