<svg width="20" height="20" viewBox="0 0 20 20" fill="none" xmlns="http://www.w3.org/2000/svg">
<path d="M1 2V18C1 18.5523 1.44772 19 2 19H10C10.5523 19 11 18.5523 11 18V2C11 1.44772 10.5523 1 10 1H2C1.44772 1 1 1.44772 1 2Z" stroke="#111111"/>
<path d="M13 3H17C18.1046 3 19 3.89543 19 5V13C19 14.1046 18.1046 15 17 15H13" stroke="#111111"/>
<path d="M16.5 18.5C16.7761 18.5 17 18.2761 17 18C17 17.7239 16.7761 17.5 16.5 17.5V18.5ZM13 18.5H16.5V17.5H13V18.5Z" fill="#111111"/>
<path d="M6 6C6.55228 6 7 5.55228 7 5C7 4.44772 6.55228 4 6 4C5.44772 4 5 4.44772 5 5C5 5.55228 5.44772 6 6 6Z" fill="#111111"/>
<path d="M6 10C6.55228 10 7 9.55228 7 9C7 8.44772 6.55228 8 6 8C5.44772 8 5 8.44772 5 9C5 9.55228 5.44772 10 6 10Z" fill="#111111"/>
</svg>
