<svg width="18" height="42" viewBox="0 0 18 42" fill="none" xmlns="http://www.w3.org/2000/svg">
<path d="M3.93745 20.4833H2.92496C1.80659 20.4833 0.899983 21.3945 0.899983 22.5186V25.5714C0.899983 26.6954 1.80659 27.6067 2.92496 27.6067H3.93745C5.05581 27.6067 5.96242 26.6954 5.96242 25.5714V22.5186C5.96242 21.3945 5.05581 20.4833 3.93745 20.4833Z" stroke="white" stroke-width="1.8" stroke-linecap="round" stroke-linejoin="round"/>
<path d="M15.0748 20.4835H14.0623C12.944 20.4835 12.0373 21.3948 12.0373 22.5188V25.5716C12.0373 26.6957 12.944 27.6068 14.0623 27.6068H15.0748C16.1931 27.6068 17.0997 26.6957 17.0997 25.5716V22.5188C17.0997 21.3948 16.1931 20.4835 15.0748 20.4835Z" stroke="white" stroke-width="1.8" stroke-linecap="round" stroke-linejoin="round"/>
<path d="M0.900197 22.5186V19.4657C0.900197 17.3066 1.75358 15.2359 3.2726 13.7092C4.79163 12.1824 6.85187 11.3247 9.0001 11.3247C11.1483 11.3247 13.2085 12.1824 14.7276 13.7092C16.2466 15.2359 17.1 17.3066 17.1 19.4657V22.5186" stroke="white" stroke-width="1.8" stroke-linecap="round" stroke-linejoin="round"/>
<path d="M7.3717 31.2609C4.81119 31.3629 1.51934 30.2705 1.67689 27.0367H3.41726C3.41726 29.3057 5.2995 29.9243 7.3717 29.8138C7.42636 29.5244 7.67341 29.3058 7.97054 29.3058H10.5761C10.9133 29.3058 11.1136 29.7646 11.1136 30.1116V30.9466C11.1136 31.2936 10.8403 31.5748 10.5031 31.5748H7.89752C7.67218 31.5748 7.47749 31.448 7.3717 31.2609Z" fill="white"/>
</svg>
