<svg width="10" height="10" viewBox="0 0 10 10" fill="none" xmlns="http://www.w3.org/2000/svg">
<mask id="mask0_1_945" style="mask-type:luminance" maskUnits="userSpaceOnUse" x="-1" y="-1" width="12" height="12">
<path d="M10.4545 -0.454364H-0.454464V10.4546H10.4545V-0.454364Z" fill="white"/>
</mask>
<g mask="url(#mask0_1_945)">
<path d="M5.00003 0.45463V4.31823" stroke="#6D6E72" stroke-width="0.833333" stroke-linecap="round" stroke-linejoin="round"/>
<path d="M4.99995 0.45463C2.48951 0.45463 0.45453 2.48961 0.45453 5.00004C0.45453 7.51048 2.48951 9.54546 4.99995 9.54546C7.51038 9.54546 9.54536 7.51048 9.54536 5.00004C9.54536 3.94869 9.18854 2.98075 8.58923 2.21075" stroke="#6D6E72" stroke-width="0.833333" stroke-linecap="round"/>
<path d="M4.99995 2.50007C3.61927 2.50007 2.49997 3.61937 2.49997 5.00005C2.49997 6.38071 3.61927 7.50003 4.99995 7.50003C6.38061 7.50003 7.49993 6.38071 7.49993 5.00005C7.49993 4.42187 7.30357 3.88937 6.97402 3.46597" stroke="#6D6E72" stroke-width="0.833333" stroke-linecap="round"/>
<path d="M5.00003 5.68195C5.37659 5.68195 5.68185 5.37669 5.68185 5.00013C5.68185 4.62358 5.37659 4.31832 5.00003 4.31832C4.62348 4.31832 4.31822 4.62358 4.31822 5.00013C4.31822 5.37669 4.62348 5.68195 5.00003 5.68195Z" stroke="#6D6E72" stroke-width="0.833333"/>
</g>
</svg>
