<svg width="18" height="42" viewBox="0 0 18 42" fill="none" xmlns="http://www.w3.org/2000/svg">
<path d="M13.9638 11.9518H10.792C10.3731 10.7932 9.27596 9.95427 7.97932 9.95427C6.68267 9.95427 5.58552 10.7932 5.1666 11.9518H1.99483C0.897673 11.9518 0 12.8507 0 13.9493L0.0465361 30.0477C0.0465361 31.1463 0.944209 32.0452 2.04137 32.0452H8.13556C7.54547 31.4717 7.32928 31.1788 6.9831 30.4318H1.67867L1.63213 13.5844H3.98966V14.3911C3.98966 15.4897 4.88733 16.3886 5.98448 16.3886H9.97415C11.0713 16.3886 11.969 15.4897 11.969 14.3911V13.5844H14.2812V19.4386C14.9893 19.5385 15.3402 19.7483 15.9586 20.0379V13.9493C15.9586 12.8507 15.0609 11.9518 13.9638 11.9518ZM7.97932 14.3911C7.34459 14.3911 6.52854 13.9877 6.52854 12.9506C6.52854 12.3744 6.93656 11.5677 7.97932 11.5677C8.5279 11.5677 9.38477 11.9853 9.38477 12.9506C9.38477 13.9158 8.65807 14.3911 7.97932 14.3911ZM13.013 22.0576C10.2601 22.0576 8.02585 24.2948 8.02585 27.0513C8.02585 29.808 10.2601 32.0452 13.013 32.0452C15.7658 32.0452 18 29.808 18 27.0513C18 24.2948 15.7658 22.0576 13.013 22.0576ZM14.2996 29.0489L12.6539 27.4009C12.5608 27.3081 12.5072 27.1828 12.5043 27.0513V24.5645C12.5043 24.2848 12.7237 24.0651 13.003 24.0651C13.2823 24.0651 13.5017 24.2848 13.5017 24.5645V26.8516L14.9977 28.3497C15.0443 28.3955 15.0814 28.45 15.1069 28.5102C15.1323 28.5704 15.1456 28.635 15.1459 28.7003C15.1462 28.7657 15.1336 28.8304 15.1088 28.8909C15.084 28.9513 15.0474 29.0062 15.0013 29.0524C14.9551 29.0986 14.9003 29.1352 14.84 29.1601C14.7796 29.1849 14.7149 29.1976 14.6497 29.1972C14.5844 29.1969 14.5199 29.1836 14.4598 29.1582C14.3997 29.1327 14.3453 29.0956 14.2996 29.0489Z" fill="white"/>
</svg>
