<svg width="27" height="27" viewBox="0 0 27 27" fill="none" xmlns="http://www.w3.org/2000/svg">
<path d="M9 8.91C6.3 11.52 5.31 16.38 7.11 17.46C7.56 17.73 7.92 16.65 7.83 14.94C7.65 9.72 12.15 6.39 16.92 8.19C19.89 9.36 20.25 9.27 20.25 7.92C20.25 7.38 18.45 6.75 15.93 6.57C12.15 6.21 11.34 6.48 9 8.91Z" fill="black"/>
<path d="M11.97 10.26C8.91 11.7 9.09 17.19 12.15 18.63C15.84 20.34 18.9 18.36 18.9 14.31C18.9 11.97 18.45 10.89 17.37 10.44C16.47 10.17 15.39 9.71999 14.85 9.53999C14.4 9.35999 13.05 9.71999 11.97 10.26ZM16.2 11.97C18 13.41 17.91 15.48 16.02 16.92C12.87 19.26 9.54 14.4 12.6 11.97C13.32 11.34 14.13 10.89 14.4 10.89C14.67 10.89 15.48 11.34 16.2 11.97Z" fill="black"/>
<path d="M12.78 14.13C13.14 16.2 15.66 16.2 16.02 14.13C16.2 13.05 15.75 12.6 14.4 12.6C13.05 12.6 12.6 13.05 12.78 14.13Z" fill="black"/>
<path d="M20.97 13.86C21.15 18.81 16.65 22.41 12.42 20.79C9.45 19.62 8.55 19.71 8.55 20.88C8.55 21.42 10.35 22.05 12.87 22.23C16.65 22.59 17.46 22.32 19.8 19.89C22.5 17.28 23.49 12.42 21.69 11.34C21.24 11.07 20.88 12.15 20.97 13.86Z" fill="black"/>
</svg>
