<svg width="9" height="9" viewBox="0 0 9 9" fill="none" xmlns="http://www.w3.org/2000/svg">
<mask id="mask0_1_1851" style="mask-type:luminance" maskUnits="userSpaceOnUse" x="-1" y="-1" width="11" height="11">
<path d="M9.90007 -0.900198H-0.900198V9.90007H9.90007V-0.900198Z" fill="white"/>
</mask>
<g mask="url(#mask0_1_1851)">
<path d="M8.76782 2.30609L4.70783 0.0560285C4.64111 0.0192752 4.56618 0 4.49002 0C4.41386 0 4.33892 0.0192752 4.27221 0.0560285L0.232015 2.28808C0.161829 2.32695 0.103308 2.38387 0.0625148 2.45295C0.0217211 2.52204 0.000137832 2.60077 6.68251e-07 2.681C-0.000137575 2.76122 0.0211757 2.84003 0.0617318 2.90925C0.102288 2.97848 0.160613 3.0356 0.230665 3.0747L4.29067 5.34275C4.3575 5.38032 4.43286 5.40008 4.50954 5.40016C4.58621 5.40023 4.6616 5.38063 4.72852 5.34321L8.76873 3.09316C8.83891 3.05412 8.89737 2.99702 8.93804 2.92777C8.97871 2.85853 9.00011 2.77966 9.00002 2.69936C8.99993 2.61905 8.97835 2.54023 8.93751 2.47107C8.89669 2.40192 8.8381 2.34496 8.76782 2.30609Z" fill="#6D6E72"/>
<path d="M4.50005 6.23509L0.668203 4.10653L0.231246 4.89315L4.28134 7.1432C4.34818 7.18032 4.42337 7.1998 4.49982 7.1998C4.57628 7.1998 4.65147 7.18032 4.7183 7.1432L8.7684 4.89315L8.33144 4.10653L4.50005 6.23509Z" fill="#6D6E72"/>
<path d="M4.50005 8.03494L0.668203 5.90639L0.231246 6.69301L4.28134 8.94307C4.34818 8.98018 4.42337 8.99967 4.49982 8.99967C4.57628 8.99967 4.65147 8.98018 4.7183 8.94307L8.7684 6.69301L8.33144 5.90639L4.50005 8.03494Z" fill="#6D6E72"/>
</g>
</svg>
