<svg width="22" height="14" viewBox="0 0 22 14" fill="none" xmlns="http://www.w3.org/2000/svg">
<path d="M17.5625 3.5H15.375V1.75C15.375 0.7875 14.5875 0 13.625 0H3.125C2.1625 0 1.375 0.7875 1.375 1.75V9.625C1.375 10.5875 2.1625 11.375 3.125 11.375C3.125 12.8275 4.2975 14 5.75 14C7.2025 14 8.375 12.8275 8.375 11.375H13.625C13.625 12.8275 14.7975 14 16.25 14C17.7025 14 18.875 12.8275 18.875 11.375H19.75C20.2313 11.375 20.625 10.9812 20.625 10.5V7.58625C20.625 7.21 20.5025 6.8425 20.275 6.53625L18.2625 3.85C18.0962 3.63125 17.8337 3.5 17.5625 3.5ZM5.75 12.25C5.26875 12.25 4.875 11.8562 4.875 11.375C4.875 10.8938 5.26875 10.5 5.75 10.5C6.23125 10.5 6.625 10.8938 6.625 11.375C6.625 11.8562 6.23125 12.25 5.75 12.25ZM17.5625 4.8125L19.2775 7H15.375V4.8125H17.5625ZM16.25 12.25C15.7688 12.25 15.375 11.8562 15.375 11.375C15.375 10.8938 15.7688 10.5 16.25 10.5C16.7312 10.5 17.125 10.8938 17.125 11.375C17.125 11.8562 16.7312 12.25 16.25 12.25Z" fill="#FF3C53"/>
</svg>
