<svg width="19" height="19" viewBox="0 0 19 19" fill="none" xmlns="http://www.w3.org/2000/svg">
<path d="M18 5.69565V8.04348C18 9.06086 15.6495 10.3913 12.75 10.3913C9.8505 10.3913 7.5 9.06086 7.5 8.04348V5.69565" stroke="#111111" stroke-linecap="round" stroke-linejoin="round"/>
<path d="M18 8.43478V10.7826C18 11.8 15.6495 13.1304 12.75 13.1304C9.8505 13.1304 7.5 11.8 7.5 10.7826V8.43478" stroke="#111111" stroke-linecap="round" stroke-linejoin="round"/>
<path d="M18 3.34781V5.69564C18 6.71303 15.6495 8.04346 12.75 8.04346C9.8505 8.04346 7.5 6.71303 7.5 5.69564V3.34781" stroke="#111111" stroke-linecap="round" stroke-linejoin="round"/>
<mask id="mask0_1_2471" style="mask-type:alpha" maskUnits="userSpaceOnUse" x="0" y="1" width="8" height="15">
<path d="M7.50001 1.78262H0V15.0869H7.50001V1.78262Z" fill="#C4C4C4"/>
</mask>
<g mask="url(#mask0_1_2471)">
<path d="M11.25 8.82608V11.1739C11.25 12.1913 8.89949 13.5217 6 13.5217C3.1005 13.5217 0.75 12.1913 0.75 11.1739V8.82608" stroke="#111111" stroke-linecap="round" stroke-linejoin="round"/>
<path d="M11.25 6.47827V8.82609C11.25 9.84348 8.89949 11.1739 6 11.1739C3.1005 11.1739 0.75 9.84348 0.75 8.82609V6.47827" stroke="#111111" stroke-linecap="round" stroke-linejoin="round"/>
<path fill-rule="evenodd" clip-rule="evenodd" d="M6 8.81355C8.89949 8.81355 11.25 7.55668 11.25 6.47668C11.25 5.3959 8.89949 4.13043 6 4.13043C3.1005 4.13043 0.75 5.3959 0.75 6.47668C0.75 7.55668 3.1005 8.81355 6 8.81355Z" stroke="#111111" stroke-linecap="round" stroke-linejoin="round"/>
</g>
<path fill-rule="evenodd" clip-rule="evenodd" d="M12.75 5.68312C15.6495 5.68312 18 4.42626 18 3.34626C18 2.26548 15.6495 1 12.75 1C9.8505 1 7.5 2.26548 7.5 3.34626C7.5 4.42626 9.8505 5.68312 12.75 5.68312Z" stroke="#111111" stroke-linecap="round" stroke-linejoin="round"/>
<path d="M14.5 12.4783C14.5 9.4407 12.0376 6.97827 9 6.97827C5.96243 6.97827 3.5 9.4407 3.5 12.4783V13C3.5 16.0375 5.96243 18.5 9 18.5C12.0376 18.5 14.5 16.0375 14.5 13V12.4783Z" fill="white" stroke="#111111"/>
<path d="M11.25 13.7732C11.25 14.1878 11.1012 14.5475 10.8037 14.8522C10.5112 15.1519 10.0847 15.3442 9.52438 15.4291V16.2609H8.63182V15.4591C8.25992 15.4341 7.90785 15.3717 7.57562 15.2718C7.24339 15.1669 6.96818 15.0395 6.75 14.8896L7.23347 13.7957C7.46653 13.9505 7.73678 14.0754 8.04422 14.1703C8.35165 14.2652 8.65413 14.3127 8.95165 14.3127C9.51694 14.3127 9.79959 14.1703 9.79959 13.8856C9.79959 13.7357 9.71777 13.6258 9.55413 13.5559C9.39546 13.4809 9.13761 13.4035 8.78058 13.3236C8.38884 13.2387 8.06157 13.1488 7.79876 13.0538C7.53595 12.9539 7.31033 12.7966 7.1219 12.5818C6.93347 12.367 6.83926 12.0772 6.83926 11.7126C6.83926 11.283 6.99298 10.9158 7.30041 10.6111C7.60785 10.3014 8.05165 10.1116 8.63182 10.0416V9.21738H9.52438V10.0266C9.80703 10.0516 10.0773 10.1016 10.3351 10.1765C10.5979 10.2514 10.831 10.3488 11.0343 10.4687L10.5806 11.5702C10.0847 11.3005 9.60372 11.1656 9.1376 11.1656C8.84504 11.1656 8.63182 11.2105 8.49794 11.3005C8.36405 11.3854 8.29711 11.4978 8.29711 11.6377C8.29711 11.7775 8.37645 11.8824 8.53513 11.9524C8.6938 12.0223 8.94918 12.0947 9.30124 12.1697C9.69794 12.2546 10.0252 12.347 10.2831 12.4469C10.5459 12.5418 10.7715 12.6967 10.9599 12.9115C11.1533 13.1213 11.25 13.4085 11.25 13.7732Z" fill="#111111"/>
</svg>
