<svg width="20" height="36" viewBox="0 0 20 36" fill="none" xmlns="http://www.w3.org/2000/svg">
<g clip-path="url(#clip0_1_415)">
<path d="M15.9524 16.2053H11.9416L11.9383 16.2114H11.2125L16.0773 5.40002L3.61362 19.2649H8.37127L8.11217 19.9474L4.0769 30.6L15.9524 16.2053Z" fill="#FFC306"/>
<path d="M3.61364 19.2649L3 19.9473H8.1122L8.3713 19.2649H3.61364Z" fill="#FFAD00"/>
<path d="M11.9383 16.2114L11.9416 16.2053H11.9383L16.0773 5.40002L11.2125 16.2114H11.9383Z" fill="#FFAD00"/>
<path d="M17 16.2053H15.9524L4.0769 30.6001L17 16.2053Z" fill="#FFAD00"/>
<path d="M15.3544 6.52856C15.3544 6.52856 4.68224 18.3192 4.33603 18.9642C4.33603 18.9642 14.1077 8.25693 15.3544 6.52856Z" fill="#FFEE12"/>
<path d="M11.4561 16.3811C11.4561 16.3811 13.6744 16.2109 15.427 16.3811C15.427 16.3811 13.4291 16.5276 11.4561 16.3811Z" fill="#FFEE12"/>
</g>
<defs>
<clipPath id="clip0_1_415">
<rect width="14" height="25.2" fill="white" transform="translate(3 5.40002)"/>
</clipPath>
</defs>
</svg>
