<svg width="18" height="42" viewBox="0 0 18 42" fill="none" xmlns="http://www.w3.org/2000/svg">
<path d="M17 13.9999H1.00012C0.447834 13.9999 0.000122069 14.4476 0.000122069 14.9999C0.000122069 15.5522 0.447834 15.9999 1.00012 15.9999H17C17.5523 15.9999 18 15.5522 18 14.9999C18 14.4476 17.5523 13.9999 17 13.9999Z" fill="white"/>
<path d="M16.9999 19.9999H0.999993C0.447712 19.9999 0 20.4476 0 20.9999C0 21.5521 0.447712 21.9999 0.999993 21.9999H16.9999C17.5522 21.9999 17.9999 21.5521 17.9999 20.9999C17.9999 20.4476 17.5522 19.9999 16.9999 19.9999Z" fill="white"/>
<path d="M16.9999 25.9999H0.999993C0.447712 25.9999 0 26.4476 0 26.9999C0 27.5522 0.447712 27.9999 0.999993 27.9999H16.9999C17.5522 27.9999 17.9999 27.5522 17.9999 26.9999C17.9999 26.4476 17.5522 25.9999 16.9999 25.9999Z" fill="white"/>
</svg>
