<svg width="18" height="42" viewBox="0 0 18 42" fill="none" xmlns="http://www.w3.org/2000/svg">
<path d="M9.00001 21.2107C9.61877 21.2107 10.1487 20.9902 10.5897 20.5489C11.0299 20.1084 11.2501 19.5786 11.2501 18.9595C11.2501 18.3403 11.0299 17.8102 10.5897 17.3689C10.1487 16.9284 9.61877 16.7082 9.00001 16.7082C8.38126 16.7082 7.85177 16.9284 7.41151 17.3689C6.97051 17.8102 6.75001 18.3403 6.75001 18.9595C6.75001 19.5786 6.97051 20.1084 7.41151 20.5489C7.85177 20.9902 8.38126 21.2107 9.00001 21.2107ZM9.00001 29.4843C11.2876 27.3831 12.9844 25.474 14.0906 23.757C15.1969 22.0407 15.75 20.5167 15.75 19.1846C15.75 17.1396 15.0983 15.465 13.7947 14.1608C12.4921 12.8573 10.8938 12.2055 9.00001 12.2055C7.10627 12.2055 5.50763 12.8573 4.20413 14.1608C2.90138 15.465 2.25 17.1396 2.25 19.1846C2.25 20.5167 2.80313 22.0407 3.90938 23.757C5.01563 25.474 6.71251 27.3831 9.00001 29.4843ZM9.00001 32.0452C8.85002 32.0452 8.70002 32.017 8.55002 31.9607C8.40001 31.9044 8.26876 31.8294 8.15626 31.7356C5.41876 29.3155 3.37501 27.0691 2.02501 24.9963C0.675001 22.9229 0 20.9857 0 19.1846C0 16.3705 0.904876 14.1285 2.71463 12.4588C4.52364 10.7891 6.61876 9.95423 9.00001 9.95423C11.3813 9.95423 13.4764 10.7891 15.2854 12.4588C17.0952 14.1285 18 16.3705 18 19.1846C18 20.9857 17.325 22.9229 15.975 24.9963C14.625 27.0691 12.5813 29.3155 9.84376 31.7356C9.73126 31.8294 9.60002 31.9044 9.45002 31.9607C9.30002 32.017 9.15001 32.0452 9.00001 32.0452Z" fill="white"/>
</svg>
