<svg width="20" height="20" viewBox="0 0 20 20" fill="none" xmlns="http://www.w3.org/2000/svg">
<path d="M8.99268 4.9999H11.0073V9.9999H18.5165C18.7836 9.9999 19.0399 9.89648 19.2288 9.71229C19.4177 9.5281 19.5238 9.27827 19.5238 9.01779V5.98206C19.5238 5.72157 19.4177 5.47176 19.2288 5.28757C19.0399 5.10338 18.7836 4.9999 18.5165 4.9999H15.7774C16.1484 4.25509 16.2348 3.40572 16.0211 2.60438C15.8074 1.80304 15.3077 1.10223 14.6117 0.627836C13.9157 0.153441 13.0691 -0.0634535 12.2238 0.0161106C11.3786 0.0956743 10.5901 0.466484 10 1.06193C9.40893 0.469747 8.62112 0.101805 7.77739 0.0238681C6.93366 -0.0540686 6.08901 0.16308 5.39438 0.636504C4.69976 1.10992 4.20044 1.80877 3.98568 2.60812C3.77092 3.40748 3.85471 4.25525 4.22207 4.9999H1.48352C1.21636 4.9999 0.960146 5.10338 0.771235 5.28757C0.582325 5.47176 0.476196 5.72157 0.476196 5.98206V9.01779C0.476196 9.27827 0.582325 9.5281 0.771235 9.71229C0.864774 9.80343 0.975821 9.87581 1.09804 9.92514C1.22025 9.97457 1.35124 9.9999 1.48352 9.9999H8.99268V4.9999ZM11.0073 3.48204C11.0073 3.18183 11.0987 2.88837 11.2697 2.63875C11.4408 2.38914 11.6839 2.19459 11.9684 2.07971C12.2529 1.96483 12.5658 1.93477 12.8678 1.99333C13.1698 2.0519 13.4472 2.19647 13.665 2.40874C13.8827 2.62102 14.0309 2.89148 14.091 3.18591C14.1511 3.48035 14.1202 3.78554 14.0024 4.0629C13.8846 4.34026 13.6851 4.57731 13.4291 4.7441C13.173 4.91089 12.872 4.9999 12.5641 4.9999H11.0073V3.48204ZM5.87913 3.48204C5.87913 3.07948 6.04314 2.6934 6.33509 2.40874C6.62705 2.12409 7.02303 1.96417 7.4359 1.96417C7.84879 1.96417 8.24476 2.12409 8.53671 2.40874C8.82866 2.6934 8.99268 3.07948 8.99268 3.48204V4.9999H7.4359C7.02303 4.9999 6.62705 4.83999 6.33509 4.55533C6.04314 4.27068 5.87913 3.8846 5.87913 3.48204ZM11.0073 20H17.0512C17.3185 20 17.5747 19.8965 17.7635 19.7124C17.9525 19.5282 18.0586 19.2784 18.0586 19.0178V11.4285H11.0073V20ZM1.9414 19.0178C1.9414 19.2784 2.04753 19.5282 2.23643 19.7124C2.42535 19.8965 2.68157 20 2.94872 20H8.99268V11.4285H1.9414V19.0178Z" fill="#E30019"/>
</svg>
