<svg width="10" height="10" viewBox="0 0 10 10" fill="none" xmlns="http://www.w3.org/2000/svg">
<path fill-rule="evenodd" clip-rule="evenodd" d="M2.5 2.49968C2.49993 2.28944 2.57934 2.08694 2.72229 1.93278C2.86524 1.77862 3.06118 1.6842 3.27083 1.66843L3.33333 1.66634H3.75C3.74993 1.4561 3.82934 1.25361 3.97229 1.09945C4.11524 0.945287 4.31118 0.850859 4.52083 0.835091L4.58333 0.833008H5.41667C5.62691 0.832941 5.8294 0.912344 5.98356 1.0553C6.13772 1.19826 6.23215 1.3942 6.24792 1.60384L6.25 1.66634H6.66667C6.87691 1.66628 7.0794 1.74568 7.23356 1.88863C7.38772 2.03159 7.48215 2.22753 7.49792 2.43718L7.5 2.49968V8.33301C7.50007 8.54325 7.42066 8.74575 7.27771 8.89991C7.13476 9.05406 6.93881 9.14849 6.72917 9.16426L6.66667 9.16634H3.33333C3.12309 9.16641 2.9206 9.08701 2.76644 8.94405C2.61228 8.8011 2.51785 8.60516 2.50208 8.39551L2.5 8.33301V2.49968ZM3.75 7.49968C3.75001 7.60173 3.78748 7.70023 3.8553 7.7765C3.92311 7.85276 4.01656 7.90149 4.11792 7.91343L4.16667 7.91634H5.83333C5.93953 7.91623 6.04168 7.87556 6.1189 7.80266C6.19613 7.72975 6.2426 7.63011 6.24882 7.5241C6.25505 7.41808 6.22055 7.31369 6.15239 7.23225C6.08423 7.15081 5.98754 7.09847 5.88208 7.08593L5.83333 7.08301H4.16667C4.05616 7.08301 3.95018 7.12691 3.87204 7.20505C3.7939 7.28319 3.75 7.38917 3.75 7.49968ZM3.75 6.24968C3.75 6.36018 3.7939 6.46616 3.87204 6.54431C3.95018 6.62245 4.05616 6.66634 4.16667 6.66634H5.83333C5.94384 6.66634 6.04982 6.62244 6.12796 6.5443C6.2061 6.46616 6.25 6.36018 6.25 6.24968C6.25 6.13917 6.2061 6.03319 6.12796 5.95505C6.04982 5.87691 5.94384 5.83301 5.83333 5.83301H4.16667C4.05616 5.83301 3.95018 5.87691 3.87204 5.95505C3.7939 6.03319 3.75 6.13917 3.75 6.24968Z" fill="#6D6E72"/>
</svg>
