<svg width="141" height="33" viewBox="0 0 141 33" fill="none" xmlns="http://www.w3.org/2000/svg">
<g clip-path="url(#clip0_1_2515)">
<path d="M42.3539 12.4312C42.3539 10.0936 43.1893 8.14481 44.8601 6.58468C46.531 5.02456 48.5681 4.24362 50.9715 4.24362C53.7845 4.24362 56.0688 5.32139 57.8244 7.4734L55.3706 9.27735C54.2969 7.75786 52.83 6.99813 50.9715 6.99813C49.454 6.99813 48.1585 7.53347 47.085 8.60065C46.0095 9.66959 45.4737 10.947 45.4737 12.4312C45.4737 13.9153 46.0113 15.1945 47.085 16.2634C48.1585 17.3324 49.454 17.866 50.9715 17.866C52.3356 17.866 53.503 17.4825 54.4756 16.714C55.4481 15.9454 56.0941 14.91 56.4189 13.6079H50.9463V10.8534H59.5891V12.9311C59.5891 14.6168 58.9323 16.221 57.6206 17.7388C55.9659 19.6575 53.7502 20.6187 50.9715 20.6187C48.5681 20.6187 46.531 19.8378 44.8601 18.2776C43.1911 16.7175 42.3539 14.7669 42.3539 12.4312Z" fill="white"/>
<path d="M63.3494 20.2918V13.6061H61.4314V10.8534H63.3494V4.56699H75.6749V7.32148H66.3158V10.8534H72.8367V13.6061H66.3158V17.5391H75.6749V20.2918H63.3494Z" fill="white"/>
<path d="M77.2106 20.2936L83.0657 7.1713H79.383V4.56699H86.032L92.8344 20.2936H89.6407L88.4173 17.3377H81.6239L80.388 20.2936H77.2106ZM82.6759 14.7333H87.3456L85.0342 9.13603L82.6759 14.7333Z" fill="white"/>
<path d="M95.7231 20.2936V15.3358H93.8051V12.5814H95.7231V4.56699H103.37C105.073 4.56699 106.464 5.0511 107.538 6.01932C108.612 6.98756 109.149 8.29854 109.149 9.95054C109.149 11.0689 108.799 12.0531 108.101 12.9047C107.401 13.7563 106.499 14.35 105.391 14.6821L109.406 20.2918H105.671L102.322 15.334H98.6896V20.2918H95.7231V20.2936ZM98.6896 7.32148V12.5796H103.139C104.009 12.5796 104.732 12.3499 105.313 11.8905C105.892 11.4311 106.183 10.7845 106.183 9.95054C106.183 9.09893 105.898 8.44873 105.326 7.99642C104.755 7.54588 104.027 7.31971 103.139 7.31971H98.6896V7.32148Z" fill="white"/>
<path d="M117.639 20.6187L110.53 4.56699H113.725L117.639 14.1839L121.55 4.56699H124.747L117.639 20.6187Z" fill="white"/>
<path d="M140.5 20.6191L130.143 10.6524V20.294H127.176V4.25293L137.533 14.2179V4.56742H140.5V20.6191Z" fill="white"/>
<path d="M52.3355 26.9776C52.3355 26.2602 52.5917 25.6631 53.1042 25.1842C53.6166 24.7054 54.2409 24.4669 54.9771 24.4669C55.8396 24.4669 56.5397 24.7973 57.0774 25.458L56.3249 26.0111C55.9966 25.5464 55.5473 25.3132 54.9771 25.3132C54.5116 25.3132 54.1146 25.4775 53.7844 25.8044C53.456 26.133 53.2918 26.5235 53.2918 26.9794C53.2918 27.4352 53.456 27.8256 53.7844 28.1543C54.1146 28.4811 54.5116 28.6455 54.9771 28.6455C55.3939 28.6455 55.753 28.5271 56.0507 28.2921C56.3484 28.0571 56.5469 27.739 56.6462 27.3398H54.9681V26.4952H57.6169V27.1331C57.6169 27.649 57.4165 28.1419 57.0142 28.6065C56.5072 29.1949 55.8288 29.4883 54.9753 29.4883C54.2374 29.4883 53.6148 29.2498 53.1024 28.7709C52.5917 28.2921 52.3355 27.6949 52.3355 26.9776Z" fill="white"/>
<path d="M61.9637 29.3875V27.3379H61.3755V26.4933H61.9637V24.5675H65.742V25.4103H62.8731V26.4933H64.8723V27.3379H62.8731V28.5429H65.742V29.3875H61.9637Z" fill="white"/>
<path d="M69.4048 29.3875L71.2002 25.3644H70.0707V24.5658H72.1096L74.1954 29.3875H73.2156L72.8404 28.481H70.7581L70.3792 29.3875H69.4048ZM71.081 27.6842H72.5137L71.8047 25.9687L71.081 27.6842Z" fill="white"/>
<path d="M78.2714 29.3893V27.868H77.6831V27.0235H78.2714V24.5675H80.6153C81.1385 24.5675 81.5625 24.7159 81.8945 25.0128C82.2229 25.3096 82.3889 25.7124 82.3889 26.2178C82.3889 26.5606 82.2807 26.8627 82.0659 27.1241C81.8512 27.3857 81.5751 27.5677 81.2359 27.6684L82.4664 29.3893H81.3225L80.2958 27.868H79.1826V29.3893H78.2714ZM79.1807 25.4103V27.0217H80.5449C80.8101 27.0217 81.032 26.951 81.2106 26.8115C81.3893 26.6719 81.4777 26.4722 81.4777 26.216C81.4777 25.9545 81.3893 25.7548 81.2161 25.617C81.0392 25.4792 80.8173 25.4103 80.5467 25.4103H79.1807Z" fill="white"/>
<path d="M88.1828 29.4882L86.0032 24.5675H86.9811L88.1828 27.5147L89.3808 24.5675H90.3624L88.1828 29.4882Z" fill="white"/>
<path d="M98.3828 29.4883L95.2072 26.4334V29.3875H94.2978V24.4704L97.4734 27.5253V24.5676H98.3828V29.4883Z" fill="white"/>
<path d="M102.899 29.02C102.899 28.8875 102.944 28.7762 103.037 28.6861C103.128 28.5977 103.242 28.5518 103.377 28.5518C103.512 28.5518 103.626 28.5977 103.717 28.6861C103.808 28.7762 103.856 28.8875 103.856 29.02C103.856 29.1543 103.808 29.2656 103.717 29.354C103.626 29.444 103.512 29.4882 103.377 29.4882C103.245 29.4882 103.134 29.4423 103.04 29.3504C102.946 29.2586 102.899 29.1473 102.899 29.02Z" fill="white"/>
<path d="M112.063 27.9758L112.802 28.4988C112.262 29.1578 111.562 29.49 110.699 29.49C109.961 29.49 109.339 29.2497 108.826 28.7709C108.314 28.2921 108.058 27.6949 108.058 26.9793C108.058 26.262 108.314 25.6648 108.826 25.186C109.339 24.7072 109.963 24.4686 110.699 24.4686C111.562 24.4686 112.262 24.799 112.802 25.458L112.049 26.0111C111.721 25.5464 111.272 25.3114 110.701 25.3114C110.235 25.3114 109.839 25.4757 109.508 25.8026C109.18 26.1294 109.016 26.5217 109.016 26.9776C109.016 27.4334 109.18 27.8238 109.508 28.1525C109.839 28.4793 110.235 28.6437 110.701 28.6437C111.275 28.6437 111.728 28.4211 112.063 27.9758Z" fill="white"/>
<path d="M116.657 26.9776C116.657 26.2602 116.913 25.6631 117.426 25.1842C117.938 24.7054 118.563 24.4669 119.298 24.4669C120.037 24.4669 120.661 24.7054 121.172 25.1842C121.684 25.6631 121.941 26.2602 121.941 26.9776C121.941 27.6949 121.684 28.2921 121.172 28.7709C120.66 29.248 120.035 29.4883 119.298 29.4883C118.561 29.4883 117.938 29.2498 117.426 28.7709C116.913 28.2921 116.657 27.6949 116.657 26.9776ZM117.613 26.9776C117.613 27.4334 117.779 27.8238 118.108 28.1525C118.439 28.4794 118.835 28.6437 119.3 28.6437C119.766 28.6437 120.163 28.4794 120.492 28.1525C120.822 27.8256 120.985 27.4334 120.985 26.9776C120.985 26.5217 120.822 26.1312 120.492 25.8026C120.161 25.4757 119.766 25.3114 119.3 25.3114C118.835 25.3114 118.439 25.4757 118.108 25.8026C117.779 26.1312 117.613 26.5217 117.613 26.9776Z" fill="white"/>
<path d="M126.145 29.3875V24.4686L128.332 26.6348L130.518 24.4686V29.3875H129.611V26.4086L128.332 27.7073L127.054 26.4086V29.3875H126.145Z" fill="white"/>
<path d="M41.4643 0.978485H41.2947L0.5 0.99792L13.5094 23.0621H24.9508L30.0734 14.3729L32.069 14.3534H33.5774L35.5496 11.0071L22.9462 11.0088L20.9902 14.3534H24.0595L19.287 22.3166L11.5823 7.68187L37.52 7.66773L41.4643 0.978485Z" fill="white"/>
<path d="M19.2148 32.7516L24.5395 23.7213H13.8884L19.2148 32.7516Z" fill="white"/>
</g>
<defs>
<clipPath id="clip0_1_2515">
<rect width="140" height="31.7731" fill="white" transform="translate(0.5 0.978485)"/>
</clipPath>
</defs>
</svg>
