<svg width="21" height="14" viewBox="0 0 21 14" fill="none" xmlns="http://www.w3.org/2000/svg">
<path d="M4.50002 1.58002C3.94774 1.58002 3.50002 2.02774 3.50002 2.58002V9.08002C3.50002 9.63231 3.94774 10.08 4.50002 10.08H16.5C17.0523 10.08 17.5 9.63231 17.5 9.08002V2.58002C17.5 2.02774 17.0523 1.58002 16.5 1.58002H4.50002ZM4.20002 0.580017H10.5H16.8C17.2774 0.580017 17.7353 0.764391 18.0728 1.09258C18.4104 1.42077 18.6 1.86589 18.6 2.33002V9.33002C18.6 9.79415 18.4104 10.2393 18.0728 10.5675C17.7353 10.8956 17.2774 11.08 16.8 11.08H4.20002C3.72263 11.08 3.2648 10.8956 2.92723 10.5675C2.58967 10.2393 2.40002 9.79415 2.40002 9.33002V2.33002C2.40002 1.86589 2.58967 1.42077 2.92723 1.09258C3.2648 0.764391 3.72263 0.580017 4.20002 0.580017Z" fill="#111111"/>
<path d="M1.5 12.58H19.5" stroke="#111111" stroke-linecap="round"/>
</svg>
