<svg width="11" height="11" viewBox="0 0 11 11" fill="none" xmlns="http://www.w3.org/2000/svg">
<path d="M10.2075 9.18207H9.89499V10.0255C9.89499 10.1016 9.86407 10.1675 9.80222 10.2232C9.74037 10.2788 9.66713 10.3066 9.58249 10.3066C9.49785 10.3066 9.42461 10.2788 9.36276 10.2232C9.30091 10.1675 9.26999 10.1016 9.26999 10.0255V9.18207H8.64499V10.0255C8.64499 10.1016 8.61407 10.1675 8.55222 10.2232C8.49037 10.2788 8.41713 10.3066 8.33249 10.3066C8.24785 10.3066 8.17461 10.2788 8.11276 10.2232C8.05091 10.1675 8.01999 10.1016 8.01999 10.0255V9.18207H7.39499V10.0255C7.39499 10.1016 7.36407 10.1675 7.30222 10.2232C7.24037 10.2788 7.16713 10.3066 7.08249 10.3066C6.99785 10.3066 6.92461 10.2788 6.86276 10.2232C6.80091 10.1675 6.76999 10.1016 6.76999 10.0255V9.18207H6.14499V10.0255C6.14499 10.1016 6.11407 10.1675 6.05222 10.2232C5.99037 10.2788 5.91713 10.3066 5.83249 10.3066C5.74785 10.3066 5.67461 10.2788 5.61276 10.2232C5.55091 10.1675 5.51999 10.1016 5.51999 10.0255V9.18207H4.89499V10.0255C4.89499 10.1016 4.86407 10.1675 4.80222 10.2232C4.74037 10.2788 4.66713 10.3066 4.58249 10.3066C4.49785 10.3066 4.42461 10.2788 4.36276 10.2232C4.30091 10.1675 4.26999 10.1016 4.26999 10.0255V9.18207H3.64499V10.0255C3.64499 10.1016 3.61407 10.1675 3.55222 10.2232C3.49037 10.2788 3.41713 10.3066 3.33249 10.3066C3.24785 10.3066 3.17461 10.2788 3.11276 10.2232C3.05091 10.1675 3.01999 10.1016 3.01999 10.0255V9.18207H1.76999L1.56491 2.51182H10.2075C10.2921 2.51182 10.3654 2.53964 10.4272 2.59529C10.4891 2.65093 10.52 2.71682 10.52 2.79297V8.90093C10.52 8.97707 10.4891 9.04297 10.4272 9.09861C10.3654 9.15425 10.2921 9.18207 10.2075 9.18207ZM9.89499 4.12149C9.89499 3.96921 9.83477 3.83742 9.71433 3.72614C9.59388 3.61485 9.44577 3.55921 9.26999 3.55921H4.89499C4.72572 3.55921 4.57923 3.61485 4.45554 3.72614C4.33184 3.83742 4.26999 3.96921 4.26999 4.12149V7.49521C4.26999 7.65336 4.33184 7.78661 4.45554 7.89497C4.57923 8.00332 4.72572 8.0575 4.89499 8.0575H9.26999C9.44577 8.0575 9.59388 8.00332 9.71433 7.89497C9.83477 7.78661 9.89499 7.65336 9.89499 7.49521V4.12149ZM8.95749 7.49521H5.20749C5.12285 7.49521 5.04961 7.46739 4.98776 7.41175C4.92591 7.35611 4.89499 7.29021 4.89499 7.21407V4.40264C4.89499 4.3265 4.92591 4.2606 4.98776 4.20496C5.04961 4.14932 5.12285 4.12149 5.20749 4.12149H8.95749C9.04213 4.12149 9.11537 4.14932 9.17722 4.20496C9.23907 4.2606 9.26999 4.3265 9.26999 4.40264V7.21407C9.26999 7.29021 9.23907 7.35611 9.17722 7.41175C9.11537 7.46739 9.04213 7.49521 8.95749 7.49521ZM7.39499 4.68378C7.04994 4.68378 6.75534 4.7936 6.5112 5.01325C6.26706 5.23289 6.14499 5.49793 6.14499 5.80835C6.14499 6.11878 6.26706 6.38382 6.5112 6.60346C6.75534 6.82311 7.04994 6.93293 7.39499 6.93293C7.74004 6.93293 8.03464 6.82311 8.27878 6.60346C8.52292 6.38382 8.64499 6.11878 8.64499 5.80835C8.64499 5.49793 8.52292 5.23289 8.27878 5.01325C8.03464 4.7936 7.74004 4.68378 7.39499 4.68378ZM7.39987 6.37064C7.22735 6.37064 7.07923 6.31646 6.95554 6.20811C6.83184 6.09975 6.76999 5.96796 6.76999 5.81275C6.76999 5.65753 6.83184 5.52428 6.95554 5.413C7.07923 5.30171 7.22735 5.24607 7.39987 5.24607C7.5724 5.24607 7.71888 5.30025 7.83933 5.4086C7.95977 5.51696 8.01999 5.65021 8.01999 5.80835C8.01999 5.9665 7.95977 6.09975 7.83933 6.20811C7.71888 6.31646 7.5724 6.37064 7.39987 6.37064ZM2.17526 8.33362V10.0255C2.17526 10.1016 2.14434 10.1675 2.08249 10.2232C1.95722 10.3359 1.54213 10.3066 1.45749 10.3066C1.37285 10.3066 1.29961 10.2788 1.23776 10.2232C1.17591 10.1675 1.14499 10.1016 1.14499 10.0255V1.95267H0.832489C0.747854 1.95267 0.674611 1.92485 0.612762 1.86921C0.550914 1.81357 0.519989 1.70751 0.519989 1.63137C0.519989 1.47824 0.550914 1.44917 0.612762 1.39352C0.674611 1.33788 0.747854 1.31006 0.832489 1.31006H1.45749C1.48353 1.31006 1.50306 1.31299 1.51608 1.31884C1.76999 1.31006 1.76999 1.31006 2.08249 1.31006C2.39499 1.31006 2.39499 1.56108 2.39499 1.63137L2.17526 8.33362Z" fill="#6D6E72"/>
</svg>
