<svg width="11" height="11" viewBox="0 0 11 11" fill="none" xmlns="http://www.w3.org/2000/svg">
<path d="M10.3575 9.18207H10.045V10.0255C10.045 10.1016 10.0141 10.1675 9.95221 10.2232C9.89036 10.2788 9.81712 10.3066 9.73248 10.3066C9.64784 10.3066 9.5746 10.2788 9.51275 10.2232C9.4509 10.1675 9.41998 10.1016 9.41998 10.0255V9.18207H8.79498V10.0255C8.79498 10.1016 8.76406 10.1675 8.70221 10.2232C8.64036 10.2788 8.56712 10.3066 8.48248 10.3066C8.39784 10.3066 8.3246 10.2788 8.26275 10.2232C8.2009 10.1675 8.16998 10.1016 8.16998 10.0255V9.18207H7.54498V10.0255C7.54498 10.1016 7.51406 10.1675 7.45221 10.2232C7.39036 10.2788 7.31712 10.3066 7.23248 10.3066C7.14784 10.3066 7.0746 10.2788 7.01275 10.2232C6.9509 10.1675 6.91998 10.1016 6.91998 10.0255V9.18207H6.29498V10.0255C6.29498 10.1016 6.26406 10.1675 6.20221 10.2232C6.14036 10.2788 6.06712 10.3066 5.98248 10.3066C5.89784 10.3066 5.8246 10.2788 5.76275 10.2232C5.7009 10.1675 5.66998 10.1016 5.66998 10.0255V9.18207H5.04498V10.0255C5.04498 10.1016 5.01406 10.1675 4.95221 10.2232C4.89036 10.2788 4.81712 10.3066 4.73248 10.3066C4.64784 10.3066 4.5746 10.2788 4.51275 10.2232C4.4509 10.1675 4.41998 10.1016 4.41998 10.0255V9.18207H3.79498V10.0255C3.79498 10.1016 3.76406 10.1675 3.70221 10.2232C3.64036 10.2788 3.56712 10.3066 3.48248 10.3066C3.39784 10.3066 3.3246 10.2788 3.26275 10.2232C3.2009 10.1675 3.16998 10.1016 3.16998 10.0255V9.18207H1.91998L1.7149 2.51182H10.3575C10.4421 2.51182 10.5154 2.53964 10.5772 2.59529C10.6391 2.65093 10.67 2.71682 10.67 2.79297V8.90093C10.67 8.97707 10.6391 9.04297 10.5772 9.09861C10.5154 9.15425 10.4421 9.18207 10.3575 9.18207ZM10.045 4.12149C10.045 3.96921 9.98476 3.83742 9.86432 3.72614C9.74387 3.61485 9.59576 3.55921 9.41998 3.55921H5.04498C4.87571 3.55921 4.72922 3.61485 4.60553 3.72614C4.48183 3.83742 4.41998 3.96921 4.41998 4.12149V7.49521C4.41998 7.65336 4.48183 7.78661 4.60553 7.89497C4.72922 8.00332 4.87571 8.0575 5.04498 8.0575H9.41998C9.59576 8.0575 9.74387 8.00332 9.86432 7.89497C9.98476 7.78661 10.045 7.65336 10.045 7.49521V4.12149ZM9.10748 7.49521H5.35748C5.27284 7.49521 5.1996 7.46739 5.13775 7.41175C5.0759 7.35611 5.04498 7.29021 5.04498 7.21407V4.40264C5.04498 4.3265 5.0759 4.2606 5.13775 4.20496C5.1996 4.14932 5.27284 4.12149 5.35748 4.12149H9.10748C9.19212 4.12149 9.26536 4.14932 9.32721 4.20496C9.38906 4.2606 9.41998 4.3265 9.41998 4.40264V7.21407C9.41998 7.29021 9.38906 7.35611 9.32721 7.41175C9.26536 7.46739 9.19212 7.49521 9.10748 7.49521ZM7.54498 4.68378C7.19993 4.68378 6.90533 4.7936 6.66119 5.01325C6.41705 5.23289 6.29498 5.49793 6.29498 5.80835C6.29498 6.11878 6.41705 6.38382 6.66119 6.60346C6.90533 6.82311 7.19993 6.93293 7.54498 6.93293C7.89003 6.93293 8.18463 6.82311 8.42877 6.60346C8.67291 6.38382 8.79498 6.11878 8.79498 5.80835C8.79498 5.49793 8.67291 5.23289 8.42877 5.01325C8.18463 4.7936 7.89003 4.68378 7.54498 4.68378ZM7.54986 6.37064C7.37734 6.37064 7.22922 6.31646 7.10553 6.20811C6.98183 6.09975 6.91998 5.96796 6.91998 5.81275C6.91998 5.65753 6.98183 5.52428 7.10553 5.413C7.22922 5.30171 7.37734 5.24607 7.54986 5.24607C7.72239 5.24607 7.86887 5.30025 7.98932 5.4086C8.10976 5.51696 8.16998 5.65021 8.16998 5.80835C8.16998 5.9665 8.10976 6.09975 7.98932 6.20811C7.86887 6.31646 7.72239 6.37064 7.54986 6.37064ZM2.32525 8.33362V10.0255C2.32525 10.1016 2.29433 10.1675 2.23248 10.2232C2.10721 10.3359 1.69212 10.3066 1.60748 10.3066C1.52285 10.3066 1.4496 10.2788 1.38776 10.2232C1.32591 10.1675 1.29498 10.1016 1.29498 10.0255V1.95267H0.982483C0.897848 1.95267 0.824605 1.92485 0.762756 1.86921C0.700907 1.81357 0.669983 1.70751 0.669983 1.63137C0.669983 1.47824 0.700907 1.44917 0.762756 1.39352C0.824605 1.33788 0.897848 1.31006 0.982483 1.31006H1.60748C1.63352 1.31006 1.65306 1.31299 1.66608 1.31884C1.91998 1.31006 1.91998 1.31006 2.23248 1.31006C2.54498 1.31006 2.54498 1.56108 2.54498 1.63137L2.32525 8.33362Z" fill="#6D6E72"/>
</svg>
