<svg width="13" height="13" viewBox="0 0 13 13" fill="none" xmlns="http://www.w3.org/2000/svg">
<path d="M2.89657 11.0356L3.57141 7.85023L1.20945 5.66761C1.20945 5.66761 0.872022 5.37267 0.984504 4.95974C1.09699 4.54681 1.54688 4.54681 1.54688 4.54681L4.69615 4.25186L5.93337 1.2434C5.93337 1.2434 6.10207 0.771484 6.49574 0.771484C6.88941 0.771484 7.05811 1.2434 7.05811 1.2434L8.29533 4.25186L11.5571 4.54681C11.5571 4.54681 11.8945 4.60581 12.007 4.95974C12.1194 5.31368 11.8945 5.54964 11.8945 5.54964L9.42007 7.85023L10.0949 11.1536C10.0949 11.1536 10.2074 11.5076 9.9262 11.7435C9.64502 11.9795 9.19513 11.7435 9.19513 11.7435L6.49574 10.0328L3.8526 11.7435C3.8526 11.7435 3.45894 11.9795 3.12151 11.7435C2.78409 11.5076 2.89657 11.0356 2.89657 11.0356Z" fill="#FF8A00"/>
</svg>
