<svg width="23" height="15" viewBox="0 0 23 15" fill="none" xmlns="http://www.w3.org/2000/svg">
<path d="M18.3125 4.31006H16.125V2.56006C16.125 1.59756 15.3375 0.810059 14.375 0.810059H3.875C2.9125 0.810059 2.125 1.59756 2.125 2.56006V10.4351C2.125 11.3976 2.9125 12.1851 3.875 12.1851C3.875 13.6376 5.0475 14.8101 6.5 14.8101C7.9525 14.8101 9.125 13.6376 9.125 12.1851H14.375C14.375 13.6376 15.5475 14.8101 17 14.8101C18.4525 14.8101 19.625 13.6376 19.625 12.1851H20.5C20.9813 12.1851 21.375 11.7913 21.375 11.3101V8.39631C21.375 8.02006 21.2525 7.65256 21.025 7.34631L19.0125 4.66006C18.8462 4.44131 18.5838 4.31006 18.3125 4.31006ZM6.5 13.0601C6.01875 13.0601 5.625 12.6663 5.625 12.1851C5.625 11.7038 6.01875 11.3101 6.5 11.3101C6.98125 11.3101 7.375 11.7038 7.375 12.1851C7.375 12.6663 6.98125 13.0601 6.5 13.0601ZM18.3125 5.62256L20.0275 7.81006H16.125V5.62256H18.3125ZM17 13.0601C16.5187 13.0601 16.125 12.6663 16.125 12.1851C16.125 11.7038 16.5187 11.3101 17 11.3101C17.4813 11.3101 17.875 11.7038 17.875 12.1851C17.875 12.6663 17.4813 13.0601 17 13.0601Z" fill="#FF3C53"/>
</svg>
