<svg width="11" height="11" viewBox="0 0 11 11" fill="none" xmlns="http://www.w3.org/2000/svg">
<path d="M9.25 5.82738C9.25 6.67611 9.25 7.52484 9.25 8.38223C9.25 9.09239 8.79099 9.56006 8.08083 9.56006C6.35739 9.56006 4.64261 9.56006 2.91917 9.56006C2.21767 9.56006 1.75 9.10105 1.75 8.39955C1.75 6.67611 1.75 4.96133 1.75 3.23789C1.75 2.52773 2.23499 2.06006 2.94515 2.06006C4.65127 2.06006 6.35739 2.06006 8.06351 2.06006C8.77367 2.06006 9.25 2.52773 9.25 3.23789C9.25 4.09528 9.25 4.96133 9.25 5.82738ZM5.51732 3.29851C4.98037 3.29851 4.45208 3.31583 3.92379 3.28985C3.45612 3.27253 2.97979 3.65359 2.98845 4.23385C2.99711 5.28177 2.98845 6.32969 2.98845 7.37761C2.98845 7.9492 3.33487 8.31294 3.90647 8.32161C4.97171 8.33027 6.02829 8.33027 7.09353 8.32161C7.65646 8.31294 8.01154 7.97518 8.02021 7.41225C8.03753 6.34701 8.02887 5.27311 8.02021 4.20786C8.02021 3.60163 7.52656 3.27253 7.06755 3.28985C6.54792 3.31583 6.02829 3.29851 5.51732 3.29851Z" fill="#6D6E72"/>
<path d="M10.0548 5.28921H8.625V4.07837H10.0548C10.2993 4.07837 10.5 4.34933 10.5 4.67956C10.5 5.01825 10.2993 5.28921 10.0548 5.28921Z" fill="#6D6E72"/>
<path d="M10.0548 7.54148H8.625V6.33911H10.0548C10.2993 6.33911 10.5 6.61007 10.5 6.9403C10.5 7.27053 10.2993 7.54148 10.0548 7.54148Z" fill="#6D6E72"/>
<path d="M0.94375 6.33911H2.375V7.54995H0.94375C0.7 7.54148 0.5 7.27053 0.5 6.9403C0.5 6.61007 0.7 6.33911 0.94375 6.33911Z" fill="#6D6E72"/>
<path d="M0.94375 4.07837H2.375V5.28921H0.94375C0.7 5.28921 0.5 5.01825 0.5 4.67956C0.5 4.34933 0.7 4.07837 0.94375 4.07837Z" fill="#6D6E72"/>
<path d="M4.97927 1.25381V2.68506H3.76843V1.25381C3.76843 1.01006 4.03939 0.810059 4.36962 0.810059C4.70831 0.810059 4.97927 1.01006 4.97927 1.25381Z" fill="#6D6E72"/>
<path d="M7.23167 1.25381V2.68506H6.0293V1.25381C6.0293 1.01006 6.30025 0.810059 6.63048 0.810059C6.96071 0.810059 7.23167 1.01006 7.23167 1.25381Z" fill="#6D6E72"/>
<path d="M6.0293 10.3648V8.93506H7.24013V10.3648C7.24013 10.6094 6.96918 10.8101 6.63895 10.8101C6.30025 10.8101 6.0293 10.6094 6.0293 10.3648Z" fill="#6D6E72"/>
<path d="M3.76843 10.3648V8.93506H4.97927V10.3648C4.97927 10.6094 4.70831 10.8101 4.37809 10.8101C4.03939 10.8101 3.76843 10.6094 3.76843 10.3648Z" fill="#6D6E72"/>
<path d="M7.375 5.80594C7.375 6.23451 7.375 6.67132 7.375 7.09989C7.375 7.45429 7.15247 7.68506 6.78983 7.68506C5.92445 7.68506 5.05906 7.68506 4.20192 7.68506C3.85577 7.68506 3.625 7.45429 3.625 7.10814C3.625 6.24275 3.625 5.37737 3.625 4.52022C3.625 4.16583 3.85577 3.93506 4.21016 3.93506C5.07555 3.93506 5.94093 3.93506 6.79808 3.93506C7.14423 3.93506 7.375 4.16583 7.375 4.51198C7.375 4.9488 7.375 5.37737 7.375 5.80594Z" fill="#6D6E72"/>
</svg>
