<svg width="13" height="13" viewBox="0 0 13 13" fill="none" xmlns="http://www.w3.org/2000/svg">
<path d="M2.89656 11.0356L3.5714 7.85023L1.20944 5.66761C1.20944 5.66761 0.872013 5.37267 0.984495 4.95974C1.09698 4.54681 1.54687 4.54681 1.54687 4.54681L4.69614 4.25186L5.93336 1.2434C5.93336 1.2434 6.10206 0.771484 6.49574 0.771484C6.8894 0.771484 7.0581 1.2434 7.0581 1.2434L8.29532 4.25186L11.5571 4.54681C11.5571 4.54681 11.8945 4.60581 12.007 4.95974C12.1194 5.31368 11.8945 5.54964 11.8945 5.54964L9.42006 7.85023L10.0949 11.1536C10.0949 11.1536 10.2074 11.5076 9.92619 11.7435C9.64501 11.9795 9.19512 11.7435 9.19512 11.7435L6.49574 10.0328L3.85259 11.7435C3.85259 11.7435 3.45893 11.9795 3.1215 11.7435C2.78408 11.5076 2.89656 11.0356 2.89656 11.0356Z" fill="#FF8A00"/>
</svg>
