<svg width="11" height="11" viewBox="0 0 11 11" fill="none" xmlns="http://www.w3.org/2000/svg">
<path d="M10.5975 9.18207H10.285V10.0255C10.285 10.1016 10.2541 10.1675 10.1923 10.2232C10.1304 10.2788 10.0572 10.3066 9.97253 10.3066C9.88789 10.3066 9.81465 10.2788 9.7528 10.2232C9.69095 10.1675 9.66003 10.1016 9.66003 10.0255V9.18207H9.03503V10.0255C9.03503 10.1016 9.00411 10.1675 8.94226 10.2232C8.88041 10.2788 8.80717 10.3066 8.72253 10.3066C8.63789 10.3066 8.56465 10.2788 8.5028 10.2232C8.44095 10.1675 8.41003 10.1016 8.41003 10.0255V9.18207H7.78503V10.0255C7.78503 10.1016 7.75411 10.1675 7.69226 10.2232C7.63041 10.2788 7.55717 10.3066 7.47253 10.3066C7.38789 10.3066 7.31465 10.2788 7.2528 10.2232C7.19095 10.1675 7.16003 10.1016 7.16003 10.0255V9.18207H6.53503V10.0255C6.53503 10.1016 6.50411 10.1675 6.44226 10.2232C6.38041 10.2788 6.30717 10.3066 6.22253 10.3066C6.13789 10.3066 6.06465 10.2788 6.0028 10.2232C5.94095 10.1675 5.91003 10.1016 5.91003 10.0255V9.18207H5.28503V10.0255C5.28503 10.1016 5.25411 10.1675 5.19226 10.2232C5.13041 10.2788 5.05717 10.3066 4.97253 10.3066C4.88789 10.3066 4.81465 10.2788 4.7528 10.2232C4.69095 10.1675 4.66003 10.1016 4.66003 10.0255V9.18207H4.03503V10.0255C4.03503 10.1016 4.00411 10.1675 3.94226 10.2232C3.88041 10.2788 3.80717 10.3066 3.72253 10.3066C3.63789 10.3066 3.56465 10.2788 3.5028 10.2232C3.44095 10.1675 3.41003 10.1016 3.41003 10.0255V9.18207H2.16003L1.95495 2.51182H10.5975C10.6822 2.51182 10.7554 2.53964 10.8173 2.59529C10.8791 2.65093 10.91 2.71682 10.91 2.79297V8.90093C10.91 8.97707 10.8791 9.04297 10.8173 9.09861C10.7554 9.15425 10.6822 9.18207 10.5975 9.18207ZM10.285 4.12149C10.285 3.96921 10.2248 3.83742 10.1044 3.72614C9.98392 3.61485 9.83581 3.55921 9.66003 3.55921H5.28503C5.11576 3.55921 4.96927 3.61485 4.84558 3.72614C4.72188 3.83742 4.66003 3.96921 4.66003 4.12149V7.49521C4.66003 7.65336 4.72188 7.78661 4.84558 7.89497C4.96927 8.00332 5.11576 8.0575 5.28503 8.0575H9.66003C9.83581 8.0575 9.98392 8.00332 10.1044 7.89497C10.2248 7.78661 10.285 7.65336 10.285 7.49521V4.12149ZM9.34753 7.49521H5.59753C5.51289 7.49521 5.43965 7.46739 5.3778 7.41175C5.31595 7.35611 5.28503 7.29021 5.28503 7.21407V4.40264C5.28503 4.3265 5.31595 4.2606 5.3778 4.20496C5.43965 4.14932 5.51289 4.12149 5.59753 4.12149H9.34753C9.43217 4.12149 9.50541 4.14932 9.56726 4.20496C9.62911 4.2606 9.66003 4.3265 9.66003 4.40264V7.21407C9.66003 7.29021 9.62911 7.35611 9.56726 7.41175C9.50541 7.46739 9.43217 7.49521 9.34753 7.49521ZM7.78503 4.68378C7.43998 4.68378 7.14538 4.7936 6.90124 5.01325C6.6571 5.23289 6.53503 5.49793 6.53503 5.80835C6.53503 6.11878 6.6571 6.38382 6.90124 6.60346C7.14538 6.82311 7.43998 6.93293 7.78503 6.93293C8.13008 6.93293 8.42468 6.82311 8.66882 6.60346C8.91296 6.38382 9.03503 6.11878 9.03503 5.80835C9.03503 5.49793 8.91296 5.23289 8.66882 5.01325C8.42468 4.7936 8.13008 4.68378 7.78503 4.68378ZM7.78991 6.37064C7.61739 6.37064 7.46927 6.31646 7.34558 6.20811C7.22188 6.09975 7.16003 5.96796 7.16003 5.81275C7.16003 5.65753 7.22188 5.52428 7.34558 5.413C7.46927 5.30171 7.61739 5.24607 7.78991 5.24607C7.96244 5.24607 8.10892 5.30025 8.22937 5.4086C8.34981 5.51696 8.41003 5.65021 8.41003 5.80835C8.41003 5.9665 8.34981 6.09975 8.22937 6.20811C8.10892 6.31646 7.96244 6.37064 7.78991 6.37064ZM2.5653 8.33362V10.0255C2.5653 10.1016 2.53438 10.1675 2.47253 10.2232C2.34726 10.3359 1.93217 10.3066 1.84753 10.3066C1.7629 10.3066 1.68966 10.2788 1.62781 10.2232C1.56596 10.1675 1.53503 10.1016 1.53503 10.0255V1.95267H1.22253C1.1379 1.95267 1.06466 1.92485 1.00281 1.86921C0.940959 1.81357 0.910034 1.70751 0.910034 1.63137C0.910034 1.47824 0.940959 1.44917 1.00281 1.39352C1.06466 1.33788 1.1379 1.31006 1.22253 1.31006H1.84753C1.87358 1.31006 1.89311 1.31299 1.90613 1.31884C2.16003 1.31006 2.16003 1.31006 2.47253 1.31006C2.78503 1.31006 2.78503 1.56108 2.78503 1.63137L2.5653 8.33362Z" fill="#6D6E72"/>
</svg>
