<svg width="11" height="11" viewBox="0 0 11 11" fill="none" xmlns="http://www.w3.org/2000/svg">
<path d="M9.88751 9.18207H9.57501V10.0255C9.57501 10.1016 9.54409 10.1675 9.48224 10.2232C9.42039 10.2788 9.34715 10.3066 9.26251 10.3066C9.17787 10.3066 9.10463 10.2788 9.04278 10.2232C8.98093 10.1675 8.95001 10.1016 8.95001 10.0255V9.18207H8.32501V10.0255C8.32501 10.1016 8.29409 10.1675 8.23224 10.2232C8.17039 10.2788 8.09715 10.3066 8.01251 10.3066C7.92787 10.3066 7.85463 10.2788 7.79278 10.2232C7.73093 10.1675 7.70001 10.1016 7.70001 10.0255V9.18207H7.07501V10.0255C7.07501 10.1016 7.04409 10.1675 6.98224 10.2232C6.92039 10.2788 6.84715 10.3066 6.76251 10.3066C6.67787 10.3066 6.60463 10.2788 6.54278 10.2232C6.48093 10.1675 6.45001 10.1016 6.45001 10.0255V9.18207H5.82501V10.0255C5.82501 10.1016 5.79409 10.1675 5.73224 10.2232C5.67039 10.2788 5.59715 10.3066 5.51251 10.3066C5.42787 10.3066 5.35463 10.2788 5.29278 10.2232C5.23093 10.1675 5.20001 10.1016 5.20001 10.0255V9.18207H4.57501V10.0255C4.57501 10.1016 4.54409 10.1675 4.48224 10.2232C4.42039 10.2788 4.34715 10.3066 4.26251 10.3066C4.17787 10.3066 4.10463 10.2788 4.04278 10.2232C3.98093 10.1675 3.95001 10.1016 3.95001 10.0255V9.18207H3.32501V10.0255C3.32501 10.1016 3.29409 10.1675 3.23224 10.2232C3.17039 10.2788 3.09715 10.3066 3.01251 10.3066C2.92787 10.3066 2.85463 10.2788 2.79278 10.2232C2.73093 10.1675 2.70001 10.1016 2.70001 10.0255V9.18207H1.45001L1.24493 2.51182H9.88751C9.97215 2.51182 10.0454 2.53964 10.1072 2.59529C10.1691 2.65093 10.2 2.71682 10.2 2.79297V8.90093C10.2 8.97707 10.1691 9.04297 10.1072 9.09861C10.0454 9.15425 9.97215 9.18207 9.88751 9.18207ZM9.57501 4.12149C9.57501 3.96921 9.51479 3.83742 9.39435 3.72614C9.2739 3.61485 9.12579 3.55921 8.95001 3.55921H4.57501C4.40574 3.55921 4.25925 3.61485 4.13556 3.72614C4.01186 3.83742 3.95001 3.96921 3.95001 4.12149V7.49521C3.95001 7.65336 4.01186 7.78661 4.13556 7.89497C4.25925 8.00332 4.40574 8.0575 4.57501 8.0575H8.95001C9.12579 8.0575 9.2739 8.00332 9.39435 7.89497C9.51479 7.78661 9.57501 7.65336 9.57501 7.49521V4.12149ZM8.63751 7.49521H4.88751C4.80287 7.49521 4.72963 7.46739 4.66778 7.41175C4.60593 7.35611 4.57501 7.29021 4.57501 7.21407V4.40264C4.57501 4.3265 4.60593 4.2606 4.66778 4.20496C4.72963 4.14932 4.80287 4.12149 4.88751 4.12149H8.63751C8.72215 4.12149 8.79539 4.14932 8.85724 4.20496C8.91909 4.2606 8.95001 4.3265 8.95001 4.40264V7.21407C8.95001 7.29021 8.91909 7.35611 8.85724 7.41175C8.79539 7.46739 8.72215 7.49521 8.63751 7.49521ZM7.07501 4.68378C6.72996 4.68378 6.43536 4.7936 6.19122 5.01325C5.94708 5.23289 5.82501 5.49793 5.82501 5.80835C5.82501 6.11878 5.94708 6.38382 6.19122 6.60346C6.43536 6.82311 6.72996 6.93293 7.07501 6.93293C7.42006 6.93293 7.71466 6.82311 7.9588 6.60346C8.20294 6.38382 8.32501 6.11878 8.32501 5.80835C8.32501 5.49793 8.20294 5.23289 7.9588 5.01325C7.71466 4.7936 7.42006 4.68378 7.07501 4.68378ZM7.07989 6.37064C6.90737 6.37064 6.75925 6.31646 6.63556 6.20811C6.51186 6.09975 6.45001 5.96796 6.45001 5.81275C6.45001 5.65753 6.51186 5.52428 6.63556 5.413C6.75925 5.30171 6.90737 5.24607 7.07989 5.24607C7.25242 5.24607 7.3989 5.30025 7.51935 5.4086C7.63979 5.51696 7.70001 5.65021 7.70001 5.80835C7.70001 5.9665 7.63979 6.09975 7.51935 6.20811C7.3989 6.31646 7.25242 6.37064 7.07989 6.37064ZM1.85528 8.33362V10.0255C1.85528 10.1016 1.82436 10.1675 1.76251 10.2232C1.63724 10.3359 1.22215 10.3066 1.13751 10.3066C1.05288 10.3066 0.979634 10.2788 0.917785 10.2232C0.855936 10.1675 0.825012 10.1016 0.825012 10.0255V1.95267H0.512512C0.427877 1.95267 0.354634 1.92485 0.292786 1.86921C0.230937 1.81357 0.200012 1.70751 0.200012 1.63137C0.200012 1.47824 0.230937 1.44917 0.292786 1.39352C0.354634 1.33788 0.427877 1.31006 0.512512 1.31006H1.13751C1.16355 1.31006 1.18309 1.31299 1.19611 1.31884C1.45001 1.31006 1.45001 1.31006 1.76251 1.31006C2.07501 1.31006 2.07501 1.56108 2.07501 1.63137L1.85528 8.33362Z" fill="#6D6E72"/>
</svg>
