<svg width="23" height="15" viewBox="0 0 23 15" fill="none" xmlns="http://www.w3.org/2000/svg">
<path d="M17.9225 3.93994H15.735V2.18994C15.735 1.22744 14.9475 0.439941 13.985 0.439941H3.48499C2.52249 0.439941 1.73499 1.22744 1.73499 2.18994V10.0649C1.73499 11.0274 2.52249 11.8149 3.48499 11.8149C3.48499 13.2674 4.65749 14.4399 6.10999 14.4399C7.56249 14.4399 8.73499 13.2674 8.73499 11.8149H13.985C13.985 13.2674 15.1575 14.4399 16.61 14.4399C18.0625 14.4399 19.235 13.2674 19.235 11.8149H20.11C20.5912 11.8149 20.985 11.4212 20.985 10.9399V8.02619C20.985 7.64994 20.8625 7.28244 20.635 6.97619L18.6225 4.28994C18.4562 4.07119 18.1937 3.93994 17.9225 3.93994ZM6.10999 12.6899C5.62874 12.6899 5.23499 12.2962 5.23499 11.8149C5.23499 11.3337 5.62874 10.9399 6.10999 10.9399C6.59124 10.9399 6.98499 11.3337 6.98499 11.8149C6.98499 12.2962 6.59124 12.6899 6.10999 12.6899ZM17.9225 5.25244L19.6375 7.43994H15.735V5.25244H17.9225ZM16.61 12.6899C16.1287 12.6899 15.735 12.2962 15.735 11.8149C15.735 11.3337 16.1287 10.9399 16.61 10.9399C17.0912 10.9399 17.485 11.3337 17.485 11.8149C17.485 12.2962 17.0912 12.6899 16.61 12.6899Z" fill="#FF3C53"/>
</svg>
