<svg width="23" height="15" viewBox="0 0 23 15" fill="none" xmlns="http://www.w3.org/2000/svg">
<path d="M18.0825 4.31006H15.895V2.56006C15.895 1.59756 15.1075 0.810059 14.145 0.810059H3.64499C2.68249 0.810059 1.89499 1.59756 1.89499 2.56006V10.4351C1.89499 11.3976 2.68249 12.1851 3.64499 12.1851C3.64499 13.6376 4.81749 14.8101 6.26999 14.8101C7.72249 14.8101 8.89499 13.6376 8.89499 12.1851H14.145C14.145 13.6376 15.3175 14.8101 16.77 14.8101C18.2225 14.8101 19.395 13.6376 19.395 12.1851H20.27C20.7512 12.1851 21.145 11.7913 21.145 11.3101V8.39631C21.145 8.02006 21.0225 7.65256 20.795 7.34631L18.7825 4.66006C18.6162 4.44131 18.3537 4.31006 18.0825 4.31006ZM6.26999 13.0601C5.78874 13.0601 5.39499 12.6663 5.39499 12.1851C5.39499 11.7038 5.78874 11.3101 6.26999 11.3101C6.75124 11.3101 7.14499 11.7038 7.14499 12.1851C7.14499 12.6663 6.75124 13.0601 6.26999 13.0601ZM18.0825 5.62256L19.7975 7.81006H15.895V5.62256H18.0825ZM16.77 13.0601C16.2887 13.0601 15.895 12.6663 15.895 12.1851C15.895 11.7038 16.2887 11.3101 16.77 11.3101C17.2512 11.3101 17.645 11.7038 17.645 12.1851C17.645 12.6663 17.2512 13.0601 16.77 13.0601Z" fill="#FF3C53"/>
</svg>
