<svg width="19" height="17" viewBox="0 0 19 17" fill="none" xmlns="http://www.w3.org/2000/svg">
<path d="M2.5 1.11228C1.94772 1.11228 1.5 1.55999 1.5 2.11228V10.4348C1.5 10.9871 1.94772 11.4348 2.5 11.4348H16.5C17.0523 11.4348 17.5 10.9871 17.5 10.4348V2.11228C17.5 1.55999 17.0523 1.11228 16.5 1.11228H2.5ZM2.5 0.0800171H16.5C17.0304 0.0800171 17.5391 0.297528 17.9142 0.6847C18.2893 1.07187 18.5 1.59699 18.5 2.14454V10.4026C18.5 10.9501 18.2893 11.4752 17.9142 11.8624C17.5391 12.2496 17.0304 12.4671 16.5 12.4671H2.5C1.96957 12.4671 1.46086 12.2496 1.08579 11.8624C0.710714 11.4752 0.5 10.9501 0.5 10.4026V2.14454C0.5 1.59699 0.710714 1.07187 1.08579 0.6847C1.46086 0.297528 1.96957 0.0800171 2.5 0.0800171Z" fill="#111111"/>
<path d="M10.5 11.951H8.5V16.08H10.5V11.951Z" fill="#111111"/>
<path d="M5.5 15.5639H13.5" stroke="#111111" stroke-linecap="round"/>
</svg>
