<svg width="25" height="25" viewBox="0 0 25 25" fill="none" xmlns="http://www.w3.org/2000/svg">
<path d="M17.937 22.318H7.06201C6.39897 22.318 5.76309 22.0546 5.29424 21.5858C4.8254 21.1169 4.56201 20.481 4.56201 19.818V4.94202C4.56201 4.27897 4.8254 3.64309 5.29424 3.17425C5.76309 2.70541 6.39897 2.44202 7.06201 2.44202H17.937C18.6001 2.44202 19.2359 2.70541 19.7048 3.17425C20.1736 3.64309 20.437 4.27897 20.437 4.94202V19.818C20.437 20.481 20.1736 21.1169 19.7048 21.5858C19.2359 22.0546 18.6001 22.318 17.937 22.318ZM7.06201 3.44202C6.66419 3.44202 6.28266 3.60005 6.00135 3.88136C5.72005 4.16266 5.56201 4.54419 5.56201 4.94202V19.818C5.56201 20.2158 5.72005 20.5974 6.00135 20.8787C6.28266 21.16 6.66419 21.318 7.06201 21.318H17.937C18.3348 21.318 18.7164 21.16 18.9977 20.8787C19.279 20.5974 19.437 20.2158 19.437 19.818V4.94202C19.437 4.54419 19.279 4.16266 18.9977 3.88136C18.7164 3.60005 18.3348 3.44202 17.937 3.44202H7.06201Z" fill="#111111"/>
<path d="M12.5 19.319C11.7583 19.319 11.0333 19.0991 10.4166 18.687C9.79993 18.275 9.31928 17.6893 9.03545 17.0041C8.75163 16.3188 8.67736 15.5648 8.82206 14.8374C8.96675 14.11 9.3239 13.4418 9.84835 12.9174C10.3728 12.3929 11.041 12.0358 11.7684 11.8911C12.4958 11.7464 13.2498 11.8206 13.9351 12.1045C14.6203 12.3883 15.206 12.8689 15.618 13.4856C16.0301 14.1023 16.25 14.8273 16.25 15.569C16.2487 16.5632 15.8532 17.5162 15.1502 18.2192C14.4472 18.9222 13.4942 19.3177 12.5 19.319ZM12.5 12.819C11.9561 12.819 11.4244 12.9803 10.9722 13.2825C10.5199 13.5846 10.1675 14.0141 9.95933 14.5166C9.75119 15.0191 9.69673 15.5721 9.80284 16.1055C9.90895 16.639 10.1709 17.129 10.5555 17.5135C10.9401 17.8981 11.4301 18.1601 11.9635 18.2662C12.497 18.3723 13.0499 18.3178 13.5524 18.1097C14.0549 17.9015 14.4844 17.5491 14.7865 17.0968C15.0887 16.6446 15.25 16.1129 15.25 15.569C15.2495 14.8398 14.9596 14.1407 14.444 13.625C13.9283 13.1094 13.2292 12.8195 12.5 12.819ZM12.5 9.94299C12.055 9.94299 11.62 9.81103 11.25 9.5638C10.88 9.31657 10.5916 8.96517 10.4213 8.55403C10.251 8.1429 10.2064 7.6905 10.2932 7.25404C10.38 6.81758 10.5943 6.41667 10.909 6.102C11.2237 5.78734 11.6246 5.57304 12.061 5.48623C12.4975 5.39941 12.9499 5.44397 13.361 5.61427C13.7722 5.78456 14.1236 6.07295 14.3708 6.44296C14.618 6.81297 14.75 7.24799 14.75 7.69299C14.7492 8.28949 14.5119 8.86132 14.0901 9.28311C13.6683 9.70489 13.0965 9.9422 12.5 9.94299ZM12.5 6.44299C12.2528 6.44299 12.0111 6.51631 11.8055 6.65366C11.6 6.79101 11.4398 6.98623 11.3452 7.21464C11.2505 7.44305 11.2258 7.69438 11.274 7.93686C11.3223 8.17933 11.4413 8.40206 11.6161 8.57688C11.7909 8.75169 12.0137 8.87074 12.2561 8.91898C12.4986 8.96721 12.7499 8.94245 12.9784 8.84784C13.2068 8.75323 13.402 8.59302 13.5393 8.38746C13.6767 8.1819 13.75 7.94022 13.75 7.69299C13.7497 7.36156 13.618 7.04377 13.3836 6.8094C13.1492 6.57504 12.8314 6.44326 12.5 6.44299Z" fill="#111111"/>
</svg>
