<svg width="11" height="11" viewBox="0 0 11 11" fill="none" xmlns="http://www.w3.org/2000/svg">
<path d="M9.39502 1.81006H0.64502C0.47926 1.81006 0.320288 1.8803 0.203078 2.00532C0.0858675 2.13034 0.0200195 2.29991 0.0200195 2.47673V9.14339C0.0200195 9.3202 0.0858675 9.48977 0.203078 9.6148C0.320288 9.73982 0.47926 9.81006 0.64502 9.81006H9.39502C9.56078 9.81006 9.71975 9.73982 9.83696 9.6148C9.95417 9.48977 10.02 9.3202 10.02 9.14339V2.47673C10.02 2.29991 9.95417 2.13034 9.83696 2.00532C9.71975 1.8803 9.56078 1.81006 9.39502 1.81006ZM1.02314 2.47673C1.10089 2.47407 1.1776 2.49623 1.24346 2.54037C1.30932 2.58451 1.36133 2.64862 1.39282 2.72448C1.42431 2.80035 1.43386 2.88451 1.42023 2.9662C1.40659 3.04788 1.37041 3.12337 1.31631 3.18298C1.26221 3.24259 1.19266 3.28362 1.11657 3.30081C1.04047 3.318 0.961299 3.31056 0.889191 3.27945C0.817082 3.24835 0.755322 3.19499 0.711821 3.12621C0.66832 3.05743 0.64506 2.97636 0.64502 2.89339C0.644968 2.78516 0.684403 2.68115 0.754977 2.60338C0.825552 2.52561 0.921726 2.48019 1.02314 2.47673ZM1.02314 9.14339C0.945886 9.14339 0.870363 9.11896 0.806125 9.07317C0.741887 9.02739 0.69182 8.96231 0.662255 8.88618C0.632689 8.81004 0.624953 8.72626 0.640026 8.64544C0.655098 8.56461 0.692302 8.49037 0.746931 8.4321C0.801561 8.37383 0.871164 8.33414 0.946938 8.31807C1.02271 8.30199 1.10125 8.31024 1.17263 8.34178C1.24401 8.37331 1.30502 8.42672 1.34794 8.49524C1.39086 8.56376 1.41377 8.64432 1.41377 8.72673C1.41377 8.83723 1.37261 8.94321 1.29936 9.02136C1.2261 9.0995 1.12675 9.14339 1.02314 9.14339ZM2.6044 7.21673C2.19716 7.22647 1.80246 7.0662 1.5044 6.77006L1.77315 6.41673C2.00144 6.64982 2.30403 6.78202 2.62002 6.78673C2.93252 6.78673 3.10439 6.62006 3.10439 6.42339C3.10439 6.22673 2.92002 6.12006 2.50752 6.01673C1.97627 5.88339 1.6044 5.72006 1.6044 5.20339C1.6044 4.68673 1.98564 4.37339 2.54189 4.37339C2.90044 4.36637 3.24839 4.50317 3.51689 4.75673L3.26377 5.12339C3.05898 4.92741 2.79509 4.81624 2.52002 4.81006C2.41774 4.79684 2.31471 4.82725 2.23335 4.89468C2.152 4.9621 2.09891 5.06108 2.08564 5.17006C2.08564 5.39339 2.27627 5.47339 2.68564 5.57339C3.22314 5.70339 3.58252 5.88673 3.58252 6.38673C3.58252 6.88673 3.22002 7.21673 2.6044 7.21673ZM4.95127 7.21673C4.54404 7.22647 4.14934 7.0662 3.85127 6.77006L4.12002 6.41673C4.34831 6.64982 4.6509 6.78202 4.9669 6.78673C5.2794 6.78673 5.45127 6.62006 5.45127 6.42339C5.45127 6.22673 5.26689 6.12006 4.85439 6.01673C4.32314 5.88339 3.95127 5.72006 3.95127 5.20339C3.95127 4.68673 4.33565 4.37339 4.88877 4.37339C5.24742 4.36571 5.59559 4.5026 5.86377 4.75673L5.61064 5.12339C5.4094 4.92087 5.14645 4.80252 4.87002 4.79006C4.76774 4.77684 4.66471 4.80725 4.58335 4.87468C4.502 4.9421 4.44891 5.04108 4.43564 5.15006C4.43564 5.37339 4.62627 5.45339 5.03564 5.55339C5.57314 5.68339 5.93252 5.86673 5.93252 6.36673C5.93252 6.86673 5.5669 7.21673 4.95127 7.21673ZM6.38252 7.17006V4.42339H7.28877C8.13877 4.42339 8.73877 4.99339 8.73877 5.79673C8.73877 6.60006 8.14502 7.17006 7.28877 7.17006H6.38252ZM8.98564 9.14339C8.90839 9.14339 8.83286 9.11896 8.76863 9.07317C8.70439 9.02739 8.65432 8.96231 8.62475 8.88618C8.59519 8.81004 8.58745 8.72626 8.60253 8.64544C8.6176 8.56461 8.6548 8.49037 8.70943 8.4321C8.76406 8.37383 8.83366 8.33414 8.90944 8.31807C8.98521 8.30199 9.06375 8.31024 9.13513 8.34178C9.20651 8.37331 9.26752 8.42672 9.31044 8.49524C9.35336 8.56376 9.37627 8.64432 9.37627 8.72673C9.37627 8.83723 9.33511 8.94321 9.26186 9.02136C9.1886 9.0995 9.08925 9.14339 8.98564 9.14339ZM8.98564 3.31006C8.90839 3.31006 8.83286 3.28562 8.76863 3.23984C8.70439 3.19406 8.65432 3.12898 8.62475 3.05284C8.59519 2.97671 8.58745 2.89293 8.60253 2.81211C8.6176 2.73128 8.6548 2.65704 8.70943 2.59876C8.76406 2.54049 8.83366 2.50081 8.90944 2.48473C8.98521 2.46865 9.06375 2.47691 9.13513 2.50844C9.20651 2.53998 9.26752 2.59338 9.31044 2.6619C9.35336 2.73042 9.37627 2.81098 9.37627 2.89339C9.37627 3.0039 9.33511 3.10988 9.26186 3.18802C9.1886 3.26616 9.08925 3.31006 8.98564 3.31006Z" fill="#6D6E72"/>
<path d="M6.89502 4.81187H7.3287C7.43354 4.80367 7.53855 4.82342 7.63729 4.86988C7.73603 4.91634 7.82641 4.98854 7.90287 5.08203C7.97933 5.17552 8.04025 5.28834 8.08189 5.41354C8.12354 5.53874 8.14502 5.67368 8.14502 5.81006C8.14502 5.94644 8.12354 6.08138 8.08189 6.20658C8.04025 6.33178 7.97933 6.4446 7.90287 6.53809C7.82641 6.63159 7.73603 6.70378 7.63729 6.75024C7.53855 6.7967 7.43354 6.81645 7.3287 6.80825H6.89502V4.81187Z" fill="#6D6E72"/>
</svg>
