<svg width="19" height="21" viewBox="0 0 19 21" fill="none" xmlns="http://www.w3.org/2000/svg">
<path d="M9.5 20.09C5.9 20.09 3 16.99 3 13.29V7.89003C3 4.19003 5.9 1.09003 9.5 1.09003C13.1 1.09003 16 4.19003 16 7.89003V13.29C16 16.99 13.1 20.09 9.5 20.09ZM9.5 2.09003C6.5 2.09003 4 4.69003 4 7.89003V13.29C4 16.49 6.5 19.09 9.5 19.09C12.5 19.09 15 16.49 15 13.29V7.89003C15 4.69003 12.5 2.09003 9.5 2.09003Z" fill="#111111"/>
<path d="M9.5 10.59C9.2 10.59 9 10.39 9 10.09V5.09003C9 4.79003 9.2 4.59003 9.5 4.59003C9.8 4.59003 10 4.79003 10 5.09003V10.09C10 10.39 9.8 10.59 9.5 10.59Z" fill="#111111"/>
</svg>
