<svg width="11" height="11" viewBox="0 0 11 11" fill="none" xmlns="http://www.w3.org/2000/svg">
<path d="M10.265 1.81006H1.51501C1.34925 1.81006 1.19028 1.8803 1.07307 2.00532C0.955863 2.13034 0.890015 2.29991 0.890015 2.47673V9.14339C0.890015 9.3202 0.955863 9.48977 1.07307 9.6148C1.19028 9.73982 1.34925 9.81006 1.51501 9.81006H10.265C10.4308 9.81006 10.5897 9.73982 10.707 9.6148C10.8242 9.48977 10.89 9.3202 10.89 9.14339V2.47673C10.89 2.29991 10.8242 2.13034 10.707 2.00532C10.5897 1.8803 10.4308 1.81006 10.265 1.81006ZM1.89313 2.47673C1.97088 2.47407 2.04759 2.49623 2.11345 2.54037C2.17931 2.58451 2.23132 2.64862 2.26281 2.72448C2.2943 2.80035 2.30385 2.88451 2.29022 2.9662C2.27658 3.04788 2.2404 3.12337 2.1863 3.18298C2.1322 3.24259 2.06265 3.28362 1.98656 3.30081C1.91046 3.318 1.83129 3.31056 1.75919 3.27945C1.68708 3.24835 1.62532 3.19499 1.58182 3.12621C1.53831 3.05743 1.51505 2.97636 1.51501 2.89339C1.51496 2.78516 1.5544 2.68115 1.62497 2.60338C1.69555 2.52561 1.79172 2.48019 1.89313 2.47673ZM1.89313 9.14339C1.81588 9.14339 1.74036 9.11896 1.67612 9.07317C1.61188 9.02739 1.56181 8.96231 1.53225 8.88618C1.50268 8.81004 1.49495 8.72626 1.51002 8.64544C1.52509 8.56461 1.5623 8.49037 1.61693 8.4321C1.67156 8.37383 1.74116 8.33414 1.81693 8.31807C1.8927 8.30199 1.97124 8.31024 2.04262 8.34178C2.114 8.37331 2.17501 8.42672 2.21793 8.49524C2.26085 8.56376 2.28376 8.64432 2.28376 8.72673C2.28376 8.83723 2.2426 8.94321 2.16935 9.02136C2.09609 9.0995 1.99674 9.14339 1.89313 9.14339ZM3.47439 7.21673C3.06715 7.22647 2.67245 7.0662 2.37439 6.77006L2.64314 6.41673C2.87143 6.64982 3.17402 6.78202 3.49001 6.78673C3.80251 6.78673 3.97438 6.62006 3.97438 6.42339C3.97438 6.22673 3.79001 6.12006 3.37751 6.01673C2.84626 5.88339 2.47439 5.72006 2.47439 5.20339C2.47439 4.68673 2.85563 4.37339 3.41188 4.37339C3.77043 4.36637 4.11838 4.50317 4.38688 4.75673L4.13376 5.12339C3.92897 4.92741 3.66508 4.81624 3.39001 4.81006C3.28773 4.79684 3.1847 4.82725 3.10334 4.89468C3.02199 4.9621 2.9689 5.06108 2.95563 5.17006C2.95563 5.39339 3.14626 5.47339 3.55563 5.57339C4.09313 5.70339 4.45251 5.88673 4.45251 6.38673C4.45251 6.88673 4.09001 7.21673 3.47439 7.21673ZM5.82126 7.21673C5.41403 7.22647 5.01933 7.0662 4.72126 6.77006L4.99001 6.41673C5.2183 6.64982 5.52089 6.78202 5.83689 6.78673C6.14939 6.78673 6.32126 6.62006 6.32126 6.42339C6.32126 6.22673 6.13688 6.12006 5.72438 6.01673C5.19313 5.88339 4.82126 5.72006 4.82126 5.20339C4.82126 4.68673 5.20564 4.37339 5.75876 4.37339C6.11741 4.36571 6.46558 4.5026 6.73376 4.75673L6.48063 5.12339C6.27939 4.92087 6.01644 4.80252 5.74001 4.79006C5.63773 4.77684 5.5347 4.80725 5.45334 4.87468C5.37199 4.9421 5.3189 5.04108 5.30563 5.15006C5.30563 5.37339 5.49626 5.45339 5.90563 5.55339C6.44313 5.68339 6.80251 5.86673 6.80251 6.36673C6.80251 6.86673 6.43689 7.21673 5.82126 7.21673ZM7.25251 7.17006V4.42339H8.15876C9.00876 4.42339 9.60876 4.99339 9.60876 5.79673C9.60876 6.60006 9.01501 7.17006 8.15876 7.17006H7.25251ZM9.85563 9.14339C9.77838 9.14339 9.70285 9.11896 9.63862 9.07317C9.57438 9.02739 9.52431 8.96231 9.49474 8.88618C9.46518 8.81004 9.45744 8.72626 9.47252 8.64544C9.48759 8.56461 9.52479 8.49037 9.57942 8.4321C9.63405 8.37383 9.70365 8.33414 9.77943 8.31807C9.8552 8.30199 9.93375 8.31024 10.0051 8.34178C10.0765 8.37331 10.1375 8.42672 10.1804 8.49524C10.2234 8.56376 10.2463 8.64432 10.2463 8.72673C10.2463 8.83723 10.2051 8.94321 10.1319 9.02136C10.0586 9.0995 9.95924 9.14339 9.85563 9.14339ZM9.85563 3.31006C9.77838 3.31006 9.70285 3.28562 9.63862 3.23984C9.57438 3.19406 9.52431 3.12898 9.49474 3.05284C9.46518 2.97671 9.45744 2.89293 9.47252 2.81211C9.48759 2.73128 9.52479 2.65704 9.57942 2.59876C9.63405 2.54049 9.70365 2.50081 9.77943 2.48473C9.8552 2.46865 9.93375 2.47691 10.0051 2.50844C10.0765 2.53998 10.1375 2.59338 10.1804 2.6619C10.2234 2.73042 10.2463 2.81098 10.2463 2.89339C10.2463 3.0039 10.2051 3.10988 10.1319 3.18802C10.0586 3.26616 9.95924 3.31006 9.85563 3.31006Z" fill="#6D6E72"/>
<path d="M7.76501 4.81187H8.19869C8.30353 4.80367 8.40854 4.82342 8.50728 4.86988C8.60602 4.91634 8.6964 4.98854 8.77286 5.08203C8.84932 5.17552 8.91024 5.28834 8.95188 5.41354C8.99353 5.53874 9.01501 5.67368 9.01501 5.81006C9.01501 5.94644 8.99353 6.08138 8.95188 6.20658C8.91024 6.33178 8.84932 6.4446 8.77286 6.53809C8.6964 6.63159 8.60602 6.70378 8.50728 6.75024C8.40854 6.7967 8.30353 6.81645 8.19869 6.80825H7.76501V4.81187Z" fill="#6D6E72"/>
</svg>
