<svg width="13" height="13" viewBox="0 0 13 13" fill="none" xmlns="http://www.w3.org/2000/svg">
<path d="M4.76627 11.9938C4.83165 12.1238 4.80518 12.2811 4.70088 12.3826C4.59658 12.484 4.43854 12.506 4.31045 12.437C3.14612 11.8101 2.36309 11.176 1.92448 10.4576C1.47608 9.72309 1.41187 8.94142 1.59742 8.08336L4.76627 11.9938ZM4.76627 11.9938C4.43001 11.3252 4.36784 10.8341 4.42947 10.4394C4.49212 10.0381 4.68876 9.69235 4.95587 9.31935C5.13854 9.06422 5.28271 8.81042 5.39562 8.57742M4.76627 11.9938L5.39562 8.57742ZM5.39562 8.57742C5.40788 8.83249 5.3957 9.14415 5.33756 9.51709C5.31504 9.66149 5.38922 9.80369 5.52053 9.86789C5.65184 9.93209 5.80964 9.90322 5.90976 9.79676C6.39369 9.28209 6.6749 8.47642 6.8233 7.77082C6.89534 7.42831 6.93903 7.09515 6.95784 6.80683C8.32699 8.10495 8.82059 10.3197 7.92506 11.9858C7.85532 12.1154 7.87899 12.2756 7.98326 12.3796C8.08752 12.4836 8.24766 12.5068 8.37719 12.4368C9.87659 11.6262 10.7526 10.6939 11.1789 9.71589C11.6059 8.73629 11.5631 7.75369 11.3061 6.88024C11.0503 6.01072 10.5797 5.23811 10.1306 4.65309C9.68506 4.07275 9.24032 3.65095 9.01226 3.49206C8.88806 3.40555 8.72119 3.41355 8.60586 3.51154C8.49052 3.60953 8.45572 3.77292 8.52099 3.90944C8.54246 3.95422 8.56066 4.00335 8.57559 4.05623C8.23199 3.38305 7.7445 2.81545 7.28244 2.37461C6.8868 1.99713 6.49841 1.70171 6.20904 1.50055C6.06409 1.3998 5.9433 1.32223 5.85795 1.26939C5.81526 1.24296 5.78138 1.22269 5.75773 1.20877L5.73006 1.19267L5.72229 1.18823L5.71998 1.18692L5.71923 1.1865C5.71912 1.18644 5.71874 1.18622 5.55557 1.47689L5.71923 1.1865C5.6172 1.12922 5.49213 1.12936 5.39048 1.18731C5.28884 1.24525 5.22501 1.35225 5.22232 1.46923C5.18624 3.03865 4.66213 4.54491 3.84127 5.73932C3.74703 5.39212 3.59839 5.06417 3.37845 4.68177C3.30528 4.55453 3.15749 4.49014 3.01448 4.52317C2.87147 4.55621 2.7669 4.6789 2.75694 4.82534C2.72169 5.34363 2.51972 5.82581 2.26995 6.3585C2.24239 6.41728 2.21417 6.47681 2.18559 6.53707C1.96298 7.00662 1.71888 7.52156 1.59742 8.08336L5.39562 8.57742Z" fill="#FDD835"/>
<path d="M4.76627 11.9938C4.83165 12.1238 4.80518 12.2811 4.70088 12.3826C4.59658 12.484 4.43854 12.506 4.31045 12.437C3.14612 11.8101 2.36309 11.176 1.92448 10.4576C1.47608 9.72309 1.41187 8.94142 1.59742 8.08336M4.76627 11.9938L1.59742 8.08336M4.76627 11.9938C4.43001 11.3252 4.36784 10.8341 4.42947 10.4394C4.49212 10.0381 4.68876 9.69235 4.95587 9.31935C5.13854 9.06422 5.28271 8.81042 5.39562 8.57742M4.76627 11.9938L5.39562 8.57742M1.59742 8.08336C1.71888 7.52156 1.96298 7.00662 2.18559 6.53707C2.21417 6.47681 2.24239 6.41728 2.26995 6.3585C2.51972 5.82581 2.72169 5.34363 2.75694 4.82534C2.7669 4.6789 2.87147 4.55621 3.01448 4.52317C3.15749 4.49014 3.30528 4.55453 3.37845 4.68177C3.59839 5.06417 3.74703 5.39212 3.84127 5.73932C4.66213 4.54491 5.18624 3.03865 5.22232 1.46923C5.22501 1.35225 5.28884 1.24525 5.39048 1.18731C5.49213 1.12936 5.6172 1.12922 5.71923 1.1865M1.59742 8.08336L5.39562 8.57742M5.39562 8.57742C5.40788 8.83249 5.3957 9.14415 5.33756 9.51709C5.31504 9.66149 5.38922 9.80369 5.52053 9.86789C5.65184 9.93209 5.80964 9.90322 5.90976 9.79676C6.39369 9.28209 6.6749 8.47642 6.8233 7.77082C6.89534 7.42831 6.93903 7.09515 6.95784 6.80683C8.32699 8.10495 8.82059 10.3197 7.92506 11.9858C7.85532 12.1154 7.87899 12.2756 7.98326 12.3796C8.08752 12.4836 8.24766 12.5068 8.37719 12.4368C9.87659 11.6262 10.7526 10.6939 11.1789 9.71589C11.6059 8.73629 11.5631 7.75369 11.3061 6.88024C11.0503 6.01072 10.5797 5.23811 10.1306 4.65309C9.68506 4.07275 9.24032 3.65095 9.01226 3.49206C8.88806 3.40555 8.72119 3.41355 8.60586 3.51154C8.49052 3.60953 8.45572 3.77292 8.52099 3.90944C8.54246 3.95422 8.56066 4.00335 8.57559 4.05623C8.23199 3.38305 7.7445 2.81545 7.28244 2.37461C6.8868 1.99713 6.49841 1.70171 6.20904 1.50055C6.06409 1.3998 5.9433 1.32223 5.85795 1.26939C5.81526 1.24296 5.78138 1.22269 5.75773 1.20877L5.73006 1.19267L5.72229 1.18823L5.71998 1.18692L5.71923 1.1865M5.71923 1.1865C5.71912 1.18644 5.71874 1.18622 5.55557 1.47689L5.71923 1.1865Z" stroke="#FF3C53" stroke-width="0.666667" stroke-linejoin="round"/>
</svg>
