<svg width="11" height="11" viewBox="0 0 11 11" fill="none" xmlns="http://www.w3.org/2000/svg">
<path fill-rule="evenodd" clip-rule="evenodd" d="M3.24416 1.88763C3.40044 1.73135 3.6124 1.64355 3.83341 1.64355H7.16675C7.38776 1.64355 7.59972 1.73135 7.756 1.88763C7.91228 2.04391 8.00008 2.25587 8.00008 2.47689V4.97689C8.2211 4.97689 8.43306 5.06468 8.58934 5.22096C8.74562 5.37724 8.83341 5.58921 8.83341 5.81022V7.06022C8.83341 7.61275 8.61392 8.14266 8.22322 8.53336C7.83252 8.92406 7.30262 9.14355 6.75008 9.14355V9.56022C6.75008 9.79034 6.56353 9.97689 6.33341 9.97689C6.1033 9.97689 5.91675 9.79034 5.91675 9.56022V9.14355H5.08341V9.56022C5.08341 9.79034 4.89687 9.97689 4.66675 9.97689C4.43663 9.97689 4.25008 9.79034 4.25008 9.56022V9.14355C3.69755 9.14355 3.16764 8.92406 2.77694 8.53336C2.38624 8.14266 2.16675 7.61275 2.16675 7.06022V5.81022C2.16675 5.58921 2.25455 5.37724 2.41083 5.22096C2.56711 5.06468 2.77907 4.97689 3.00008 4.97689V2.47689C3.00008 2.25587 3.08788 2.04391 3.24416 1.88763ZM3.00008 5.81022V7.06022C3.00008 7.39174 3.13178 7.70968 3.3662 7.9441C3.60062 8.17852 3.91856 8.31022 4.25008 8.31022H6.75008C7.0816 8.31022 7.39954 8.17852 7.63396 7.9441C7.86839 7.70968 8.00008 7.39174 8.00008 7.06022V5.81022H3.00008ZM7.16675 4.97689V2.47689H3.83341V4.97689H7.16675ZM4.66675 2.89355C4.89687 2.89355 5.08341 3.0801 5.08341 3.31022V3.72689C5.08341 3.957 4.89687 4.14355 4.66675 4.14355C4.43663 4.14355 4.25008 3.957 4.25008 3.72689V3.31022C4.25008 3.0801 4.43663 2.89355 4.66675 2.89355ZM6.33341 2.89355C6.56353 2.89355 6.75008 3.0801 6.75008 3.31022V3.72689C6.75008 3.957 6.56353 4.14355 6.33341 4.14355C6.1033 4.14355 5.91675 3.957 5.91675 3.72689V3.31022C5.91675 3.0801 6.1033 2.89355 6.33341 2.89355Z" fill="#6D6E72"/>
<path d="M2.5835 5.81022C2.5835 5.69971 2.62739 5.59373 2.70554 5.51559C2.78368 5.43745 2.88966 5.39355 3.00016 5.39355H8.00016C8.11067 5.39355 8.21665 5.43745 8.29479 5.51559C8.37293 5.59373 8.41683 5.69971 8.41683 5.81022V7.06022C8.41683 7.50225 8.24123 7.92617 7.92867 8.23873C7.61611 8.55129 7.19219 8.72689 6.75016 8.72689H4.25016C3.80814 8.72689 3.38421 8.55129 3.07165 8.23873C2.75909 7.92617 2.5835 7.50225 2.5835 7.06022V5.81022Z" fill="#6D6E72"/>
</svg>
