<svg width="11" height="11" viewBox="0 0 11 11" fill="none" xmlns="http://www.w3.org/2000/svg">
<path d="M10.015 1.81006H1.265C1.09924 1.81006 0.940267 1.8803 0.823057 2.00532C0.705847 2.13034 0.639999 2.29991 0.639999 2.47673V9.14339C0.639999 9.3202 0.705847 9.48977 0.823057 9.6148C0.940267 9.73982 1.09924 9.81006 1.265 9.81006H10.015C10.1808 9.81006 10.3397 9.73982 10.4569 9.6148C10.5741 9.48977 10.64 9.3202 10.64 9.14339V2.47673C10.64 2.29991 10.5741 2.13034 10.4569 2.00532C10.3397 1.8803 10.1808 1.81006 10.015 1.81006ZM1.64312 2.47673C1.72087 2.47407 1.79758 2.49623 1.86344 2.54037C1.9293 2.58451 1.98131 2.64862 2.0128 2.72448C2.04429 2.80035 2.05384 2.88451 2.04021 2.9662C2.02657 3.04788 1.99039 3.12337 1.93629 3.18298C1.88219 3.24259 1.81264 3.28362 1.73655 3.30081C1.66045 3.318 1.58128 3.31056 1.50917 3.27945C1.43706 3.24835 1.3753 3.19499 1.3318 3.12621C1.2883 3.05743 1.26504 2.97636 1.265 2.89339C1.26495 2.78516 1.30438 2.68115 1.37496 2.60338C1.44553 2.52561 1.54171 2.48019 1.64312 2.47673ZM1.64312 9.14339C1.56587 9.14339 1.49034 9.11896 1.4261 9.07317C1.36187 9.02739 1.3118 8.96231 1.28223 8.88618C1.25267 8.81004 1.24493 8.72626 1.26001 8.64544C1.27508 8.56461 1.31228 8.49037 1.36691 8.4321C1.42154 8.37383 1.49114 8.33414 1.56692 8.31807C1.64269 8.30199 1.72123 8.31024 1.79261 8.34178C1.86399 8.37331 1.925 8.42672 1.96792 8.49524C2.01084 8.56376 2.03375 8.64432 2.03375 8.72673C2.03375 8.83723 1.99259 8.94321 1.91934 9.02136C1.84608 9.0995 1.74673 9.14339 1.64312 9.14339ZM3.22438 7.21673C2.81714 7.22647 2.42244 7.0662 2.12438 6.77006L2.39313 6.41673C2.62142 6.64982 2.92401 6.78202 3.24 6.78673C3.5525 6.78673 3.72437 6.62006 3.72437 6.42339C3.72437 6.22673 3.54 6.12006 3.1275 6.01673C2.59625 5.88339 2.22438 5.72006 2.22438 5.20339C2.22438 4.68673 2.60562 4.37339 3.16187 4.37339C3.52042 4.36637 3.86837 4.50317 4.13687 4.75673L3.88375 5.12339C3.67896 4.92741 3.41507 4.81624 3.14 4.81006C3.03772 4.79684 2.93469 4.82725 2.85333 4.89468C2.77198 4.9621 2.71889 5.06108 2.70562 5.17006C2.70562 5.39339 2.89625 5.47339 3.30562 5.57339C3.84312 5.70339 4.2025 5.88673 4.2025 6.38673C4.2025 6.88673 3.84 7.21673 3.22438 7.21673ZM5.57125 7.21673C5.16402 7.22647 4.76932 7.0662 4.47125 6.77006L4.74 6.41673C4.96829 6.64982 5.27088 6.78202 5.58688 6.78673C5.89938 6.78673 6.07125 6.62006 6.07125 6.42339C6.07125 6.22673 5.88687 6.12006 5.47437 6.01673C4.94312 5.88339 4.57125 5.72006 4.57125 5.20339C4.57125 4.68673 4.95563 4.37339 5.50875 4.37339C5.8674 4.36571 6.21557 4.5026 6.48375 4.75673L6.23062 5.12339C6.02938 4.92087 5.76643 4.80252 5.49 4.79006C5.38772 4.77684 5.28469 4.80725 5.20333 4.87468C5.12198 4.9421 5.06889 5.04108 5.05562 5.15006C5.05562 5.37339 5.24625 5.45339 5.65562 5.55339C6.19312 5.68339 6.5525 5.86673 6.5525 6.36673C6.5525 6.86673 6.18688 7.21673 5.57125 7.21673ZM7.0025 7.17006V4.42339H7.90875C8.75875 4.42339 9.35875 4.99339 9.35875 5.79673C9.35875 6.60006 8.765 7.17006 7.90875 7.17006H7.0025ZM9.60562 9.14339C9.52837 9.14339 9.45284 9.11896 9.38861 9.07317C9.32437 9.02739 9.2743 8.96231 9.24473 8.88618C9.21517 8.81004 9.20743 8.72626 9.22251 8.64544C9.23758 8.56461 9.27478 8.49037 9.32941 8.4321C9.38404 8.37383 9.45364 8.33414 9.52942 8.31807C9.60519 8.30199 9.68373 8.31024 9.75511 8.34178C9.82649 8.37331 9.8875 8.42672 9.93042 8.49524C9.97334 8.56376 9.99625 8.64432 9.99625 8.72673C9.99625 8.83723 9.95509 8.94321 9.88184 9.02136C9.80858 9.0995 9.70923 9.14339 9.60562 9.14339ZM9.60562 3.31006C9.52837 3.31006 9.45284 3.28562 9.38861 3.23984C9.32437 3.19406 9.2743 3.12898 9.24473 3.05284C9.21517 2.97671 9.20743 2.89293 9.22251 2.81211C9.23758 2.73128 9.27478 2.65704 9.32941 2.59876C9.38404 2.54049 9.45364 2.50081 9.52942 2.48473C9.60519 2.46865 9.68373 2.47691 9.75511 2.50844C9.82649 2.53998 9.8875 2.59338 9.93042 2.6619C9.97334 2.73042 9.99625 2.81098 9.99625 2.89339C9.99625 3.0039 9.95509 3.10988 9.88184 3.18802C9.80858 3.26616 9.70923 3.31006 9.60562 3.31006Z" fill="#6D6E72"/>
<path d="M7.515 4.81187H7.94868C8.05352 4.80367 8.15853 4.82342 8.25727 4.86988C8.35601 4.91634 8.44639 4.98854 8.52285 5.08203C8.59931 5.17552 8.66023 5.28834 8.70187 5.41354C8.74352 5.53874 8.765 5.67368 8.765 5.81006C8.765 5.94644 8.74352 6.08138 8.70187 6.20658C8.66023 6.33178 8.59931 6.4446 8.52285 6.53809C8.44639 6.63159 8.35601 6.70378 8.25727 6.75024C8.15853 6.7967 8.05352 6.81645 7.94868 6.80825H7.515V4.81187Z" fill="#6D6E72"/>
</svg>
