<svg width="11" height="11" viewBox="0 0 11 11" fill="none" xmlns="http://www.w3.org/2000/svg">
<path d="M9.88719 9.07866H9.58437V9.89595C9.58437 9.96973 9.55441 10.0336 9.49448 10.0875C9.43455 10.1414 9.36358 10.1684 9.28156 10.1684C9.19955 10.1684 9.12858 10.1414 9.06864 10.0875C9.00871 10.0336 8.97875 9.96973 8.97875 9.89595V9.07866H8.37312V9.89595C8.37312 9.96973 8.34316 10.0336 8.28323 10.0875C8.2233 10.1414 8.15233 10.1684 8.07031 10.1684C7.9883 10.1684 7.91733 10.1414 7.85739 10.0875C7.79746 10.0336 7.7675 9.96973 7.7675 9.89595V9.07866H7.16187V9.89595C7.16187 9.96973 7.13191 10.0336 7.07198 10.0875C7.01205 10.1414 6.94108 10.1684 6.85906 10.1684C6.77705 10.1684 6.70608 10.1414 6.64614 10.0875C6.58621 10.0336 6.55625 9.96973 6.55625 9.89595V9.07866H5.95062V9.89595C5.95062 9.96973 5.92066 10.0336 5.86073 10.0875C5.8008 10.1414 5.72983 10.1684 5.64781 10.1684C5.5658 10.1684 5.49483 10.1414 5.43489 10.0875C5.37496 10.0336 5.345 9.96973 5.345 9.89595V9.07866H4.73937V9.89595C4.73937 9.96973 4.70941 10.0336 4.64948 10.0875C4.58955 10.1414 4.51858 10.1684 4.43656 10.1684C4.35455 10.1684 4.28358 10.1414 4.22364 10.0875C4.16371 10.0336 4.13375 9.96973 4.13375 9.89595V9.07866H3.52812V9.89595C3.52812 9.96973 3.49816 10.0336 3.43823 10.0875C3.3783 10.1414 3.30733 10.1684 3.22531 10.1684C3.1433 10.1684 3.07233 10.1414 3.01239 10.0875C2.95246 10.0336 2.9225 9.96973 2.9225 9.89595V9.07866H1.71125L1.51253 2.61519H9.88719C9.9692 2.61519 10.0402 2.64215 10.1001 2.69607C10.16 2.74999 10.19 2.81383 10.19 2.88762V8.80624C10.19 8.88002 10.16 8.94387 10.1001 8.99779C10.0402 9.0517 9.9692 9.07866 9.88719 9.07866ZM9.58437 4.17496C9.58437 4.0274 9.52602 3.8997 9.40932 3.79187C9.2926 3.68403 9.14908 3.63011 8.97875 3.63011H4.73937C4.57535 3.63011 4.4334 3.68403 4.31355 3.79187C4.19368 3.8997 4.13375 4.0274 4.13375 4.17496V7.44409C4.13375 7.59734 4.19368 7.72646 4.31355 7.83146C4.4334 7.93645 4.57535 7.98895 4.73937 7.98895H8.97875C9.14908 7.98895 9.2926 7.93645 9.40932 7.83146C9.52602 7.72646 9.58437 7.59734 9.58437 7.44409V4.17496ZM8.67594 7.44409H5.04219C4.96017 7.44409 4.8892 7.41714 4.82927 7.36322C4.76934 7.30931 4.73937 7.24545 4.73937 7.17167V4.44739C4.73937 4.37361 4.76934 4.30976 4.82927 4.25584C4.8892 4.20193 4.96017 4.17496 5.04219 4.17496H8.67594C8.75795 4.17496 8.82892 4.20193 8.88886 4.25584C8.94879 4.30976 8.97875 4.37361 8.97875 4.44739V7.17167C8.97875 7.24545 8.94879 7.30931 8.88886 7.36322C8.82892 7.41714 8.75795 7.44409 8.67594 7.44409ZM7.16187 4.71982C6.82752 4.71982 6.54205 4.82623 6.30548 5.03907C6.06891 5.25191 5.95062 5.50873 5.95062 5.80953C5.95062 6.11033 6.06891 6.36716 6.30548 6.57999C6.54205 6.79283 6.82752 6.89924 7.16187 6.89924C7.49623 6.89924 7.7817 6.79283 8.01827 6.57999C8.25484 6.36716 8.37312 6.11033 8.37312 5.80953C8.37312 5.50873 8.25484 5.25191 8.01827 5.03907C7.7817 4.82623 7.49623 4.71982 7.16187 4.71982ZM7.1666 6.35439C6.99943 6.35439 6.8559 6.30188 6.73605 6.19689C6.61618 6.09189 6.55625 5.96419 6.55625 5.81379C6.55625 5.66338 6.61618 5.53426 6.73605 5.42643C6.8559 5.31859 6.99943 5.26468 7.1666 5.26468C7.33379 5.26468 7.47572 5.31718 7.59244 5.42217C7.70915 5.52717 7.7675 5.65629 7.7675 5.80953C7.7675 5.96277 7.70915 6.09189 7.59244 6.19689C7.47572 6.30188 7.33379 6.35439 7.1666 6.35439ZM2.10396 8.25651V9.89595C2.10396 9.96973 2.074 10.0336 2.01406 10.0875C1.89268 10.1967 1.49045 10.1684 1.40844 10.1684C1.32643 10.1684 1.25545 10.1414 1.19552 10.0875C1.13559 10.0336 1.10562 9.96973 1.10562 9.89595V2.07337H0.802812C0.720801 2.07337 0.649829 2.04642 0.589897 1.9925C0.529966 1.93858 0.5 1.83581 0.5 1.76203C0.5 1.61365 0.529966 1.58548 0.589897 1.53156C0.649829 1.47764 0.720801 1.45068 0.802812 1.45068H1.40844C1.43367 1.45068 1.4526 1.45352 1.46522 1.4592C1.71125 1.45068 1.71125 1.45068 2.01406 1.45068C2.31687 1.45068 2.31687 1.69392 2.31687 1.76203L2.10396 8.25651Z" fill="#6D6E72"/>
</svg>
