<svg width="11" height="11" viewBox="0 0 11 11" fill="none" xmlns="http://www.w3.org/2000/svg">
<path d="M9.395 1.81006H0.644997C0.479237 1.81006 0.320265 1.8803 0.203055 2.00532C0.0858446 2.13034 0.0199966 2.29991 0.0199966 2.47673V9.14339C0.0199966 9.3202 0.0858446 9.48977 0.203055 9.6148C0.320265 9.73982 0.479237 9.81006 0.644997 9.81006H9.395C9.56076 9.81006 9.71973 9.73982 9.83694 9.6148C9.95415 9.48977 10.02 9.3202 10.02 9.14339V2.47673C10.02 2.29991 9.95415 2.13034 9.83694 2.00532C9.71973 1.8803 9.56076 1.81006 9.395 1.81006ZM1.02312 2.47673C1.10087 2.47407 1.17758 2.49623 1.24344 2.54037C1.3093 2.58451 1.36131 2.64862 1.3928 2.72448C1.42429 2.80035 1.43384 2.88451 1.42021 2.9662C1.40657 3.04788 1.37039 3.12337 1.31629 3.18298C1.26219 3.24259 1.19264 3.28362 1.11655 3.30081C1.04045 3.318 0.961276 3.31056 0.889168 3.27945C0.817059 3.24835 0.755299 3.19499 0.711798 3.12621C0.668297 3.05743 0.645037 2.97636 0.644997 2.89339C0.644945 2.78516 0.68438 2.68115 0.754954 2.60338C0.825529 2.52561 0.921704 2.48019 1.02312 2.47673ZM1.02312 9.14339C0.945864 9.14339 0.87034 9.11896 0.806102 9.07317C0.741864 9.02739 0.691797 8.96231 0.662232 8.88618C0.632666 8.81004 0.62493 8.72626 0.640003 8.64544C0.655075 8.56461 0.692279 8.49037 0.746908 8.4321C0.801538 8.37383 0.871141 8.33414 0.946915 8.31807C1.02269 8.30199 1.10123 8.31024 1.17261 8.34178C1.24399 8.37331 1.305 8.42672 1.34792 8.49524C1.39084 8.56376 1.41375 8.64432 1.41375 8.72673C1.41375 8.83723 1.37259 8.94321 1.29934 9.02136C1.22608 9.0995 1.12673 9.14339 1.02312 9.14339ZM2.60438 7.21673C2.19714 7.22647 1.80244 7.0662 1.50438 6.77006L1.77313 6.41673C2.00142 6.64982 2.30401 6.78202 2.62 6.78673C2.9325 6.78673 3.10437 6.62006 3.10437 6.42339C3.10437 6.22673 2.92 6.12006 2.5075 6.01673C1.97625 5.88339 1.60438 5.72006 1.60438 5.20339C1.60438 4.68673 1.98562 4.37339 2.54187 4.37339C2.90042 4.36637 3.24837 4.50317 3.51687 4.75673L3.26375 5.12339C3.05896 4.92741 2.79507 4.81624 2.52 4.81006C2.41772 4.79684 2.31469 4.82725 2.23333 4.89468C2.15198 4.9621 2.09889 5.06108 2.08562 5.17006C2.08562 5.39339 2.27625 5.47339 2.68562 5.57339C3.22312 5.70339 3.5825 5.88673 3.5825 6.38673C3.5825 6.88673 3.22 7.21673 2.60438 7.21673ZM4.95125 7.21673C4.54402 7.22647 4.14932 7.0662 3.85125 6.77006L4.12 6.41673C4.34829 6.64982 4.65088 6.78202 4.96688 6.78673C5.27938 6.78673 5.45125 6.62006 5.45125 6.42339C5.45125 6.22673 5.26687 6.12006 4.85437 6.01673C4.32312 5.88339 3.95125 5.72006 3.95125 5.20339C3.95125 4.68673 4.33563 4.37339 4.88875 4.37339C5.2474 4.36571 5.59557 4.5026 5.86375 4.75673L5.61062 5.12339C5.40938 4.92087 5.14643 4.80252 4.87 4.79006C4.76772 4.77684 4.66469 4.80725 4.58333 4.87468C4.50198 4.9421 4.44889 5.04108 4.43562 5.15006C4.43562 5.37339 4.62625 5.45339 5.03562 5.55339C5.57312 5.68339 5.9325 5.86673 5.9325 6.36673C5.9325 6.86673 5.56688 7.21673 4.95125 7.21673ZM6.3825 7.17006V4.42339H7.28875C8.13875 4.42339 8.73875 4.99339 8.73875 5.79673C8.73875 6.60006 8.145 7.17006 7.28875 7.17006H6.3825ZM8.98562 9.14339C8.90837 9.14339 8.83284 9.11896 8.76861 9.07317C8.70437 9.02739 8.6543 8.96231 8.62473 8.88618C8.59517 8.81004 8.58743 8.72626 8.60251 8.64544C8.61758 8.56461 8.65478 8.49037 8.70941 8.4321C8.76404 8.37383 8.83364 8.33414 8.90942 8.31807C8.98519 8.30199 9.06373 8.31024 9.13511 8.34178C9.20649 8.37331 9.2675 8.42672 9.31042 8.49524C9.35334 8.56376 9.37625 8.64432 9.37625 8.72673C9.37625 8.83723 9.33509 8.94321 9.26184 9.02136C9.18858 9.0995 9.08923 9.14339 8.98562 9.14339ZM8.98562 3.31006C8.90837 3.31006 8.83284 3.28562 8.76861 3.23984C8.70437 3.19406 8.6543 3.12898 8.62473 3.05284C8.59517 2.97671 8.58743 2.89293 8.60251 2.81211C8.61758 2.73128 8.65478 2.65704 8.70941 2.59876C8.76404 2.54049 8.83364 2.50081 8.90942 2.48473C8.98519 2.46865 9.06373 2.47691 9.13511 2.50844C9.20649 2.53998 9.2675 2.59338 9.31042 2.6619C9.35334 2.73042 9.37625 2.81098 9.37625 2.89339C9.37625 3.0039 9.33509 3.10988 9.26184 3.18802C9.18858 3.26616 9.08923 3.31006 8.98562 3.31006Z" fill="#6D6E72"/>
<path d="M6.895 4.81187H7.32868C7.43352 4.80367 7.53853 4.82342 7.63727 4.86988C7.73601 4.91634 7.82639 4.98854 7.90285 5.08203C7.97931 5.17552 8.04023 5.28834 8.08187 5.41354C8.12352 5.53874 8.145 5.67368 8.145 5.81006C8.145 5.94644 8.12352 6.08138 8.08187 6.20658C8.04023 6.33178 7.97931 6.4446 7.90285 6.53809C7.82639 6.63159 7.73601 6.70378 7.63727 6.75024C7.53853 6.7967 7.43352 6.81645 7.32868 6.80825H6.895V4.81187Z" fill="#6D6E72"/>
</svg>
