<svg width="21" height="15" viewBox="0 0 21 15" fill="none" xmlns="http://www.w3.org/2000/svg">
<path d="M18.5 1.08002H2.5C1.94772 1.08002 1.5 1.52773 1.5 2.08002V12.08C1.5 12.6323 1.94772 13.08 2.5 13.08H18.5C19.0523 13.08 19.5 12.6323 19.5 12.08V2.08002C19.5 1.52773 19.0523 1.08002 18.5 1.08002Z" stroke="#111111"/>
<path d="M11.5 8.08002H4.5V10.08H11.5V8.08002Z" fill="#111111"/>
<path d="M6.5 4.08002H4.5V6.08002H6.5V4.08002Z" fill="#111111"/>
<path d="M11.5 4.08002H9.5V6.08002H11.5V4.08002Z" fill="#111111"/>
<path d="M16.5 4.08002H14.5V6.08002H16.5V4.08002Z" fill="#111111"/>
<path d="M16.5 8.08002H14.5V10.08H16.5V8.08002Z" fill="#111111"/>
</svg>
