<svg width="11" height="11" viewBox="0 0 11 11" fill="none" xmlns="http://www.w3.org/2000/svg">
<path fill-rule="evenodd" clip-rule="evenodd" d="M2.87416 1.88763C3.03044 1.73135 3.2424 1.64355 3.46341 1.64355H6.79675C7.01776 1.64355 7.22972 1.73135 7.386 1.88763C7.54228 2.04391 7.63008 2.25587 7.63008 2.47689V4.97689C7.8511 4.97689 8.06306 5.06468 8.21934 5.22096C8.37562 5.37724 8.46341 5.58921 8.46341 5.81022V7.06022C8.46341 7.61275 8.24392 8.14266 7.85322 8.53336C7.46252 8.92406 6.93262 9.14355 6.38008 9.14355V9.56022C6.38008 9.79034 6.19353 9.97689 5.96341 9.97689C5.7333 9.97689 5.54675 9.79034 5.54675 9.56022V9.14355H4.71341V9.56022C4.71341 9.79034 4.52687 9.97689 4.29675 9.97689C4.06663 9.97689 3.88008 9.79034 3.88008 9.56022V9.14355C3.32755 9.14355 2.79764 8.92406 2.40694 8.53336C2.01624 8.14266 1.79675 7.61275 1.79675 7.06022V5.81022C1.79675 5.58921 1.88455 5.37724 2.04083 5.22096C2.19711 5.06468 2.40907 4.97689 2.63008 4.97689V2.47689C2.63008 2.25587 2.71788 2.04391 2.87416 1.88763ZM2.63008 5.81022V7.06022C2.63008 7.39174 2.76178 7.70968 2.9962 7.9441C3.23062 8.17852 3.54856 8.31022 3.88008 8.31022H6.38008C6.7116 8.31022 7.02954 8.17852 7.26396 7.9441C7.49839 7.70968 7.63008 7.39174 7.63008 7.06022V5.81022H2.63008ZM6.79675 4.97689V2.47689H3.46341V4.97689H6.79675ZM4.29675 2.89355C4.52687 2.89355 4.71341 3.0801 4.71341 3.31022V3.72689C4.71341 3.957 4.52687 4.14355 4.29675 4.14355C4.06663 4.14355 3.88008 3.957 3.88008 3.72689V3.31022C3.88008 3.0801 4.06663 2.89355 4.29675 2.89355ZM5.96341 2.89355C6.19353 2.89355 6.38008 3.0801 6.38008 3.31022V3.72689C6.38008 3.957 6.19353 4.14355 5.96341 4.14355C5.7333 4.14355 5.54675 3.957 5.54675 3.72689V3.31022C5.54675 3.0801 5.7333 2.89355 5.96341 2.89355Z" fill="#6D6E72"/>
<path d="M2.2135 5.81022C2.2135 5.69971 2.25739 5.59373 2.33554 5.51559C2.41368 5.43745 2.51966 5.39355 2.63016 5.39355H7.63016C7.74067 5.39355 7.84665 5.43745 7.92479 5.51559C8.00293 5.59373 8.04683 5.69971 8.04683 5.81022V7.06022C8.04683 7.50225 7.87123 7.92617 7.55867 8.23873C7.24611 8.55129 6.82219 8.72689 6.38016 8.72689H3.88016C3.43814 8.72689 3.01421 8.55129 2.70165 8.23873C2.38909 7.92617 2.2135 7.50225 2.2135 7.06022V5.81022Z" fill="#6D6E72"/>
</svg>
