<svg width="23" height="15" viewBox="0 0 23 15" fill="none" xmlns="http://www.w3.org/2000/svg">
<path d="M17.8925 4.31006H15.705V2.56006C15.705 1.59756 14.9175 0.810059 13.955 0.810059H3.45502C2.49252 0.810059 1.70502 1.59756 1.70502 2.56006V10.4351C1.70502 11.3976 2.49252 12.1851 3.45502 12.1851C3.45502 13.6376 4.62752 14.8101 6.08002 14.8101C7.53252 14.8101 8.70502 13.6376 8.70502 12.1851H13.955C13.955 13.6376 15.1275 14.8101 16.58 14.8101C18.0325 14.8101 19.205 13.6376 19.205 12.1851H20.08C20.5613 12.1851 20.955 11.7913 20.955 11.3101V8.39631C20.955 8.02006 20.8325 7.65256 20.605 7.34631L18.5925 4.66006C18.4263 4.44131 18.1638 4.31006 17.8925 4.31006ZM6.08002 13.0601C5.59877 13.0601 5.20502 12.6663 5.20502 12.1851C5.20502 11.7038 5.59877 11.3101 6.08002 11.3101C6.56127 11.3101 6.95502 11.7038 6.95502 12.1851C6.95502 12.6663 6.56127 13.0601 6.08002 13.0601ZM17.8925 5.62256L19.6075 7.81006H15.705V5.62256H17.8925ZM16.58 13.0601C16.0988 13.0601 15.705 12.6663 15.705 12.1851C15.705 11.7038 16.0988 11.3101 16.58 11.3101C17.0613 11.3101 17.455 11.7038 17.455 12.1851C17.455 12.6663 17.0613 13.0601 16.58 13.0601Z" fill="#FF3C53"/>
</svg>
