<svg width="11" height="11" viewBox="0 0 11 11" fill="none" xmlns="http://www.w3.org/2000/svg">
<path d="M9.48499 1.81006H0.734985C0.569225 1.81006 0.410253 1.8803 0.293043 2.00532C0.175833 2.13034 0.109985 2.29991 0.109985 2.47673V9.14339C0.109985 9.3202 0.175833 9.48977 0.293043 9.6148C0.410253 9.73982 0.569225 9.81006 0.734985 9.81006H9.48499C9.65075 9.81006 9.80972 9.73982 9.92693 9.6148C10.0441 9.48977 10.11 9.3202 10.11 9.14339V2.47673C10.11 2.29991 10.0441 2.13034 9.92693 2.00532C9.80972 1.8803 9.65075 1.81006 9.48499 1.81006ZM1.11311 2.47673C1.19086 2.47407 1.26757 2.49623 1.33343 2.54037C1.39929 2.58451 1.4513 2.64862 1.48279 2.72448C1.51428 2.80035 1.52383 2.88451 1.5102 2.9662C1.49656 3.04788 1.46038 3.12337 1.40628 3.18298C1.35218 3.24259 1.28263 3.28362 1.20654 3.30081C1.13044 3.318 1.05126 3.31056 0.979156 3.27945C0.907047 3.24835 0.845287 3.19499 0.801786 3.12621C0.758285 3.05743 0.735025 2.97636 0.734985 2.89339C0.734933 2.78516 0.774368 2.68115 0.844942 2.60338C0.915517 2.52561 1.01169 2.48019 1.11311 2.47673ZM1.11311 9.14339C1.03585 9.14339 0.960328 9.11896 0.89609 9.07317C0.831852 9.02739 0.781785 8.96231 0.75222 8.88618C0.722654 8.81004 0.714918 8.72626 0.729991 8.64544C0.745063 8.56461 0.782267 8.49037 0.836896 8.4321C0.891526 8.37383 0.961129 8.33414 1.0369 8.31807C1.11268 8.30199 1.19122 8.31024 1.2626 8.34178C1.33398 8.37331 1.39499 8.42672 1.43791 8.49524C1.48083 8.56376 1.50374 8.64432 1.50374 8.72673C1.50374 8.83723 1.46258 8.94321 1.38933 9.02136C1.31607 9.0995 1.21672 9.14339 1.11311 9.14339ZM2.69437 7.21673C2.28713 7.22647 1.89243 7.0662 1.59437 6.77006L1.86312 6.41673C2.09141 6.64982 2.394 6.78202 2.70999 6.78673C3.02249 6.78673 3.19436 6.62006 3.19436 6.42339C3.19436 6.22673 3.00999 6.12006 2.59749 6.01673C2.06624 5.88339 1.69437 5.72006 1.69437 5.20339C1.69437 4.68673 2.07561 4.37339 2.63186 4.37339C2.99041 4.36637 3.33836 4.50317 3.60686 4.75673L3.35374 5.12339C3.14895 4.92741 2.88506 4.81624 2.60999 4.81006C2.50771 4.79684 2.40468 4.82725 2.32332 4.89468C2.24197 4.9621 2.18888 5.06108 2.17561 5.17006C2.17561 5.39339 2.36624 5.47339 2.77561 5.57339C3.31311 5.70339 3.67249 5.88673 3.67249 6.38673C3.67249 6.88673 3.30999 7.21673 2.69437 7.21673ZM5.04124 7.21673C4.63401 7.22647 4.23931 7.0662 3.94124 6.77006L4.20999 6.41673C4.43828 6.64982 4.74087 6.78202 5.05687 6.78673C5.36937 6.78673 5.54124 6.62006 5.54124 6.42339C5.54124 6.22673 5.35686 6.12006 4.94436 6.01673C4.41311 5.88339 4.04124 5.72006 4.04124 5.20339C4.04124 4.68673 4.42562 4.37339 4.97874 4.37339C5.33739 4.36571 5.68556 4.5026 5.95374 4.75673L5.70061 5.12339C5.49937 4.92087 5.23642 4.80252 4.95999 4.79006C4.85771 4.77684 4.75468 4.80725 4.67332 4.87468C4.59197 4.9421 4.53888 5.04108 4.52561 5.15006C4.52561 5.37339 4.71624 5.45339 5.12561 5.55339C5.66311 5.68339 6.02249 5.86673 6.02249 6.36673C6.02249 6.86673 5.65687 7.21673 5.04124 7.21673ZM6.47249 7.17006V4.42339H7.37874C8.22874 4.42339 8.82874 4.99339 8.82874 5.79673C8.82874 6.60006 8.23499 7.17006 7.37874 7.17006H6.47249ZM9.07561 9.14339C8.99836 9.14339 8.92282 9.11896 8.85859 9.07317C8.79435 9.02739 8.74429 8.96231 8.71472 8.88618C8.68516 8.81004 8.67742 8.72626 8.6925 8.64544C8.70757 8.56461 8.74477 8.49037 8.7994 8.4321C8.85403 8.37383 8.92362 8.33414 8.9994 8.31807C9.07517 8.30199 9.15372 8.31024 9.2251 8.34178C9.29648 8.37331 9.35748 8.42672 9.4004 8.49524C9.44332 8.56376 9.46624 8.64432 9.46624 8.72673C9.46624 8.83723 9.42508 8.94321 9.35183 9.02136C9.27857 9.0995 9.17922 9.14339 9.07561 9.14339ZM9.07561 3.31006C8.99836 3.31006 8.92282 3.28562 8.85859 3.23984C8.79435 3.19406 8.74429 3.12898 8.71472 3.05284C8.68516 2.97671 8.67742 2.89293 8.6925 2.81211C8.70757 2.73128 8.74477 2.65704 8.7994 2.59876C8.85403 2.54049 8.92362 2.50081 8.9994 2.48473C9.07517 2.46865 9.15372 2.47691 9.2251 2.50844C9.29648 2.53998 9.35748 2.59338 9.4004 2.6619C9.44332 2.73042 9.46624 2.81098 9.46624 2.89339C9.46624 3.0039 9.42508 3.10988 9.35183 3.18802C9.27857 3.26616 9.17922 3.31006 9.07561 3.31006Z" fill="#6D6E72"/>
<path d="M6.98499 4.81187H7.41867C7.52351 4.80367 7.62852 4.82342 7.72726 4.86988C7.826 4.91634 7.91638 4.98854 7.99284 5.08203C8.0693 5.17552 8.13021 5.28834 8.17185 5.41354C8.2135 5.53874 8.23499 5.67368 8.23499 5.81006C8.23499 5.94644 8.2135 6.08138 8.17185 6.20658C8.13021 6.33178 8.0693 6.4446 7.99284 6.53809C7.91638 6.63159 7.826 6.70378 7.72726 6.75024C7.62852 6.7967 7.52351 6.81645 7.41867 6.80825H6.98499V4.81187Z" fill="#6D6E72"/>
</svg>
