<svg width="11" height="11" viewBox="0 0 11 11" fill="none" xmlns="http://www.w3.org/2000/svg">
<path d="M9.39499 1.81006H0.644989C0.479229 1.81006 0.320257 1.8803 0.203047 2.00532C0.085837 2.13034 0.019989 2.29991 0.019989 2.47673V9.14339C0.019989 9.3202 0.085837 9.48977 0.203047 9.6148C0.320257 9.73982 0.479229 9.81006 0.644989 9.81006H9.39499C9.56075 9.81006 9.71972 9.73982 9.83693 9.6148C9.95414 9.48977 10.02 9.3202 10.02 9.14339V2.47673C10.02 2.29991 9.95414 2.13034 9.83693 2.00532C9.71972 1.8803 9.56075 1.81006 9.39499 1.81006ZM1.02311 2.47673C1.10086 2.47407 1.17757 2.49623 1.24343 2.54037C1.30929 2.58451 1.3613 2.64862 1.39279 2.72448C1.42428 2.80035 1.43383 2.88451 1.4202 2.9662C1.40656 3.04788 1.37038 3.12337 1.31628 3.18298C1.26218 3.24259 1.19263 3.28362 1.11654 3.30081C1.04044 3.318 0.961268 3.31056 0.88916 3.27945C0.817051 3.24835 0.755291 3.19499 0.71179 3.12621C0.668289 3.05743 0.645029 2.97636 0.644989 2.89339C0.644937 2.78516 0.684372 2.68115 0.754946 2.60338C0.825521 2.52561 0.921696 2.48019 1.02311 2.47673ZM1.02311 9.14339C0.945856 9.14339 0.870332 9.11896 0.806094 9.07317C0.741856 9.02739 0.691789 8.96231 0.662224 8.88618C0.632658 8.81004 0.624922 8.72626 0.639995 8.64544C0.655067 8.56461 0.692271 8.49037 0.7469 8.4321C0.80153 8.37383 0.871133 8.33414 0.946907 8.31807C1.02268 8.30199 1.10122 8.31024 1.1726 8.34178C1.24398 8.37331 1.30499 8.42672 1.34791 8.49524C1.39083 8.56376 1.41374 8.64432 1.41374 8.72673C1.41374 8.83723 1.37258 8.94321 1.29933 9.02136C1.22607 9.0995 1.12672 9.14339 1.02311 9.14339ZM2.60437 7.21673C2.19713 7.22647 1.80243 7.0662 1.50437 6.77006L1.77312 6.41673C2.00141 6.64982 2.304 6.78202 2.61999 6.78673C2.93249 6.78673 3.10436 6.62006 3.10436 6.42339C3.10436 6.22673 2.91999 6.12006 2.50749 6.01673C1.97624 5.88339 1.60437 5.72006 1.60437 5.20339C1.60437 4.68673 1.98561 4.37339 2.54186 4.37339C2.90041 4.36637 3.24836 4.50317 3.51686 4.75673L3.26374 5.12339C3.05895 4.92741 2.79506 4.81624 2.51999 4.81006C2.41771 4.79684 2.31468 4.82725 2.23332 4.89468C2.15197 4.9621 2.09888 5.06108 2.08561 5.17006C2.08561 5.39339 2.27624 5.47339 2.68561 5.57339C3.22311 5.70339 3.58249 5.88673 3.58249 6.38673C3.58249 6.88673 3.21999 7.21673 2.60437 7.21673ZM4.95124 7.21673C4.54401 7.22647 4.14931 7.0662 3.85124 6.77006L4.11999 6.41673C4.34828 6.64982 4.65087 6.78202 4.96687 6.78673C5.27937 6.78673 5.45124 6.62006 5.45124 6.42339C5.45124 6.22673 5.26686 6.12006 4.85436 6.01673C4.32311 5.88339 3.95124 5.72006 3.95124 5.20339C3.95124 4.68673 4.33562 4.37339 4.88874 4.37339C5.24739 4.36571 5.59556 4.5026 5.86374 4.75673L5.61061 5.12339C5.40937 4.92087 5.14642 4.80252 4.86999 4.79006C4.76771 4.77684 4.66468 4.80725 4.58332 4.87468C4.50197 4.9421 4.44888 5.04108 4.43561 5.15006C4.43561 5.37339 4.62624 5.45339 5.03561 5.55339C5.57311 5.68339 5.93249 5.86673 5.93249 6.36673C5.93249 6.86673 5.56687 7.21673 4.95124 7.21673ZM6.38249 7.17006V4.42339H7.28874C8.13874 4.42339 8.73874 4.99339 8.73874 5.79673C8.73874 6.60006 8.14499 7.17006 7.28874 7.17006H6.38249ZM8.98561 9.14339C8.90836 9.14339 8.83283 9.11896 8.7686 9.07317C8.70436 9.02739 8.65429 8.96231 8.62472 8.88618C8.59516 8.81004 8.58742 8.72626 8.6025 8.64544C8.61757 8.56461 8.65477 8.49037 8.7094 8.4321C8.76403 8.37383 8.83363 8.33414 8.90941 8.31807C8.98518 8.30199 9.06372 8.31024 9.1351 8.34178C9.20648 8.37331 9.26749 8.42672 9.31041 8.49524C9.35333 8.56376 9.37624 8.64432 9.37624 8.72673C9.37624 8.83723 9.33508 8.94321 9.26183 9.02136C9.18857 9.0995 9.08922 9.14339 8.98561 9.14339ZM8.98561 3.31006C8.90836 3.31006 8.83283 3.28562 8.7686 3.23984C8.70436 3.19406 8.65429 3.12898 8.62472 3.05284C8.59516 2.97671 8.58742 2.89293 8.6025 2.81211C8.61757 2.73128 8.65477 2.65704 8.7094 2.59876C8.76403 2.54049 8.83363 2.50081 8.90941 2.48473C8.98518 2.46865 9.06372 2.47691 9.1351 2.50844C9.20648 2.53998 9.26749 2.59338 9.31041 2.6619C9.35333 2.73042 9.37624 2.81098 9.37624 2.89339C9.37624 3.0039 9.33508 3.10988 9.26183 3.18802C9.18857 3.26616 9.08922 3.31006 8.98561 3.31006Z" fill="#6D6E72"/>
<path d="M6.89499 4.81187H7.32867C7.43351 4.80367 7.53852 4.82342 7.63726 4.86988C7.736 4.91634 7.82638 4.98854 7.90284 5.08203C7.9793 5.17552 8.04022 5.28834 8.08186 5.41354C8.12351 5.53874 8.14499 5.67368 8.14499 5.81006C8.14499 5.94644 8.12351 6.08138 8.08186 6.20658C8.04022 6.33178 7.9793 6.4446 7.90284 6.53809C7.82638 6.63159 7.736 6.70378 7.63726 6.75024C7.53852 6.7967 7.43351 6.81645 7.32867 6.80825H6.89499V4.81187Z" fill="#6D6E72"/>
</svg>
