<svg width="21" height="15" viewBox="0 0 21 15" fill="none" xmlns="http://www.w3.org/2000/svg">
<path d="M18.5 1.08002C19.0523 1.08002 19.5 1.52774 19.5 2.08002V3.58002C19.5 3.58002 18 3.83129 18 5.58002C18 7.32875 19.5 7.58002 19.5 7.58002V9.08002C19.5 9.63231 19.0523 10.08 18.5 10.08H2.5C1.94772 10.08 1.5 9.6323 1.5 9.08002V7.58002C1.5 7.58002 3 7.35711 3 5.58002C3 3.80293 1.5 3.58002 1.5 3.58002V2.08002C1.5 1.52773 1.94772 1.08002 2.5 1.08002L18.5 1.08002Z" stroke="#111111"/>
<path d="M3.5 10.08H17.5V12.08C17.5 12.6323 17.0523 13.08 16.5 13.08H4.5C3.94772 13.08 3.5 12.6323 3.5 12.08V10.08Z" stroke="#111111"/>
<path d="M6.5 3.08002H5.5V8.08002H6.5V3.08002Z" fill="#111111"/>
<path d="M6.5 10.08H5.5V13.08H6.5V10.08Z" fill="#111111"/>
<path d="M9.5 10.08H8.5V13.08H9.5V10.08Z" fill="#111111"/>
<path d="M12.5 10.08H11.5V13.08H12.5V10.08Z" fill="#111111"/>
<path d="M15.5 10.08H14.5V13.08H15.5V10.08Z" fill="#111111"/>
<path d="M11 3.08002H10V8.08002H11V3.08002Z" fill="#111111"/>
<path d="M15.5 3.08002H14.5V8.08002H15.5V3.08002Z" fill="#111111"/>
</svg>
