<svg width="11" height="11" viewBox="0 0 11 11" fill="none" xmlns="http://www.w3.org/2000/svg">
<path d="M3.5 4.31006H4.375C4.48333 4.31006 4.573 4.27456 4.644 4.20356C4.71467 4.13289 4.75 4.04339 4.75 3.93506C4.75 3.82673 4.71467 3.73723 4.644 3.66656C4.573 3.59556 4.48333 3.56006 4.375 3.56006H3.25C3.10833 3.56006 2.9895 3.60789 2.8935 3.70356C2.79783 3.79956 2.75 3.91839 2.75 4.06006V5.18506C2.75 5.29339 2.7855 5.38289 2.8565 5.45356C2.92717 5.52456 3.01667 5.56006 3.125 5.56006C3.23333 5.56006 3.32283 5.52456 3.3935 5.45356C3.4645 5.38289 3.5 5.29339 3.5 5.18506V4.31006ZM7.25 6.06006H6.375C6.26667 6.06006 6.17717 6.09539 6.1065 6.16606C6.0355 6.23706 6 6.32673 6 6.43506C6 6.54339 6.0355 6.63289 6.1065 6.70356C6.17717 6.77456 6.26667 6.81006 6.375 6.81006H7.5C7.64167 6.81006 7.76033 6.76206 7.856 6.66606C7.952 6.57039 8 6.45173 8 6.31006V5.18506C8 5.07673 7.96467 4.98706 7.894 4.91606C7.823 4.84539 7.73333 4.81006 7.625 4.81006C7.51667 4.81006 7.427 4.84539 7.356 4.91606C7.28533 4.98706 7.25 5.07673 7.25 5.18506V6.06006ZM4 10.3101C3.85833 10.3101 3.73967 10.2621 3.644 10.1661C3.548 10.0704 3.5 9.95173 3.5 9.81006V9.31006H1.5C1.225 9.31006 0.989667 9.21223 0.794 9.01656C0.598 8.82056 0.5 8.58506 0.5 8.31006V2.31006C0.5 2.03506 0.598 1.79956 0.794 1.60356C0.989667 1.40789 1.225 1.31006 1.5 1.31006H9.5C9.775 1.31006 10.0105 1.40789 10.2065 1.60356C10.4022 1.79956 10.5 2.03506 10.5 2.31006V8.31006C10.5 8.58506 10.4022 8.82056 10.2065 9.01656C10.0105 9.21223 9.775 9.31006 9.5 9.31006H7.5V9.81006C7.5 9.95173 7.45217 10.0704 7.3565 10.1661C7.2605 10.2621 7.14167 10.3101 7 10.3101H4ZM2 7.81006H9V2.81006H2V7.81006Z" fill="#6D6E72"/>
</svg>
