<svg width="21" height="15" viewBox="0 0 21 15" fill="none" xmlns="http://www.w3.org/2000/svg">
<path d="M4.5 6.08002H9.40909M7 3.58002V8.38002M10.5 1.08002C12.5438 1.11522 13.7776 1.08002 14.5909 1.08002C16.2273 1.08002 17.8636 1.48002 18.6818 4.28002C19.5 7.08002 19.5 8.68002 19.5 10.68C19.5 12.68 17.8636 13.08 16.2273 13.08C14.5909 13.08 13.7285 9.88002 10.5 9.88002C7.27145 9.88002 6.40909 13.08 4.77273 13.08C3.13636 13.08 1.5 12.68 1.5 10.68C1.5 8.68002 1.5 7.08002 2.31818 4.28002C3.13636 1.48002 4.77273 1.08002 6.40909 1.08002C7.22236 1.08002 8.45618 1.11522 10.5 1.08002Z" stroke="#111111"/>
<path d="M13.5 6.08002C14.0523 6.08002 14.5 5.6323 14.5 5.08002C14.5 4.52773 14.0523 4.08002 13.5 4.08002C12.9477 4.08002 12.5 4.52773 12.5 5.08002C12.5 5.6323 12.9477 6.08002 13.5 6.08002Z" fill="#111111"/>
<path d="M15.5 8.08002C16.0523 8.08002 16.5 7.6323 16.5 7.08002C16.5 6.52773 16.0523 6.08002 15.5 6.08002C14.9477 6.08002 14.5 6.52773 14.5 7.08002C14.5 7.6323 14.9477 8.08002 15.5 8.08002Z" fill="#111111"/>
</svg>
