<svg width="21" height="19" viewBox="0 0 21 19" fill="none" xmlns="http://www.w3.org/2000/svg">
<path d="M2.62753 12.8423C2.85 9.52446 5.46063 9.08002 6.5625 9.08002H7.40625C7.87225 9.08002 8.25 9.46377 8.25 9.93716V16.2229C8.25 16.6962 7.87225 17.08 7.40625 17.08H6.5625C4.43277 17.08 2.69823 15.3622 2.62753 13.2162L2.12188 12.9594C1.93501 12.8644 1.77785 12.7185 1.66801 12.538C1.55817 12.3574 1.5 12.1494 1.5 11.9371V10.2229C1.5 5.16916 5.52609 1.08002 10.5 1.08002C15.4748 1.08002 19.5 5.17005 19.5 10.2229V11.9371C19.5 12.1494 19.4418 12.3574 19.332 12.538C19.2221 12.7185 19.065 12.8644 18.8781 12.9594L18.3725 13.2162C18.3018 15.3622 16.5672 17.08 14.4375 17.08H13.5938C13.1278 17.08 12.75 16.6962 12.75 16.2229V9.93716C12.75 9.46377 13.1278 9.08002 13.5938 9.08002H14.4375C18.15 9.08002 18.3725 11.7467 18.3725 12.8423" stroke="#111111"/>
</svg>
