<svg width="17" height="22" viewBox="0 0 17 22" fill="none" xmlns="http://www.w3.org/2000/svg">
<path d="M3.92374 14.4857H13.0762" stroke="#111111"/>
<path d="M3.9238 11.4799V15.5679C3.9238 16.1202 4.37151 16.5679 4.9238 16.5679H12.0763C12.6286 16.5679 13.0763 16.1202 13.0763 15.5679V11.48C13.0763 10.732 12.8071 10.0091 12.3179 9.44331C12.206 9.31393 12.1913 9.12664 12.2753 8.97763C12.5408 8.50651 13.0763 7.45918 13.0763 6.67604C13.0763 5.90711 12.0738 4.78031 11.5494 4.24352C11.3544 4.04391 11.2346 3.77476 11.137 3.51335C11.045 3.26712 10.8694 2.92387 10.534 2.511C9.82994 1.64449 6.8573 1.69522 6.30972 2.51104C6.044 2.90692 5.90722 3.25444 5.83682 3.50732C5.76197 3.77614 5.64568 4.04391 5.45069 4.24352C4.92631 4.78031 3.9238 5.90711 3.9238 6.67604C3.9238 7.45918 4.45929 8.50651 4.72477 8.97764C4.80873 9.12664 4.79406 9.31393 4.68219 9.44331C4.193 10.0091 3.9238 10.732 3.9238 11.4799Z" stroke="#111111"/>
<path d="M13.1666 15.5091H14.2406C14.7929 15.5091 15.2406 15.0614 15.2406 14.5091V12.3237" stroke="#111111"/>
<path d="M3.83348 15.5091H2.75943C2.20714 15.5091 1.75943 15.0614 1.75943 14.5091V12.3237" stroke="#111111"/>
<path d="M16.2777 12.3237H14.2036" stroke="#111111"/>
<path d="M2.7964 12.3237H0.722351" stroke="#111111"/>
<path d="M8.50003 16.5706V19.756" stroke="#111111"/>
<path d="M5.92601 20.2501C5.92601 19.6672 5.45343 19.1946 4.87048 19.1946C4.28752 19.1946 3.81494 19.6672 3.81494 20.2501V20.3245C3.81494 20.9074 4.28752 21.38 4.87048 21.38C5.45343 21.38 5.92601 20.9074 5.92601 20.3245V20.2501Z" stroke="#111111"/>
<path d="M13.1852 20.2501C13.1852 19.6672 12.7126 19.1946 12.1296 19.1946C11.5467 19.1946 11.0741 19.6672 11.0741 20.2501V20.3245C11.0741 20.9074 11.5467 21.38 12.1296 21.38C12.7126 21.38 13.1852 20.9074 13.1852 20.3245V20.2501Z" stroke="#111111"/>
<path d="M4.87036 19.2252H12.1295" stroke="#111111"/>
</svg>
