<svg width="19" height="43" viewBox="0 0 19 43" fill="none" xmlns="http://www.w3.org/2000/svg">
<path d="M17.5 14.88H1.5C0.947715 14.88 0.5 15.3277 0.5 15.88C0.5 16.4323 0.947715 16.88 1.5 16.88H17.5C18.0523 16.88 18.5 16.4323 18.5 15.88C18.5 15.3277 18.0523 14.88 17.5 14.88Z" fill="white"/>
<path d="M17.4999 20.88H1.49988C0.947593 20.88 0.499878 21.3277 0.499878 21.88C0.499878 22.4323 0.947593 22.88 1.49988 22.88H17.4999C18.0522 22.88 18.4999 22.4323 18.4999 21.88C18.4999 21.3277 18.0522 20.88 17.4999 20.88Z" fill="white"/>
<path d="M17.4999 26.8801H1.49988C0.947593 26.8801 0.499878 27.3278 0.499878 27.8801C0.499878 28.4324 0.947593 28.8801 1.49988 28.8801H17.4999C18.0522 28.8801 18.4999 28.4324 18.4999 27.8801C18.4999 27.3278 18.0522 26.8801 17.4999 26.8801Z" fill="white"/>
</svg>
