<svg width="11" height="11" viewBox="0 0 11 11" fill="none" xmlns="http://www.w3.org/2000/svg">
<path d="M3.5 3.93994H4.375C4.48333 3.93994 4.573 3.90444 4.644 3.83344C4.71467 3.76277 4.75 3.67327 4.75 3.56494C4.75 3.45661 4.71467 3.36711 4.644 3.29644C4.573 3.22544 4.48333 3.18994 4.375 3.18994H3.25C3.10833 3.18994 2.9895 3.23777 2.8935 3.33344C2.79783 3.42944 2.75 3.54827 2.75 3.68994V4.81494C2.75 4.92327 2.7855 5.01277 2.8565 5.08344C2.92717 5.15444 3.01667 5.18994 3.125 5.18994C3.23333 5.18994 3.32283 5.15444 3.3935 5.08344C3.4645 5.01277 3.5 4.92327 3.5 4.81494V3.93994ZM7.25 5.68994H6.375C6.26667 5.68994 6.17717 5.72527 6.1065 5.79594C6.0355 5.86694 6 5.95661 6 6.06494C6 6.17327 6.0355 6.26277 6.1065 6.33344C6.17717 6.40444 6.26667 6.43994 6.375 6.43994H7.5C7.64167 6.43994 7.76033 6.39194 7.856 6.29594C7.952 6.20027 8 6.08161 8 5.93994V4.81494C8 4.70661 7.96467 4.61694 7.894 4.54594C7.823 4.47527 7.73333 4.43994 7.625 4.43994C7.51667 4.43994 7.427 4.47527 7.356 4.54594C7.28533 4.61694 7.25 4.70661 7.25 4.81494V5.68994ZM4 9.93994C3.85833 9.93994 3.73967 9.89194 3.644 9.79594C3.548 9.70027 3.5 9.58161 3.5 9.43994V8.93994H1.5C1.225 8.93994 0.989667 8.84211 0.794 8.64644C0.598 8.45044 0.5 8.21494 0.5 7.93994V1.93994C0.5 1.66494 0.598 1.42944 0.794 1.23344C0.989667 1.03777 1.225 0.939941 1.5 0.939941H9.5C9.775 0.939941 10.0105 1.03777 10.2065 1.23344C10.4022 1.42944 10.5 1.66494 10.5 1.93994V7.93994C10.5 8.21494 10.4022 8.45044 10.2065 8.64644C10.0105 8.84211 9.775 8.93994 9.5 8.93994H7.5V9.43994C7.5 9.58161 7.45217 9.70027 7.3565 9.79594C7.2605 9.89194 7.14167 9.93994 7 9.93994H4ZM2 7.43994H9V2.43994H2V7.43994Z" fill="#6D6E72"/>
</svg>
