<svg width="19" height="43" viewBox="0 0 19 43" fill="none" xmlns="http://www.w3.org/2000/svg">
<path d="M9.17 21.0618C8.07597 21.0618 7.02675 20.6308 6.25317 19.8636C5.47958 19.0964 5.04498 18.0559 5.04498 16.9709C5.04498 15.8859 5.47958 14.8454 6.25317 14.0782C7.02675 13.311 8.07597 12.88 9.17 12.88C10.264 12.88 11.3132 13.311 12.0868 14.0782C12.8604 14.8454 13.295 15.8859 13.295 16.9709C13.295 18.0559 12.8604 19.0964 12.0868 19.8636C11.3132 20.6308 10.264 21.0618 9.17 21.0618Z" stroke="white" stroke-width="1.5" stroke-linecap="round"/>
<path d="M0.919983 30.8801V29.8281C0.919983 27.7242 3.54498 23.5164 9.17 23.5164C14.795 23.5164 17.42 27.7242 17.42 29.8281V30.8801" stroke="white" stroke-width="1.5" stroke-linecap="round"/>
</svg>
