<svg width="19" height="43" viewBox="0 0 19 43" fill="none" xmlns="http://www.w3.org/2000/svg">
<path d="M9.44006 22.091C10.0588 22.091 10.5887 21.8704 11.0297 21.4291C11.4699 20.9886 11.6901 20.4588 11.6901 19.8397C11.6901 19.2206 11.4699 18.6904 11.0297 18.2491C10.5887 17.8086 10.0588 17.5884 9.44006 17.5884C8.8213 17.5884 8.2918 17.8086 7.85154 18.2491C7.41053 18.6904 7.19003 19.2206 7.19003 19.8397C7.19003 20.4588 7.41053 20.9886 7.85154 21.4291C8.2918 21.8704 8.8213 22.091 9.44006 22.091ZM9.44006 30.3647C11.7276 28.2634 13.4245 26.3543 14.5307 24.6373C15.637 22.921 16.1901 21.3969 16.1901 20.0648C16.1901 18.0199 15.5384 16.3452 14.2348 15.041C12.9321 13.7374 11.3338 13.0857 9.44006 13.0857C7.54629 13.0857 5.94764 13.7374 4.64412 15.041C3.34135 16.3452 2.68997 18.0199 2.68997 20.0648C2.68997 21.3969 3.2431 22.921 4.34937 24.6373C5.45563 26.3543 7.15253 28.2634 9.44006 30.3647ZM9.44006 32.9256C9.29006 32.9256 9.14006 32.8974 8.99006 32.8411C8.84005 32.7848 8.7088 32.7098 8.5963 32.616C5.85876 30.1958 3.81499 27.9494 2.46497 25.8766C1.11495 23.8032 0.439941 21.8659 0.439941 20.0648C0.439941 17.2507 1.34483 15.0087 3.1546 13.339C4.96363 11.6692 7.05878 10.8344 9.44006 10.8344C11.8213 10.8344 13.9165 11.6692 15.7255 13.339C17.5353 15.0087 18.4401 17.2507 18.4401 20.0648C18.4401 21.8659 17.7651 23.8032 16.4151 25.8766C15.0651 27.9494 13.0213 30.1958 10.2838 32.616C10.1713 32.7098 10.0401 32.7848 9.89007 32.8411C9.74007 32.8974 9.59006 32.9256 9.44006 32.9256Z" fill="white"/>
</svg>
