<svg width="19" height="43" viewBox="0 0 19 43" fill="none" xmlns="http://www.w3.org/2000/svg">
<path d="M4.43728 21.3636H3.42478C2.3064 21.3636 1.39978 22.2747 1.39978 23.3988V26.4517C1.39978 27.5757 2.3064 28.487 3.42478 28.487H4.43728C5.55566 28.487 6.46227 27.5757 6.46227 26.4517V23.3988C6.46227 22.2747 5.55566 21.3636 4.43728 21.3636Z" stroke="white" stroke-width="1.8" stroke-linecap="round" stroke-linejoin="round"/>
<path d="M15.5747 21.3638H14.5622C13.4439 21.3638 12.5372 22.275 12.5372 23.399V26.4519C12.5372 27.576 13.4439 28.4872 14.5622 28.4872H15.5747C16.6931 28.4872 17.5997 27.576 17.5997 26.4519V23.399C17.5997 22.275 16.6931 21.3638 15.5747 21.3638Z" stroke="white" stroke-width="1.8" stroke-linecap="round" stroke-linejoin="round"/>
<path d="M1.39999 23.3988V20.3459C1.39999 18.1868 2.25338 16.1161 3.77243 14.5893C5.29148 13.0626 7.35174 12.2049 9.49999 12.2049C11.6482 12.2049 13.7085 13.0626 15.2276 14.5893C16.7466 16.1161 17.6 18.1868 17.6 20.3459V23.3988" stroke="white" stroke-width="1.8" stroke-linecap="round" stroke-linejoin="round"/>
<path d="M7.87157 32.1413C5.31103 32.2433 2.01914 31.1509 2.1767 27.917H3.91709C3.91709 30.1861 5.79935 30.8047 7.87157 30.6942C7.92623 30.4047 8.17329 30.1861 8.47042 30.1861H11.076C11.4132 30.1861 11.6136 30.6449 11.6136 30.992V31.827C11.6136 32.1739 11.3402 32.4552 11.003 32.4552H8.3974C8.17206 32.4552 7.97737 32.3284 7.87157 32.1413Z" fill="white"/>
</svg>
