<svg width="19" height="20" viewBox="0 0 19 20" fill="none" xmlns="http://www.w3.org/2000/svg">
<path d="M4.5 16.34H4C2.34315 16.34 1 14.9969 1 13.34V7.34003C1 5.68318 2.34315 4.34003 4 4.34003H15C16.6569 4.34003 18 5.68318 18 7.34003V13.34C18 14.9969 16.6569 16.34 15 16.34H14.5" stroke="#111111" stroke-linecap="round"/>
<path d="M15 4.34003V3.34003C15 2.23546 14.1046 1.34003 13 1.34003H6C4.89543 1.34003 4 2.23546 4 3.34003V4.34003" stroke="#111111" stroke-linecap="round"/>
<path d="M13 12.84H6C5.17157 12.84 4.5 13.5116 4.5 14.34V17.34C4.5 18.1685 5.17157 18.84 6 18.84H13C13.8284 18.84 14.5 18.1685 14.5 17.34V14.34C14.5 13.5116 13.8284 12.84 13 12.84Z" stroke="#111111"/>
<path d="M3 7.34003H6" stroke="#111111" stroke-linecap="round"/>
</svg>
