<svg width="19" height="43" viewBox="0 0 19 43" fill="none" xmlns="http://www.w3.org/2000/svg">
<path d="M4.45906 15.58L4.118 13.78H1.56006M4.45906 15.58H17.7601L14.3495 23.7209H5.82326M4.45906 15.58L5.82326 23.7209M5.82326 23.7209L3.86818 24.8437C3.33102 25.4107 3.83787 26.2982 4.59756 26.2982H9.32256H11.6851L14.3495 26.38M14.3495 26.38C13.8973 26.38 13.4635 26.5696 13.1438 26.9072C12.8239 27.2448 12.6443 27.7026 12.6443 28.18C12.6443 28.6574 12.8239 29.1152 13.1438 29.4528C13.4635 29.7904 13.8973 29.98 14.3495 29.98C14.8018 29.98 15.2356 29.7904 15.5553 29.4528C15.8751 29.1152 16.0548 28.6574 16.0548 28.18C16.0548 27.7026 15.8751 27.2448 15.5553 26.9072C15.2356 26.5696 14.8018 26.38 14.3495 26.38ZM7.52852 28.18C7.52852 28.6574 7.34886 29.1152 7.02906 29.4528C6.70926 29.7904 6.27552 29.98 5.82326 29.98C5.371 29.98 4.93726 29.7904 4.61746 29.4528C4.29766 29.1152 4.118 28.6574 4.118 28.18C4.118 27.7026 4.29766 27.2448 4.61746 26.9072C4.93726 26.5696 5.371 26.38 5.82326 26.38C6.27552 26.38 6.70926 26.5696 7.02906 26.9072C7.34886 27.2448 7.52852 27.7026 7.52852 28.18Z" stroke="white" stroke-width="1.8" stroke-linecap="round" stroke-linejoin="round"/>
</svg>
