<svg width="13" height="13" viewBox="0 0 13 13" fill="none" xmlns="http://www.w3.org/2000/svg">
<path d="M2.89657 11.6655L3.57141 8.48011L1.20945 6.2975C1.20945 6.2975 0.872022 6.00255 0.984504 5.58963C1.09699 5.1767 1.54688 5.1767 1.54688 5.1767L4.69615 4.88175L5.93337 1.87328C5.93337 1.87328 6.10207 1.40137 6.49574 1.40137C6.88941 1.40137 7.05811 1.87328 7.05811 1.87328L8.29533 4.88175L11.5571 5.1767C11.5571 5.1767 11.8945 5.23569 12.007 5.58963C12.1194 5.94356 11.8945 6.17952 11.8945 6.17952L9.42007 8.48011L10.0949 11.7835C10.0949 11.7835 10.2074 12.1375 9.9262 12.3734C9.64502 12.6094 9.19513 12.3734 9.19513 12.3734L6.49574 10.6627L3.8526 12.3734C3.8526 12.3734 3.45894 12.6094 3.12151 12.3734C2.78409 12.1375 2.89657 11.6655 2.89657 11.6655Z" fill="#FF8A00"/>
</svg>
