<svg width="20" height="20" viewBox="0 0 20 20" fill="none" xmlns="http://www.w3.org/2000/svg">
<path d="M5.5909 4.83453H5.59089C4.96329 4.83453 4.45453 5.3433 4.45453 5.97089V5.9709C4.45453 6.5985 4.96329 7.10726 5.59089 7.10726H5.5909C6.21849 7.10726 6.72726 6.5985 6.72726 5.9709V5.97089C6.72726 5.3433 6.21849 4.83453 5.5909 4.83453Z" stroke="#111111"/>
<path d="M9.68179 12.5164L12.9545 15.7891" stroke="#111111" stroke-linecap="round"/>
<path d="M10.5 8.42548L15.4091 13.3345" stroke="#111111" stroke-linecap="round"/>
<path d="M10.7227 18.5207L2.11378 10.2429C1.72163 9.86583 1.5 9.34527 1.5 8.80124V5.16297C1.5 4.63254 1.71071 4.12383 2.08579 3.74876L3.36876 2.46579C3.74383 2.09071 4.25254 1.88 4.78297 1.88H8.42124C8.96527 1.88 9.48583 2.10163 9.8629 2.49378L14.3864 7.19818L18.1407 11.1027C18.8957 11.8879 18.8835 13.1329 18.1132 13.9031L13.5231 18.4932C12.7529 19.2635 11.5079 19.2757 10.7227 18.5207Z" stroke="#111111" stroke-linecap="round" stroke-linejoin="round"/>
</svg>
