<svg width="17" height="19" viewBox="0 0 17 19" fill="none" xmlns="http://www.w3.org/2000/svg">
<path d="M5.42768 2.37878C4.33921 2.67407 3.25814 2.99517 2.1854 3.34178C2.08745 3.37301 2.00037 3.4307 1.9341 3.50827C1.86782 3.58584 1.82501 3.68018 1.81055 3.78053C1.1774 8.45716 2.64026 11.8693 4.3854 14.117C5.12427 15.0782 6.00529 15.925 6.99911 16.6291C7.39454 16.9036 7.74425 17.1016 8.01968 17.2288C8.15682 17.2929 8.26882 17.3356 8.35454 17.3615C8.39202 17.3744 8.43067 17.3839 8.46996 17.3896C8.50879 17.3834 8.54702 17.374 8.58425 17.3615C8.67111 17.3356 8.78311 17.2929 8.92025 17.2288C9.19454 17.1016 9.54539 16.9025 9.94082 16.6291C10.9347 15.925 11.8157 15.0782 12.5546 14.117C14.2997 11.8704 15.7626 8.45716 15.1294 3.78053C15.1151 3.68013 15.0723 3.58574 15.006 3.50814C14.9397 3.43055 14.8526 3.3729 14.7546 3.34178C14.0106 3.10216 12.7546 2.71178 11.5123 2.3799C10.2437 2.04128 9.07682 1.79041 8.46996 1.79041C7.86425 1.79041 6.69625 2.04015 5.42768 2.37878ZM5.12368 1.22003C6.36368 0.888152 7.68139 0.590027 8.46996 0.590027C9.25853 0.590027 10.5763 0.888152 11.8163 1.22003C13.0848 1.55753 14.3637 1.9569 15.1157 2.19878C15.4301 2.30099 15.7089 2.48843 15.9199 2.73957C16.131 2.99071 16.2658 3.29536 16.3088 3.61853C16.99 8.65516 15.4094 12.3879 13.4917 14.8573C12.6785 15.9136 11.7088 16.8438 10.6151 17.6169C10.2369 17.8844 9.83623 18.1196 9.41739 18.32C9.09739 18.4685 8.75339 18.59 8.46996 18.59C8.18654 18.59 7.84368 18.4685 7.52254 18.32C7.1037 18.1196 6.703 17.8844 6.32483 17.6169C5.23114 16.8438 4.26149 15.9136 3.44826 14.8573C1.53055 12.3879 -0.0500227 8.65516 0.631119 3.61853C0.67419 3.29536 0.808996 2.99071 1.02005 2.73957C1.23111 2.48843 1.50985 2.30099 1.82426 2.19878C2.91591 1.84644 4.01603 1.52009 5.12368 1.22003Z" fill="#111111"/>
<path d="M11.7318 6.37931C11.785 6.43156 11.8272 6.49363 11.856 6.56197C11.8848 6.63031 11.8997 6.70357 11.8997 6.77756C11.8997 6.85155 11.8848 6.92481 11.856 6.99315C11.8272 7.06148 11.785 7.12356 11.7318 7.17581L8.30319 10.5508C8.25011 10.6032 8.18705 10.6447 8.11762 10.6731C8.0482 10.7014 7.97378 10.716 7.89862 10.716C7.82345 10.716 7.74903 10.7014 7.67961 10.6731C7.61018 10.6447 7.54712 10.6032 7.49404 10.5508L5.77976 8.86331C5.72663 8.81101 5.68449 8.74892 5.65573 8.68059C5.62698 8.61226 5.61218 8.53902 5.61218 8.46506C5.61218 8.3911 5.62698 8.31786 5.65573 8.24953C5.68449 8.1812 5.72663 8.11911 5.77976 8.06681C5.83289 8.01451 5.89596 7.97302 5.96538 7.94472C6.0348 7.91642 6.1092 7.90185 6.18433 7.90185C6.25947 7.90185 6.33387 7.91642 6.40328 7.94472C6.4727 7.97302 6.53577 8.01451 6.5889 8.06681L7.89862 9.35718L10.9226 6.37931C10.9757 6.32692 11.0388 6.28536 11.1082 6.25701C11.1776 6.22865 11.252 6.21405 11.3272 6.21405C11.4024 6.21405 11.4768 6.22865 11.5462 6.25701C11.6156 6.28536 11.6787 6.32692 11.7318 6.37931Z" fill="#111111"/>
</svg>
