<svg width="23" height="17" viewBox="0 0 23 17" fill="none" xmlns="http://www.w3.org/2000/svg">
<path d="M3.96432 4.08002C3.41203 4.08002 2.96432 4.52774 2.96432 5.08002V11.58C2.96432 12.1323 3.41203 12.58 3.96432 12.58H15.9643C16.5166 12.58 16.9643 12.1323 16.9643 11.58V4.08002H3.96432ZM3.66432 3.08002H9.96432H16.2643C16.7417 3.08002 17.1995 3.26439 17.5371 3.59258C17.8747 3.92077 18.0643 4.36589 18.0643 4.83002V11.83C18.0643 12.2941 17.8747 12.7392 17.5371 13.0674C17.1995 13.3956 16.7417 13.58 16.2643 13.58H3.66432C3.18693 13.58 2.72909 13.3956 2.39153 13.0674C2.05396 12.7392 1.86432 12.2941 1.86432 11.83V4.83002C1.86432 4.36589 2.05396 3.92077 2.39153 3.59258C2.72909 3.26439 3.18693 3.08002 3.66432 3.08002Z" fill="#111111"/>
<path d="M0.964294 15.08H18.9643" stroke="#111111" stroke-linecap="round"/>
<path d="M10.9754 1.9587C11.5771 1.39609 12.3931 1.08002 13.244 1.08002H17.8274C18.2487 1.08002 18.6659 1.15762 19.0551 1.30838C19.4444 1.45915 19.7981 1.68012 20.096 1.9587C20.3939 2.23728 20.6303 2.56799 20.7915 2.93197C20.9527 3.29595 21.0357 3.68605 21.0357 4.08002C21.0357 4.47399 20.9527 4.86409 20.7915 5.22807C20.6303 5.59205 20.3939 5.92276 20.096 6.20134C19.7981 6.47992 19.4444 6.70089 19.0551 6.85166C18.6659 7.00242 18.2487 7.08002 17.8274 7.08002H13.244C12.3931 7.08002 11.5771 6.76395 10.9754 6.20134C10.3737 5.63873 10.0357 4.87567 10.0357 4.08002C10.0357 3.28437 10.3737 2.52131 10.9754 1.9587Z" fill="white" stroke="white" stroke-width="2"/>
<path d="M10.9754 1.9587C11.5771 1.39609 12.3931 1.08002 13.244 1.08002H17.8274C18.2487 1.08002 18.6659 1.15762 19.0551 1.30838C19.4444 1.45915 19.7981 1.68012 20.096 1.9587C20.3939 2.23728 20.6303 2.56799 20.7915 2.93197C20.9527 3.29595 21.0357 3.68605 21.0357 4.08002C21.0357 4.47399 20.9527 4.86409 20.7915 5.22807C20.6303 5.59205 20.3939 5.92276 20.096 6.20134C19.7981 6.47992 19.4444 6.70089 19.0551 6.85166C18.6659 7.00242 18.2487 7.08002 17.8274 7.08002H13.244C12.3931 7.08002 11.5771 6.76395 10.9754 6.20134C10.3737 5.63873 10.0357 4.87567 10.0357 4.08002C10.0357 3.28437 10.3737 2.52131 10.9754 1.9587Z" stroke="#111111"/>
<path d="M17.625 3.87696C17.5852 3.83567 17.5379 3.80292 17.486 3.78056C17.434 3.75821 17.3782 3.74669 17.322 3.74667C17.2657 3.74665 17.2099 3.75813 17.1579 3.78044C17.1059 3.80276 17.0587 3.83548 17.0189 3.87674C16.9791 3.91799 16.9475 3.96698 16.9259 4.02089C16.9044 4.0748 16.8933 4.13259 16.8932 4.19096C16.8932 4.24932 16.9043 4.30712 16.9258 4.36105C16.9473 4.41498 16.9789 4.46399 17.0187 4.50527C17.099 4.58865 17.208 4.63552 17.3217 4.63556C17.4353 4.6356 17.5443 4.58882 17.6247 4.5055C17.7051 4.42218 17.7503 4.30915 17.7504 4.19127C17.7504 4.0734 17.7053 3.96034 17.625 3.87696Z" fill="#111111"/>
<path d="M17.871 2.99347C17.9105 2.95103 17.9578 2.91717 18.0101 2.89387C18.0624 2.87058 18.1186 2.85832 18.1755 2.85781C18.2324 2.85729 18.2888 2.86854 18.3415 2.89089C18.3942 2.91323 18.442 2.94624 18.4823 2.98797C18.5225 3.0297 18.5543 3.07932 18.5759 3.13394C18.5974 3.18856 18.6083 3.24708 18.6078 3.3061C18.6073 3.36511 18.5955 3.42343 18.573 3.47765C18.5505 3.53188 18.5179 3.58092 18.477 3.62192C18.3961 3.70288 18.2879 3.74768 18.1755 3.74666C18.0631 3.74565 17.9556 3.69891 17.8762 3.6165C17.7967 3.5341 17.7516 3.42263 17.7507 3.3061C17.7497 3.18957 17.7929 3.0773 17.871 2.99347Z" fill="#111111"/>
<path d="M19.343 3.88239C19.3034 3.83994 19.2561 3.80608 19.2039 3.78278C19.1516 3.75949 19.0953 3.74723 19.0384 3.74672C18.9815 3.74621 18.9251 3.75745 18.8724 3.7798C18.8197 3.80215 18.7719 3.83515 18.7317 3.87688C18.6914 3.91861 18.6596 3.96823 18.638 4.02285C18.6165 4.07747 18.6056 4.136 18.6061 4.19501C18.6066 4.25402 18.6185 4.31234 18.6409 4.36657C18.6634 4.42079 18.696 4.46983 18.737 4.51083C18.8178 4.59179 18.9261 4.63659 19.0384 4.63557C19.1508 4.63456 19.2583 4.58782 19.3377 4.50542C19.4172 4.42301 19.4623 4.31154 19.4633 4.19501C19.4642 4.07848 19.421 3.96621 19.343 3.88239Z" fill="#111111"/>
<path d="M17.8763 4.76565C17.9161 4.72439 17.9634 4.69167 18.0154 4.66936C18.0674 4.64704 18.1231 4.63557 18.1794 4.63559C18.2357 4.63561 18.2914 4.64712 18.3434 4.66948C18.3954 4.69183 18.4426 4.72459 18.4824 4.76587C18.5222 4.80716 18.5537 4.85617 18.5752 4.9101C18.5968 4.96403 18.6078 5.02182 18.6078 5.08019C18.6078 5.13855 18.5967 5.19634 18.5751 5.25026C18.5536 5.30417 18.522 5.35316 18.4822 5.39441C18.4018 5.47773 18.2927 5.52452 18.1791 5.52448C18.0654 5.52443 17.9564 5.47757 17.8761 5.39419C17.7957 5.31081 17.7506 5.19775 17.7507 5.07987C17.7507 4.962 17.7959 4.84897 17.8763 4.76565Z" fill="#111111"/>
<path d="M12.6058 4.63557H11.7487V3.74668H12.6058V2.85779H13.463V3.74668H14.3201V4.63557H13.463V5.52446H12.6058V4.63557Z" fill="#111111"/>
</svg>
