<svg width="26" height="26" viewBox="0 0 26 26" fill="none" xmlns="http://www.w3.org/2000/svg">
<path d="M14.97 4.13H18.345C18.6434 4.13 18.9295 4.24853 19.1405 4.4595C19.3515 4.67048 19.47 4.95663 19.47 5.255V17.63C19.47 18.2267 19.2329 18.799 18.811 19.221C18.389 19.6429 17.8167 19.88 17.22 19.88M17.22 19.88C16.6233 19.88 16.051 19.6429 15.629 19.221C15.2071 18.799 14.97 18.2267 14.97 17.63V3.005C14.97 2.70663 14.8515 2.42048 14.6405 2.20951C14.4295 1.99853 14.1434 1.88 13.845 1.88H2.595C2.29663 1.88 2.01048 1.99853 1.79951 2.20951C1.58853 2.42048 1.47 2.70663 1.47 3.005V16.505C1.47 17.4001 1.82558 18.2586 2.45851 18.8915C3.09145 19.5244 3.94989 19.88 4.845 19.88H17.22Z" stroke="#111111" stroke-linecap="round" stroke-linejoin="round"/>
<path d="M4.47 12.38H11.47" stroke="#111111" stroke-linecap="round" stroke-linejoin="round"/>
<path d="M4.47 15.88H11.47" stroke="#111111" stroke-linecap="round" stroke-linejoin="round"/>
<path d="M10.47 5.88H5.47C4.91772 5.88 4.47 6.32772 4.47 6.88V7.88C4.47 8.43229 4.91772 8.88 5.47 8.88H10.47C11.0223 8.88 11.47 8.43229 11.47 7.88V6.88C11.47 6.32772 11.0223 5.88 10.47 5.88Z" stroke="#111111"/>
</svg>
