<svg width="11" height="11" viewBox="0 0 11 11" fill="none" xmlns="http://www.w3.org/2000/svg">
<path d="M7.49159 3.44811C7.55075 3.50645 7.58325 3.58603 7.58325 3.66895V4.71061C7.58325 4.79349 7.55033 4.87298 7.49172 4.93158C7.43312 4.99019 7.35363 5.02311 7.27075 5.02311C7.18787 5.02311 7.10839 4.99019 7.04978 4.93158C6.99118 4.87298 6.95825 4.79349 6.95825 4.71061V4.42311L6.24159 5.13978C6.21274 5.16961 6.17825 5.1934 6.14012 5.20976C6.10198 5.22612 6.06097 5.23472 6.01948 5.23506C5.97799 5.23541 5.93684 5.22748 5.89844 5.21175C5.86004 5.19602 5.82516 5.1728 5.79584 5.14344C5.76651 5.11409 5.74332 5.07918 5.72763 5.04077C5.71193 5.00236 5.70404 4.96121 5.70442 4.91971C5.7048 4.87822 5.71344 4.83722 5.72984 4.7991C5.74624 4.76098 5.77006 4.72651 5.79992 4.6977L6.51658 3.98145H6.22909C6.14621 3.98145 6.06672 3.94852 6.00811 3.88992C5.94951 3.83131 5.91659 3.75183 5.91659 3.66895C5.91659 3.58607 5.94951 3.50658 6.00811 3.44798C6.06672 3.38937 6.14621 3.35645 6.22909 3.35645H7.27075C7.3536 3.35652 7.43304 3.38949 7.49159 3.44811ZM3.41659 7.21061C3.41659 7.29349 3.44951 7.37298 3.50811 7.43158C3.56672 7.49019 3.64621 7.52311 3.72909 7.52311H4.77117C4.85405 7.52311 4.93353 7.49019 4.99214 7.43158C5.05074 7.37298 5.08367 7.29349 5.08367 7.21061C5.08367 7.12773 5.05074 7.04825 4.99214 6.98964C4.93353 6.93104 4.85405 6.89811 4.77117 6.89811H4.48367L5.20034 6.18145C5.25723 6.12248 5.28869 6.04353 5.28794 5.96159C5.28719 5.87966 5.25429 5.80129 5.19632 5.74338C5.13836 5.68547 5.05996 5.65264 4.97802 5.65196C4.89609 5.65129 4.81716 5.68283 4.75825 5.73978L4.04159 6.45561V6.16811C4.04159 6.08523 4.00866 6.00575 3.95006 5.94714C3.89145 5.88854 3.81197 5.85561 3.72909 5.85561C3.64621 5.85561 3.56672 5.88854 3.50811 5.94714C3.44951 6.00575 3.41659 6.08523 3.41659 6.16811V7.21061ZM1.33325 3.25228C1.33325 2.94839 1.45397 2.65694 1.66886 2.44205C1.88374 2.22717 2.17519 2.10645 2.47909 2.10645H8.52075C8.82465 2.10645 9.11609 2.22717 9.33098 2.44205C9.54586 2.65694 9.66659 2.94839 9.66659 3.25228V7.62728C9.66659 7.77775 9.63695 7.92675 9.57936 8.06577C9.52178 8.20479 9.43738 8.33111 9.33098 8.43751C9.22458 8.54391 9.09826 8.62831 8.95924 8.68589C8.82022 8.74348 8.67122 8.77311 8.52075 8.77311H2.47909C2.32861 8.77311 2.17961 8.74348 2.04059 8.68589C1.90157 8.62831 1.77526 8.54391 1.66886 8.43751C1.56246 8.33111 1.47806 8.20479 1.42047 8.06577C1.36289 7.92675 1.33325 7.77775 1.33325 7.62728V3.25228ZM2.47909 2.73145C2.19159 2.73145 1.95825 2.96478 1.95825 3.25228V7.62728C1.95825 7.91478 2.19159 8.14811 2.47909 8.14811H8.52075C8.80825 8.14811 9.04159 7.91478 9.04159 7.62728V3.25228C9.04159 2.96478 8.80825 2.73145 8.52075 2.73145H2.47909Z" fill="#6D6E72"/>
</svg>
