<svg width="13" height="13" viewBox="0 0 13 13" fill="none" xmlns="http://www.w3.org/2000/svg">
<path d="M2.89656 11.6655L3.5714 8.48011L1.20944 6.2975C1.20944 6.2975 0.872013 6.00255 0.984495 5.58963C1.09698 5.1767 1.54687 5.1767 1.54687 5.1767L4.69614 4.88175L5.93336 1.87328C5.93336 1.87328 6.10206 1.40137 6.49574 1.40137C6.8894 1.40137 7.0581 1.87328 7.0581 1.87328L8.29532 4.88175L11.5571 5.1767C11.5571 5.1767 11.8945 5.23569 12.007 5.58963C12.1194 5.94356 11.8945 6.17952 11.8945 6.17952L9.42006 8.48011L10.0949 11.7835C10.0949 11.7835 10.2074 12.1375 9.92619 12.3734C9.64501 12.6094 9.19512 12.3734 9.19512 12.3734L6.49574 10.6627L3.85259 12.3734C3.85259 12.3734 3.45893 12.6094 3.1215 12.3734C2.78408 12.1375 2.89656 11.6655 2.89656 11.6655Z" fill="#FF8A00"/>
</svg>
