<svg width="19" height="43" viewBox="0 0 19 43" fill="none" xmlns="http://www.w3.org/2000/svg">
<path d="M14.8737 12.832H11.7019C11.283 11.6734 10.1859 10.8344 8.88921 10.8344C7.59255 10.8344 6.49538 11.6734 6.07646 12.832H2.90464C1.80748 12.832 0.90979 13.7309 0.90979 14.8295L0.956327 30.9281C0.956327 32.0267 1.85401 32.9256 2.95118 32.9256H9.04546C8.45536 32.3521 8.23917 32.0592 7.89298 31.3122H2.58848L2.54194 14.4646H4.8995V15.2713C4.8995 16.3699 5.79718 17.2688 6.89435 17.2688H10.8841C11.9812 17.2688 12.8789 16.3699 12.8789 15.2713V14.4646H15.1911V20.3189C15.8993 20.4188 16.2502 20.6286 16.8686 20.9182V14.8295C16.8686 13.7309 15.9709 12.832 14.8737 12.832ZM8.88921 15.2713C8.25448 15.2713 7.43841 14.8679 7.43841 13.8307C7.43841 13.2545 7.84644 12.4478 8.88921 12.4478C9.4378 12.4478 10.2947 12.8655 10.2947 13.8307C10.2947 14.796 9.56797 15.2713 8.88921 15.2713ZM13.9229 22.9379C11.17 22.9379 8.93575 25.1751 8.93575 27.9317C8.93575 30.6884 11.17 32.9256 13.9229 32.9256C16.6758 32.9256 18.91 30.6884 18.91 27.9317C18.91 25.1751 16.6758 22.9379 13.9229 22.9379ZM15.2095 29.9293L13.5638 28.2813C13.4707 28.1885 13.4171 28.0632 13.4142 27.9317V25.4448C13.4142 25.1651 13.6336 24.9454 13.9129 24.9454C14.1922 24.9454 14.4116 25.1651 14.4116 25.4448V27.732L15.9077 29.2301C15.9543 29.2759 15.9914 29.3304 16.0169 29.3906C16.0423 29.4508 16.0556 29.5154 16.0559 29.5807C16.0562 29.6461 16.0436 29.7108 16.0188 29.7713C15.994 29.8317 15.9574 29.8866 15.9113 29.9328C15.8651 29.979 15.8103 30.0156 15.75 30.0405C15.6896 30.0653 15.6249 30.078 15.5597 30.0776C15.4944 30.0773 15.4299 30.064 15.3698 30.0386C15.3097 30.0131 15.2552 29.976 15.2095 29.9293Z" fill="white"/>
</svg>
