<svg width="17" height="19" viewBox="0 0 17 19" fill="none" xmlns="http://www.w3.org/2000/svg">
<path d="M5.89943 17.1553C5.99749 17.3503 5.95778 17.5863 5.80133 17.7385C5.64488 17.8906 5.40783 17.9237 5.21569 17.8202C3.4692 16.8798 2.29465 15.9287 1.63674 14.851C0.964137 13.7493 0.867827 12.5768 1.14614 11.2897L5.89943 17.1553ZM5.89943 17.1553C5.39503 16.1525 5.30178 15.4158 5.39423 14.8237C5.4882 14.2218 5.78316 13.7032 6.18383 13.1437C6.45783 12.761 6.67408 12.3803 6.84344 12.0308M5.89943 17.1553L6.84344 12.0308ZM6.84344 12.0308C6.86183 12.4134 6.84356 12.8809 6.75635 13.4403C6.72258 13.6569 6.83385 13.8702 7.03082 13.9665C7.22778 14.0628 7.46448 14.0195 7.61466 13.8598C8.34055 13.0878 8.76236 11.8793 8.98497 10.8209C9.09303 10.3071 9.15856 9.8074 9.18677 9.37492C11.2405 11.3221 11.9809 14.6442 10.6376 17.1433C10.533 17.3378 10.5685 17.578 10.7249 17.734C10.8813 17.89 11.1215 17.9249 11.3158 17.8198C13.5649 16.604 14.8789 15.2055 15.5184 13.7385C16.1589 12.2691 16.0946 10.7952 15.7091 9.48503C15.3254 8.18075 14.6196 7.02183 13.9459 6.14431C13.2776 5.27379 12.6105 4.6411 12.2684 4.40276C12.0821 4.27299 11.8318 4.28499 11.6588 4.43198C11.4858 4.57897 11.4336 4.82405 11.5315 5.02883C11.5637 5.096 11.591 5.1697 11.6134 5.24902C11.098 4.23925 10.3668 3.38785 9.67368 2.7266C9.08021 2.16038 8.49763 1.71723 8.06357 1.4155C7.84615 1.26437 7.66497 1.14801 7.53694 1.06876C7.47291 1.02912 7.42209 0.998709 7.38661 0.977831L7.34511 0.953679L7.33346 0.947022L7.32999 0.945059L7.32886 0.94442C7.3287 0.944328 7.32813 0.94401 7.08337 1.38L7.32886 0.94442C7.17582 0.858505 6.98821 0.858711 6.83574 0.945633C6.68327 1.03255 6.58753 1.19305 6.5835 1.36851C6.52938 3.72264 5.74321 5.98204 4.51193 7.77365C4.37056 7.25285 4.14761 6.76094 3.8177 6.18733C3.70794 5.99647 3.48625 5.89988 3.27174 5.94943C3.05722 5.99898 2.90036 6.18302 2.88543 6.40268C2.83255 7.18012 2.5296 7.90338 2.15494 8.70243C2.1136 8.7906 2.07127 8.87988 2.02841 8.97028C1.69449 9.6746 1.32833 10.447 1.14614 11.2897L6.84344 12.0308Z" fill="#FDD835"/>
<path d="M5.89943 17.1553C5.99749 17.3503 5.95778 17.5863 5.80133 17.7385C5.64488 17.8906 5.40783 17.9237 5.21569 17.8202C3.4692 16.8798 2.29465 15.9287 1.63674 14.851C0.964137 13.7493 0.867827 12.5768 1.14614 11.2897M5.89943 17.1553L1.14614 11.2897M5.89943 17.1553C5.39503 16.1525 5.30178 15.4158 5.39423 14.8237C5.4882 14.2218 5.78316 13.7032 6.18383 13.1437C6.45783 12.761 6.67408 12.3803 6.84344 12.0308M5.89943 17.1553L6.84344 12.0308M1.14614 11.2897C1.32833 10.447 1.69449 9.6746 2.02841 8.97028C2.07127 8.87988 2.1136 8.7906 2.15494 8.70243C2.5296 7.90338 2.83255 7.18012 2.88543 6.40268C2.90036 6.18302 3.05722 5.99898 3.27174 5.94943C3.48625 5.89988 3.70794 5.99647 3.8177 6.18733C4.14761 6.76094 4.37056 7.25285 4.51193 7.77365C5.74321 5.98204 6.52938 3.72264 6.5835 1.36851C6.58753 1.19305 6.68327 1.03255 6.83574 0.945633C6.98821 0.858711 7.17582 0.858505 7.32886 0.94442M1.14614 11.2897L6.84344 12.0308M6.84344 12.0308C6.86183 12.4134 6.84356 12.8809 6.75635 13.4403C6.72258 13.6569 6.83385 13.8702 7.03082 13.9665C7.22778 14.0628 7.46448 14.0195 7.61466 13.8598C8.34055 13.0878 8.76236 11.8793 8.98497 10.8209C9.09303 10.3071 9.15856 9.8074 9.18677 9.37492C11.2405 11.3221 11.9809 14.6442 10.6376 17.1433C10.533 17.3378 10.5685 17.578 10.7249 17.734C10.8813 17.89 11.1215 17.9249 11.3158 17.8198C13.5649 16.604 14.8789 15.2055 15.5184 13.7385C16.1589 12.2691 16.0946 10.7952 15.7091 9.48503C15.3254 8.18075 14.6196 7.02183 13.9459 6.14431C13.2776 5.27379 12.6105 4.6411 12.2684 4.40276C12.0821 4.27299 11.8318 4.28499 11.6588 4.43198C11.4858 4.57897 11.4336 4.82405 11.5315 5.02883C11.5637 5.096 11.591 5.1697 11.6134 5.24902C11.098 4.23925 10.3668 3.38785 9.67368 2.7266C9.08021 2.16038 8.49763 1.71723 8.06357 1.4155C7.84615 1.26437 7.66497 1.14801 7.53694 1.06876C7.47291 1.02912 7.42209 0.998709 7.38661 0.977831L7.34511 0.953679L7.33346 0.947022L7.32999 0.945059L7.32886 0.94442M7.32886 0.94442C7.3287 0.944328 7.32813 0.94401 7.08337 1.38L7.32886 0.94442Z" stroke="#E30019" stroke-linejoin="round"/>
</svg>
