<svg width="13" height="13" viewBox="0 0 13 13" fill="none" xmlns="http://www.w3.org/2000/svg">
<path d="M2.89655 11.6057L3.57139 8.4203L1.20944 6.23768C1.20944 6.23768 0.872007 5.94274 0.984489 5.52981C1.09697 5.11688 1.54686 5.11688 1.54686 5.11688L4.69614 4.82193L5.93335 1.81347C5.93335 1.81347 6.10206 1.34155 6.49573 1.34155C6.88939 1.34155 7.0581 1.81347 7.0581 1.81347L8.29531 4.82193L11.5571 5.11688C11.5571 5.11688 11.8945 5.17588 12.007 5.52981C12.1194 5.88375 11.8945 6.1197 11.8945 6.1197L9.42006 8.4203L10.0949 11.7237C10.0949 11.7237 10.2073 12.0777 9.92619 12.3136C9.645 12.5496 9.19511 12.3136 9.19511 12.3136L6.49573 10.6029L3.85258 12.3136C3.85258 12.3136 3.45893 12.5496 3.1215 12.3136C2.78407 12.0777 2.89655 11.6057 2.89655 11.6057Z" fill="#FF8A00"/>
</svg>
