<svg width="19" height="21" viewBox="0 0 19 21" fill="none" xmlns="http://www.w3.org/2000/svg">
<path d="M9.5 4.09003V6.59003M9.5 4.09003C9.5 3.59558 9.64662 3.11223 9.92133 2.70111C10.196 2.28998 10.5865 1.96955 11.0433 1.78033C11.5001 1.59111 12.0028 1.5416 12.4877 1.63807C12.9727 1.73453 13.4181 1.97263 13.7678 2.32226C14.1174 2.6719 14.3555 3.11735 14.452 3.60231C14.5484 4.08726 14.4989 4.58992 14.3097 5.04674C14.1205 5.50355 13.8 5.894 13.3889 6.1687C12.9778 6.44341 12.4945 6.59003 12 6.59003H9.5M9.5 4.09003C9.5 3.59558 9.35338 3.11223 9.07867 2.70111C8.80397 2.28998 8.41352 1.96955 7.95671 1.78033C7.49989 1.59111 6.99723 1.5416 6.51227 1.63807C6.02732 1.73453 5.58187 1.97263 5.23223 2.32226C4.8826 2.6719 4.6445 3.11735 4.54804 3.60231C4.45157 4.08726 4.50108 4.58992 4.6903 5.04674C4.87952 5.50355 5.19995 5.894 5.61108 6.1687C6.0222 6.44341 6.50555 6.59003 7 6.59003H9.5" stroke="#111111" stroke-miterlimit="10" stroke-linecap="round"/>
<path d="M16.1667 6.59003H2.83333C2.09695 6.59003 1.5 7.22962 1.5 8.0186V10.1615C1.5 10.9504 2.09695 11.59 2.83333 11.59H16.1667C16.903 11.59 17.5 10.9504 17.5 10.1615V8.0186C17.5 7.22962 16.903 6.59003 16.1667 6.59003Z" stroke="#111111" stroke-linecap="round" stroke-linejoin="round"/>
<path d="M16.5 11.3795V17.5374C16.5 18.0818 16.2788 18.6039 15.8849 18.9888C15.4911 19.3737 14.957 19.59 14.4 19.59H4.6C4.04305 19.59 3.5089 19.3737 3.11508 18.9888C2.72125 18.6039 2.5 18.0818 2.5 17.5374V11.3795M9.5 6.59003V19.59" stroke="#111111" stroke-linecap="round" stroke-linejoin="round"/>
</svg>
