<svg width="17" height="19" viewBox="0 0 17 19" fill="none" xmlns="http://www.w3.org/2000/svg">
<path d="M5.89944 17.1553C5.9975 17.3503 5.95779 17.5863 5.80134 17.7385C5.64489 17.8906 5.40784 17.9237 5.2157 17.8202C3.46921 16.8798 2.29466 15.9287 1.63675 14.851C0.964152 13.7493 0.867842 12.5768 1.14616 11.2897L5.89944 17.1553ZM5.89944 17.1553C5.39504 16.1525 5.30179 15.4158 5.39424 14.8237C5.48821 14.2218 5.78317 13.7032 6.18384 13.1437C6.45784 12.761 6.67409 12.3803 6.84345 12.0308M5.89944 17.1553L6.84345 12.0308ZM6.84345 12.0308C6.86184 12.4134 6.84357 12.8809 6.75636 13.4403C6.72259 13.6569 6.83386 13.8702 7.03083 13.9665C7.22779 14.0628 7.46449 14.0195 7.61467 13.8598C8.34056 13.0878 8.76237 11.8793 8.98498 10.8209C9.09304 10.3071 9.15857 9.8074 9.18678 9.37492C11.2405 11.3221 11.9809 14.6442 10.6376 17.1433C10.533 17.3378 10.5685 17.578 10.7249 17.734C10.8813 17.89 11.1215 17.9249 11.3158 17.8198C13.5649 16.604 14.8789 15.2055 15.5184 13.7385C16.1589 12.2691 16.0946 10.7952 15.7091 9.48503C15.3254 8.18075 14.6196 7.02183 13.9459 6.14431C13.2776 5.27379 12.6105 4.6411 12.2684 4.40276C12.0821 4.27299 11.8318 4.28499 11.6588 4.43198C11.4858 4.57897 11.4336 4.82405 11.5315 5.02883C11.5637 5.096 11.591 5.1697 11.6134 5.24902C11.098 4.23925 10.3668 3.38785 9.67369 2.7266C9.08022 2.16038 8.49764 1.71723 8.06358 1.4155C7.84616 1.26437 7.66498 1.14801 7.53695 1.06876C7.47292 1.02912 7.4221 0.998709 7.38662 0.977831L7.34512 0.953679L7.33347 0.947022L7.33 0.945059L7.32887 0.94442C7.32871 0.944328 7.32814 0.94401 7.08338 1.38L7.32887 0.94442C7.17583 0.858505 6.98822 0.858711 6.83575 0.945633C6.68328 1.03255 6.58754 1.19305 6.58351 1.36851C6.52939 3.72264 5.74322 5.98204 4.51194 7.77365C4.37057 7.25285 4.14762 6.76094 3.81771 6.18733C3.70795 5.99647 3.48626 5.89988 3.27175 5.94943C3.05723 5.99898 2.90037 6.18302 2.88544 6.40268C2.83256 7.18012 2.52961 7.90338 2.15495 8.70243C2.11361 8.7906 2.07128 8.87988 2.02842 8.97028C1.6945 9.6746 1.32835 10.447 1.14616 11.2897L6.84345 12.0308Z" fill="#FDD835"/>
<path d="M5.89944 17.1553C5.9975 17.3503 5.95779 17.5863 5.80134 17.7385C5.64489 17.8906 5.40784 17.9237 5.2157 17.8202C3.46921 16.8798 2.29466 15.9287 1.63675 14.851C0.964152 13.7493 0.867842 12.5768 1.14616 11.2897M5.89944 17.1553L1.14616 11.2897M5.89944 17.1553C5.39504 16.1525 5.30179 15.4158 5.39424 14.8237C5.48821 14.2218 5.78317 13.7032 6.18384 13.1437C6.45784 12.761 6.67409 12.3803 6.84345 12.0308M5.89944 17.1553L6.84345 12.0308M1.14616 11.2897C1.32835 10.447 1.6945 9.6746 2.02842 8.97028C2.07128 8.87988 2.11361 8.7906 2.15495 8.70243C2.52961 7.90338 2.83256 7.18012 2.88544 6.40268C2.90037 6.18302 3.05723 5.99898 3.27175 5.94943C3.48626 5.89988 3.70795 5.99647 3.81771 6.18733C4.14762 6.76094 4.37057 7.25285 4.51194 7.77365C5.74322 5.98204 6.52939 3.72264 6.58351 1.36851C6.58754 1.19305 6.68328 1.03255 6.83575 0.945633C6.98822 0.858711 7.17583 0.858505 7.32887 0.94442M1.14616 11.2897L6.84345 12.0308M6.84345 12.0308C6.86184 12.4134 6.84357 12.8809 6.75636 13.4403C6.72259 13.6569 6.83386 13.8702 7.03083 13.9665C7.22779 14.0628 7.46449 14.0195 7.61467 13.8598C8.34056 13.0878 8.76237 11.8793 8.98498 10.8209C9.09304 10.3071 9.15857 9.8074 9.18678 9.37492C11.2405 11.3221 11.9809 14.6442 10.6376 17.1433C10.533 17.3378 10.5685 17.578 10.7249 17.734C10.8813 17.89 11.1215 17.9249 11.3158 17.8198C13.5649 16.604 14.8789 15.2055 15.5184 13.7385C16.1589 12.2691 16.0946 10.7952 15.7091 9.48503C15.3254 8.18075 14.6196 7.02183 13.9459 6.14431C13.2776 5.27379 12.6105 4.6411 12.2684 4.40276C12.0821 4.27299 11.8318 4.28499 11.6588 4.43198C11.4858 4.57897 11.4336 4.82405 11.5315 5.02883C11.5637 5.096 11.591 5.1697 11.6134 5.24902C11.098 4.23925 10.3668 3.38785 9.67369 2.7266C9.08022 2.16038 8.49764 1.71723 8.06358 1.4155C7.84616 1.26437 7.66498 1.14801 7.53695 1.06876C7.47292 1.02912 7.4221 0.998709 7.38662 0.977831L7.34512 0.953679L7.33347 0.947022L7.33 0.945059L7.32887 0.94442M7.32887 0.94442C7.32871 0.944328 7.32814 0.94401 7.08338 1.38L7.32887 0.94442Z" stroke="#E30019" stroke-linejoin="round"/>
</svg>
