<svg width="17" height="19" viewBox="0 0 17 19" fill="none" xmlns="http://www.w3.org/2000/svg">
<path d="M5.55948 17.1553C5.65754 17.3503 5.61783 17.5863 5.46138 17.7385C5.30493 17.8906 5.06788 17.9237 4.87574 17.8202C3.12925 16.8798 1.9547 15.9287 1.29679 14.851C0.624186 13.7493 0.527876 12.5768 0.806192 11.2897L5.55948 17.1553ZM5.55948 17.1553C5.05508 16.1525 4.96183 15.4158 5.05428 14.8237C5.14825 14.2218 5.44321 13.7032 5.84388 13.1437C6.11788 12.761 6.33413 12.3803 6.50349 12.0308M5.55948 17.1553L6.50349 12.0308ZM6.50349 12.0308C6.52188 12.4134 6.50361 12.8809 6.4164 13.4403C6.38263 13.6569 6.4939 13.8702 6.69087 13.9665C6.88783 14.0628 7.12453 14.0195 7.27471 13.8598C8.0006 13.0878 8.42241 11.8793 8.64502 10.8209C8.75308 10.3071 8.81861 9.8074 8.84682 9.37492C10.9005 11.3221 11.6409 14.6442 10.2976 17.1433C10.193 17.3378 10.2285 17.578 10.3849 17.734C10.5413 17.89 10.7815 17.9249 10.9758 17.8198C13.2249 16.604 14.5389 15.2055 15.1784 13.7385C15.8189 12.2691 15.7546 10.7952 15.3691 9.48503C14.9854 8.18075 14.2796 7.02183 13.6059 6.14431C12.9376 5.27379 12.2705 4.6411 11.9284 4.40276C11.7421 4.27299 11.4918 4.28499 11.3188 4.43198C11.1458 4.57897 11.0936 4.82405 11.1915 5.02883C11.2237 5.096 11.251 5.1697 11.2734 5.24902C10.758 4.23925 10.0268 3.38785 9.33373 2.7266C8.74026 2.16038 8.15768 1.71723 7.72362 1.4155C7.5062 1.26437 7.32502 1.14801 7.19699 1.06876C7.13296 1.02912 7.08214 0.998709 7.04666 0.977831L7.00516 0.953679L6.99351 0.947022L6.99004 0.945059L6.98891 0.94442C6.98875 0.944328 6.98818 0.94401 6.74342 1.38L6.98891 0.94442C6.83587 0.858505 6.64826 0.858711 6.49579 0.945633C6.34332 1.03255 6.24758 1.19305 6.24355 1.36851C6.18943 3.72264 5.40326 5.98204 4.17198 7.77365C4.03061 7.25285 3.80766 6.76094 3.47775 6.18733C3.36799 5.99647 3.1463 5.89988 2.93179 5.94943C2.71727 5.99898 2.56041 6.18302 2.54548 6.40268C2.4926 7.18012 2.18965 7.90338 1.81499 8.70243C1.77365 8.7906 1.73132 8.87988 1.68846 8.97028C1.35454 9.6746 0.98838 10.447 0.806192 11.2897L6.50349 12.0308Z" fill="#FDD835"/>
<path d="M5.55948 17.1553C5.65754 17.3503 5.61783 17.5863 5.46138 17.7385C5.30493 17.8906 5.06788 17.9237 4.87574 17.8202C3.12925 16.8798 1.9547 15.9287 1.29679 14.851C0.624186 13.7493 0.527876 12.5768 0.806192 11.2897M5.55948 17.1553L0.806192 11.2897M5.55948 17.1553C5.05508 16.1525 4.96183 15.4158 5.05428 14.8237C5.14825 14.2218 5.44321 13.7032 5.84388 13.1437C6.11788 12.761 6.33413 12.3803 6.50349 12.0308M5.55948 17.1553L6.50349 12.0308M0.806192 11.2897C0.98838 10.447 1.35454 9.6746 1.68846 8.97028C1.73132 8.87988 1.77365 8.7906 1.81499 8.70243C2.18965 7.90338 2.4926 7.18012 2.54548 6.40268C2.56041 6.18302 2.71727 5.99898 2.93179 5.94943C3.1463 5.89988 3.36799 5.99647 3.47775 6.18733C3.80766 6.76094 4.03061 7.25285 4.17198 7.77365C5.40326 5.98204 6.18943 3.72264 6.24355 1.36851C6.24758 1.19305 6.34332 1.03255 6.49579 0.945633C6.64826 0.858711 6.83587 0.858505 6.98891 0.94442M0.806192 11.2897L6.50349 12.0308M6.50349 12.0308C6.52188 12.4134 6.50361 12.8809 6.4164 13.4403C6.38263 13.6569 6.4939 13.8702 6.69087 13.9665C6.88783 14.0628 7.12453 14.0195 7.27471 13.8598C8.0006 13.0878 8.42241 11.8793 8.64502 10.8209C8.75308 10.3071 8.81861 9.8074 8.84682 9.37492C10.9005 11.3221 11.6409 14.6442 10.2976 17.1433C10.193 17.3378 10.2285 17.578 10.3849 17.734C10.5413 17.89 10.7815 17.9249 10.9758 17.8198C13.2249 16.604 14.5389 15.2055 15.1784 13.7385C15.8189 12.2691 15.7546 10.7952 15.3691 9.48503C14.9854 8.18075 14.2796 7.02183 13.6059 6.14431C12.9376 5.27379 12.2705 4.6411 11.9284 4.40276C11.7421 4.27299 11.4918 4.28499 11.3188 4.43198C11.1458 4.57897 11.0936 4.82405 11.1915 5.02883C11.2237 5.096 11.251 5.1697 11.2734 5.24902C10.758 4.23925 10.0268 3.38785 9.33373 2.7266C8.74026 2.16038 8.15768 1.71723 7.72362 1.4155C7.5062 1.26437 7.32502 1.14801 7.19699 1.06876C7.13296 1.02912 7.08214 0.998709 7.04666 0.977831L7.00516 0.953679L6.99351 0.947022L6.99004 0.945059L6.98891 0.94442M6.98891 0.94442C6.98875 0.944328 6.98818 0.94401 6.74342 1.38L6.98891 0.94442Z" stroke="#E30019" stroke-linejoin="round"/>
</svg>
