<svg width="13" height="13" viewBox="0 0 13 13" fill="none" xmlns="http://www.w3.org/2000/svg">
<path d="M2.55657 11.6057L3.23141 8.4203L0.869456 6.23768C0.869456 6.23768 0.532026 5.94274 0.644508 5.52981C0.75699 5.11688 1.20688 5.11688 1.20688 5.11688L4.35615 4.82193L5.59337 1.81347C5.59337 1.81347 5.76207 1.34155 6.15575 1.34155C6.54941 1.34155 6.71811 1.81347 6.71811 1.81347L7.95533 4.82193L11.2171 5.11688C11.2171 5.11688 11.5545 5.17588 11.667 5.52981C11.7794 5.88375 11.5545 6.1197 11.5545 6.1197L9.08007 8.4203L9.75492 11.7237C9.75492 11.7237 9.86737 12.0777 9.58621 12.3136C9.30502 12.5496 8.85513 12.3136 8.85513 12.3136L6.15575 10.6029L3.5126 12.3136C3.5126 12.3136 3.11895 12.5496 2.78151 12.3136C2.44409 12.0777 2.55657 11.6057 2.55657 11.6057Z" fill="#FF8A00"/>
</svg>
