<svg width="17" height="19" viewBox="0 0 17 19" fill="none" xmlns="http://www.w3.org/2000/svg">
<path d="M5.55943 17.1553C5.65749 17.3503 5.61778 17.5863 5.46133 17.7385C5.30488 17.8906 5.06783 17.9237 4.87569 17.8202C3.1292 16.8798 1.95465 15.9287 1.29674 14.851C0.62414 13.7493 0.52783 12.5768 0.806146 11.2897L5.55943 17.1553ZM5.55943 17.1553C5.05503 16.1525 4.96178 15.4158 5.05423 14.8237C5.1482 14.2218 5.44316 13.7032 5.84383 13.1437C6.11783 12.761 6.33408 12.3803 6.50344 12.0308M5.55943 17.1553L6.50344 12.0308ZM6.50344 12.0308C6.52183 12.4134 6.50356 12.8809 6.41635 13.4403C6.38258 13.6569 6.49385 13.8702 6.69082 13.9665C6.88778 14.0628 7.12448 14.0195 7.27466 13.8598C8.00055 13.0878 8.42236 11.8793 8.64497 10.8209C8.75303 10.3071 8.81856 9.8074 8.84677 9.37492C10.9005 11.3221 11.6409 14.6442 10.2976 17.1433C10.193 17.3378 10.2285 17.578 10.3849 17.734C10.5413 17.89 10.7815 17.9249 10.9758 17.8198C13.2249 16.604 14.5389 15.2055 15.1784 13.7385C15.8189 12.2691 15.7546 10.7952 15.3691 9.48503C14.9854 8.18075 14.2796 7.02183 13.6059 6.14431C12.9376 5.27379 12.2705 4.6411 11.9284 4.40276C11.7421 4.27299 11.4918 4.28499 11.3188 4.43198C11.1458 4.57897 11.0936 4.82405 11.1915 5.02883C11.2237 5.096 11.251 5.1697 11.2734 5.24902C10.758 4.23925 10.0268 3.38785 9.33368 2.7266C8.74021 2.16038 8.15763 1.71723 7.72357 1.4155C7.50615 1.26437 7.32497 1.14801 7.19694 1.06876C7.13291 1.02912 7.08209 0.998709 7.04661 0.977831L7.00511 0.953679L6.99346 0.947022L6.98999 0.945059L6.98886 0.94442C6.9887 0.944328 6.98813 0.94401 6.74337 1.38L6.98886 0.94442C6.83582 0.858505 6.64821 0.858711 6.49574 0.945633C6.34327 1.03255 6.24753 1.19305 6.2435 1.36851C6.18938 3.72264 5.40321 5.98204 4.17193 7.77365C4.03056 7.25285 3.80761 6.76094 3.4777 6.18733C3.36794 5.99647 3.14625 5.89988 2.93174 5.94943C2.71722 5.99898 2.56036 6.18302 2.54543 6.40268C2.49255 7.18012 2.1896 7.90338 1.81494 8.70243C1.7736 8.7906 1.73127 8.87988 1.68841 8.97028C1.35449 9.6746 0.988334 10.447 0.806146 11.2897L6.50344 12.0308Z" fill="#FDD835"/>
<path d="M5.55943 17.1553C5.65749 17.3503 5.61778 17.5863 5.46133 17.7385C5.30488 17.8906 5.06783 17.9237 4.87569 17.8202C3.1292 16.8798 1.95465 15.9287 1.29674 14.851C0.62414 13.7493 0.52783 12.5768 0.806146 11.2897M5.55943 17.1553L0.806146 11.2897M5.55943 17.1553C5.05503 16.1525 4.96178 15.4158 5.05423 14.8237C5.1482 14.2218 5.44316 13.7032 5.84383 13.1437C6.11783 12.761 6.33408 12.3803 6.50344 12.0308M5.55943 17.1553L6.50344 12.0308M0.806146 11.2897C0.988334 10.447 1.35449 9.6746 1.68841 8.97028C1.73127 8.87988 1.7736 8.7906 1.81494 8.70243C2.1896 7.90338 2.49255 7.18012 2.54543 6.40268C2.56036 6.18302 2.71722 5.99898 2.93174 5.94943C3.14625 5.89988 3.36794 5.99647 3.4777 6.18733C3.80761 6.76094 4.03056 7.25285 4.17193 7.77365C5.40321 5.98204 6.18938 3.72264 6.2435 1.36851C6.24753 1.19305 6.34327 1.03255 6.49574 0.945633C6.64821 0.858711 6.83582 0.858505 6.98886 0.94442M0.806146 11.2897L6.50344 12.0308M6.50344 12.0308C6.52183 12.4134 6.50356 12.8809 6.41635 13.4403C6.38258 13.6569 6.49385 13.8702 6.69082 13.9665C6.88778 14.0628 7.12448 14.0195 7.27466 13.8598C8.00055 13.0878 8.42236 11.8793 8.64497 10.8209C8.75303 10.3071 8.81856 9.8074 8.84677 9.37492C10.9005 11.3221 11.6409 14.6442 10.2976 17.1433C10.193 17.3378 10.2285 17.578 10.3849 17.734C10.5413 17.89 10.7815 17.9249 10.9758 17.8198C13.2249 16.604 14.5389 15.2055 15.1784 13.7385C15.8189 12.2691 15.7546 10.7952 15.3691 9.48503C14.9854 8.18075 14.2796 7.02183 13.6059 6.14431C12.9376 5.27379 12.2705 4.6411 11.9284 4.40276C11.7421 4.27299 11.4918 4.28499 11.3188 4.43198C11.1458 4.57897 11.0936 4.82405 11.1915 5.02883C11.2237 5.096 11.251 5.1697 11.2734 5.24902C10.758 4.23925 10.0268 3.38785 9.33368 2.7266C8.74021 2.16038 8.15763 1.71723 7.72357 1.4155C7.50615 1.26437 7.32497 1.14801 7.19694 1.06876C7.13291 1.02912 7.08209 0.998709 7.04661 0.977831L7.00511 0.953679L6.99346 0.947022L6.98999 0.945059L6.98886 0.94442M6.98886 0.94442C6.9887 0.944328 6.98813 0.94401 6.74337 1.38L6.98886 0.94442Z" stroke="#E30019" stroke-linejoin="round"/>
</svg>
