<svg width="11" height="11" viewBox="0 0 11 11" fill="none" xmlns="http://www.w3.org/2000/svg">
<path d="M2.268 10.3231C2.34888 10.3651 2.4397 10.3844 2.53069 10.3788C2.62169 10.3731 2.70943 10.3428 2.7845 10.2911L9.2845 5.79107C9.35092 5.74506 9.4052 5.68363 9.44269 5.61205C9.48017 5.54047 9.49976 5.46088 9.49976 5.38007C9.49976 5.29927 9.48017 5.21967 9.44269 5.1481C9.4052 5.07652 9.35092 5.01509 9.2845 4.96908L2.7845 0.46908C2.70949 0.417177 2.6217 0.386783 2.53066 0.38119C2.43961 0.375597 2.34877 0.395018 2.26797 0.43735C2.18716 0.479682 2.11948 0.543312 2.07225 0.62135C2.02501 0.699389 2.00003 0.788861 2 0.88008V9.88007C1.99999 9.97134 2.02495 10.0609 2.07219 10.139C2.11944 10.2171 2.18715 10.2807 2.268 10.3231Z" fill="white"/>
</svg>
