<svg width="13" height="13" viewBox="0 0 13 13" fill="none" xmlns="http://www.w3.org/2000/svg">
<path d="M2.5566 11.6057L3.23144 8.4203L0.869486 6.23768C0.869486 6.23768 0.532057 5.94274 0.644538 5.52981C0.757021 5.11688 1.20691 5.11688 1.20691 5.11688L4.35619 4.82193L5.5934 1.81347C5.5934 1.81347 5.76211 1.34155 6.15578 1.34155C6.54944 1.34155 6.71815 1.81347 6.71815 1.81347L7.95536 4.82193L11.2171 5.11688C11.2171 5.11688 11.5545 5.17588 11.667 5.52981C11.7795 5.88375 11.5545 6.1197 11.5545 6.1197L9.0801 8.4203L9.75495 11.7237C9.75495 11.7237 9.8674 12.0777 9.58624 12.3136C9.30505 12.5496 8.85516 12.3136 8.85516 12.3136L6.15578 10.6029L3.51263 12.3136C3.51263 12.3136 3.11898 12.5496 2.78155 12.3136C2.44412 12.0777 2.5566 11.6057 2.5566 11.6057Z" fill="#FF8A00"/>
</svg>
