<svg width="13" height="13" viewBox="0 0 13 13" fill="none" xmlns="http://www.w3.org/2000/svg">
<path d="M2.55655 11.6057L3.2314 8.4203L0.869441 6.23768C0.869441 6.23768 0.532011 5.94274 0.644493 5.52981C0.756975 5.11688 1.20686 5.11688 1.20686 5.11688L4.35614 4.82193L5.59336 1.81347C5.59336 1.81347 5.76206 1.34155 6.15573 1.34155C6.5494 1.34155 6.7181 1.81347 6.7181 1.81347L7.95532 4.82193L11.2171 5.11688C11.2171 5.11688 11.5545 5.17588 11.667 5.52981C11.7794 5.88375 11.5545 6.1197 11.5545 6.1197L9.08006 8.4203L9.7549 11.7237C9.7549 11.7237 9.86735 12.0777 9.58619 12.3136C9.305 12.5496 8.85511 12.3136 8.85511 12.3136L6.15573 10.6029L3.51259 12.3136C3.51259 12.3136 3.11893 12.5496 2.7815 12.3136C2.44408 12.0777 2.55655 11.6057 2.55655 11.6057Z" fill="#FF8A00"/>
</svg>
