<svg width="11" height="11" viewBox="0 0 11 11" fill="none" xmlns="http://www.w3.org/2000/svg">
<path d="M9.92499 1.81006H1.17499C1.00923 1.81006 0.850256 1.8803 0.733046 2.00532C0.615836 2.13034 0.549988 2.29991 0.549988 2.47673V9.14339C0.549988 9.3202 0.615836 9.48977 0.733046 9.6148C0.850256 9.73982 1.00923 9.81006 1.17499 9.81006H9.92499C10.0907 9.81006 10.2497 9.73982 10.3669 9.6148C10.4841 9.48977 10.55 9.3202 10.55 9.14339V2.47673C10.55 2.29991 10.4841 2.13034 10.3669 2.00532C10.2497 1.8803 10.0907 1.81006 9.92499 1.81006ZM1.55311 2.47673C1.63086 2.47407 1.70757 2.49623 1.77343 2.54037C1.83929 2.58451 1.8913 2.64862 1.92279 2.72448C1.95428 2.80035 1.96383 2.88451 1.9502 2.9662C1.93656 3.04788 1.90038 3.12337 1.84628 3.18298C1.79218 3.24259 1.72263 3.28362 1.64654 3.30081C1.57044 3.318 1.49127 3.31056 1.41916 3.27945C1.34705 3.24835 1.28529 3.19499 1.24179 3.12621C1.19829 3.05743 1.17503 2.97636 1.17499 2.89339C1.17494 2.78516 1.21437 2.68115 1.28494 2.60338C1.35552 2.52561 1.45169 2.48019 1.55311 2.47673ZM1.55311 9.14339C1.47585 9.14339 1.40033 9.11896 1.33609 9.07317C1.27185 9.02739 1.22179 8.96231 1.19222 8.88618C1.16266 8.81004 1.15492 8.72626 1.16999 8.64544C1.18507 8.56461 1.22227 8.49037 1.2769 8.4321C1.33153 8.37383 1.40113 8.33414 1.47691 8.31807C1.55268 8.30199 1.63122 8.31024 1.7026 8.34178C1.77398 8.37331 1.83499 8.42672 1.87791 8.49524C1.92083 8.56376 1.94374 8.64432 1.94374 8.72673C1.94374 8.83723 1.90258 8.94321 1.82933 9.02136C1.75607 9.0995 1.65672 9.14339 1.55311 9.14339ZM3.13437 7.21673C2.72713 7.22647 2.33243 7.0662 2.03437 6.77006L2.30312 6.41673C2.53141 6.64982 2.834 6.78202 3.14999 6.78673C3.46249 6.78673 3.63436 6.62006 3.63436 6.42339C3.63436 6.22673 3.44999 6.12006 3.03749 6.01673C2.50624 5.88339 2.13437 5.72006 2.13437 5.20339C2.13437 4.68673 2.51561 4.37339 3.07186 4.37339C3.43041 4.36637 3.77836 4.50317 4.04686 4.75673L3.79374 5.12339C3.58895 4.92741 3.32506 4.81624 3.04999 4.81006C2.94771 4.79684 2.84468 4.82725 2.76332 4.89468C2.68197 4.9621 2.62888 5.06108 2.61561 5.17006C2.61561 5.39339 2.80624 5.47339 3.21561 5.57339C3.75311 5.70339 4.11249 5.88673 4.11249 6.38673C4.11249 6.88673 3.74999 7.21673 3.13437 7.21673ZM5.48124 7.21673C5.07401 7.22647 4.67931 7.0662 4.38124 6.77006L4.64999 6.41673C4.87828 6.64982 5.18087 6.78202 5.49687 6.78673C5.80937 6.78673 5.98124 6.62006 5.98124 6.42339C5.98124 6.22673 5.79686 6.12006 5.38436 6.01673C4.85311 5.88339 4.48124 5.72006 4.48124 5.20339C4.48124 4.68673 4.86562 4.37339 5.41874 4.37339C5.77739 4.36571 6.12556 4.5026 6.39374 4.75673L6.14061 5.12339C5.93937 4.92087 5.67642 4.80252 5.39999 4.79006C5.29771 4.77684 5.19468 4.80725 5.11332 4.87468C5.03197 4.9421 4.97888 5.04108 4.96561 5.15006C4.96561 5.37339 5.15624 5.45339 5.56561 5.55339C6.10311 5.68339 6.46249 5.86673 6.46249 6.36673C6.46249 6.86673 6.09687 7.21673 5.48124 7.21673ZM6.91249 7.17006V4.42339H7.81874C8.66874 4.42339 9.26874 4.99339 9.26874 5.79673C9.26874 6.60006 8.67499 7.17006 7.81874 7.17006H6.91249ZM9.51561 9.14339C9.43836 9.14339 9.36283 9.11896 9.2986 9.07317C9.23436 9.02739 9.18429 8.96231 9.15472 8.88618C9.12516 8.81004 9.11742 8.72626 9.1325 8.64544C9.14757 8.56461 9.18477 8.49037 9.2394 8.4321C9.29403 8.37383 9.36363 8.33414 9.43941 8.31807C9.51518 8.30199 9.59372 8.31024 9.6651 8.34178C9.73648 8.37331 9.79749 8.42672 9.84041 8.49524C9.88333 8.56376 9.90624 8.64432 9.90624 8.72673C9.90624 8.83723 9.86508 8.94321 9.79183 9.02136C9.71857 9.0995 9.61922 9.14339 9.51561 9.14339ZM9.51561 3.31006C9.43836 3.31006 9.36283 3.28562 9.2986 3.23984C9.23436 3.19406 9.18429 3.12898 9.15472 3.05284C9.12516 2.97671 9.11742 2.89293 9.1325 2.81211C9.14757 2.73128 9.18477 2.65704 9.2394 2.59876C9.29403 2.54049 9.36363 2.50081 9.43941 2.48473C9.51518 2.46865 9.59372 2.47691 9.6651 2.50844C9.73648 2.53998 9.79749 2.59338 9.84041 2.6619C9.88333 2.73042 9.90624 2.81098 9.90624 2.89339C9.90624 3.0039 9.86508 3.10988 9.79183 3.18802C9.71857 3.26616 9.61922 3.31006 9.51561 3.31006Z" fill="#6D6E72"/>
<path d="M7.42499 4.81187H7.85867C7.96351 4.80367 8.06852 4.82342 8.16726 4.86988C8.266 4.91634 8.35638 4.98854 8.43284 5.08203C8.5093 5.17552 8.57022 5.28834 8.61186 5.41354C8.65351 5.53874 8.67499 5.67368 8.67499 5.81006C8.67499 5.94644 8.65351 6.08138 8.61186 6.20658C8.57022 6.33178 8.5093 6.4446 8.43284 6.53809C8.35638 6.63159 8.266 6.70378 8.16726 6.75024C8.06852 6.7967 7.96351 6.81645 7.85867 6.80825H7.42499V4.81187Z" fill="#6D6E72"/>
</svg>
