<svg width="23" height="15" viewBox="0 0 23 15" fill="none" xmlns="http://www.w3.org/2000/svg">
<path d="M17.9825 4.31006H15.795V2.56006C15.795 1.59756 15.0075 0.810059 14.045 0.810059H3.54498C2.58248 0.810059 1.79498 1.59756 1.79498 2.56006V10.4351C1.79498 11.3976 2.58248 12.1851 3.54498 12.1851C3.54498 13.6376 4.71748 14.8101 6.16998 14.8101C7.62248 14.8101 8.79498 13.6376 8.79498 12.1851H14.045C14.045 13.6376 15.2175 14.8101 16.67 14.8101C18.1225 14.8101 19.295 13.6376 19.295 12.1851H20.17C20.6512 12.1851 21.045 11.7913 21.045 11.3101V8.39631C21.045 8.02006 20.9225 7.65256 20.695 7.34631L18.6825 4.66006C18.5162 4.44131 18.2537 4.31006 17.9825 4.31006ZM6.16998 13.0601C5.68873 13.0601 5.29498 12.6663 5.29498 12.1851C5.29498 11.7038 5.68873 11.3101 6.16998 11.3101C6.65123 11.3101 7.04498 11.7038 7.04498 12.1851C7.04498 12.6663 6.65123 13.0601 6.16998 13.0601ZM17.9825 5.62256L19.6975 7.81006H15.795V5.62256H17.9825ZM16.67 13.0601C16.1887 13.0601 15.795 12.6663 15.795 12.1851C15.795 11.7038 16.1887 11.3101 16.67 11.3101C17.1512 11.3101 17.545 11.7038 17.545 12.1851C17.545 12.6663 17.1512 13.0601 16.67 13.0601Z" fill="#FF3C53"/>
</svg>
