<svg width="11" height="11" viewBox="0 0 11 11" fill="none" xmlns="http://www.w3.org/2000/svg">
<path d="M5.80303 9.04869C5.97039 9.04869 6.10606 8.91302 6.10606 8.74566C6.10606 8.5783 5.97039 8.44263 5.80303 8.44263C5.63567 8.44263 5.5 8.5783 5.5 8.74566C5.5 8.91302 5.63567 9.04869 5.80303 9.04869Z" fill="#6D6E72"/>
<path d="M5.19705 1.77588H5.50008V2.07891H5.19705V1.77588Z" fill="#6D6E72"/>
<path d="M3.98477 1.77588H4.28781V2.07891H3.98477V1.77588Z" fill="#6D6E72"/>
<path d="M4.59091 3.59424H6.10607V5.10939H4.59091V3.59424Z" fill="#6D6E72"/>
<path d="M6.71204 2.98804H3.98477V5.71531H6.71204V2.98804ZM6.40902 5.26076C6.40902 5.30096 6.39305 5.33949 6.36464 5.3679C6.33623 5.39632 6.29768 5.41228 6.2575 5.41228H4.43932C4.39914 5.41228 4.3606 5.39632 4.33218 5.3679C4.30376 5.33949 4.28781 5.30096 4.28781 5.26076V3.44258C4.28781 3.4024 4.30376 3.36386 4.33218 3.33545C4.3606 3.30704 4.39914 3.29107 4.43932 3.29107H6.2575C6.29768 3.29107 6.33623 3.30704 6.36464 3.33545C6.39305 3.36386 6.40902 3.4024 6.40902 3.44258V5.26076Z" fill="#6D6E72"/>
<path d="M6.40909 1.77588H6.71212V2.07891H6.40909V1.77588Z" fill="#6D6E72"/>
<path d="M7.62112 4.65479H7.92416V6.01842H7.62112V4.65479Z" fill="#6D6E72"/>
<path d="M4.89386 7.23047H8.83326V7.5335H4.89386V7.23047Z" fill="#6D6E72"/>
<path d="M3.98477 7.23047H4.59084V7.5335H3.98477V7.23047Z" fill="#6D6E72"/>
<path d="M8.8334 4.65479H9.13643V6.01842H8.8334V4.65479Z" fill="#6D6E72"/>
<path d="M7.62112 2.07886H7.92416V4.35158H7.62112V2.07886Z" fill="#6D6E72"/>
<path d="M8.8334 2.07886H9.13643V4.35158H8.8334V2.07886Z" fill="#6D6E72"/>
<path d="M9.89395 0.866943H1.56062C1.52044 0.866943 1.4819 0.882907 1.45348 0.911322C1.42507 0.939736 1.4091 0.978274 1.4091 1.01846V2.68513H0.954559V2.98815H1.4091V3.29119H1.10607C1.06589 3.29119 1.02735 3.30715 0.998937 3.33556C0.970523 3.36398 0.954559 3.40252 0.954559 3.4427V4.65482C0.954559 4.69501 0.970523 4.73354 0.998937 4.76196C1.02735 4.79037 1.06589 4.80633 1.10607 4.80633H1.4091V5.10937H0.954559V5.4124H1.4091V9.80633C1.4091 9.84652 1.42507 9.88506 1.45348 9.91349C1.4819 9.94185 1.52044 9.95785 1.56062 9.95785H9.89395C9.93414 9.95785 9.97268 9.94185 10.0011 9.91349C10.0295 9.88506 10.0455 9.84652 10.0455 9.80633V1.01846C10.0455 0.978274 10.0295 0.939736 10.0011 0.911322C9.97268 0.882907 9.93414 0.866943 9.89395 0.866943ZM7.3182 1.92755C7.3182 1.88736 7.33416 1.84883 7.36258 1.82042C7.39099 1.792 7.42952 1.77603 7.46971 1.77603H7.62122V1.473H7.92426V1.77603H8.07577C8.11596 1.77603 8.1545 1.792 8.1829 1.82042C8.21132 1.84883 8.22729 1.88736 8.22729 1.92755V6.16997C8.22729 6.21016 8.21132 6.2487 8.1829 6.27711C8.1545 6.30552 8.11596 6.32149 8.07577 6.32149H7.92426V6.62452H7.62122V6.32149H7.46971C7.42952 6.32149 7.39099 6.30552 7.36258 6.27711C7.33416 6.2487 7.3182 6.21016 7.3182 6.16997V1.92755ZM6.10608 1.62452C6.10608 1.58434 6.12204 1.5458 6.15045 1.51738C6.17887 1.48897 6.2174 1.473 6.25759 1.473H6.86365C6.90383 1.473 6.94238 1.48897 6.97079 1.51738C6.9992 1.5458 7.01517 1.58434 7.01517 1.62452V2.23058C7.01517 2.27076 6.9992 2.30931 6.97079 2.33772C6.94238 2.36613 6.90383 2.3821 6.86365 2.3821H6.25759C6.2174 2.3821 6.17887 2.36613 6.15045 2.33772C6.12204 2.30931 6.10608 2.27076 6.10608 2.23058V1.62452ZM4.89395 1.62452C4.89395 1.58434 4.90991 1.5458 4.93833 1.51738C4.96674 1.48897 5.00529 1.473 5.04547 1.473H5.65153C5.69171 1.473 5.73025 1.48897 5.75867 1.51738C5.78708 1.5458 5.80304 1.58434 5.80304 1.62452V2.23058C5.80304 2.27076 5.78708 2.30931 5.75867 2.33772C5.73025 2.36613 5.69171 2.3821 5.65153 2.3821H5.04547C5.00529 2.3821 4.96674 2.36613 4.93833 2.33772C4.90991 2.30931 4.89395 2.27076 4.89395 2.23058V1.62452ZM3.68183 1.62452C3.68183 1.58434 3.6978 1.5458 3.72621 1.51738C3.75462 1.48897 3.79316 1.473 3.83335 1.473H4.4394C4.4796 1.473 4.51813 1.48897 4.54654 1.51738C4.57496 1.5458 4.59092 1.58434 4.59092 1.62452V2.23058C4.59092 2.27076 4.57496 2.30931 4.54654 2.33772C4.51813 2.36613 4.4796 2.3821 4.4394 2.3821H3.83335C3.79316 2.3821 3.75462 2.36613 3.72621 2.33772C3.6978 2.30931 3.68183 2.27076 3.68183 2.23058V1.62452ZM3.68183 2.83664C3.68183 2.79645 3.6978 2.75792 3.72621 2.72951C3.75462 2.70109 3.79316 2.68513 3.83335 2.68513H6.86365C6.90383 2.68513 6.94238 2.70109 6.97079 2.72951C6.9992 2.75792 7.01517 2.79645 7.01517 2.83664V5.86694C7.01517 5.90712 6.9992 5.94567 6.97079 5.97408C6.94238 6.0025 6.90383 6.01846 6.86365 6.01846H3.83335C3.79316 6.01846 3.75462 6.0025 3.72621 5.97408C3.6978 5.94567 3.68183 5.90712 3.68183 5.86694V2.83664ZM6.71213 6.32149V6.62452H6.4091V6.32149H6.71213ZM6.10608 6.32149V6.62452H5.80304V6.32149H6.10608ZM5.50001 6.32149V6.62452H5.19699V6.32149H5.50001ZM4.89395 6.32149V6.62452H4.59092V6.32149H4.89395ZM4.2879 6.32149V6.62452H3.98486V6.32149H4.2879ZM1.71213 1.77603H2.3182V2.07906H1.71213V1.77603ZM1.71213 2.98815H2.3182V5.10937H1.71213V4.80633H1.86365C1.90383 4.80633 1.94238 4.79037 1.97079 4.76196C1.9992 4.73354 2.01517 4.69501 2.01517 4.65482V3.4427C2.01517 3.40252 1.9992 3.36398 1.97079 3.33556C1.94238 3.30715 1.90383 3.29119 1.86365 3.29119H1.71213V2.98815ZM2.3182 6.01846V6.32149H1.71213V6.01846H2.3182ZM1.25759 4.50331V3.59422H1.71213V4.50331H1.25759ZM2.3182 9.20028H2.01517V8.89724H2.3182V9.20028ZM2.3182 8.59422H2.01517V8.29119H2.3182V8.59422ZM2.92426 9.20028H2.62122V8.89724H2.92426V9.20028ZM2.92426 8.59422H2.62122V8.29119H2.92426V8.59422ZM2.92426 7.53361H1.71213V7.23058H2.92426V7.53361ZM3.3788 4.80633H2.92426V4.50331H3.3788V4.80633ZM3.3788 4.20028H2.92426V3.89724H3.3788V4.20028ZM3.3788 3.59422H2.92426V3.29119H3.3788V3.59422ZM3.3788 2.98815H2.92426V2.68513H3.3788V2.98815ZM3.3788 2.3821H2.92426V2.07906H3.3788V2.3821ZM3.3788 1.77603H2.92426V1.473H3.3788V1.77603ZM4.89395 9.20028H3.53031V8.89724H4.89395V9.20028ZM4.89395 8.59422H3.53031V8.29119H4.89395V8.59422ZM5.80304 9.35179C5.68318 9.35179 5.566 9.31624 5.46633 9.24965C5.36667 9.18306 5.28899 9.08841 5.24311 8.97766C5.19725 8.86692 5.18524 8.74506 5.20863 8.6275C5.23201 8.50993 5.28973 8.40194 5.3745 8.31718C5.45925 8.23242 5.56724 8.1747 5.6848 8.15132C5.80237 8.12793 5.92423 8.13993 6.03498 8.18581C6.14571 8.23168 6.24037 8.30935 6.30697 8.40903C6.37356 8.50869 6.4091 8.62586 6.4091 8.74573C6.40892 8.90642 6.34501 9.06046 6.2314 9.17408C6.11778 9.2877 5.96372 9.35162 5.80304 9.35179ZM7.01517 9.20028H6.71213V8.89724H7.01517V9.20028ZM7.01517 8.59422H6.71213V8.29119H7.01517V8.59422ZM7.62122 9.20028H7.3182V8.89724H7.62122V9.20028ZM7.62122 8.59422H7.3182V8.29119H7.62122V8.59422ZM9.4394 8.59422H9.13638V8.89724H9.4394V9.20028H9.13638C9.13638 9.24046 9.12041 9.279 9.092 9.30742C9.06359 9.33583 9.02505 9.35179 8.98486 9.35179H8.3788C8.33861 9.35179 8.30008 9.33583 8.27167 9.30742C8.24325 9.279 8.22729 9.24046 8.22729 9.20028H7.92426V8.89724H8.22729V8.59422H7.92426V8.29119H8.22729C8.22729 8.251 8.24325 8.21246 8.27167 8.18405C8.30008 8.15563 8.33861 8.13967 8.3788 8.13967H8.98486C9.02505 8.13967 9.06359 8.15563 9.092 8.18405C9.12041 8.21246 9.13638 8.251 9.13638 8.29119H9.4394V8.59422ZM9.4394 7.53361H9.13638V7.68512C9.13638 7.72531 9.12041 7.76385 9.092 7.79226C9.06359 7.82068 9.02505 7.83664 8.98486 7.83664H3.83335C3.79316 7.83664 3.75462 7.82068 3.72621 7.79226C3.6978 7.76385 3.68183 7.72531 3.68183 7.68512V7.07906C3.68183 7.03888 3.6978 7.00034 3.72621 6.97192C3.75462 6.94352 3.79316 6.92755 3.83335 6.92755H8.98486C9.02505 6.92755 9.06359 6.94352 9.092 6.97192C9.12041 7.00034 9.13638 7.03888 9.13638 7.07906V7.23058H9.4394V7.53361ZM9.4394 6.16997C9.4394 6.21016 9.42344 6.2487 9.39503 6.27711C9.36661 6.30552 9.32808 6.32149 9.2879 6.32149H9.13638V6.62452H8.83335V6.32149H8.68183C8.64165 6.32149 8.60311 6.30552 8.5747 6.27711C8.54628 6.2487 8.53031 6.21016 8.53031 6.16997V1.92755C8.53031 1.88736 8.54628 1.84883 8.5747 1.82042C8.60311 1.792 8.64165 1.77603 8.68183 1.77603H8.83335V1.473H9.13638V1.77603H9.2879C9.32808 1.77603 9.36661 1.792 9.39503 1.82042C9.42344 1.84883 9.4394 1.88736 9.4394 1.92755V6.16997Z" fill="#6D6E72"/>
<path d="M8.53021 8.44263H8.83325V9.04869H8.53021V8.44263Z" fill="#6D6E72"/>
</svg>
