<svg width="11" height="11" viewBox="0 0 11 11" fill="none" xmlns="http://www.w3.org/2000/svg">
<path d="M9.485 1.81006H0.735001C0.569241 1.81006 0.410269 1.8803 0.293059 2.00532C0.175849 2.13034 0.110001 2.29991 0.110001 2.47673V9.14339C0.110001 9.3202 0.175849 9.48977 0.293059 9.6148C0.410269 9.73982 0.569241 9.81006 0.735001 9.81006H9.485C9.65076 9.81006 9.80973 9.73982 9.92694 9.6148C10.0442 9.48977 10.11 9.3202 10.11 9.14339V2.47673C10.11 2.29991 10.0442 2.13034 9.92694 2.00532C9.80973 1.8803 9.65076 1.81006 9.485 1.81006ZM1.11312 2.47673C1.19087 2.47407 1.26758 2.49623 1.33344 2.54037C1.3993 2.58451 1.45131 2.64862 1.4828 2.72448C1.51429 2.80035 1.52384 2.88451 1.51021 2.9662C1.49657 3.04788 1.46039 3.12337 1.40629 3.18298C1.35219 3.24259 1.28264 3.28362 1.20655 3.30081C1.13045 3.318 1.05128 3.31056 0.979172 3.27945C0.907063 3.24835 0.845303 3.19499 0.801802 3.12621C0.758301 3.05743 0.735041 2.97636 0.735001 2.89339C0.734949 2.78516 0.774384 2.68115 0.844958 2.60338C0.915533 2.52561 1.01171 2.48019 1.11312 2.47673ZM1.11312 9.14339C1.03587 9.14339 0.960344 9.11896 0.896106 9.07317C0.831868 9.02739 0.781801 8.96231 0.752236 8.88618C0.72267 8.81004 0.714934 8.72626 0.730007 8.64544C0.745079 8.56461 0.782283 8.49037 0.836912 8.4321C0.891542 8.37383 0.961145 8.33414 1.03692 8.31807C1.11269 8.30199 1.19123 8.31024 1.26261 8.34178C1.33399 8.37331 1.395 8.42672 1.43792 8.49524C1.48084 8.56376 1.50375 8.64432 1.50375 8.72673C1.50375 8.83723 1.46259 8.94321 1.38934 9.02136C1.31608 9.0995 1.21673 9.14339 1.11312 9.14339ZM2.69438 7.21673C2.28714 7.22647 1.89244 7.0662 1.59438 6.77006L1.86313 6.41673C2.09142 6.64982 2.39401 6.78202 2.71 6.78673C3.0225 6.78673 3.19437 6.62006 3.19437 6.42339C3.19437 6.22673 3.01 6.12006 2.5975 6.01673C2.06625 5.88339 1.69438 5.72006 1.69438 5.20339C1.69438 4.68673 2.07562 4.37339 2.63187 4.37339C2.99042 4.36637 3.33837 4.50317 3.60687 4.75673L3.35375 5.12339C3.14896 4.92741 2.88507 4.81624 2.61 4.81006C2.50772 4.79684 2.40469 4.82725 2.32333 4.89468C2.24198 4.9621 2.18889 5.06108 2.17562 5.17006C2.17562 5.39339 2.36625 5.47339 2.77562 5.57339C3.31312 5.70339 3.6725 5.88673 3.6725 6.38673C3.6725 6.88673 3.31 7.21673 2.69438 7.21673ZM5.04125 7.21673C4.63402 7.22647 4.23932 7.0662 3.94125 6.77006L4.21 6.41673C4.43829 6.64982 4.74088 6.78202 5.05688 6.78673C5.36938 6.78673 5.54125 6.62006 5.54125 6.42339C5.54125 6.22673 5.35687 6.12006 4.94437 6.01673C4.41312 5.88339 4.04125 5.72006 4.04125 5.20339C4.04125 4.68673 4.42563 4.37339 4.97875 4.37339C5.3374 4.36571 5.68557 4.5026 5.95375 4.75673L5.70062 5.12339C5.49938 4.92087 5.23643 4.80252 4.96 4.79006C4.85772 4.77684 4.75469 4.80725 4.67333 4.87468C4.59198 4.9421 4.53889 5.04108 4.52562 5.15006C4.52562 5.37339 4.71625 5.45339 5.12562 5.55339C5.66312 5.68339 6.0225 5.86673 6.0225 6.36673C6.0225 6.86673 5.65688 7.21673 5.04125 7.21673ZM6.4725 7.17006V4.42339H7.37875C8.22875 4.42339 8.82875 4.99339 8.82875 5.79673C8.82875 6.60006 8.235 7.17006 7.37875 7.17006H6.4725ZM9.07562 9.14339C8.99837 9.14339 8.92284 9.11896 8.85861 9.07317C8.79437 9.02739 8.7443 8.96231 8.71473 8.88618C8.68517 8.81004 8.67743 8.72626 8.69251 8.64544C8.70758 8.56461 8.74478 8.49037 8.79941 8.4321C8.85404 8.37383 8.92364 8.33414 8.99942 8.31807C9.07519 8.30199 9.15373 8.31024 9.22511 8.34178C9.29649 8.37331 9.3575 8.42672 9.40042 8.49524C9.44334 8.56376 9.46625 8.64432 9.46625 8.72673C9.46625 8.83723 9.42509 8.94321 9.35184 9.02136C9.27858 9.0995 9.17923 9.14339 9.07562 9.14339ZM9.07562 3.31006C8.99837 3.31006 8.92284 3.28562 8.85861 3.23984C8.79437 3.19406 8.7443 3.12898 8.71473 3.05284C8.68517 2.97671 8.67743 2.89293 8.69251 2.81211C8.70758 2.73128 8.74478 2.65704 8.79941 2.59876C8.85404 2.54049 8.92364 2.50081 8.99942 2.48473C9.07519 2.46865 9.15373 2.47691 9.22511 2.50844C9.29649 2.53998 9.3575 2.59338 9.40042 2.6619C9.44334 2.73042 9.46625 2.81098 9.46625 2.89339C9.46625 3.0039 9.42509 3.10988 9.35184 3.18802C9.27858 3.26616 9.17923 3.31006 9.07562 3.31006Z" fill="#6D6E72"/>
<path d="M6.985 4.81187H7.41868C7.52352 4.80367 7.62853 4.82342 7.72727 4.86988C7.82601 4.91634 7.91639 4.98854 7.99285 5.08203C8.06931 5.17552 8.13023 5.28834 8.17187 5.41354C8.21352 5.53874 8.235 5.67368 8.235 5.81006C8.235 5.94644 8.21352 6.08138 8.17187 6.20658C8.13023 6.33178 8.06931 6.4446 7.99285 6.53809C7.91639 6.63159 7.82601 6.70378 7.72727 6.75024C7.62853 6.7967 7.52352 6.81645 7.41868 6.80825H6.985V4.81187Z" fill="#6D6E72"/>
</svg>
