<svg width="11" height="11" viewBox="0 0 11 11" fill="none" xmlns="http://www.w3.org/2000/svg">
<path d="M10.1875 9.18207H9.875V10.0255C9.875 10.1016 9.84408 10.1675 9.78223 10.2232C9.72038 10.2788 9.64714 10.3066 9.5625 10.3066C9.47786 10.3066 9.40462 10.2788 9.34277 10.2232C9.28092 10.1675 9.25 10.1016 9.25 10.0255V9.18207H8.625V10.0255C8.625 10.1016 8.59408 10.1675 8.53223 10.2232C8.47038 10.2788 8.39714 10.3066 8.3125 10.3066C8.22786 10.3066 8.15462 10.2788 8.09277 10.2232C8.03092 10.1675 8 10.1016 8 10.0255V9.18207H7.375V10.0255C7.375 10.1016 7.34408 10.1675 7.28223 10.2232C7.22038 10.2788 7.14714 10.3066 7.0625 10.3066C6.97786 10.3066 6.90462 10.2788 6.84277 10.2232C6.78092 10.1675 6.75 10.1016 6.75 10.0255V9.18207H6.125V10.0255C6.125 10.1016 6.09408 10.1675 6.03223 10.2232C5.97038 10.2788 5.89714 10.3066 5.8125 10.3066C5.72786 10.3066 5.65462 10.2788 5.59277 10.2232C5.53092 10.1675 5.5 10.1016 5.5 10.0255V9.18207H4.875V10.0255C4.875 10.1016 4.84408 10.1675 4.78223 10.2232C4.72038 10.2788 4.64714 10.3066 4.5625 10.3066C4.47786 10.3066 4.40462 10.2788 4.34277 10.2232C4.28092 10.1675 4.25 10.1016 4.25 10.0255V9.18207H3.625V10.0255C3.625 10.1016 3.59408 10.1675 3.53223 10.2232C3.47038 10.2788 3.39714 10.3066 3.3125 10.3066C3.22786 10.3066 3.15462 10.2788 3.09277 10.2232C3.03092 10.1675 3 10.1016 3 10.0255V9.18207H1.75L1.54492 2.51182H10.1875C10.2721 2.51182 10.3454 2.53964 10.4072 2.59529C10.4691 2.65093 10.5 2.71682 10.5 2.79297V8.90093C10.5 8.97707 10.4691 9.04297 10.4072 9.09861C10.3454 9.15425 10.2721 9.18207 10.1875 9.18207ZM9.875 4.12149C9.875 3.96921 9.81478 3.83742 9.69434 3.72614C9.57389 3.61485 9.42578 3.55921 9.25 3.55921H4.875C4.70573 3.55921 4.55924 3.61485 4.43555 3.72614C4.31185 3.83742 4.25 3.96921 4.25 4.12149V7.49521C4.25 7.65336 4.31185 7.78661 4.43555 7.89497C4.55924 8.00332 4.70573 8.0575 4.875 8.0575H9.25C9.42578 8.0575 9.57389 8.00332 9.69434 7.89497C9.81478 7.78661 9.875 7.65336 9.875 7.49521V4.12149ZM8.9375 7.49521H5.1875C5.10286 7.49521 5.02962 7.46739 4.96777 7.41175C4.90592 7.35611 4.875 7.29021 4.875 7.21407V4.40264C4.875 4.3265 4.90592 4.2606 4.96777 4.20496C5.02962 4.14932 5.10286 4.12149 5.1875 4.12149H8.9375C9.02214 4.12149 9.09538 4.14932 9.15723 4.20496C9.21908 4.2606 9.25 4.3265 9.25 4.40264V7.21407C9.25 7.29021 9.21908 7.35611 9.15723 7.41175C9.09538 7.46739 9.02214 7.49521 8.9375 7.49521ZM7.375 4.68378C7.02995 4.68378 6.73535 4.7936 6.49121 5.01325C6.24707 5.23289 6.125 5.49793 6.125 5.80835C6.125 6.11878 6.24707 6.38382 6.49121 6.60346C6.73535 6.82311 7.02995 6.93293 7.375 6.93293C7.72005 6.93293 8.01465 6.82311 8.25879 6.60346C8.50293 6.38382 8.625 6.11878 8.625 5.80835C8.625 5.49793 8.50293 5.23289 8.25879 5.01325C8.01465 4.7936 7.72005 4.68378 7.375 4.68378ZM7.37988 6.37064C7.20736 6.37064 7.05924 6.31646 6.93555 6.20811C6.81185 6.09975 6.75 5.96796 6.75 5.81275C6.75 5.65753 6.81185 5.52428 6.93555 5.413C7.05924 5.30171 7.20736 5.24607 7.37988 5.24607C7.55241 5.24607 7.69889 5.30025 7.81934 5.4086C7.93978 5.51696 8 5.65021 8 5.80835C8 5.9665 7.93978 6.09975 7.81934 6.20811C7.69889 6.31646 7.55241 6.37064 7.37988 6.37064ZM2.15527 8.33362V10.0255C2.15527 10.1016 2.12435 10.1675 2.0625 10.2232C1.93723 10.3359 1.52214 10.3066 1.4375 10.3066C1.35287 10.3066 1.27962 10.2788 1.21777 10.2232C1.15592 10.1675 1.125 10.1016 1.125 10.0255V1.95267H0.8125C0.727865 1.95267 0.654622 1.92485 0.592773 1.86921C0.530924 1.81357 0.5 1.70751 0.5 1.63137C0.5 1.47824 0.530924 1.44917 0.592773 1.39352C0.654622 1.33788 0.727865 1.31006 0.8125 1.31006H1.4375C1.46354 1.31006 1.48307 1.31299 1.49609 1.31884C1.75 1.31006 1.75 1.31006 2.0625 1.31006C2.375 1.31006 2.375 1.56108 2.375 1.63137L2.15527 8.33362Z" fill="#6D6E72"/>
</svg>
