<svg width="11" height="11" viewBox="0 0 11 11" fill="none" xmlns="http://www.w3.org/2000/svg">
<path d="M9.925 1.81006H1.175C1.00924 1.81006 0.850271 1.8803 0.733061 2.00532C0.615851 2.13034 0.550003 2.29991 0.550003 2.47673V9.14339C0.550003 9.3202 0.615851 9.48977 0.733061 9.6148C0.850271 9.73982 1.00924 9.81006 1.175 9.81006H9.925C10.0908 9.81006 10.2497 9.73982 10.3669 9.6148C10.4842 9.48977 10.55 9.3202 10.55 9.14339V2.47673C10.55 2.29991 10.4842 2.13034 10.3669 2.00532C10.2497 1.8803 10.0908 1.81006 9.925 1.81006ZM1.55312 2.47673C1.63087 2.47407 1.70758 2.49623 1.77344 2.54037C1.8393 2.58451 1.89131 2.64862 1.9228 2.72448C1.95429 2.80035 1.96384 2.88451 1.95021 2.9662C1.93657 3.04788 1.90039 3.12337 1.84629 3.18298C1.79219 3.24259 1.72264 3.28362 1.64655 3.30081C1.57045 3.318 1.49128 3.31056 1.41917 3.27945C1.34707 3.24835 1.28531 3.19499 1.2418 3.12621C1.1983 3.05743 1.17504 2.97636 1.175 2.89339C1.17495 2.78516 1.21439 2.68115 1.28496 2.60338C1.35554 2.52561 1.45171 2.48019 1.55312 2.47673ZM1.55312 9.14339C1.47587 9.14339 1.40035 9.11896 1.33611 9.07317C1.27187 9.02739 1.2218 8.96231 1.19224 8.88618C1.16267 8.81004 1.15494 8.72626 1.17001 8.64544C1.18508 8.56461 1.22229 8.49037 1.27691 8.4321C1.33154 8.37383 1.40115 8.33414 1.47692 8.31807C1.55269 8.30199 1.63123 8.31024 1.70261 8.34178C1.77399 8.37331 1.835 8.42672 1.87792 8.49524C1.92084 8.56376 1.94375 8.64432 1.94375 8.72673C1.94375 8.83723 1.90259 8.94321 1.82934 9.02136C1.75608 9.0995 1.65673 9.14339 1.55312 9.14339ZM3.13438 7.21673C2.72714 7.22647 2.33244 7.0662 2.03438 6.77006L2.30313 6.41673C2.53142 6.64982 2.83401 6.78202 3.15 6.78673C3.4625 6.78673 3.63437 6.62006 3.63437 6.42339C3.63437 6.22673 3.45 6.12006 3.0375 6.01673C2.50625 5.88339 2.13438 5.72006 2.13438 5.20339C2.13438 4.68673 2.51562 4.37339 3.07187 4.37339C3.43042 4.36637 3.77837 4.50317 4.04687 4.75673L3.79375 5.12339C3.58896 4.92741 3.32507 4.81624 3.05 4.81006C2.94772 4.79684 2.84469 4.82725 2.76333 4.89468C2.68198 4.9621 2.62889 5.06108 2.61562 5.17006C2.61562 5.39339 2.80625 5.47339 3.21562 5.57339C3.75312 5.70339 4.1125 5.88673 4.1125 6.38673C4.1125 6.88673 3.75 7.21673 3.13438 7.21673ZM5.48125 7.21673C5.07402 7.22647 4.67932 7.0662 4.38125 6.77006L4.65 6.41673C4.87829 6.64982 5.18088 6.78202 5.49688 6.78673C5.80938 6.78673 5.98125 6.62006 5.98125 6.42339C5.98125 6.22673 5.79687 6.12006 5.38437 6.01673C4.85312 5.88339 4.48125 5.72006 4.48125 5.20339C4.48125 4.68673 4.86563 4.37339 5.41875 4.37339C5.7774 4.36571 6.12557 4.5026 6.39375 4.75673L6.14062 5.12339C5.93938 4.92087 5.67643 4.80252 5.4 4.79006C5.29772 4.77684 5.19469 4.80725 5.11333 4.87468C5.03198 4.9421 4.97889 5.04108 4.96562 5.15006C4.96562 5.37339 5.15625 5.45339 5.56562 5.55339C6.10312 5.68339 6.4625 5.86673 6.4625 6.36673C6.4625 6.86673 6.09688 7.21673 5.48125 7.21673ZM6.9125 7.17006V4.42339H7.81875C8.66875 4.42339 9.26875 4.99339 9.26875 5.79673C9.26875 6.60006 8.675 7.17006 7.81875 7.17006H6.9125ZM9.51562 9.14339C9.43837 9.14339 9.36284 9.11896 9.29861 9.07317C9.23437 9.02739 9.1843 8.96231 9.15473 8.88618C9.12517 8.81004 9.11743 8.72626 9.13251 8.64544C9.14758 8.56461 9.18478 8.49037 9.23941 8.4321C9.29404 8.37383 9.36364 8.33414 9.43942 8.31807C9.51519 8.30199 9.59373 8.31024 9.66511 8.34178C9.73649 8.37331 9.7975 8.42672 9.84042 8.49524C9.88334 8.56376 9.90625 8.64432 9.90625 8.72673C9.90625 8.83723 9.86509 8.94321 9.79184 9.02136C9.71858 9.0995 9.61923 9.14339 9.51562 9.14339ZM9.51562 3.31006C9.43837 3.31006 9.36284 3.28562 9.29861 3.23984C9.23437 3.19406 9.1843 3.12898 9.15473 3.05284C9.12517 2.97671 9.11743 2.89293 9.13251 2.81211C9.14758 2.73128 9.18478 2.65704 9.23941 2.59876C9.29404 2.54049 9.36364 2.50081 9.43942 2.48473C9.51519 2.46865 9.59373 2.47691 9.66511 2.50844C9.73649 2.53998 9.7975 2.59338 9.84042 2.6619C9.88334 2.73042 9.90625 2.81098 9.90625 2.89339C9.90625 3.0039 9.86509 3.10988 9.79184 3.18802C9.71858 3.26616 9.61923 3.31006 9.51562 3.31006Z" fill="#6D6E72"/>
<path d="M7.425 4.81187H7.85868C7.96352 4.80367 8.06853 4.82342 8.16727 4.86988C8.26601 4.91634 8.35639 4.98854 8.43285 5.08203C8.50931 5.17552 8.57023 5.28834 8.61187 5.41354C8.65352 5.53874 8.675 5.67368 8.675 5.81006C8.675 5.94644 8.65352 6.08138 8.61187 6.20658C8.57023 6.33178 8.50931 6.4446 8.43285 6.53809C8.35639 6.63159 8.26601 6.70378 8.16727 6.75024C8.06853 6.7967 7.96352 6.81645 7.85868 6.80825H7.425V4.81187Z" fill="#6D6E72"/>
</svg>
