<svg width="11" height="11" viewBox="0 0 11 11" fill="none" xmlns="http://www.w3.org/2000/svg">
<path d="M5.80303 9.04869C5.97039 9.04869 6.10606 8.91302 6.10606 8.74566C6.10606 8.5783 5.97039 8.44263 5.80303 8.44263C5.63567 8.44263 5.5 8.5783 5.5 8.74566C5.5 8.91302 5.63567 9.04869 5.80303 9.04869Z" fill="#6D6E72"/>
<path d="M5.19705 1.77588H5.50007V2.07891H5.19705V1.77588Z" fill="#6D6E72"/>
<path d="M3.98477 1.77588H4.28781V2.07891H3.98477V1.77588Z" fill="#6D6E72"/>
<path d="M4.59091 3.59424H6.10606V5.10939H4.59091V3.59424Z" fill="#6D6E72"/>
<path d="M6.71205 2.98804H3.98477V5.71531H6.71205V2.98804ZM6.40902 5.26076C6.40902 5.30096 6.39305 5.33949 6.36464 5.3679C6.33623 5.39632 6.29768 5.41228 6.2575 5.41228H4.43932C4.39914 5.41228 4.3606 5.39632 4.33218 5.3679C4.30376 5.33949 4.28781 5.30096 4.28781 5.26076V3.44258C4.28781 3.4024 4.30376 3.36386 4.33218 3.33545C4.3606 3.30704 4.39914 3.29107 4.43932 3.29107H6.2575C6.29768 3.29107 6.33623 3.30704 6.36464 3.33545C6.39305 3.36386 6.40902 3.4024 6.40902 3.44258V5.26076Z" fill="#6D6E72"/>
<path d="M6.40909 1.77588H6.71212V2.07891H6.40909V1.77588Z" fill="#6D6E72"/>
<path d="M7.62114 4.65479H7.92417V6.01842H7.62114V4.65479Z" fill="#6D6E72"/>
<path d="M4.89386 7.23047H8.83326V7.5335H4.89386V7.23047Z" fill="#6D6E72"/>
<path d="M3.98477 7.23047H4.59084V7.5335H3.98477V7.23047Z" fill="#6D6E72"/>
<path d="M8.83341 4.65479H9.13644V6.01842H8.83341V4.65479Z" fill="#6D6E72"/>
<path d="M7.62114 2.07886H7.92417V4.35158H7.62114V2.07886Z" fill="#6D6E72"/>
<path d="M8.83341 2.07886H9.13644V4.35158H8.83341V2.07886Z" fill="#6D6E72"/>
<path d="M9.89394 0.866943H1.56061C1.52042 0.866943 1.48188 0.882907 1.45347 0.911322C1.42505 0.939736 1.40909 0.978274 1.40909 1.01846V2.68513H0.954545V2.98815H1.40909V3.29119H1.10606C1.06588 3.29119 1.02734 3.30715 0.998923 3.33556C0.970508 3.36398 0.954545 3.40252 0.954545 3.4427V4.65482C0.954545 4.69501 0.970508 4.73354 0.998923 4.76196C1.02734 4.79037 1.06588 4.80633 1.10606 4.80633H1.40909V5.10937H0.954545V5.4124H1.40909V9.80633C1.40909 9.84652 1.42505 9.88506 1.45347 9.91349C1.48188 9.94185 1.52042 9.95785 1.56061 9.95785H9.89394C9.93413 9.95785 9.97266 9.94185 10.0011 9.91349C10.0295 9.88506 10.0455 9.84652 10.0455 9.80633V1.01846C10.0455 0.978274 10.0295 0.939736 10.0011 0.911322C9.97266 0.882907 9.93413 0.866943 9.89394 0.866943ZM7.31818 1.92755C7.31818 1.88736 7.33414 1.84883 7.36256 1.82042C7.39097 1.792 7.42951 1.77603 7.4697 1.77603H7.62121V1.473H7.92424V1.77603H8.07575C8.11594 1.77603 8.15448 1.792 8.18289 1.82042C8.21131 1.84883 8.22727 1.88736 8.22727 1.92755V6.16997C8.22727 6.21016 8.21131 6.2487 8.18289 6.27711C8.15448 6.30552 8.11594 6.32149 8.07575 6.32149H7.92424V6.62452H7.62121V6.32149H7.4697C7.42951 6.32149 7.39097 6.30552 7.36256 6.27711C7.33414 6.2487 7.31818 6.21016 7.31818 6.16997V1.92755ZM6.10606 1.62452C6.10606 1.58434 6.12203 1.5458 6.15044 1.51738C6.17885 1.48897 6.21739 1.473 6.25757 1.473H6.86364C6.90382 1.473 6.94236 1.48897 6.97077 1.51738C6.99919 1.5458 7.01515 1.58434 7.01515 1.62452V2.23058C7.01515 2.27076 6.99919 2.30931 6.97077 2.33772C6.94236 2.36613 6.90382 2.3821 6.86364 2.3821H6.25757C6.21739 2.3821 6.17885 2.36613 6.15044 2.33772C6.12203 2.30931 6.10606 2.27076 6.10606 2.23058V1.62452ZM4.89394 1.62452C4.89394 1.58434 4.9099 1.5458 4.93832 1.51738C4.96673 1.48897 5.00527 1.473 5.04545 1.473H5.65152C5.6917 1.473 5.73024 1.48897 5.75865 1.51738C5.78706 1.5458 5.80303 1.58434 5.80303 1.62452V2.23058C5.80303 2.27076 5.78706 2.30931 5.75865 2.33772C5.73024 2.36613 5.6917 2.3821 5.65152 2.3821H5.04545C5.00527 2.3821 4.96673 2.36613 4.93832 2.33772C4.9099 2.30931 4.89394 2.27076 4.89394 2.23058V1.62452ZM3.68182 1.62452C3.68182 1.58434 3.69778 1.5458 3.7262 1.51738C3.75461 1.48897 3.79314 1.473 3.83334 1.473H4.43939C4.47958 1.473 4.51812 1.48897 4.54653 1.51738C4.57494 1.5458 4.59091 1.58434 4.59091 1.62452V2.23058C4.59091 2.27076 4.57494 2.30931 4.54653 2.33772C4.51812 2.36613 4.47958 2.3821 4.43939 2.3821H3.83334C3.79314 2.3821 3.75461 2.36613 3.7262 2.33772C3.69778 2.30931 3.68182 2.27076 3.68182 2.23058V1.62452ZM3.68182 2.83664C3.68182 2.79645 3.69778 2.75792 3.7262 2.72951C3.75461 2.70109 3.79314 2.68513 3.83334 2.68513H6.86364C6.90382 2.68513 6.94236 2.70109 6.97077 2.72951C6.99919 2.75792 7.01515 2.79645 7.01515 2.83664V5.86694C7.01515 5.90712 6.99919 5.94567 6.97077 5.97408C6.94236 6.0025 6.90382 6.01846 6.86364 6.01846H3.83334C3.79314 6.01846 3.75461 6.0025 3.7262 5.97408C3.69778 5.94567 3.68182 5.90712 3.68182 5.86694V2.83664ZM6.71212 6.32149V6.62452H6.40909V6.32149H6.71212ZM6.10606 6.32149V6.62452H5.80303V6.32149H6.10606ZM5.5 6.32149V6.62452H5.19697V6.32149H5.5ZM4.89394 6.32149V6.62452H4.59091V6.32149H4.89394ZM4.28788 6.32149V6.62452H3.98484V6.32149H4.28788ZM1.71212 1.77603H2.31818V2.07906H1.71212V1.77603ZM1.71212 2.98815H2.31818V5.10937H1.71212V4.80633H1.86364C1.90382 4.80633 1.94236 4.79037 1.97077 4.76196C1.99919 4.73354 2.01515 4.69501 2.01515 4.65482V3.4427C2.01515 3.40252 1.99919 3.36398 1.97077 3.33556C1.94236 3.30715 1.90382 3.29119 1.86364 3.29119H1.71212V2.98815ZM2.31818 6.01846V6.32149H1.71212V6.01846H2.31818ZM1.25757 4.50331V3.59422H1.71212V4.50331H1.25757ZM2.31818 9.20028H2.01515V8.89724H2.31818V9.20028ZM2.31818 8.59422H2.01515V8.29119H2.31818V8.59422ZM2.92425 9.20028H2.62121V8.89724H2.92425V9.20028ZM2.92425 8.59422H2.62121V8.29119H2.92425V8.59422ZM2.92425 7.53361H1.71212V7.23058H2.92425V7.53361ZM3.37879 4.80633H2.92425V4.50331H3.37879V4.80633ZM3.37879 4.20028H2.92425V3.89724H3.37879V4.20028ZM3.37879 3.59422H2.92425V3.29119H3.37879V3.59422ZM3.37879 2.98815H2.92425V2.68513H3.37879V2.98815ZM3.37879 2.3821H2.92425V2.07906H3.37879V2.3821ZM3.37879 1.77603H2.92425V1.473H3.37879V1.77603ZM4.89394 9.20028H3.5303V8.89724H4.89394V9.20028ZM4.89394 8.59422H3.5303V8.29119H4.89394V8.59422ZM5.80303 9.35179C5.68316 9.35179 5.56599 9.31624 5.46632 9.24965C5.36665 9.18306 5.28897 9.08841 5.2431 8.97766C5.19724 8.86692 5.18523 8.74506 5.20862 8.6275C5.232 8.50993 5.28972 8.40194 5.37448 8.31718C5.45924 8.23242 5.56723 8.1747 5.68479 8.15132C5.80235 8.12793 5.92422 8.13993 6.03496 8.18581C6.1457 8.23168 6.24035 8.30935 6.30695 8.40903C6.37354 8.50869 6.40909 8.62586 6.40909 8.74573C6.40891 8.90642 6.345 9.06046 6.23138 9.17408C6.11776 9.2877 5.96371 9.35162 5.80303 9.35179ZM7.01515 9.20028H6.71212V8.89724H7.01515V9.20028ZM7.01515 8.59422H6.71212V8.29119H7.01515V8.59422ZM7.62121 9.20028H7.31818V8.89724H7.62121V9.20028ZM7.62121 8.59422H7.31818V8.29119H7.62121V8.59422ZM9.43939 8.59422H9.13636V8.89724H9.43939V9.20028H9.13636C9.13636 9.24046 9.1204 9.279 9.09198 9.30742C9.06357 9.33583 9.02504 9.35179 8.98484 9.35179H8.37879C8.3386 9.35179 8.30006 9.33583 8.27165 9.30742C8.24324 9.279 8.22727 9.24046 8.22727 9.20028H7.92424V8.89724H8.22727V8.59422H7.92424V8.29119H8.22727C8.22727 8.251 8.24324 8.21246 8.27165 8.18405C8.30006 8.15563 8.3386 8.13967 8.37879 8.13967H8.98484C9.02504 8.13967 9.06357 8.15563 9.09198 8.18405C9.1204 8.21246 9.13636 8.251 9.13636 8.29119H9.43939V8.59422ZM9.43939 7.53361H9.13636V7.68512C9.13636 7.72531 9.1204 7.76385 9.09198 7.79226C9.06357 7.82068 9.02504 7.83664 8.98484 7.83664H3.83334C3.79314 7.83664 3.75461 7.82068 3.7262 7.79226C3.69778 7.76385 3.68182 7.72531 3.68182 7.68512V7.07906C3.68182 7.03888 3.69778 7.00034 3.7262 6.97192C3.75461 6.94352 3.79314 6.92755 3.83334 6.92755H8.98484C9.02504 6.92755 9.06357 6.94352 9.09198 6.97192C9.1204 7.00034 9.13636 7.03888 9.13636 7.07906V7.23058H9.43939V7.53361ZM9.43939 6.16997C9.43939 6.21016 9.42343 6.2487 9.39502 6.27711C9.3666 6.30552 9.32806 6.32149 9.28788 6.32149H9.13636V6.62452H8.83334V6.32149H8.68182C8.64164 6.32149 8.6031 6.30552 8.57468 6.27711C8.54626 6.2487 8.5303 6.21016 8.5303 6.16997V1.92755C8.5303 1.88736 8.54626 1.84883 8.57468 1.82042C8.6031 1.792 8.64164 1.77603 8.68182 1.77603H8.83334V1.473H9.13636V1.77603H9.28788C9.32806 1.77603 9.3666 1.792 9.39502 1.82042C9.42343 1.84883 9.43939 1.88736 9.43939 1.92755V6.16997Z" fill="#6D6E72"/>
<path d="M8.53023 8.44263H8.83326V9.04869H8.53023V8.44263Z" fill="#6D6E72"/>
</svg>
