<svg width="13" height="13" viewBox="0 0 13 13" fill="none" xmlns="http://www.w3.org/2000/svg">
<path d="M3.36656 11.0356L4.0414 7.85023L1.67944 5.66761C1.67944 5.66761 1.34201 5.37267 1.4545 4.95974C1.56698 4.54681 2.01687 4.54681 2.01687 4.54681L5.16614 4.25186L6.40336 1.2434C6.40336 1.2434 6.57206 0.771484 6.96574 0.771484C7.3594 0.771484 7.5281 1.2434 7.5281 1.2434L8.76532 4.25186L12.0271 4.54681C12.0271 4.54681 12.3645 4.60581 12.477 4.95974C12.5894 5.31368 12.3645 5.54964 12.3645 5.54964L9.89006 7.85023L10.5649 11.1536C10.5649 11.1536 10.6774 11.5076 10.3962 11.7435C10.115 11.9795 9.66512 11.7435 9.66512 11.7435L6.96574 10.0328L4.32259 11.7435C4.32259 11.7435 3.92893 11.9795 3.5915 11.7435C3.25408 11.5076 3.36656 11.0356 3.36656 11.0356Z" fill="#FF8A00"/>
</svg>
