<svg width="13" height="13" viewBox="0 0 13 13" fill="none" xmlns="http://www.w3.org/2000/svg">
<path d="M2.86655 11.0356L3.5414 7.85023L1.17944 5.66761C1.17944 5.66761 0.842008 5.37267 0.95449 4.95974C1.06697 4.54681 1.51686 4.54681 1.51686 4.54681L4.66614 4.25186L5.90336 1.2434C5.90336 1.2434 6.07206 0.771484 6.46573 0.771484C6.8594 0.771484 7.0281 1.2434 7.0281 1.2434L8.26532 4.25186L11.5271 4.54681C11.5271 4.54681 11.8645 4.60581 11.977 4.95974C12.0894 5.31368 11.8645 5.54964 11.8645 5.54964L9.39006 7.85023L10.0649 11.1536C10.0649 11.1536 10.1773 11.5076 9.89619 11.7435C9.615 11.9795 9.16511 11.7435 9.16511 11.7435L6.46573 10.0328L3.82258 11.7435C3.82258 11.7435 3.42893 11.9795 3.0915 11.7435C2.75408 11.5076 2.86655 11.0356 2.86655 11.0356Z" fill="#FF8A00"/>
</svg>
