<svg width="21" height="21" viewBox="0 0 21 21" fill="none" xmlns="http://www.w3.org/2000/svg">
<path d="M1.5 2.59V18.59C1.5 19.1423 1.94772 19.59 2.5 19.59H10.5C11.0523 19.59 11.5 19.1423 11.5 18.59V2.59C11.5 2.03771 11.0523 1.59 10.5 1.59H2.5C1.94772 1.59 1.5 2.03771 1.5 2.59Z" stroke="#111111"/>
<path d="M13.5 3.59H17.5C18.6046 3.59 19.5 4.48543 19.5 5.59V13.59C19.5 14.6946 18.6046 15.59 17.5 15.59H13.5" stroke="#111111"/>
<path d="M17 19.09C17.2761 19.09 17.5 18.8661 17.5 18.59C17.5 18.3139 17.2761 18.09 17 18.09V19.09ZM13.5 19.09H17V18.09H13.5V19.09Z" fill="#111111"/>
<path d="M6.5 6.59C7.05228 6.59 7.5 6.14228 7.5 5.59C7.5 5.03771 7.05228 4.59 6.5 4.59C5.94772 4.59 5.5 5.03771 5.5 5.59C5.5 6.14228 5.94772 6.59 6.5 6.59Z" fill="#111111"/>
<path d="M6.5 10.59C7.05228 10.59 7.5 10.1423 7.5 9.59C7.5 9.03771 7.05228 8.59 6.5 8.59C5.94772 8.59 5.5 9.03771 5.5 9.59C5.5 10.1423 5.94772 10.59 6.5 10.59Z" fill="#111111"/>
</svg>
