<svg width="11" height="11" viewBox="0 0 11 11" fill="none" xmlns="http://www.w3.org/2000/svg">
<path d="M10.5775 9.18207H10.265V10.0255C10.265 10.1016 10.2341 10.1675 10.1722 10.2232C10.1104 10.2788 10.0372 10.3066 9.95251 10.3066C9.86787 10.3066 9.79463 10.2788 9.73278 10.2232C9.67093 10.1675 9.64001 10.1016 9.64001 10.0255V9.18207H9.01501V10.0255C9.01501 10.1016 8.9841 10.1675 8.92225 10.2232C8.8604 10.2788 8.78715 10.3066 8.70251 10.3066C8.61787 10.3066 8.54463 10.2788 8.48278 10.2232C8.42093 10.1675 8.39001 10.1016 8.39001 10.0255V9.18207H7.76501V10.0255C7.76501 10.1016 7.73409 10.1675 7.67224 10.2232C7.61039 10.2788 7.53715 10.3066 7.45251 10.3066C7.36787 10.3066 7.29463 10.2788 7.23278 10.2232C7.17093 10.1675 7.14001 10.1016 7.14001 10.0255V9.18207H6.51501V10.0255C6.51501 10.1016 6.48409 10.1675 6.42224 10.2232C6.36039 10.2788 6.28715 10.3066 6.20251 10.3066C6.11787 10.3066 6.04463 10.2788 5.98278 10.2232C5.92093 10.1675 5.89001 10.1016 5.89001 10.0255V9.18207H5.26501V10.0255C5.26501 10.1016 5.23409 10.1675 5.17224 10.2232C5.11039 10.2788 5.03715 10.3066 4.95251 10.3066C4.86787 10.3066 4.79463 10.2788 4.73278 10.2232C4.67093 10.1675 4.64001 10.1016 4.64001 10.0255V9.18207H4.01501V10.0255C4.01501 10.1016 3.98409 10.1675 3.92224 10.2232C3.86039 10.2788 3.78715 10.3066 3.70251 10.3066C3.61787 10.3066 3.54463 10.2788 3.48278 10.2232C3.42093 10.1675 3.39001 10.1016 3.39001 10.0255V9.18207H2.14001L1.93493 2.51182H10.5775C10.6622 2.51182 10.7354 2.53964 10.7972 2.59529C10.8591 2.65093 10.89 2.71682 10.89 2.79297V8.90093C10.89 8.97707 10.8591 9.04297 10.7972 9.09861C10.7354 9.15425 10.6622 9.18207 10.5775 9.18207ZM10.265 4.12149C10.265 3.96921 10.2048 3.83742 10.0844 3.72614C9.9639 3.61485 9.81579 3.55921 9.64001 3.55921H5.26501C5.09574 3.55921 4.94925 3.61485 4.82556 3.72614C4.70186 3.83742 4.64001 3.96921 4.64001 4.12149V7.49521C4.64001 7.65336 4.70186 7.78661 4.82556 7.89497C4.94925 8.00332 5.09574 8.0575 5.26501 8.0575H9.64001C9.81579 8.0575 9.9639 8.00332 10.0844 7.89497C10.2048 7.78661 10.265 7.65336 10.265 7.49521V4.12149ZM9.32751 7.49521H5.57751C5.49287 7.49521 5.41963 7.46739 5.35778 7.41175C5.29593 7.35611 5.26501 7.29021 5.26501 7.21407V4.40264C5.26501 4.3265 5.29593 4.2606 5.35778 4.20496C5.41963 4.14932 5.49287 4.12149 5.57751 4.12149H9.32751C9.41215 4.12149 9.4854 4.14932 9.54725 4.20496C9.6091 4.2606 9.64001 4.3265 9.64001 4.40264V7.21407C9.64001 7.29021 9.6091 7.35611 9.54725 7.41175C9.4854 7.46739 9.41215 7.49521 9.32751 7.49521ZM7.76501 4.68378C7.41996 4.68378 7.12536 4.7936 6.88122 5.01325C6.63708 5.23289 6.51501 5.49793 6.51501 5.80835C6.51501 6.11878 6.63708 6.38382 6.88122 6.60346C7.12536 6.82311 7.41996 6.93293 7.76501 6.93293C8.11006 6.93293 8.40466 6.82311 8.6488 6.60346C8.89294 6.38382 9.01501 6.11878 9.01501 5.80835C9.01501 5.49793 8.89294 5.23289 8.6488 5.01325C8.40466 4.7936 8.11006 4.68378 7.76501 4.68378ZM7.76989 6.37064C7.59737 6.37064 7.44925 6.31646 7.32556 6.20811C7.20186 6.09975 7.14001 5.96796 7.14001 5.81275C7.14001 5.65753 7.20186 5.52428 7.32556 5.413C7.44925 5.30171 7.59737 5.24607 7.76989 5.24607C7.94242 5.24607 8.0889 5.30025 8.20935 5.4086C8.32979 5.51696 8.39001 5.65021 8.39001 5.80835C8.39001 5.9665 8.32979 6.09975 8.20935 6.20811C8.0889 6.31646 7.94242 6.37064 7.76989 6.37064ZM2.54528 8.33362V10.0255C2.54528 10.1016 2.51436 10.1675 2.45251 10.2232C2.32724 10.3359 1.91215 10.3066 1.82751 10.3066C1.74288 10.3066 1.66964 10.2788 1.60779 10.2232C1.54594 10.1675 1.51501 10.1016 1.51501 10.0255V1.95267H1.20251C1.11788 1.95267 1.04464 1.92485 0.982788 1.86921C0.920939 1.81357 0.890015 1.70751 0.890015 1.63137C0.890015 1.47824 0.920939 1.44917 0.982788 1.39352C1.04464 1.33788 1.11788 1.31006 1.20251 1.31006H1.82751C1.85356 1.31006 1.87309 1.31299 1.88611 1.31884C2.14001 1.31006 2.14001 1.31006 2.45251 1.31006C2.76501 1.31006 2.76501 1.56108 2.76501 1.63137L2.54528 8.33362Z" fill="#6D6E72"/>
</svg>
