<svg width="13" height="13" viewBox="0 0 13 13" fill="none" xmlns="http://www.w3.org/2000/svg">
<path d="M3.36657 11.0356L4.04141 7.85023L1.67945 5.66761C1.67945 5.66761 1.34202 5.37267 1.45451 4.95974C1.56699 4.54681 2.01688 4.54681 2.01688 4.54681L5.16615 4.25186L6.40337 1.2434C6.40337 1.2434 6.57207 0.771484 6.96575 0.771484C7.35941 0.771484 7.52811 1.2434 7.52811 1.2434L8.76533 4.25186L12.0271 4.54681C12.0271 4.54681 12.3645 4.60581 12.477 4.95974C12.5894 5.31368 12.3645 5.54964 12.3645 5.54964L9.89007 7.85023L10.5649 11.1536C10.5649 11.1536 10.6774 11.5076 10.3962 11.7435C10.115 11.9795 9.66513 11.7435 9.66513 11.7435L6.96575 10.0328L4.3226 11.7435C4.3226 11.7435 3.92894 11.9795 3.59151 11.7435C3.25409 11.5076 3.36657 11.0356 3.36657 11.0356Z" fill="#FF8A00"/>
</svg>
