<svg width="13" height="13" viewBox="0 0 13 13" fill="none" xmlns="http://www.w3.org/2000/svg">
<path d="M4.76627 11.9935C4.83165 12.1235 4.80518 12.2808 4.70088 12.3823C4.59658 12.4837 4.43854 12.5058 4.31045 12.4368C3.14612 11.8098 2.36309 11.1758 1.92448 10.4573C1.47608 9.72284 1.41187 8.94118 1.59742 8.08311L4.76627 11.9935ZM4.76627 11.9935C4.43001 11.325 4.36784 10.8338 4.42947 10.4391C4.49212 10.0378 4.68876 9.69211 4.95587 9.31911C5.13854 9.06398 5.28271 8.81018 5.39562 8.57718M4.76627 11.9935L5.39562 8.57718ZM5.39562 8.57718C5.40788 8.83224 5.3957 9.14391 5.33756 9.51684C5.31504 9.66124 5.38922 9.80344 5.52053 9.86764C5.65184 9.93184 5.80964 9.90298 5.90976 9.79651C6.39369 9.28184 6.6749 8.47618 6.8233 7.77058C6.89534 7.42806 6.93903 7.09491 6.95784 6.80659C8.32699 8.10471 8.82059 10.3194 7.92506 11.9855C7.85532 12.1152 7.87899 12.2753 7.98326 12.3793C8.08752 12.4833 8.24766 12.5066 8.37719 12.4365C9.87659 11.626 10.7526 10.6936 11.1789 9.71564C11.6059 8.73604 11.5631 7.75344 11.3061 6.88C11.0503 6.01048 10.5797 5.23786 10.1306 4.65285C9.68506 4.0725 9.24032 3.65071 9.01226 3.49182C8.88806 3.4053 8.72119 3.4133 8.60586 3.5113C8.49052 3.60929 8.45572 3.77268 8.52099 3.9092C8.54246 3.95398 8.56066 4.00311 8.57559 4.05599C8.23199 3.38281 7.7445 2.8152 7.28244 2.37437C6.8868 1.99689 6.49841 1.70146 6.20904 1.50031C6.06409 1.39956 5.9433 1.32198 5.85795 1.26915C5.81526 1.24272 5.78138 1.22245 5.75773 1.20853L5.73006 1.19243L5.72229 1.18799L5.71998 1.18668L5.71923 1.18625C5.71912 1.18619 5.71874 1.18598 5.55557 1.47664L5.71923 1.18625C5.6172 1.12898 5.49213 1.12911 5.39048 1.18706C5.28884 1.24501 5.22501 1.35201 5.22232 1.46898C5.18624 3.0384 4.66213 4.54467 3.84127 5.73908C3.74703 5.39188 3.59839 5.06393 3.37845 4.68152C3.30528 4.55429 3.15749 4.4899 3.01448 4.52293C2.87147 4.55596 2.7669 4.67866 2.75694 4.8251C2.72169 5.34339 2.51972 5.82556 2.26995 6.35826C2.24239 6.41704 2.21417 6.47656 2.18559 6.53683C1.96298 7.00638 1.71888 7.52131 1.59742 8.08311L5.39562 8.57718Z" fill="#FDD835"/>
<path d="M4.76627 11.9935C4.83165 12.1235 4.80518 12.2808 4.70088 12.3823C4.59658 12.4837 4.43854 12.5058 4.31045 12.4368C3.14612 11.8098 2.36309 11.1758 1.92448 10.4573C1.47608 9.72284 1.41187 8.94118 1.59742 8.08311M4.76627 11.9935L1.59742 8.08311M4.76627 11.9935C4.43001 11.325 4.36784 10.8338 4.42947 10.4391C4.49212 10.0378 4.68876 9.69211 4.95587 9.31911C5.13854 9.06398 5.28271 8.81018 5.39562 8.57718M4.76627 11.9935L5.39562 8.57718M1.59742 8.08311C1.71888 7.52131 1.96298 7.00638 2.18559 6.53683C2.21417 6.47656 2.24239 6.41704 2.26995 6.35826C2.51972 5.82556 2.72169 5.34339 2.75694 4.8251C2.7669 4.67866 2.87147 4.55596 3.01448 4.52293C3.15749 4.4899 3.30528 4.55429 3.37845 4.68152C3.59839 5.06393 3.74703 5.39188 3.84127 5.73908C4.66213 4.54467 5.18624 3.0384 5.22232 1.46898C5.22501 1.35201 5.28884 1.24501 5.39048 1.18706C5.49213 1.12911 5.6172 1.12898 5.71923 1.18625M1.59742 8.08311L5.39562 8.57718M5.39562 8.57718C5.40788 8.83224 5.3957 9.14391 5.33756 9.51684C5.31504 9.66124 5.38922 9.80344 5.52053 9.86764C5.65184 9.93184 5.80964 9.90298 5.90976 9.79651C6.39369 9.28184 6.6749 8.47618 6.8233 7.77058C6.89534 7.42806 6.93903 7.09491 6.95784 6.80659C8.32699 8.10471 8.82059 10.3194 7.92506 11.9855C7.85532 12.1152 7.87899 12.2753 7.98326 12.3793C8.08752 12.4833 8.24766 12.5066 8.37719 12.4365C9.87659 11.626 10.7526 10.6936 11.1789 9.71564C11.6059 8.73604 11.5631 7.75344 11.3061 6.88C11.0503 6.01048 10.5797 5.23786 10.1306 4.65285C9.68506 4.0725 9.24032 3.65071 9.01226 3.49182C8.88806 3.4053 8.72119 3.4133 8.60586 3.5113C8.49052 3.60929 8.45572 3.77268 8.52099 3.9092C8.54246 3.95398 8.56066 4.00311 8.57559 4.05599C8.23199 3.38281 7.7445 2.8152 7.28244 2.37437C6.8868 1.99689 6.49841 1.70146 6.20904 1.50031C6.06409 1.39956 5.9433 1.32198 5.85795 1.26915C5.81526 1.24272 5.78138 1.22245 5.75773 1.20853L5.73006 1.19243L5.72229 1.18799L5.71998 1.18668L5.71923 1.18625M5.71923 1.18625C5.71912 1.18619 5.71874 1.18598 5.55557 1.47664L5.71923 1.18625Z" stroke="#FF3C53" stroke-width="0.666667" stroke-linejoin="round"/>
</svg>
