<svg width="11" height="11" viewBox="0 0 11 11" fill="none" xmlns="http://www.w3.org/2000/svg">
<path d="M10.6675 9.18207H10.355V10.0255C10.355 10.1016 10.3241 10.1675 10.2622 10.2232C10.2004 10.2788 10.1271 10.3066 10.0425 10.3066C9.95784 10.3066 9.8846 10.2788 9.82275 10.2232C9.7609 10.1675 9.72998 10.1016 9.72998 10.0255V9.18207H9.10498V10.0255C9.10498 10.1016 9.07406 10.1675 9.01221 10.2232C8.95036 10.2788 8.87712 10.3066 8.79248 10.3066C8.70784 10.3066 8.6346 10.2788 8.57275 10.2232C8.5109 10.1675 8.47998 10.1016 8.47998 10.0255V9.18207H7.85498V10.0255C7.85498 10.1016 7.82406 10.1675 7.76221 10.2232C7.70036 10.2788 7.62712 10.3066 7.54248 10.3066C7.45784 10.3066 7.3846 10.2788 7.32275 10.2232C7.2609 10.1675 7.22998 10.1016 7.22998 10.0255V9.18207H6.60498V10.0255C6.60498 10.1016 6.57406 10.1675 6.51221 10.2232C6.45036 10.2788 6.37712 10.3066 6.29248 10.3066C6.20784 10.3066 6.1346 10.2788 6.07275 10.2232C6.0109 10.1675 5.97998 10.1016 5.97998 10.0255V9.18207H5.35498V10.0255C5.35498 10.1016 5.32406 10.1675 5.26221 10.2232C5.20036 10.2788 5.12712 10.3066 5.04248 10.3066C4.95784 10.3066 4.8846 10.2788 4.82275 10.2232C4.7609 10.1675 4.72998 10.1016 4.72998 10.0255V9.18207H4.10498V10.0255C4.10498 10.1016 4.07406 10.1675 4.01221 10.2232C3.95036 10.2788 3.87712 10.3066 3.79248 10.3066C3.70784 10.3066 3.6346 10.2788 3.57275 10.2232C3.5109 10.1675 3.47998 10.1016 3.47998 10.0255V9.18207H2.22998L2.0249 2.51182H10.6675C10.7521 2.51182 10.8254 2.53964 10.8872 2.59529C10.9491 2.65093 10.98 2.71682 10.98 2.79297V8.90093C10.98 8.97707 10.9491 9.04297 10.8872 9.09861C10.8254 9.15425 10.7521 9.18207 10.6675 9.18207ZM10.355 4.12149C10.355 3.96921 10.2948 3.83742 10.1743 3.72614C10.0539 3.61485 9.90576 3.55921 9.72998 3.55921H5.35498C5.18571 3.55921 5.03922 3.61485 4.91553 3.72614C4.79183 3.83742 4.72998 3.96921 4.72998 4.12149V7.49521C4.72998 7.65336 4.79183 7.78661 4.91553 7.89497C5.03922 8.00332 5.18571 8.0575 5.35498 8.0575H9.72998C9.90576 8.0575 10.0539 8.00332 10.1743 7.89497C10.2948 7.78661 10.355 7.65336 10.355 7.49521V4.12149ZM9.41748 7.49521H5.66748C5.58284 7.49521 5.5096 7.46739 5.44775 7.41175C5.3859 7.35611 5.35498 7.29021 5.35498 7.21407V4.40264C5.35498 4.3265 5.3859 4.2606 5.44775 4.20496C5.5096 4.14932 5.58284 4.12149 5.66748 4.12149H9.41748C9.50212 4.12149 9.57536 4.14932 9.63721 4.20496C9.69906 4.2606 9.72998 4.3265 9.72998 4.40264V7.21407C9.72998 7.29021 9.69906 7.35611 9.63721 7.41175C9.57536 7.46739 9.50212 7.49521 9.41748 7.49521ZM7.85498 4.68378C7.50993 4.68378 7.21533 4.7936 6.97119 5.01325C6.72705 5.23289 6.60498 5.49793 6.60498 5.80835C6.60498 6.11878 6.72705 6.38382 6.97119 6.60346C7.21533 6.82311 7.50993 6.93293 7.85498 6.93293C8.20003 6.93293 8.49463 6.82311 8.73877 6.60346C8.98291 6.38382 9.10498 6.11878 9.10498 5.80835C9.10498 5.49793 8.98291 5.23289 8.73877 5.01325C8.49463 4.7936 8.20003 4.68378 7.85498 4.68378ZM7.85986 6.37064C7.68734 6.37064 7.53922 6.31646 7.41553 6.20811C7.29183 6.09975 7.22998 5.96796 7.22998 5.81275C7.22998 5.65753 7.29183 5.52428 7.41553 5.413C7.53922 5.30171 7.68734 5.24607 7.85986 5.24607C8.03239 5.24607 8.17887 5.30025 8.29932 5.4086C8.41976 5.51696 8.47998 5.65021 8.47998 5.80835C8.47998 5.9665 8.41976 6.09975 8.29932 6.20811C8.17887 6.31646 8.03239 6.37064 7.85986 6.37064ZM2.63525 8.33362V10.0255C2.63525 10.1016 2.60433 10.1675 2.54248 10.2232C2.41721 10.3359 2.00212 10.3066 1.91748 10.3066C1.83285 10.3066 1.7596 10.2788 1.69775 10.2232C1.6359 10.1675 1.60498 10.1016 1.60498 10.0255V1.95267H1.29248C1.20785 1.95267 1.1346 1.92485 1.07275 1.86921C1.0109 1.81357 0.97998 1.70751 0.97998 1.63137C0.97998 1.47824 1.0109 1.44917 1.07275 1.39352C1.1346 1.33788 1.20785 1.31006 1.29248 1.31006H1.91748C1.94352 1.31006 1.96305 1.31299 1.97607 1.31884C2.22998 1.31006 2.22998 1.31006 2.54248 1.31006C2.85498 1.31006 2.85498 1.56108 2.85498 1.63137L2.63525 8.33362Z" fill="#6D6E72"/>
</svg>
