<svg width="23" height="15" viewBox="0 0 23 15" fill="none" xmlns="http://www.w3.org/2000/svg">
<path d="M18.1525 4.31006H15.965V2.56006C15.965 1.59756 15.1775 0.810059 14.215 0.810059H3.715C2.7525 0.810059 1.965 1.59756 1.965 2.56006V10.4351C1.965 11.3976 2.7525 12.1851 3.715 12.1851C3.715 13.6376 4.8875 14.8101 6.34 14.8101C7.7925 14.8101 8.965 13.6376 8.965 12.1851H14.215C14.215 13.6376 15.3875 14.8101 16.84 14.8101C18.2925 14.8101 19.465 13.6376 19.465 12.1851H20.34C20.8212 12.1851 21.215 11.7913 21.215 11.3101V8.39631C21.215 8.02006 21.0925 7.65256 20.865 7.34631L18.8525 4.66006C18.6862 4.44131 18.4237 4.31006 18.1525 4.31006ZM6.34 13.0601C5.85875 13.0601 5.465 12.6663 5.465 12.1851C5.465 11.7038 5.85875 11.3101 6.34 11.3101C6.82125 11.3101 7.215 11.7038 7.215 12.1851C7.215 12.6663 6.82125 13.0601 6.34 13.0601ZM18.1525 5.62256L19.8675 7.81006H15.965V5.62256H18.1525ZM16.84 13.0601C16.3587 13.0601 15.965 12.6663 15.965 12.1851C15.965 11.7038 16.3587 11.3101 16.84 11.3101C17.3212 11.3101 17.715 11.7038 17.715 12.1851C17.715 12.6663 17.3212 13.0601 16.84 13.0601Z" fill="#FF3C53"/>
</svg>
