<svg width="11" height="11" viewBox="0 0 11 11" fill="none" xmlns="http://www.w3.org/2000/svg">
<path d="M9.79498 1.81006H1.04498C0.879223 1.81006 0.720251 1.8803 0.603041 2.00532C0.485831 2.13034 0.419983 2.29991 0.419983 2.47673V9.14339C0.419983 9.3202 0.485831 9.48977 0.603041 9.6148C0.720251 9.73982 0.879223 9.81006 1.04498 9.81006H9.79498C9.96074 9.81006 10.1197 9.73982 10.2369 9.6148C10.3541 9.48977 10.42 9.3202 10.42 9.14339V2.47673C10.42 2.29991 10.3541 2.13034 10.2369 2.00532C10.1197 1.8803 9.96074 1.81006 9.79498 1.81006ZM1.4231 2.47673C1.50085 2.47407 1.57756 2.49623 1.64342 2.54037C1.70928 2.58451 1.76129 2.64862 1.79278 2.72448C1.82427 2.80035 1.83382 2.88451 1.82019 2.9662C1.80655 3.04788 1.77037 3.12337 1.71627 3.18298C1.66217 3.24259 1.59262 3.28362 1.51653 3.30081C1.44043 3.318 1.36126 3.31056 1.28915 3.27945C1.21704 3.24835 1.15528 3.19499 1.11178 3.12621C1.06828 3.05743 1.04502 2.97636 1.04498 2.89339C1.04493 2.78516 1.08437 2.68115 1.15494 2.60338C1.22551 2.52561 1.32169 2.48019 1.4231 2.47673ZM1.4231 9.14339C1.34585 9.14339 1.27033 9.11896 1.20609 9.07317C1.14185 9.02739 1.09178 8.96231 1.06222 8.88618C1.03265 8.81004 1.02492 8.72626 1.03999 8.64544C1.05506 8.56461 1.09226 8.49037 1.14689 8.4321C1.20152 8.37383 1.27113 8.33414 1.3469 8.31807C1.42267 8.30199 1.50121 8.31024 1.57259 8.34178C1.64397 8.37331 1.70498 8.42672 1.7479 8.49524C1.79082 8.56376 1.81373 8.64432 1.81373 8.72673C1.81373 8.83723 1.77257 8.94321 1.69932 9.02136C1.62606 9.0995 1.52671 9.14339 1.4231 9.14339ZM3.00436 7.21673C2.59712 7.22647 2.20242 7.0662 1.90436 6.77006L2.17311 6.41673C2.4014 6.64982 2.70399 6.78202 3.01998 6.78673C3.33248 6.78673 3.50435 6.62006 3.50435 6.42339C3.50435 6.22673 3.31998 6.12006 2.90748 6.01673C2.37623 5.88339 2.00436 5.72006 2.00436 5.20339C2.00436 4.68673 2.3856 4.37339 2.94185 4.37339C3.3004 4.36637 3.64835 4.50317 3.91685 4.75673L3.66373 5.12339C3.45894 4.92741 3.19505 4.81624 2.91998 4.81006C2.8177 4.79684 2.71467 4.82725 2.63331 4.89468C2.55196 4.9621 2.49887 5.06108 2.4856 5.17006C2.4856 5.39339 2.67623 5.47339 3.0856 5.57339C3.6231 5.70339 3.98248 5.88673 3.98248 6.38673C3.98248 6.88673 3.61998 7.21673 3.00436 7.21673ZM5.35123 7.21673C4.944 7.22647 4.5493 7.0662 4.25123 6.77006L4.51998 6.41673C4.74827 6.64982 5.05086 6.78202 5.36686 6.78673C5.67936 6.78673 5.85123 6.62006 5.85123 6.42339C5.85123 6.22673 5.66685 6.12006 5.25435 6.01673C4.7231 5.88339 4.35123 5.72006 4.35123 5.20339C4.35123 4.68673 4.73561 4.37339 5.28873 4.37339C5.64738 4.36571 5.99555 4.5026 6.26373 4.75673L6.0106 5.12339C5.80936 4.92087 5.54641 4.80252 5.26998 4.79006C5.1677 4.77684 5.06467 4.80725 4.98331 4.87468C4.90196 4.9421 4.84887 5.04108 4.8356 5.15006C4.8356 5.37339 5.02623 5.45339 5.4356 5.55339C5.9731 5.68339 6.33248 5.86673 6.33248 6.36673C6.33248 6.86673 5.96686 7.21673 5.35123 7.21673ZM6.78248 7.17006V4.42339H7.68873C8.53873 4.42339 9.13873 4.99339 9.13873 5.79673C9.13873 6.60006 8.54498 7.17006 7.68873 7.17006H6.78248ZM9.3856 9.14339C9.30835 9.14339 9.23282 9.11896 9.16859 9.07317C9.10435 9.02739 9.05428 8.96231 9.02471 8.88618C8.99515 8.81004 8.98741 8.72626 9.00249 8.64544C9.01756 8.56461 9.05476 8.49037 9.10939 8.4321C9.16402 8.37383 9.23362 8.33414 9.3094 8.31807C9.38517 8.30199 9.46371 8.31024 9.53509 8.34178C9.60647 8.37331 9.66748 8.42672 9.7104 8.49524C9.75332 8.56376 9.77623 8.64432 9.77623 8.72673C9.77623 8.83723 9.73507 8.94321 9.66182 9.02136C9.58856 9.0995 9.48921 9.14339 9.3856 9.14339ZM9.3856 3.31006C9.30835 3.31006 9.23282 3.28562 9.16859 3.23984C9.10435 3.19406 9.05428 3.12898 9.02471 3.05284C8.99515 2.97671 8.98741 2.89293 9.00249 2.81211C9.01756 2.73128 9.05476 2.65704 9.10939 2.59876C9.16402 2.54049 9.23362 2.50081 9.3094 2.48473C9.38517 2.46865 9.46371 2.47691 9.53509 2.50844C9.60647 2.53998 9.66748 2.59338 9.7104 2.6619C9.75332 2.73042 9.77623 2.81098 9.77623 2.89339C9.77623 3.0039 9.73507 3.10988 9.66182 3.18802C9.58856 3.26616 9.48921 3.31006 9.3856 3.31006Z" fill="#6D6E72"/>
<path d="M7.29498 4.81187H7.72866C7.8335 4.80367 7.93851 4.82342 8.03725 4.86988C8.13599 4.91634 8.22637 4.98854 8.30283 5.08203C8.37929 5.17552 8.44021 5.28834 8.48185 5.41354C8.5235 5.53874 8.54498 5.67368 8.54498 5.81006C8.54498 5.94644 8.5235 6.08138 8.48185 6.20658C8.44021 6.33178 8.37929 6.4446 8.30283 6.53809C8.22637 6.63159 8.13599 6.70378 8.03725 6.75024C7.93851 6.7967 7.8335 6.81645 7.72866 6.80825H7.29498V4.81187Z" fill="#6D6E72"/>
</svg>
