<svg width="11" height="11" viewBox="0 0 11 11" fill="none" xmlns="http://www.w3.org/2000/svg">
<path d="M10.5975 9.18207H10.285V10.0255C10.285 10.1016 10.2541 10.1675 10.1922 10.2232C10.1304 10.2788 10.0571 10.3066 9.9725 10.3066C9.88786 10.3066 9.81462 10.2788 9.75277 10.2232C9.69092 10.1675 9.66 10.1016 9.66 10.0255V9.18207H9.035V10.0255C9.035 10.1016 9.00408 10.1675 8.94223 10.2232C8.88038 10.2788 8.80714 10.3066 8.7225 10.3066C8.63786 10.3066 8.56462 10.2788 8.50277 10.2232C8.44092 10.1675 8.41 10.1016 8.41 10.0255V9.18207H7.785V10.0255C7.785 10.1016 7.75408 10.1675 7.69223 10.2232C7.63038 10.2788 7.55714 10.3066 7.4725 10.3066C7.38786 10.3066 7.31462 10.2788 7.25277 10.2232C7.19092 10.1675 7.16 10.1016 7.16 10.0255V9.18207H6.535V10.0255C6.535 10.1016 6.50408 10.1675 6.44223 10.2232C6.38038 10.2788 6.30714 10.3066 6.2225 10.3066C6.13786 10.3066 6.06462 10.2788 6.00277 10.2232C5.94092 10.1675 5.91 10.1016 5.91 10.0255V9.18207H5.285V10.0255C5.285 10.1016 5.25408 10.1675 5.19223 10.2232C5.13038 10.2788 5.05714 10.3066 4.9725 10.3066C4.88786 10.3066 4.81462 10.2788 4.75277 10.2232C4.69092 10.1675 4.66 10.1016 4.66 10.0255V9.18207H4.035V10.0255C4.035 10.1016 4.00408 10.1675 3.94223 10.2232C3.88038 10.2788 3.80714 10.3066 3.7225 10.3066C3.63786 10.3066 3.56462 10.2788 3.50277 10.2232C3.44092 10.1675 3.41 10.1016 3.41 10.0255V9.18207H2.16L1.95492 2.51182H10.5975C10.6821 2.51182 10.7554 2.53964 10.8172 2.59529C10.8791 2.65093 10.91 2.71682 10.91 2.79297V8.90093C10.91 8.97707 10.8791 9.04297 10.8172 9.09861C10.7554 9.15425 10.6821 9.18207 10.5975 9.18207ZM10.285 4.12149C10.285 3.96921 10.2248 3.83742 10.1043 3.72614C9.98389 3.61485 9.83578 3.55921 9.66 3.55921H5.285C5.11573 3.55921 4.96924 3.61485 4.84555 3.72614C4.72185 3.83742 4.66 3.96921 4.66 4.12149V7.49521C4.66 7.65336 4.72185 7.78661 4.84555 7.89497C4.96924 8.00332 5.11573 8.0575 5.285 8.0575H9.66C9.83578 8.0575 9.98389 8.00332 10.1043 7.89497C10.2248 7.78661 10.285 7.65336 10.285 7.49521V4.12149ZM9.3475 7.49521H5.5975C5.51286 7.49521 5.43962 7.46739 5.37777 7.41175C5.31592 7.35611 5.285 7.29021 5.285 7.21407V4.40264C5.285 4.3265 5.31592 4.2606 5.37777 4.20496C5.43962 4.14932 5.51286 4.12149 5.5975 4.12149H9.3475C9.43214 4.12149 9.50538 4.14932 9.56723 4.20496C9.62908 4.2606 9.66 4.3265 9.66 4.40264V7.21407C9.66 7.29021 9.62908 7.35611 9.56723 7.41175C9.50538 7.46739 9.43214 7.49521 9.3475 7.49521ZM7.785 4.68378C7.43995 4.68378 7.14535 4.7936 6.90121 5.01325C6.65707 5.23289 6.535 5.49793 6.535 5.80835C6.535 6.11878 6.65707 6.38382 6.90121 6.60346C7.14535 6.82311 7.43995 6.93293 7.785 6.93293C8.13005 6.93293 8.42465 6.82311 8.66879 6.60346C8.91293 6.38382 9.035 6.11878 9.035 5.80835C9.035 5.49793 8.91293 5.23289 8.66879 5.01325C8.42465 4.7936 8.13005 4.68378 7.785 4.68378ZM7.78988 6.37064C7.61736 6.37064 7.46924 6.31646 7.34555 6.20811C7.22185 6.09975 7.16 5.96796 7.16 5.81275C7.16 5.65753 7.22185 5.52428 7.34555 5.413C7.46924 5.30171 7.61736 5.24607 7.78988 5.24607C7.96241 5.24607 8.10889 5.30025 8.22934 5.4086C8.34978 5.51696 8.41 5.65021 8.41 5.80835C8.41 5.9665 8.34978 6.09975 8.22934 6.20811C8.10889 6.31646 7.96241 6.37064 7.78988 6.37064ZM2.56527 8.33362V10.0255C2.56527 10.1016 2.53435 10.1675 2.4725 10.2232C2.34723 10.3359 1.93214 10.3066 1.8475 10.3066C1.76287 10.3066 1.68963 10.2788 1.62778 10.2232C1.56593 10.1675 1.535 10.1016 1.535 10.0255V1.95267H1.2225C1.13787 1.95267 1.06463 1.92485 1.00278 1.86921C0.940928 1.81357 0.910004 1.70751 0.910004 1.63137C0.910004 1.47824 0.940928 1.44917 1.00278 1.39352C1.06463 1.33788 1.13787 1.31006 1.2225 1.31006H1.8475C1.87355 1.31006 1.89308 1.31299 1.9061 1.31884C2.16 1.31006 2.16 1.31006 2.4725 1.31006C2.785 1.31006 2.785 1.56108 2.785 1.63137L2.56527 8.33362Z" fill="#6D6E72"/>
</svg>
