<svg width="11" height="11" viewBox="0 0 11 11" fill="none" xmlns="http://www.w3.org/2000/svg">
<path d="M10.015 1.81006H1.26501C1.09925 1.81006 0.940283 1.8803 0.823073 2.00532C0.705863 2.13034 0.640015 2.29991 0.640015 2.47673V9.14339C0.640015 9.3202 0.705863 9.48977 0.823073 9.6148C0.940283 9.73982 1.09925 9.81006 1.26501 9.81006H10.015C10.1808 9.81006 10.3397 9.73982 10.457 9.6148C10.5742 9.48977 10.64 9.3202 10.64 9.14339V2.47673C10.64 2.29991 10.5742 2.13034 10.457 2.00532C10.3397 1.8803 10.1808 1.81006 10.015 1.81006ZM1.64313 2.47673C1.72088 2.47407 1.79759 2.49623 1.86345 2.54037C1.92931 2.58451 1.98132 2.64862 2.01281 2.72448C2.0443 2.80035 2.05385 2.88451 2.04022 2.9662C2.02658 3.04788 1.9904 3.12337 1.9363 3.18298C1.8822 3.24259 1.81265 3.28362 1.73656 3.30081C1.66046 3.318 1.58129 3.31056 1.50919 3.27945C1.43708 3.24835 1.37532 3.19499 1.33182 3.12621C1.28831 3.05743 1.26505 2.97636 1.26501 2.89339C1.26496 2.78516 1.3044 2.68115 1.37497 2.60338C1.44555 2.52561 1.54172 2.48019 1.64313 2.47673ZM1.64313 9.14339C1.56588 9.14339 1.49036 9.11896 1.42612 9.07317C1.36188 9.02739 1.31181 8.96231 1.28225 8.88618C1.25268 8.81004 1.24495 8.72626 1.26002 8.64544C1.27509 8.56461 1.3123 8.49037 1.36693 8.4321C1.42156 8.37383 1.49116 8.33414 1.56693 8.31807C1.6427 8.30199 1.72124 8.31024 1.79262 8.34178C1.864 8.37331 1.92501 8.42672 1.96793 8.49524C2.01085 8.56376 2.03376 8.64432 2.03376 8.72673C2.03376 8.83723 1.9926 8.94321 1.91935 9.02136C1.84609 9.0995 1.74674 9.14339 1.64313 9.14339ZM3.22439 7.21673C2.81715 7.22647 2.42245 7.0662 2.12439 6.77006L2.39314 6.41673C2.62143 6.64982 2.92402 6.78202 3.24001 6.78673C3.55251 6.78673 3.72438 6.62006 3.72438 6.42339C3.72438 6.22673 3.54001 6.12006 3.12751 6.01673C2.59626 5.88339 2.22439 5.72006 2.22439 5.20339C2.22439 4.68673 2.60563 4.37339 3.16188 4.37339C3.52043 4.36637 3.86838 4.50317 4.13688 4.75673L3.88376 5.12339C3.67897 4.92741 3.41508 4.81624 3.14001 4.81006C3.03773 4.79684 2.9347 4.82725 2.85334 4.89468C2.77199 4.9621 2.7189 5.06108 2.70563 5.17006C2.70563 5.39339 2.89626 5.47339 3.30563 5.57339C3.84313 5.70339 4.20251 5.88673 4.20251 6.38673C4.20251 6.88673 3.84001 7.21673 3.22439 7.21673ZM5.57126 7.21673C5.16403 7.22647 4.76933 7.0662 4.47126 6.77006L4.74001 6.41673C4.9683 6.64982 5.27089 6.78202 5.58689 6.78673C5.89939 6.78673 6.07126 6.62006 6.07126 6.42339C6.07126 6.22673 5.88688 6.12006 5.47438 6.01673C4.94313 5.88339 4.57126 5.72006 4.57126 5.20339C4.57126 4.68673 4.95564 4.37339 5.50876 4.37339C5.86741 4.36571 6.21558 4.5026 6.48376 4.75673L6.23063 5.12339C6.02939 4.92087 5.76644 4.80252 5.49001 4.79006C5.38773 4.77684 5.2847 4.80725 5.20334 4.87468C5.12199 4.9421 5.0689 5.04108 5.05563 5.15006C5.05563 5.37339 5.24626 5.45339 5.65563 5.55339C6.19313 5.68339 6.55251 5.86673 6.55251 6.36673C6.55251 6.86673 6.18689 7.21673 5.57126 7.21673ZM7.00251 7.17006V4.42339H7.90876C8.75876 4.42339 9.35876 4.99339 9.35876 5.79673C9.35876 6.60006 8.76501 7.17006 7.90876 7.17006H7.00251ZM9.60563 9.14339C9.52838 9.14339 9.45285 9.11896 9.38862 9.07317C9.32438 9.02739 9.27431 8.96231 9.24474 8.88618C9.21518 8.81004 9.20744 8.72626 9.22252 8.64544C9.23759 8.56461 9.27479 8.49037 9.32942 8.4321C9.38405 8.37383 9.45365 8.33414 9.52943 8.31807C9.6052 8.30199 9.68375 8.31024 9.75513 8.34178C9.82651 8.37331 9.88751 8.42672 9.93043 8.49524C9.97335 8.56376 9.99626 8.64432 9.99626 8.72673C9.99626 8.83723 9.95511 8.94321 9.88186 9.02136C9.8086 9.0995 9.70924 9.14339 9.60563 9.14339ZM9.60563 3.31006C9.52838 3.31006 9.45285 3.28562 9.38862 3.23984C9.32438 3.19406 9.27431 3.12898 9.24474 3.05284C9.21518 2.97671 9.20744 2.89293 9.22252 2.81211C9.23759 2.73128 9.27479 2.65704 9.32942 2.59876C9.38405 2.54049 9.45365 2.50081 9.52943 2.48473C9.6052 2.46865 9.68375 2.47691 9.75513 2.50844C9.82651 2.53998 9.88751 2.59338 9.93043 2.6619C9.97335 2.73042 9.99626 2.81098 9.99626 2.89339C9.99626 3.0039 9.95511 3.10988 9.88186 3.18802C9.8086 3.26616 9.70924 3.31006 9.60563 3.31006Z" fill="#6D6E72"/>
<path d="M7.51501 4.81187H7.94869C8.05353 4.80367 8.15854 4.82342 8.25728 4.86988C8.35602 4.91634 8.4464 4.98854 8.52286 5.08203C8.59932 5.17552 8.66024 5.28834 8.70188 5.41354C8.74353 5.53874 8.76501 5.67368 8.76501 5.81006C8.76501 5.94644 8.74353 6.08138 8.70188 6.20658C8.66024 6.33178 8.59932 6.4446 8.52286 6.53809C8.4464 6.63159 8.35602 6.70378 8.25728 6.75024C8.15854 6.7967 8.05353 6.81645 7.94869 6.80825H7.51501V4.81187Z" fill="#6D6E72"/>
</svg>
