<svg width="11" height="11" viewBox="0 0 11 11" fill="none" xmlns="http://www.w3.org/2000/svg">
<path d="M10.2975 9.18207H9.985V10.0255C9.985 10.1016 9.95408 10.1675 9.89223 10.2232C9.83038 10.2788 9.75714 10.3066 9.6725 10.3066C9.58786 10.3066 9.51462 10.2788 9.45277 10.2232C9.39092 10.1675 9.36 10.1016 9.36 10.0255V9.18207H8.735V10.0255C8.735 10.1016 8.70408 10.1675 8.64223 10.2232C8.58038 10.2788 8.50714 10.3066 8.4225 10.3066C8.33786 10.3066 8.26462 10.2788 8.20277 10.2232C8.14092 10.1675 8.11 10.1016 8.11 10.0255V9.18207H7.485V10.0255C7.485 10.1016 7.45408 10.1675 7.39223 10.2232C7.33038 10.2788 7.25714 10.3066 7.1725 10.3066C7.08786 10.3066 7.01462 10.2788 6.95277 10.2232C6.89092 10.1675 6.86 10.1016 6.86 10.0255V9.18207H6.235V10.0255C6.235 10.1016 6.20408 10.1675 6.14223 10.2232C6.08038 10.2788 6.00714 10.3066 5.9225 10.3066C5.83786 10.3066 5.76462 10.2788 5.70277 10.2232C5.64092 10.1675 5.61 10.1016 5.61 10.0255V9.18207H4.985V10.0255C4.985 10.1016 4.95408 10.1675 4.89223 10.2232C4.83038 10.2788 4.75714 10.3066 4.6725 10.3066C4.58786 10.3066 4.51462 10.2788 4.45277 10.2232C4.39092 10.1675 4.36 10.1016 4.36 10.0255V9.18207H3.735V10.0255C3.735 10.1016 3.70408 10.1675 3.64223 10.2232C3.58038 10.2788 3.50714 10.3066 3.4225 10.3066C3.33786 10.3066 3.26462 10.2788 3.20277 10.2232C3.14092 10.1675 3.11 10.1016 3.11 10.0255V9.18207H1.86L1.65492 2.51182H10.2975C10.3821 2.51182 10.4554 2.53964 10.5172 2.59529C10.5791 2.65093 10.61 2.71682 10.61 2.79297V8.90093C10.61 8.97707 10.5791 9.04297 10.5172 9.09861C10.4554 9.15425 10.3821 9.18207 10.2975 9.18207ZM9.985 4.12149C9.985 3.96921 9.92478 3.83742 9.80434 3.72614C9.68389 3.61485 9.53578 3.55921 9.36 3.55921H4.985C4.81573 3.55921 4.66924 3.61485 4.54555 3.72614C4.42185 3.83742 4.36 3.96921 4.36 4.12149V7.49521C4.36 7.65336 4.42185 7.78661 4.54555 7.89497C4.66924 8.00332 4.81573 8.0575 4.985 8.0575H9.36C9.53578 8.0575 9.68389 8.00332 9.80434 7.89497C9.92478 7.78661 9.985 7.65336 9.985 7.49521V4.12149ZM9.0475 7.49521H5.2975C5.21286 7.49521 5.13962 7.46739 5.07777 7.41175C5.01592 7.35611 4.985 7.29021 4.985 7.21407V4.40264C4.985 4.3265 5.01592 4.2606 5.07777 4.20496C5.13962 4.14932 5.21286 4.12149 5.2975 4.12149H9.0475C9.13214 4.12149 9.20538 4.14932 9.26723 4.20496C9.32908 4.2606 9.36 4.3265 9.36 4.40264V7.21407C9.36 7.29021 9.32908 7.35611 9.26723 7.41175C9.20538 7.46739 9.13214 7.49521 9.0475 7.49521ZM7.485 4.68378C7.13995 4.68378 6.84535 4.7936 6.60121 5.01325C6.35707 5.23289 6.235 5.49793 6.235 5.80835C6.235 6.11878 6.35707 6.38382 6.60121 6.60346C6.84535 6.82311 7.13995 6.93293 7.485 6.93293C7.83005 6.93293 8.12465 6.82311 8.36879 6.60346C8.61293 6.38382 8.735 6.11878 8.735 5.80835C8.735 5.49793 8.61293 5.23289 8.36879 5.01325C8.12465 4.7936 7.83005 4.68378 7.485 4.68378ZM7.48988 6.37064C7.31736 6.37064 7.16924 6.31646 7.04555 6.20811C6.92185 6.09975 6.86 5.96796 6.86 5.81275C6.86 5.65753 6.92185 5.52428 7.04555 5.413C7.16924 5.30171 7.31736 5.24607 7.48988 5.24607C7.66241 5.24607 7.80889 5.30025 7.92934 5.4086C8.04978 5.51696 8.11 5.65021 8.11 5.80835C8.11 5.9665 8.04978 6.09975 7.92934 6.20811C7.80889 6.31646 7.66241 6.37064 7.48988 6.37064ZM2.26527 8.33362V10.0255C2.26527 10.1016 2.23435 10.1675 2.1725 10.2232C2.04723 10.3359 1.63214 10.3066 1.5475 10.3066C1.46287 10.3066 1.38962 10.2788 1.32777 10.2232C1.26592 10.1675 1.235 10.1016 1.235 10.0255V1.95267H0.922501C0.837866 1.95267 0.764623 1.92485 0.702774 1.86921C0.640925 1.81357 0.610001 1.70751 0.610001 1.63137C0.610001 1.47824 0.640925 1.44917 0.702774 1.39352C0.764623 1.33788 0.837866 1.31006 0.922501 1.31006H1.5475C1.57354 1.31006 1.59307 1.31299 1.60609 1.31884C1.86 1.31006 1.86 1.31006 2.1725 1.31006C2.485 1.31006 2.485 1.56108 2.485 1.63137L2.26527 8.33362Z" fill="#6D6E72"/>
</svg>
