<svg width="6" height="8" viewBox="0 0 6 8" fill="none" xmlns="http://www.w3.org/2000/svg">
<path d="M5.41998 4.65319C5.41998 5.06779 5.27118 5.42749 4.97368 5.73219C4.68118 6.03189 4.25468 6.22419 3.69436 6.30909V7.14089H2.8018V6.33909C2.4299 6.31409 2.07783 6.25169 1.7456 6.15179C1.41337 6.04689 1.13816 5.91949 0.919983 5.76959L1.40345 4.67569C1.63651 4.83049 1.90676 4.95539 2.2142 5.05029C2.52163 5.14519 2.82411 5.19269 3.12163 5.19269C3.68692 5.19269 3.96957 5.05029 3.96957 4.76559C3.96957 4.61569 3.88775 4.50579 3.72411 4.43589C3.56544 4.36089 3.30759 4.28349 2.95056 4.20359C2.55882 4.11869 2.23155 4.02879 1.96874 3.93379C1.70593 3.83389 1.48031 3.67659 1.29188 3.46179C1.10345 3.24699 1.00924 2.95719 1.00924 2.59259C1.00924 2.16299 1.16296 1.79579 1.47039 1.49109C1.77783 1.18139 2.22163 0.991592 2.8018 0.921592V0.0973816H3.69436V0.906591C3.97701 0.931591 4.24728 0.981592 4.50508 1.05649C4.76788 1.13139 5.00098 1.22879 5.20428 1.34869L4.75058 2.45019C4.25468 2.18049 3.7737 2.04559 3.30758 2.04559C3.01502 2.04559 2.8018 2.09049 2.66792 2.18049C2.53403 2.26539 2.46709 2.37779 2.46709 2.51769C2.46709 2.65749 2.54643 2.76239 2.70511 2.83239C2.86378 2.90229 3.11916 2.97469 3.47122 3.04969C3.86792 3.13459 4.19518 3.22699 4.45308 3.32689C4.71588 3.42179 4.94148 3.57669 5.12988 3.79149C5.32328 4.00129 5.41998 4.28849 5.41998 4.65319Z" fill="#111111"/>
</svg>
